<?xml version="1.0" encoding="UTF-8"?>
<svg xmlns="http://www.w3.org/2000/svg" xmlns:xlink="http://www.w3.org/1999/xlink" width="107" zoomAndPan="magnify" viewBox="0 0 80.25 35.25" height="47" preserveAspectRatio="xMidYMid meet" version="1.0">
  <defs>
    <g></g>
    <clipPath id="0074d568fe">
      <path d="M 0.46875 3.453125 L 79.046875 3.453125 L 79.046875 31.0625 L 0.46875 31.0625 Z M 0.46875 3.453125 " clip-rule="nonzero"></path>
    </clipPath>
    <clipPath id="caa7f2d87c">
      <path d="M 37 5.585938 L 45.800781 5.585938 L 45.800781 19.539062 L 37 19.539062 Z M 37 5.585938 " clip-rule="nonzero"></path>
    </clipPath>
    <clipPath id="d159d21d7d">
      <path d="M 68 25 L 72 25 L 72 33 L 68 33 Z M 68 25 " clip-rule="nonzero"></path>
    </clipPath>
    <clipPath id="3b6ba385e0">
      <path d="M 67.542969 -2.128906 L 85.261719 8.300781 L 68.496094 36.78125 L 50.777344 26.347656 Z M 67.542969 -2.128906 " clip-rule="nonzero"></path>
    </clipPath>
    <clipPath id="8b0541c24d">
      <path d="M 67.542969 -2.128906 L 85.261719 8.300781 L 68.496094 36.78125 L 50.777344 26.347656 Z M 67.542969 -2.128906 " clip-rule="nonzero"></path>
    </clipPath>
    <clipPath id="ebfde43f7e">
      <path d="M 67.542969 -2.128906 L 85.261719 8.300781 L 68.496094 36.78125 L 50.777344 26.347656 Z M 67.542969 -2.128906 " clip-rule="nonzero"></path>
    </clipPath>
    <clipPath id="63ceb4942f">
      <path d="M 60 27 L 69 27 L 69 34 L 60 34 Z M 60 27 " clip-rule="nonzero"></path>
    </clipPath>
    <clipPath id="6d3847311b">
      <path d="M 67.542969 -2.128906 L 85.261719 8.300781 L 68.496094 36.78125 L 50.777344 26.347656 Z M 67.542969 -2.128906 " clip-rule="nonzero"></path>
    </clipPath>
    <clipPath id="fb0a339703">
      <path d="M 67.542969 -2.128906 L 85.261719 8.300781 L 68.496094 36.78125 L 50.777344 26.347656 Z M 67.542969 -2.128906 " clip-rule="nonzero"></path>
    </clipPath>
    <clipPath id="9c916afc3f">
      <path d="M 67.542969 -2.128906 L 85.261719 8.300781 L 68.496094 36.78125 L 50.777344 26.347656 Z M 67.542969 -2.128906 " clip-rule="nonzero"></path>
    </clipPath>
    <clipPath id="d56d950968">
      <path d="M 67 27 L 71 27 L 71 33 L 67 33 Z M 67 27 " clip-rule="nonzero"></path>
    </clipPath>
    <clipPath id="dc263ae2e7">
      <path d="M 67.542969 -2.128906 L 85.261719 8.300781 L 68.496094 36.78125 L 50.777344 26.347656 Z M 67.542969 -2.128906 " clip-rule="nonzero"></path>
    </clipPath>
    <clipPath id="fbed1d11d8">
      <path d="M 67.542969 -2.128906 L 85.261719 8.300781 L 68.496094 36.78125 L 50.777344 26.347656 Z M 67.542969 -2.128906 " clip-rule="nonzero"></path>
    </clipPath>
    <clipPath id="4a709fbd1f">
      <path d="M 67.542969 -2.128906 L 85.261719 8.300781 L 68.496094 36.78125 L 50.777344 26.347656 Z M 67.542969 -2.128906 " clip-rule="nonzero"></path>
    </clipPath>
    <clipPath id="1cfceb7bae">
      <path d="M 65 23 L 71 23 L 71 30 L 65 30 Z M 65 23 " clip-rule="nonzero"></path>
    </clipPath>
    <clipPath id="fd3e3654f9">
      <path d="M 67.542969 -2.128906 L 85.261719 8.300781 L 68.496094 36.78125 L 50.777344 26.347656 Z M 67.542969 -2.128906 " clip-rule="nonzero"></path>
    </clipPath>
    <clipPath id="65aace4402">
      <path d="M 67.542969 -2.128906 L 85.261719 8.300781 L 68.496094 36.78125 L 50.777344 26.347656 Z M 67.542969 -2.128906 " clip-rule="nonzero"></path>
    </clipPath>
    <clipPath id="b55a781ef5">
      <path d="M 67.542969 -2.128906 L 85.261719 8.300781 L 68.496094 36.78125 L 50.777344 26.347656 Z M 67.542969 -2.128906 " clip-rule="nonzero"></path>
    </clipPath>
    <clipPath id="7327a2ca48">
      <path d="M 63 22 L 70 22 L 70 29 L 63 29 Z M 63 22 " clip-rule="nonzero"></path>
    </clipPath>
    <clipPath id="af51233546">
      <path d="M 67.542969 -2.128906 L 85.261719 8.300781 L 68.496094 36.78125 L 50.777344 26.347656 Z M 67.542969 -2.128906 " clip-rule="nonzero"></path>
    </clipPath>
    <clipPath id="c146adb0dc">
      <path d="M 67.542969 -2.128906 L 85.261719 8.300781 L 68.496094 36.78125 L 50.777344 26.347656 Z M 67.542969 -2.128906 " clip-rule="nonzero"></path>
    </clipPath>
    <clipPath id="37a64d1951">
      <path d="M 67.542969 -2.128906 L 85.261719 8.300781 L 68.496094 36.78125 L 50.777344 26.347656 Z M 67.542969 -2.128906 " clip-rule="nonzero"></path>
    </clipPath>
    <clipPath id="c8f89c6eee">
      <path d="M 63 1 L 77 1 L 77 23 L 63 23 Z M 63 1 " clip-rule="nonzero"></path>
    </clipPath>
    <clipPath id="692fa667aa">
      <path d="M 67.542969 -2.128906 L 85.261719 8.300781 L 68.496094 36.78125 L 50.777344 26.347656 Z M 67.542969 -2.128906 " clip-rule="nonzero"></path>
    </clipPath>
    <clipPath id="2710347e0f">
      <path d="M 67.542969 -2.128906 L 85.261719 8.300781 L 68.496094 36.78125 L 50.777344 26.347656 Z M 67.542969 -2.128906 " clip-rule="nonzero"></path>
    </clipPath>
    <clipPath id="acd3b37456">
      <path d="M 67.542969 -2.128906 L 85.261719 8.300781 L 68.496094 36.78125 L 50.777344 26.347656 Z M 67.542969 -2.128906 " clip-rule="nonzero"></path>
    </clipPath>
    <clipPath id="b3df57bb3f">
      <path d="M 60 23 L 67 23 L 67 30 L 60 30 Z M 60 23 " clip-rule="nonzero"></path>
    </clipPath>
    <clipPath id="05676e61f7">
      <path d="M 67.542969 -2.128906 L 85.261719 8.300781 L 68.496094 36.78125 L 50.777344 26.347656 Z M 67.542969 -2.128906 " clip-rule="nonzero"></path>
    </clipPath>
    <clipPath id="28c13a3ffb">
      <path d="M 67.542969 -2.128906 L 85.261719 8.300781 L 68.496094 36.78125 L 50.777344 26.347656 Z M 67.542969 -2.128906 " clip-rule="nonzero"></path>
    </clipPath>
    <clipPath id="6d7634795b">
      <path d="M 67.542969 -2.128906 L 85.261719 8.300781 L 68.496094 36.78125 L 50.777344 26.347656 Z M 67.542969 -2.128906 " clip-rule="nonzero"></path>
    </clipPath>
    <clipPath id="2533e54224">
      <path d="M 61 26 L 69 26 L 69 32 L 61 32 Z M 61 26 " clip-rule="nonzero"></path>
    </clipPath>
    <clipPath id="19e37e2a26">
      <path d="M 67.542969 -2.128906 L 85.261719 8.300781 L 68.496094 36.78125 L 50.777344 26.347656 Z M 67.542969 -2.128906 " clip-rule="nonzero"></path>
    </clipPath>
    <clipPath id="11bd30547c">
      <path d="M 67.542969 -2.128906 L 85.261719 8.300781 L 68.496094 36.78125 L 50.777344 26.347656 Z M 67.542969 -2.128906 " clip-rule="nonzero"></path>
    </clipPath>
    <clipPath id="d89a073f7a">
      <path d="M 67.542969 -2.128906 L 85.261719 8.300781 L 68.496094 36.78125 L 50.777344 26.347656 Z M 67.542969 -2.128906 " clip-rule="nonzero"></path>
    </clipPath>
    <clipPath id="958c7e895a">
      <path d="M 66 18 L 68 18 L 68 24 L 66 24 Z M 66 18 " clip-rule="nonzero"></path>
    </clipPath>
    <clipPath id="df4f4a9d36">
      <path d="M 67.542969 -2.128906 L 85.261719 8.300781 L 68.496094 36.78125 L 50.777344 26.347656 Z M 67.542969 -2.128906 " clip-rule="nonzero"></path>
    </clipPath>
    <clipPath id="499ac68fb3">
      <path d="M 67.542969 -2.128906 L 85.261719 8.300781 L 68.496094 36.78125 L 50.777344 26.347656 Z M 67.542969 -2.128906 " clip-rule="nonzero"></path>
    </clipPath>
    <clipPath id="ee1bc550d3">
      <path d="M 67.542969 -2.128906 L 85.261719 8.300781 L 68.496094 36.78125 L 50.777344 26.347656 Z M 67.542969 -2.128906 " clip-rule="nonzero"></path>
    </clipPath>
    <clipPath id="3354be0553">
      <path d="M 64 23 L 72 23 L 72 29 L 64 29 Z M 64 23 " clip-rule="nonzero"></path>
    </clipPath>
    <clipPath id="58a321dc4f">
      <path d="M 67.542969 -2.128906 L 85.261719 8.300781 L 68.496094 36.78125 L 50.777344 26.347656 Z M 67.542969 -2.128906 " clip-rule="nonzero"></path>
    </clipPath>
    <clipPath id="508e822473">
      <path d="M 67.542969 -2.128906 L 85.261719 8.300781 L 68.496094 36.78125 L 50.777344 26.347656 Z M 67.542969 -2.128906 " clip-rule="nonzero"></path>
    </clipPath>
    <clipPath id="cc67efc6bf">
      <path d="M 67.542969 -2.128906 L 85.261719 8.300781 L 68.496094 36.78125 L 50.777344 26.347656 Z M 67.542969 -2.128906 " clip-rule="nonzero"></path>
    </clipPath>
    <clipPath id="a336e56241">
      <path d="M 67 24 L 72 24 L 72 30 L 67 30 Z M 67 24 " clip-rule="nonzero"></path>
    </clipPath>
    <clipPath id="4688be9a01">
      <path d="M 67.542969 -2.128906 L 85.261719 8.300781 L 68.496094 36.78125 L 50.777344 26.347656 Z M 67.542969 -2.128906 " clip-rule="nonzero"></path>
    </clipPath>
    <clipPath id="7258045489">
      <path d="M 67.542969 -2.128906 L 85.261719 8.300781 L 68.496094 36.78125 L 50.777344 26.347656 Z M 67.542969 -2.128906 " clip-rule="nonzero"></path>
    </clipPath>
    <clipPath id="1a7c9df04e">
      <path d="M 67.542969 -2.128906 L 85.261719 8.300781 L 68.496094 36.78125 L 50.777344 26.347656 Z M 67.542969 -2.128906 " clip-rule="nonzero"></path>
    </clipPath>
    <clipPath id="7624056eea">
      <path d="M 63 22 L 70 22 L 70 28 L 63 28 Z M 63 22 " clip-rule="nonzero"></path>
    </clipPath>
    <clipPath id="ca9847679d">
      <path d="M 67.542969 -2.128906 L 85.261719 8.300781 L 68.496094 36.78125 L 50.777344 26.347656 Z M 67.542969 -2.128906 " clip-rule="nonzero"></path>
    </clipPath>
    <clipPath id="8180f78525">
      <path d="M 67.542969 -2.128906 L 85.261719 8.300781 L 68.496094 36.78125 L 50.777344 26.347656 Z M 67.542969 -2.128906 " clip-rule="nonzero"></path>
    </clipPath>
    <clipPath id="d897ccd1eb">
      <path d="M 67.542969 -2.128906 L 85.261719 8.300781 L 68.496094 36.78125 L 50.777344 26.347656 Z M 67.542969 -2.128906 " clip-rule="nonzero"></path>
    </clipPath>
    <clipPath id="2970843697">
      <path d="M 67 29 L 70 29 L 70 33 L 67 33 Z M 67 29 " clip-rule="nonzero"></path>
    </clipPath>
    <clipPath id="fce6ffd20c">
      <path d="M 67.542969 -2.128906 L 85.261719 8.300781 L 68.496094 36.78125 L 50.777344 26.347656 Z M 67.542969 -2.128906 " clip-rule="nonzero"></path>
    </clipPath>
    <clipPath id="e77c49379c">
      <path d="M 67.542969 -2.128906 L 85.261719 8.300781 L 68.496094 36.78125 L 50.777344 26.347656 Z M 67.542969 -2.128906 " clip-rule="nonzero"></path>
    </clipPath>
    <clipPath id="4aab418eea">
      <path d="M 67.542969 -2.128906 L 85.261719 8.300781 L 68.496094 36.78125 L 50.777344 26.347656 Z M 67.542969 -2.128906 " clip-rule="nonzero"></path>
    </clipPath>
    <clipPath id="a3859a664f">
      <path d="M 68 26 L 71 26 L 71 33 L 68 33 Z M 68 26 " clip-rule="nonzero"></path>
    </clipPath>
    <clipPath id="c29ed93332">
      <path d="M 67.542969 -2.128906 L 85.261719 8.300781 L 68.496094 36.78125 L 50.777344 26.347656 Z M 67.542969 -2.128906 " clip-rule="nonzero"></path>
    </clipPath>
    <clipPath id="daf774dd8b">
      <path d="M 67.542969 -2.128906 L 85.261719 8.300781 L 68.496094 36.78125 L 50.777344 26.347656 Z M 67.542969 -2.128906 " clip-rule="nonzero"></path>
    </clipPath>
    <clipPath id="da9e3e052c">
      <path d="M 67.542969 -2.128906 L 85.261719 8.300781 L 68.496094 36.78125 L 50.777344 26.347656 Z M 67.542969 -2.128906 " clip-rule="nonzero"></path>
    </clipPath>
    <clipPath id="9656e2d224">
      <path d="M 68 25 L 73 25 L 73 33 L 68 33 Z M 68 25 " clip-rule="nonzero"></path>
    </clipPath>
    <clipPath id="6efdc714f0">
      <path d="M 67.542969 -2.128906 L 85.261719 8.300781 L 68.496094 36.78125 L 50.777344 26.347656 Z M 67.542969 -2.128906 " clip-rule="nonzero"></path>
    </clipPath>
    <clipPath id="040eea91a0">
      <path d="M 67.542969 -2.128906 L 85.261719 8.300781 L 68.496094 36.78125 L 50.777344 26.347656 Z M 67.542969 -2.128906 " clip-rule="nonzero"></path>
    </clipPath>
    <clipPath id="1c487d9529">
      <path d="M 67.542969 -2.128906 L 85.261719 8.300781 L 68.496094 36.78125 L 50.777344 26.347656 Z M 67.542969 -2.128906 " clip-rule="nonzero"></path>
    </clipPath>
    <clipPath id="19c23aaed0">
      <path d="M 63 26 L 68 26 L 68 30 L 63 30 Z M 63 26 " clip-rule="nonzero"></path>
    </clipPath>
    <clipPath id="6f3320e6ea">
      <path d="M 67.542969 -2.128906 L 85.261719 8.300781 L 68.496094 36.78125 L 50.777344 26.347656 Z M 67.542969 -2.128906 " clip-rule="nonzero"></path>
    </clipPath>
    <clipPath id="8b4fb915ca">
      <path d="M 67.542969 -2.128906 L 85.261719 8.300781 L 68.496094 36.78125 L 50.777344 26.347656 Z M 67.542969 -2.128906 " clip-rule="nonzero"></path>
    </clipPath>
    <clipPath id="c5c5cce874">
      <path d="M 67.542969 -2.128906 L 85.261719 8.300781 L 68.496094 36.78125 L 50.777344 26.347656 Z M 67.542969 -2.128906 " clip-rule="nonzero"></path>
    </clipPath>
    <clipPath id="973287cb99">
      <path d="M 60 25 L 65 25 L 65 30 L 60 30 Z M 60 25 " clip-rule="nonzero"></path>
    </clipPath>
    <clipPath id="45eea2159e">
      <path d="M 67.542969 -2.128906 L 85.261719 8.300781 L 68.496094 36.78125 L 50.777344 26.347656 Z M 67.542969 -2.128906 " clip-rule="nonzero"></path>
    </clipPath>
    <clipPath id="bcbfc87c88">
      <path d="M 67.542969 -2.128906 L 85.261719 8.300781 L 68.496094 36.78125 L 50.777344 26.347656 Z M 67.542969 -2.128906 " clip-rule="nonzero"></path>
    </clipPath>
    <clipPath id="593a5bd0df">
      <path d="M 67.542969 -2.128906 L 85.261719 8.300781 L 68.496094 36.78125 L 50.777344 26.347656 Z M 67.542969 -2.128906 " clip-rule="nonzero"></path>
    </clipPath>
    <clipPath id="c379f9a106">
      <path d="M 60 28 L 69 28 L 69 34 L 60 34 Z M 60 28 " clip-rule="nonzero"></path>
    </clipPath>
    <clipPath id="f3935dba1f">
      <path d="M 67.542969 -2.128906 L 85.261719 8.300781 L 68.496094 36.78125 L 50.777344 26.347656 Z M 67.542969 -2.128906 " clip-rule="nonzero"></path>
    </clipPath>
    <clipPath id="a26a98923a">
      <path d="M 67.542969 -2.128906 L 85.261719 8.300781 L 68.496094 36.78125 L 50.777344 26.347656 Z M 67.542969 -2.128906 " clip-rule="nonzero"></path>
    </clipPath>
    <clipPath id="3466a44d13">
      <path d="M 67.542969 -2.128906 L 85.261719 8.300781 L 68.496094 36.78125 L 50.777344 26.347656 Z M 67.542969 -2.128906 " clip-rule="nonzero"></path>
    </clipPath>
    <clipPath id="71c3d87b98">
      <path d="M 61 27 L 69 27 L 69 32 L 61 32 Z M 61 27 " clip-rule="nonzero"></path>
    </clipPath>
    <clipPath id="84a9f222b9">
      <path d="M 67.542969 -2.128906 L 85.261719 8.300781 L 68.496094 36.78125 L 50.777344 26.347656 Z M 67.542969 -2.128906 " clip-rule="nonzero"></path>
    </clipPath>
    <clipPath id="0c72a8dab7">
      <path d="M 67.542969 -2.128906 L 85.261719 8.300781 L 68.496094 36.78125 L 50.777344 26.347656 Z M 67.542969 -2.128906 " clip-rule="nonzero"></path>
    </clipPath>
    <clipPath id="8a50bae024">
      <path d="M 67.542969 -2.128906 L 85.261719 8.300781 L 68.496094 36.78125 L 50.777344 26.347656 Z M 67.542969 -2.128906 " clip-rule="nonzero"></path>
    </clipPath>
    <clipPath id="eba610a17b">
      <path d="M 60 22 L 67 22 L 67 30 L 60 30 Z M 60 22 " clip-rule="nonzero"></path>
    </clipPath>
    <clipPath id="01f4f5254f">
      <path d="M 67.542969 -2.128906 L 85.261719 8.300781 L 68.496094 36.78125 L 50.777344 26.347656 Z M 67.542969 -2.128906 " clip-rule="nonzero"></path>
    </clipPath>
    <clipPath id="109d051eef">
      <path d="M 67.542969 -2.128906 L 85.261719 8.300781 L 68.496094 36.78125 L 50.777344 26.347656 Z M 67.542969 -2.128906 " clip-rule="nonzero"></path>
    </clipPath>
    <clipPath id="3c37622c25">
      <path d="M 67.542969 -2.128906 L 85.261719 8.300781 L 68.496094 36.78125 L 50.777344 26.347656 Z M 67.542969 -2.128906 " clip-rule="nonzero"></path>
    </clipPath>
    <clipPath id="d76a4759a6">
      <path d="M 64 2 L 76 2 L 76 23 L 64 23 Z M 64 2 " clip-rule="nonzero"></path>
    </clipPath>
    <clipPath id="55c43ab9f6">
      <path d="M 67.542969 -2.128906 L 85.261719 8.300781 L 68.496094 36.78125 L 50.777344 26.347656 Z M 67.542969 -2.128906 " clip-rule="nonzero"></path>
    </clipPath>
    <clipPath id="25a0fe30a9">
      <path d="M 67.542969 -2.128906 L 85.261719 8.300781 L 68.496094 36.78125 L 50.777344 26.347656 Z M 67.542969 -2.128906 " clip-rule="nonzero"></path>
    </clipPath>
    <clipPath id="bd21001c6a">
      <path d="M 67.542969 -2.128906 L 85.261719 8.300781 L 68.496094 36.78125 L 50.777344 26.347656 Z M 67.542969 -2.128906 " clip-rule="nonzero"></path>
    </clipPath>
    <clipPath id="8bb7ce1a7a">
      <path d="M 62 1 L 78 1 L 78 23 L 62 23 Z M 62 1 " clip-rule="nonzero"></path>
    </clipPath>
    <clipPath id="301c21dbd6">
      <path d="M 67.542969 -2.128906 L 85.261719 8.300781 L 68.496094 36.78125 L 50.777344 26.347656 Z M 67.542969 -2.128906 " clip-rule="nonzero"></path>
    </clipPath>
    <clipPath id="c78caae401">
      <path d="M 67.542969 -2.128906 L 85.261719 8.300781 L 68.496094 36.78125 L 50.777344 26.347656 Z M 67.542969 -2.128906 " clip-rule="nonzero"></path>
    </clipPath>
    <clipPath id="28cc90ec02">
      <path d="M 67.542969 -2.128906 L 85.261719 8.300781 L 68.496094 36.78125 L 50.777344 26.347656 Z M 67.542969 -2.128906 " clip-rule="nonzero"></path>
    </clipPath>
    <clipPath id="6b7b1a23b0">
      <path d="M 65 18 L 68 18 L 68 24 L 65 24 Z M 65 18 " clip-rule="nonzero"></path>
    </clipPath>
    <clipPath id="8d61c37bcd">
      <path d="M 67.542969 -2.128906 L 85.261719 8.300781 L 68.496094 36.78125 L 50.777344 26.347656 Z M 67.542969 -2.128906 " clip-rule="nonzero"></path>
    </clipPath>
    <clipPath id="75e49c3c8c">
      <path d="M 67.542969 -2.128906 L 85.261719 8.300781 L 68.496094 36.78125 L 50.777344 26.347656 Z M 67.542969 -2.128906 " clip-rule="nonzero"></path>
    </clipPath>
    <clipPath id="d6140aaa95">
      <path d="M 67.542969 -2.128906 L 85.261719 8.300781 L 68.496094 36.78125 L 50.777344 26.347656 Z M 67.542969 -2.128906 " clip-rule="nonzero"></path>
    </clipPath>
    <clipPath id="91ecc7ce91">
      <path d="M 32.84375 21.007812 L 38.335938 21.007812 L 38.335938 26.242188 L 32.84375 26.242188 Z M 32.84375 21.007812 " clip-rule="nonzero"></path>
    </clipPath>
    <clipPath id="1126d4cb1e">
      <path d="M 35.589844 21.007812 L 36.238281 23.003906 L 38.335938 23.003906 L 36.636719 24.242188 L 37.285156 26.242188 L 35.589844 25.003906 L 33.890625 26.242188 L 34.539062 24.242188 L 32.84375 23.003906 L 34.941406 23.003906 Z M 35.589844 21.007812 " clip-rule="nonzero"></path>
    </clipPath>
    <clipPath id="036bbce6ce">
      <path d="M 38.558594 21.007812 L 44.050781 21.007812 L 44.050781 26.242188 L 38.558594 26.242188 Z M 38.558594 21.007812 " clip-rule="nonzero"></path>
    </clipPath>
    <clipPath id="fa6ec5d99c">
      <path d="M 41.304688 21.007812 L 41.953125 23.003906 L 44.050781 23.003906 L 42.351562 24.242188 L 43 26.242188 L 41.304688 25.003906 L 39.609375 26.242188 L 40.253906 24.242188 L 38.558594 23.003906 L 40.65625 23.003906 Z M 41.304688 21.007812 " clip-rule="nonzero"></path>
    </clipPath>
    <clipPath id="f490e75d46">
      <path d="M 44.273438 21.007812 L 49.765625 21.007812 L 49.765625 26.242188 L 44.273438 26.242188 Z M 44.273438 21.007812 " clip-rule="nonzero"></path>
    </clipPath>
    <clipPath id="81bc44396c">
      <path d="M 47.019531 21.007812 L 47.667969 23.003906 L 49.765625 23.003906 L 48.070312 24.242188 L 48.71875 26.242188 L 47.019531 25.003906 L 45.324219 26.242188 L 45.972656 24.242188 L 44.273438 23.003906 L 46.371094 23.003906 Z M 47.019531 21.007812 " clip-rule="nonzero"></path>
    </clipPath>
    <clipPath id="79558f422e">
      <path d="M 49.988281 21.007812 L 55.480469 21.007812 L 55.480469 26.242188 L 49.988281 26.242188 Z M 49.988281 21.007812 " clip-rule="nonzero"></path>
    </clipPath>
    <clipPath id="23cf2cb219">
      <path d="M 52.734375 21.007812 L 53.382812 23.003906 L 55.480469 23.003906 L 53.785156 24.242188 L 54.433594 26.242188 L 52.734375 25.003906 L 51.039062 26.242188 L 51.6875 24.242188 L 49.988281 23.003906 L 52.085938 23.003906 Z M 52.734375 21.007812 " clip-rule="nonzero"></path>
    </clipPath>
    <clipPath id="6db568ec30">
      <path d="M 27.128906 21.007812 L 32.621094 21.007812 L 32.621094 26.242188 L 27.128906 26.242188 Z M 27.128906 21.007812 " clip-rule="nonzero"></path>
    </clipPath>
    <clipPath id="a47ab0f9e7">
      <path d="M 29.875 21.007812 L 30.523438 23.003906 L 32.621094 23.003906 L 30.921875 24.242188 L 31.570312 26.242188 L 29.875 25.003906 L 28.175781 26.242188 L 28.824219 24.242188 L 27.128906 23.003906 L 29.226562 23.003906 Z M 29.875 21.007812 " clip-rule="nonzero"></path>
    </clipPath>
  </defs>
  <g clip-path="url(#0074d568fe)">
    <path fill="#cb6ce6" d="M 0.46875 3.453125 L 79.046875 3.453125 L 79.046875 31.0625 L 0.46875 31.0625 Z M 0.46875 3.453125 " fill-opacity="1" fill-rule="nonzero"></path>
  </g>
  <g fill="#ffffff" fill-opacity="1">
    <g transform="translate(3.920312, 16.855283)">
      <g>
        <path d="M 2.6875 -9.5625 C 3.4375 -9.5625 3.96875 -9.382812 4.28125 -9.03125 C 4.601562 -8.675781 4.765625 -8.144531 4.765625 -7.4375 L 4.765625 -6.984375 C 4.765625 -6.484375 4.679688 -6.070312 4.515625 -5.75 C 4.359375 -5.4375 4.066406 -5.21875 3.640625 -5.09375 C 4.109375 -4.96875 4.441406 -4.726562 4.640625 -4.375 C 4.835938 -4.019531 4.9375 -3.578125 4.9375 -3.046875 L 4.9375 -2.234375 C 4.9375 -1.515625 4.753906 -0.960938 4.390625 -0.578125 C 4.035156 -0.191406 3.488281 0 2.75 0 L 0.546875 0 L 0.546875 -9.5625 Z M 2.4375 -5.5 C 2.863281 -5.5 3.179688 -5.582031 3.390625 -5.75 C 3.609375 -5.925781 3.71875 -6.269531 3.71875 -6.78125 L 3.71875 -7.328125 C 3.71875 -7.753906 3.632812 -8.070312 3.46875 -8.28125 C 3.3125 -8.488281 3.039062 -8.59375 2.65625 -8.59375 L 1.609375 -8.59375 L 1.609375 -5.5 Z M 2.75 -0.96875 C 3.5 -0.96875 3.875 -1.398438 3.875 -2.265625 L 3.875 -3.109375 C 3.875 -3.648438 3.765625 -4.019531 3.546875 -4.21875 C 3.335938 -4.425781 3.003906 -4.53125 2.546875 -4.53125 L 1.609375 -4.53125 L 1.609375 -0.96875 Z M 2.75 -0.96875 "></path>
      </g>
    </g>
  </g>
  <g fill="#ffffff" fill-opacity="1">
    <g transform="translate(9.273004, 16.855283)">
      <g>
        <path d="M 1.625 -1.921875 L 1.25 0 L 0.265625 0 L 2.109375 -9.5625 L 3.640625 -9.5625 L 5.46875 0 L 4.40625 0 L 4.046875 -1.921875 Z M 1.765625 -2.84375 L 3.890625 -2.84375 L 2.8125 -8.359375 Z M 1.765625 -2.84375 "></path>
      </g>
    </g>
  </g>
  <g fill="#ffffff" fill-opacity="1">
    <g transform="translate(15.035331, 16.855283)">
      <g>
        <path d="M 2.671875 -9.5625 C 3.429688 -9.5625 3.976562 -9.375 4.3125 -9 C 4.644531 -8.625 4.8125 -8.082031 4.8125 -7.375 L 4.8125 -6.59375 C 4.8125 -6.0625 4.710938 -5.632812 4.515625 -5.3125 C 4.328125 -4.988281 4.03125 -4.757812 3.625 -4.625 C 4.0625 -4.5 4.367188 -4.265625 4.546875 -3.921875 C 4.734375 -3.578125 4.828125 -3.148438 4.828125 -2.640625 L 4.828125 -1.140625 C 4.828125 -0.929688 4.832031 -0.726562 4.84375 -0.53125 C 4.863281 -0.34375 4.921875 -0.164062 5.015625 0 L 3.9375 0 C 3.875 -0.132812 3.828125 -0.28125 3.796875 -0.4375 C 3.765625 -0.601562 3.75 -0.84375 3.75 -1.15625 L 3.75 -2.65625 C 3.75 -3.195312 3.628906 -3.566406 3.390625 -3.765625 C 3.148438 -3.972656 2.804688 -4.078125 2.359375 -4.078125 L 1.609375 -4.078125 L 1.609375 0 L 0.546875 0 L 0.546875 -9.5625 Z M 2.40625 -5.046875 C 2.832031 -5.046875 3.160156 -5.132812 3.390625 -5.3125 C 3.628906 -5.488281 3.75 -5.835938 3.75 -6.359375 L 3.75 -7.28125 C 3.75 -7.71875 3.664062 -8.046875 3.5 -8.265625 C 3.332031 -8.484375 3.050781 -8.59375 2.65625 -8.59375 L 1.609375 -8.59375 L 1.609375 -5.046875 Z M 2.40625 -5.046875 "></path>
      </g>
    </g>
  </g>
  <g fill="#ffffff" fill-opacity="1">
    <g transform="translate(20.415331, 16.855283)">
      <g>
        <path d="M 2.171875 -4.15625 L 1.609375 -3.203125 L 1.609375 0 L 0.546875 0 L 0.546875 -9.5625 L 1.609375 -9.5625 L 1.609375 -4.9375 L 4.15625 -9.5625 L 5.234375 -9.5625 L 2.8125 -5.203125 L 5.3125 0 L 4.21875 0 Z M 2.171875 -4.15625 "></path>
      </g>
    </g>
  </g>
  <g fill="#ffffff" fill-opacity="1">
    <g transform="translate(26.000149, 16.855283)">
      <g>
        <path d="M 1.9375 0 L 1.9375 -8.59375 L 0.171875 -8.59375 L 0.171875 -9.5625 L 4.765625 -9.5625 L 4.765625 -8.59375 L 3 -8.59375 L 3 0 Z M 1.9375 0 "></path>
      </g>
    </g>
  </g>
  <g fill="#ffffff" fill-opacity="1">
    <g transform="translate(30.956844, 16.855283)">
      <g>
        <path d="M 1.625 -1.921875 L 1.25 0 L 0.265625 0 L 2.109375 -9.5625 L 3.640625 -9.5625 L 5.46875 0 L 4.40625 0 L 4.046875 -1.921875 Z M 1.765625 -2.84375 L 3.890625 -2.84375 L 2.8125 -8.359375 Z M 1.765625 -2.84375 "></path>
      </g>
    </g>
  </g>
  <g fill="#ffffff" fill-opacity="1">
    <g transform="translate(36.726219, 16.855283)">
      <g></g>
    </g>
  </g>
  <g fill="#ffffff" fill-opacity="1">
    <g transform="translate(38.842713, 16.855283)">
      <g></g>
    </g>
  </g>
  <g fill="#ffffff" fill-opacity="1">
    <g transform="translate(40.959207, 16.855283)">
      <g></g>
    </g>
  </g>
  <g fill="#ffffff" fill-opacity="1">
    <g transform="translate(43.075701, 16.855283)">
      <g></g>
    </g>
  </g>
  <g fill="#ffffff" fill-opacity="1">
    <g transform="translate(45.19448, 16.855283)">
      <g>
        <path d="M 1.9375 0 L 1.9375 -8.59375 L 0.171875 -8.59375 L 0.171875 -9.5625 L 4.765625 -9.5625 L 4.765625 -8.59375 L 3 -8.59375 L 3 0 Z M 1.9375 0 "></path>
      </g>
    </g>
  </g>
  <g fill="#ffffff" fill-opacity="1">
    <g transform="translate(50.151175, 16.855283)">
      <g>
        <path d="M 1.609375 -9.5625 L 1.609375 0 L 0.546875 0 L 0.546875 -9.5625 Z M 1.609375 -9.5625 "></path>
      </g>
    </g>
  </g>
  <g fill="#ffffff" fill-opacity="1">
    <g transform="translate(52.308637, 16.855283)">
      <g>
        <path d="M 2.609375 -9.65625 C 3.347656 -9.65625 3.890625 -9.4375 4.234375 -9 C 4.585938 -8.5625 4.765625 -7.976562 4.765625 -7.25 L 4.765625 -6.390625 L 3.75 -6.390625 L 3.75 -7.3125 C 3.75 -7.75 3.660156 -8.085938 3.484375 -8.328125 C 3.304688 -8.566406 3.023438 -8.6875 2.640625 -8.6875 C 2.253906 -8.6875 1.96875 -8.566406 1.78125 -8.328125 C 1.601562 -8.085938 1.515625 -7.75 1.515625 -7.3125 L 1.515625 -2.25 C 1.515625 -1.8125 1.601562 -1.472656 1.78125 -1.234375 C 1.96875 -0.992188 2.253906 -0.875 2.640625 -0.875 C 3.023438 -0.875 3.304688 -0.992188 3.484375 -1.234375 C 3.660156 -1.472656 3.75 -1.8125 3.75 -2.25 L 3.75 -3.5 L 4.765625 -3.5 L 4.765625 -2.3125 C 4.765625 -1.582031 4.585938 -1 4.234375 -0.5625 C 3.890625 -0.125 3.347656 0.09375 2.609375 0.09375 C 1.878906 0.09375 1.335938 -0.125 0.984375 -0.5625 C 0.640625 -1 0.46875 -1.582031 0.46875 -2.3125 L 0.46875 -7.25 C 0.46875 -7.613281 0.507812 -7.941406 0.59375 -8.234375 C 0.675781 -8.535156 0.804688 -8.789062 0.984375 -9 C 1.160156 -9.207031 1.382812 -9.367188 1.65625 -9.484375 C 1.925781 -9.597656 2.242188 -9.65625 2.609375 -9.65625 Z M 2.609375 -9.65625 "></path>
      </g>
    </g>
  </g>
  <g fill="#ffffff" fill-opacity="1">
    <g transform="translate(3.920312, 27.870908)">
      <g>
        <path d="M 2.8125 -9.5625 C 3.59375 -9.5625 4.160156 -9.378906 4.515625 -9.015625 C 4.867188 -8.648438 5.046875 -8.097656 5.046875 -7.359375 L 5.046875 -7.015625 C 5.046875 -6.523438 4.96875 -6.117188 4.8125 -5.796875 C 4.65625 -5.484375 4.40625 -5.25 4.0625 -5.09375 C 4.476562 -4.9375 4.769531 -4.679688 4.9375 -4.328125 C 5.101562 -3.984375 5.1875 -3.554688 5.1875 -3.046875 L 5.1875 -2.265625 C 5.1875 -1.523438 4.992188 -0.960938 4.609375 -0.578125 C 4.234375 -0.191406 3.664062 0 2.90625 0 L 0.546875 0 L 0.546875 -9.5625 Z M 2.046875 -4.296875 L 2.046875 -1.359375 L 2.90625 -1.359375 C 3.164062 -1.359375 3.359375 -1.425781 3.484375 -1.5625 C 3.617188 -1.707031 3.6875 -1.957031 3.6875 -2.3125 L 3.6875 -3.140625 C 3.6875 -3.585938 3.609375 -3.890625 3.453125 -4.046875 C 3.304688 -4.210938 3.0625 -4.296875 2.71875 -4.296875 Z M 2.046875 -8.1875 L 2.046875 -5.671875 L 2.640625 -5.671875 C 2.921875 -5.671875 3.140625 -5.742188 3.296875 -5.890625 C 3.453125 -6.035156 3.53125 -6.296875 3.53125 -6.671875 L 3.53125 -7.203125 C 3.53125 -7.554688 3.46875 -7.804688 3.34375 -7.953125 C 3.226562 -8.109375 3.035156 -8.1875 2.765625 -8.1875 Z M 2.046875 -8.1875 "></path>
      </g>
    </g>
  </g>
  <g fill="#ffffff" fill-opacity="1">
    <g transform="translate(9.464162, 27.870908)">
      <g>
        <path d="M 1.984375 -9.5625 L 1.984375 -2.1875 C 1.984375 -1.84375 2.050781 -1.597656 2.1875 -1.453125 C 2.332031 -1.316406 2.523438 -1.25 2.765625 -1.25 C 2.992188 -1.25 3.175781 -1.316406 3.3125 -1.453125 C 3.457031 -1.597656 3.53125 -1.84375 3.53125 -2.1875 L 3.53125 -9.5625 L 4.953125 -9.5625 L 4.953125 -2.28125 C 4.953125 -1.507812 4.765625 -0.914062 4.390625 -0.5 C 4.015625 -0.0820312 3.457031 0.125 2.71875 0.125 C 1.976562 0.125 1.421875 -0.0820312 1.046875 -0.5 C 0.671875 -0.914062 0.484375 -1.507812 0.484375 -2.28125 L 0.484375 -9.5625 Z M 1.984375 -9.5625 "></path>
      </g>
    </g>
  </g>
  <g fill="#ffffff" fill-opacity="1">
    <g transform="translate(14.898779, 27.870908)">
      <g>
        <path d="M 1.953125 -3.171875 L 0.046875 -9.5625 L 1.625 -9.5625 L 2.765625 -5.203125 L 3.921875 -9.5625 L 5.359375 -9.5625 L 3.453125 -3.171875 L 3.453125 0 L 1.953125 0 Z M 1.953125 -3.171875 "></path>
      </g>
    </g>
  </g>
  <g clip-path="url(#caa7f2d87c)">
    <path fill="#ffb42e" d="M 39.65625 15.675781 C 39.96875 16.007812 40.359375 16.222656 40.824219 16.3125 L 40.824219 13.144531 C 40.773438 13.125 40.703125 13.101562 40.617188 13.074219 C 40.53125 13.050781 40.4375 13.027344 40.339844 13.007812 C 39.964844 12.90625 39.59375 12.785156 39.230469 12.648438 C 38.867188 12.515625 38.542969 12.332031 38.253906 12.105469 C 37.964844 11.875 37.734375 11.59375 37.5625 11.253906 C 37.390625 10.917969 37.304688 10.496094 37.304688 9.988281 C 37.304688 9.472656 37.40625 9.019531 37.601562 8.625 C 37.800781 8.230469 38.058594 7.898438 38.382812 7.632812 C 38.707031 7.363281 39.078125 7.15625 39.503906 7.007812 C 39.929688 6.863281 40.367188 6.773438 40.824219 6.742188 L 40.824219 5.578125 L 41.71875 5.578125 L 41.71875 6.746094 C 42.171875 6.796875 42.601562 6.894531 43 7.039062 C 43.398438 7.1875 43.75 7.390625 44.054688 7.648438 C 44.355469 7.90625 44.605469 8.226562 44.796875 8.609375 C 44.988281 8.996094 45.097656 9.449219 45.128906 9.976562 L 42.976562 9.976562 C 42.964844 9.570312 42.839844 9.226562 42.597656 8.945312 C 42.355469 8.660156 42.0625 8.519531 41.71875 8.519531 L 41.71875 11.203125 C 41.839844 11.230469 41.964844 11.261719 42.089844 11.292969 C 42.21875 11.324219 42.351562 11.359375 42.492188 11.398438 C 43.242188 11.601562 43.816406 11.851562 44.222656 12.148438 C 44.625 12.449219 44.921875 12.757812 45.113281 13.082031 C 45.308594 13.40625 45.421875 13.730469 45.457031 14.054688 C 45.492188 14.375 45.507812 14.664062 45.507812 14.917969 C 45.507812 15.140625 45.453125 15.417969 45.34375 15.757812 C 45.230469 16.097656 45.03125 16.425781 44.742188 16.75 C 44.457031 17.074219 44.070312 17.363281 43.582031 17.617188 C 43.097656 17.867188 42.476562 18.019531 41.71875 18.070312 L 41.71875 19.359375 L 40.824219 19.359375 L 40.824219 18.070312 C 39.691406 17.988281 38.808594 17.640625 38.171875 17.023438 C 37.535156 16.410156 37.164062 15.503906 37.0625 14.3125 L 39.203125 14.3125 C 39.191406 14.886719 39.34375 15.339844 39.65625 15.675781 Z M 40.324219 8.59375 C 40.160156 8.644531 40.015625 8.722656 39.882812 8.828125 C 39.753906 8.9375 39.648438 9.066406 39.574219 9.222656 C 39.496094 9.378906 39.460938 9.566406 39.460938 9.777344 C 39.460938 10.109375 39.566406 10.367188 39.777344 10.550781 C 39.988281 10.730469 40.339844 10.878906 40.824219 10.988281 L 40.824219 8.519531 C 40.652344 8.519531 40.484375 8.542969 40.324219 8.59375 Z M 42.289062 16.183594 C 42.484375 16.117188 42.660156 16.023438 42.816406 15.902344 C 42.972656 15.78125 43.101562 15.632812 43.203125 15.457031 C 43.304688 15.277344 43.355469 15.070312 43.355469 14.824219 C 43.355469 14.429688 43.230469 14.136719 42.984375 13.9375 C 42.738281 13.742188 42.316406 13.5625 41.71875 13.402344 L 41.71875 16.3125 C 41.898438 16.292969 42.089844 16.25 42.289062 16.183594 Z M 42.289062 16.183594 " fill-opacity="1" fill-rule="nonzero"></path>
  </g>
  <g clip-path="url(#d159d21d7d)">
    <g clip-path="url(#3b6ba385e0)">
      <g clip-path="url(#8b0541c24d)">
        <g clip-path="url(#ebfde43f7e)">
          <path fill="#d13c3f" d="M 71.789062 29.613281 C 71.46875 30.9375 70.292969 31.863281 69.101562 32.535156 L 69.09375 32.519531 C 70.023438 31.992188 70.558594 30.820312 70.289062 29.765625 C 70.214844 29.492188 70.109375 29.226562 69.972656 28.976562 C 69.636719 28.320312 69.203125 27.703125 68.625 27.238281 L 68.441406 27.109375 C 68.5625 26.941406 68.679688 26.777344 68.800781 26.617188 C 69.046875 26.285156 69.296875 25.953125 69.609375 25.683594 C 69.792969 25.53125 69.996094 25.402344 70.214844 25.304688 L 70.59375 25.527344 C 71.417969 26.75 72.128906 28.207031 71.789062 29.613281 Z M 71.789062 29.613281 " fill-opacity="1" fill-rule="nonzero"></path>
        </g>
      </g>
    </g>
  </g>
  <g clip-path="url(#63ceb4942f)">
    <g clip-path="url(#6d3847311b)">
      <g clip-path="url(#fb0a339703)">
        <g clip-path="url(#9c916afc3f)">
          <path fill="#d13c3f" d="M 60.722656 29.257812 C 60.660156 29.144531 60.605469 29.03125 60.558594 28.910156 L 60.851562 29.019531 C 61.023438 28.507812 61.277344 28.039062 61.609375 27.609375 L 61.714844 27.671875 C 61.71875 28.058594 61.949219 28.402344 62.195312 28.703125 C 62.949219 29.617188 63.867188 30.328125 64.945312 30.828125 C 66.019531 31.328125 67.152344 31.570312 68.332031 31.558594 L 68.726562 31.421875 C 68.859375 31.820312 68.871094 32.261719 68.578125 32.53125 L 68.523438 32.601562 C 67.769531 33.117188 66.808594 33.289062 65.890625 33.1875 C 64.972656 33.085938 64.097656 32.730469 63.292969 32.273438 C 62.097656 31.605469 60.976562 30.582031 60.722656 29.257812 Z M 60.722656 29.257812 " fill-opacity="1" fill-rule="nonzero"></path>
        </g>
      </g>
    </g>
  </g>
  <g clip-path="url(#d56d950968)">
    <g clip-path="url(#dc263ae2e7)">
      <g clip-path="url(#fbed1d11d8)">
        <g clip-path="url(#4a709fbd1f)">
          <path fill="#d13c3f" d="M 67.480469 29.535156 L 67.449219 29.496094 L 67.402344 29.320312 C 67.53125 28.503906 67.960938 27.785156 68.441406 27.109375 L 68.625 27.238281 C 69.199219 27.699219 69.636719 28.320312 69.972656 28.972656 C 70.105469 29.226562 70.210938 29.492188 70.289062 29.765625 C 70.558594 30.820312 70.023438 31.988281 69.089844 32.519531 C 68.964844 32.59375 68.832031 32.652344 68.691406 32.699219 L 68.515625 32.609375 L 68.574219 32.539062 C 68.867188 32.265625 68.855469 31.824219 68.722656 31.429688 C 68.6875 31.320312 68.640625 31.214844 68.589844 31.113281 C 68.300781 30.535156 67.886719 30.03125 67.480469 29.535156 Z M 67.480469 29.535156 " fill-opacity="1" fill-rule="nonzero"></path>
        </g>
      </g>
    </g>
  </g>
  <g clip-path="url(#1cfceb7bae)">
    <g clip-path="url(#fd3e3654f9)">
      <g clip-path="url(#65aace4402)">
        <g clip-path="url(#b55a781ef5)">
          <path fill="#d13c3f" d="M 67.292969 29.535156 C 66.480469 29.351562 65.742188 29.011719 65.070312 28.515625 L 65.246094 28.289062 C 65.589844 27.425781 66.007812 26.597656 66.503906 25.808594 C 66.851562 25.234375 67.230469 24.664062 67.753906 24.242188 C 68.214844 23.875 68.8125 23.632812 69.398438 23.675781 C 69.484375 23.679688 69.570312 23.691406 69.652344 23.710938 C 70.308594 23.851562 70.882812 24.445312 70.871094 25.105469 C 70.640625 25.140625 70.421875 25.210938 70.210938 25.308594 C 69.992188 25.40625 69.789062 25.535156 69.605469 25.6875 C 69.292969 25.953125 69.042969 26.289062 68.796875 26.617188 C 68.675781 26.78125 68.558594 26.945312 68.441406 27.113281 C 67.960938 27.789062 67.53125 28.507812 67.402344 29.324219 L 67.445312 29.5 L 67.476562 29.535156 C 67.414062 29.554688 67.355469 29.554688 67.292969 29.535156 Z M 67.292969 29.535156 " fill-opacity="1" fill-rule="nonzero"></path>
        </g>
      </g>
    </g>
  </g>
  <g clip-path="url(#7327a2ca48)">
    <g clip-path="url(#af51233546)">
      <g clip-path="url(#c146adb0dc)">
        <g clip-path="url(#37a64d1951)">
          <path fill="#d13c3f" d="M 68.132812 22.808594 C 68.664062 22.875 69.105469 23.109375 69.457031 23.511719 L 69.40625 23.675781 C 68.816406 23.636719 68.222656 23.875 67.761719 24.242188 C 67.230469 24.667969 66.855469 25.238281 66.507812 25.8125 C 66.015625 26.597656 65.59375 27.425781 65.25 28.289062 L 65.078125 28.519531 C 64.617188 28.179688 64.210938 27.78125 63.867188 27.328125 C 63.710938 27.121094 63.5625 26.886719 63.578125 26.632812 L 63.808594 26.746094 C 63.851562 26.539062 63.914062 26.335938 63.988281 26.136719 C 64.136719 25.753906 64.320312 25.390625 64.535156 25.042969 C 64.992188 24.304688 65.5625 23.59375 66.316406 23.164062 C 66.429688 23.101562 66.542969 23.042969 66.660156 22.992188 C 67.132812 22.796875 67.621094 22.738281 68.132812 22.808594 Z M 68.132812 22.808594 " fill-opacity="1" fill-rule="nonzero"></path>
        </g>
      </g>
    </g>
  </g>
  <g clip-path="url(#c8f89c6eee)">
    <g clip-path="url(#692fa667aa)">
      <g clip-path="url(#2710347e0f)">
        <g clip-path="url(#acd3b37456)">
          <path fill="#fbad1c" d="M 67.894531 17.359375 L 67.953125 17.332031 C 69.253906 15.128906 71.09375 13.542969 72.675781 12.398438 C 74.257812 11.253906 76.132812 9.097656 75.46875 6.628906 C 74.804688 4.160156 72.652344 3.191406 70.1875 3.074219 C 68.140625 2.976562 66.214844 4.34375 65.277344 6.128906 C 64.339844 7.917969 64.324219 10.113281 65.023438 12.035156 C 65.675781 13.828125 66.894531 15.371094 67.757812 17.082031 C 67.804688 17.171875 67.851562 17.265625 67.894531 17.359375 Z M 68.675781 20.15625 C 68.734375 20.992188 68.609375 21.808594 68.21875 22.550781 L 68.128906 22.808594 C 67.878906 22.773438 67.628906 22.773438 67.378906 22.804688 L 67.308594 22.660156 C 67.78125 21.351562 67.757812 20.042969 67.242188 18.730469 C 66.9375 17.957031 66.460938 17.257812 66 16.5625 C 64.894531 14.890625 63.84375 13.148438 63.289062 11.238281 C 62.738281 9.324219 63.164062 5.902344 64.796875 4.199219 C 67.15625 1.734375 70.605469 0.5 74.070312 2.835938 C 77.535156 5.175781 77.359375 8.039062 76.027344 10.816406 C 74.699219 13.589844 68.898438 15.21875 68.714844 20.15625 Z M 68.675781 20.15625 " fill-opacity="1" fill-rule="nonzero"></path>
        </g>
      </g>
    </g>
  </g>
  <g clip-path="url(#b3df57bb3f)">
    <g clip-path="url(#05676e61f7)">
      <g clip-path="url(#28c13a3ffb)">
        <g clip-path="url(#6d7634795b)">
          <path fill="#d13c3f" d="M 64.011719 23.269531 C 64.742188 23 65.5625 22.929688 66.316406 23.167969 C 65.5625 23.59375 64.988281 24.304688 64.535156 25.046875 C 64.316406 25.394531 64.132812 25.757812 63.984375 26.136719 L 63.722656 26.019531 C 62.871094 26.355469 62.164062 26.886719 61.609375 27.613281 C 61.277344 28.039062 61.023438 28.507812 60.851562 29.023438 L 60.558594 28.910156 C 60.292969 28.226562 60.308594 27.4375 60.539062 26.742188 C 60.824219 25.882812 61.402344 25.152344 62.0625 24.535156 C 62.632812 24.003906 63.28125 23.542969 64.011719 23.269531 Z M 64.011719 23.269531 " fill-opacity="1" fill-rule="nonzero"></path>
        </g>
      </g>
    </g>
  </g>
  <g clip-path="url(#2533e54224)">
    <g clip-path="url(#19e37e2a26)">
      <g clip-path="url(#11bd30547c)">
        <g clip-path="url(#d89a073f7a)">
          <path fill="#d13c3f" d="M 68.332031 31.558594 C 67.152344 31.570312 66.019531 31.328125 64.945312 30.828125 C 63.867188 30.324219 62.949219 29.617188 62.195312 28.703125 C 61.949219 28.402344 61.722656 28.054688 61.714844 27.671875 L 61.609375 27.609375 C 62.164062 26.886719 62.867188 26.355469 63.722656 26.019531 L 63.984375 26.136719 C 63.90625 26.335938 63.847656 26.539062 63.804688 26.746094 L 63.574219 26.632812 C 63.5625 26.886719 63.707031 27.121094 63.863281 27.328125 C 64.207031 27.78125 64.609375 28.179688 65.074219 28.515625 C 65.742188 29.011719 66.484375 29.351562 67.292969 29.535156 C 67.359375 29.554688 67.421875 29.554688 67.484375 29.535156 C 67.890625 30.035156 68.304688 30.539062 68.597656 31.113281 C 68.648438 31.214844 68.691406 31.320312 68.730469 31.425781 Z M 68.332031 31.558594 " fill-opacity="1" fill-rule="nonzero"></path>
        </g>
      </g>
    </g>
  </g>
  <g clip-path="url(#958c7e895a)">
    <g clip-path="url(#df4f4a9d36)">
      <g clip-path="url(#499ac68fb3)">
        <g clip-path="url(#ee1bc550d3)">
          <path fill="#fbad1c" d="M 67.222656 18.832031 C 67.222656 18.832031 66.152344 21.167969 66.273438 23.015625 L 67.109375 22.621094 C 67.109375 22.621094 67.960938 20.152344 67.222656 18.832031 Z M 67.222656 18.832031 " fill-opacity="1" fill-rule="nonzero"></path>
        </g>
      </g>
    </g>
  </g>
  <g clip-path="url(#3354be0553)">
    <g clip-path="url(#58a321dc4f)">
      <g clip-path="url(#508e822473)">
        <g clip-path="url(#cc67efc6bf)">
          <path fill="#4d1339" d="M 65.519531 28.367188 C 65.929688 27.332031 66.449219 26.359375 67.074219 25.441406 C 67.445312 24.914062 67.851562 24.425781 68.453125 24.160156 C 69.304688 23.785156 70.519531 23.960938 70.597656 25.148438 C 70.625 25.5 71.179688 25.507812 71.160156 25.15625 C 71.066406 23.761719 69.683594 23.105469 68.429688 23.558594 C 66.621094 24.214844 65.644531 26.597656 64.984375 28.21875 C 64.855469 28.542969 65.394531 28.691406 65.523438 28.367188 Z M 65.519531 28.367188 " fill-opacity="1" fill-rule="nonzero"></path>
        </g>
      </g>
    </g>
  </g>
  <g clip-path="url(#a336e56241)">
    <g clip-path="url(#4688be9a01)">
      <g clip-path="url(#7258045489)">
        <g clip-path="url(#1a7c9df04e)">
          <path fill="#4d1339" d="M 70.824219 24.828125 C 68.9375 25.273438 67.519531 27.460938 67.136719 29.246094 C 67.0625 29.589844 67.597656 29.738281 67.675781 29.394531 C 68.015625 27.820312 69.316406 25.75 70.96875 25.363281 C 71.316406 25.28125 71.171875 24.746094 70.824219 24.828125 Z M 70.824219 24.828125 " fill-opacity="1" fill-rule="nonzero"></path>
        </g>
      </g>
    </g>
  </g>
  <g clip-path="url(#7624056eea)">
    <g clip-path="url(#ca9847679d)">
      <g clip-path="url(#8180f78525)">
        <g clip-path="url(#d897ccd1eb)">
          <path fill="#4d1339" d="M 69.652344 23.316406 C 67.125 20.820312 64.144531 24.335938 63.535156 26.675781 C 63.449219 27.015625 63.984375 27.164062 64.074219 26.824219 C 64.574219 24.914062 67.054688 21.523438 69.257812 23.695312 C 69.515625 23.949219 69.910156 23.570312 69.65625 23.316406 Z M 69.652344 23.316406 " fill-opacity="1" fill-rule="nonzero"></path>
        </g>
      </g>
    </g>
  </g>
  <g clip-path="url(#2970843697)">
    <g clip-path="url(#fce6ffd20c)">
      <g clip-path="url(#e77c49379c)">
        <g clip-path="url(#4aab418eea)">
          <path fill="#4d1339" d="M 67.25 29.6875 C 67.6875 30.222656 69.015625 31.613281 68.378906 32.339844 C 68.148438 32.605469 68.535156 33.003906 68.769531 32.738281 C 69.71875 31.65625 68.34375 30.15625 67.644531 29.3125 C 67.414062 29.035156 67.019531 29.414062 67.25 29.691406 Z M 67.25 29.6875 " fill-opacity="1" fill-rule="nonzero"></path>
        </g>
      </g>
    </g>
  </g>
  <g clip-path="url(#a3859a664f)">
    <g clip-path="url(#c29ed93332)">
      <g clip-path="url(#daf774dd8b)">
        <g clip-path="url(#da9e3e052c)">
          <path fill="#4d1339" d="M 68.425781 27.425781 C 69.960938 28.765625 70.988281 31.488281 68.554688 32.453125 C 68.226562 32.585938 68.503906 33.070312 68.832031 32.941406 C 69.347656 32.738281 69.765625 32.417969 70.089844 31.976562 C 70.414062 31.535156 70.59375 31.042969 70.632812 30.496094 C 70.710938 29.195312 69.773438 27.875 68.824219 27.046875 C 68.554688 26.8125 68.15625 27.191406 68.429688 27.425781 Z M 68.425781 27.425781 " fill-opacity="1" fill-rule="nonzero"></path>
        </g>
      </g>
    </g>
  </g>
  <g clip-path="url(#9656e2d224)">
    <g clip-path="url(#6efdc714f0)">
      <g clip-path="url(#040eea91a0)">
        <g clip-path="url(#1c487d9529)">
          <path fill="#4d1339" d="M 70.351562 25.664062 C 70.96875 26.601562 71.578125 27.652344 71.59375 28.796875 C 71.617188 30.488281 70.230469 31.558594 68.894531 32.332031 C 68.589844 32.507812 68.863281 32.992188 69.171875 32.8125 C 70.523438 32.03125 71.902344 30.984375 72.121094 29.328125 C 72.3125 27.910156 71.597656 26.558594 70.835938 25.398438 C 70.640625 25.101562 70.15625 25.367188 70.351562 25.664062 Z M 70.351562 25.664062 " fill-opacity="1" fill-rule="nonzero"></path>
        </g>
      </g>
    </g>
  </g>
  <g clip-path="url(#19c23aaed0)">
    <g clip-path="url(#6f3320e6ea)">
      <g clip-path="url(#8b4fb915ca)">
        <g clip-path="url(#c5c5cce874)">
          <path fill="#4d1339" d="M 63.304688 26.699219 C 63.441406 27.660156 64.472656 28.464844 65.246094 28.964844 C 65.753906 29.292969 67.085938 30.125 67.6875 29.714844 C 67.980469 29.515625 67.707031 29.03125 67.414062 29.230469 C 67.003906 29.507812 65.75 28.652344 65.386719 28.40625 C 64.792969 28 63.949219 27.3125 63.835938 26.566406 C 63.785156 26.21875 63.25 26.355469 63.300781 26.703125 Z M 63.304688 26.699219 " fill-opacity="1" fill-rule="nonzero"></path>
        </g>
      </g>
    </g>
  </g>
  <g clip-path="url(#973287cb99)">
    <g clip-path="url(#45eea2159e)">
      <g clip-path="url(#bcbfc87c88)">
        <g clip-path="url(#593a5bd0df)">
          <path fill="#4d1339" d="M 63.585938 25.777344 C 62.148438 26.378906 61.109375 27.5 60.582031 28.945312 C 60.460938 29.277344 61 29.425781 61.121094 29.09375 C 61.597656 27.78125 62.5625 26.800781 63.859375 26.261719 C 64.1875 26.125 63.90625 25.644531 63.585938 25.777344 Z M 63.585938 25.777344 " fill-opacity="1" fill-rule="nonzero"></path>
        </g>
      </g>
    </g>
  </g>
  <g clip-path="url(#c379f9a106)">
    <g clip-path="url(#f3935dba1f)">
      <g clip-path="url(#a26a98923a)">
        <g clip-path="url(#3466a44d13)">
          <path fill="#4d1339" d="M 60.4375 29.253906 C 61.171875 32.46875 65.835938 34.566406 68.65625 32.851562 C 68.960938 32.667969 68.683594 32.183594 68.378906 32.367188 C 65.867188 33.890625 61.628906 31.988281 60.972656 29.121094 C 60.894531 28.773438 60.355469 28.90625 60.433594 29.253906 Z M 60.4375 29.253906 " fill-opacity="1" fill-rule="nonzero"></path>
        </g>
      </g>
    </g>
  </g>
  <g clip-path="url(#71c3d87b98)">
    <g clip-path="url(#84a9f222b9)">
      <g clip-path="url(#0c72a8dab7)">
        <g clip-path="url(#8a50bae024)">
          <path fill="#4d1339" d="M 61.441406 27.742188 C 61.636719 28.976562 62.949219 29.976562 63.949219 30.601562 C 65.277344 31.429688 66.78125 31.824219 68.335938 31.835938 C 68.691406 31.839844 68.691406 31.289062 68.332031 31.285156 C 67.007812 31.277344 65.730469 30.976562 64.5625 30.328125 C 63.585938 29.785156 62.164062 28.78125 61.980469 27.605469 C 61.925781 27.253906 61.386719 27.390625 61.441406 27.738281 Z M 61.441406 27.742188 " fill-opacity="1" fill-rule="nonzero"></path>
        </g>
      </g>
    </g>
  </g>
  <g clip-path="url(#eba610a17b)">
    <g clip-path="url(#01f4f5254f)">
      <g clip-path="url(#109d051eef)">
        <g clip-path="url(#3c37622c25)">
          <path fill="#4d1339" d="M 66.398438 22.90625 C 63 22.015625 58.707031 26.144531 60.542969 29.5 C 60.714844 29.8125 61.199219 29.546875 61.027344 29.230469 C 59.425781 26.308594 63.347656 22.667969 66.261719 23.429688 C 66.605469 23.523438 66.75 22.992188 66.398438 22.902344 Z M 66.398438 22.90625 " fill-opacity="1" fill-rule="nonzero"></path>
        </g>
      </g>
    </g>
  </g>
  <g clip-path="url(#d76a4759a6)">
    <g clip-path="url(#55c43ab9f6)">
      <g clip-path="url(#25a0fe30a9)">
        <g clip-path="url(#bd21001c6a)">
          <path fill="#4d1339" d="M 68.460938 22.691406 C 69.828125 19.792969 68.042969 16.957031 66.554688 14.457031 C 65.484375 12.65625 64.648438 10.773438 64.835938 8.65625 C 65.011719 6.671875 66.101562 4.816406 67.898438 3.882812 C 69.578125 3.011719 71.917969 3.230469 73.511719 4.296875 C 75.414062 5.570312 75.769531 8.003906 74.671875 9.867188 C 73.851562 11.265625 72.554688 12.082031 71.332031 13.085938 C 69.894531 14.253906 68.6875 15.621094 67.714844 17.195312 C 67.53125 17.496094 68.011719 17.777344 68.195312 17.476562 C 69.203125 15.835938 70.503906 14.445312 72.015625 13.25 C 73.0625 12.417969 74.117188 11.683594 74.890625 10.566406 C 76.316406 8.507812 76.195312 5.652344 74.066406 4.023438 C 72.019531 2.460938 68.90625 2.378906 66.871094 3.867188 C 64.59375 5.539062 63.84375 8.488281 64.484375 11.179688 C 65.351562 14.855469 69.859375 18.425781 67.976562 22.410156 C 67.828125 22.726562 68.308594 23.011719 68.460938 22.691406 Z M 68.460938 22.691406 " fill-opacity="1" fill-rule="nonzero"></path>
        </g>
      </g>
    </g>
  </g>
  <g clip-path="url(#8bb7ce1a7a)">
    <g clip-path="url(#301c21dbd6)">
      <g clip-path="url(#c78caae401)">
        <g clip-path="url(#28cc90ec02)">
          <path fill="#4d1339" d="M 67.578125 22.734375 C 68.785156 19.027344 65.941406 16.460938 64.40625 13.324219 C 62.703125 9.832031 63.023438 5.613281 66.308594 3.246094 C 69.238281 1.136719 73.132812 1.609375 75.511719 4.464844 C 77.488281 6.835938 76.597656 10.347656 74.492188 12.257812 C 71.914062 14.597656 68.699219 16.289062 68.4375 20.148438 C 68.414062 20.503906 68.96875 20.507812 68.992188 20.15625 C 69.152344 17.777344 70.625 16.105469 72.394531 14.65625 C 73.578125 13.695312 74.960938 12.835938 75.875 11.59375 C 77.359375 9.582031 77.71875 6.539062 76.179688 4.429688 C 74.296875 1.847656 70.792969 0.632812 67.816406 1.789062 C 64.640625 3.023438 62.84375 5.867188 62.785156 9.222656 C 62.75 11.304688 63.644531 13.21875 64.6875 14.996094 C 66.144531 17.472656 68.023438 19.570312 67.039062 22.589844 C 66.929688 22.925781 67.46875 23.070312 67.578125 22.738281 Z M 67.578125 22.734375 " fill-opacity="1" fill-rule="nonzero"></path>
        </g>
      </g>
    </g>
  </g>
  <g clip-path="url(#6b7b1a23b0)">
    <g clip-path="url(#8d61c37bcd)">
      <g clip-path="url(#75e49c3c8c)">
        <g clip-path="url(#d6140aaa95)">
          <path fill="#4d1339" d="M 66.882812 18.707031 C 66.335938 19.972656 65.964844 21.292969 65.773438 22.664062 C 65.722656 23.007812 66.261719 23.164062 66.3125 22.8125 C 66.492188 21.488281 66.839844 20.210938 67.363281 18.984375 C 67.5 18.667969 67.019531 18.378906 66.878906 18.703125 Z M 66.882812 18.707031 " fill-opacity="1" fill-rule="nonzero"></path>
        </g>
      </g>
    </g>
  </g>
  <g clip-path="url(#91ecc7ce91)">
    <g clip-path="url(#1126d4cb1e)">
      <path fill="#ffca2e" d="M 32.84375 21.007812 L 38.335938 21.007812 L 38.335938 26.242188 L 32.84375 26.242188 Z M 32.84375 21.007812 " fill-opacity="1" fill-rule="nonzero"></path>
    </g>
  </g>
  <g clip-path="url(#036bbce6ce)">
    <g clip-path="url(#fa6ec5d99c)">
      <path fill="#ffca2e" d="M 38.558594 21.007812 L 44.050781 21.007812 L 44.050781 26.242188 L 38.558594 26.242188 Z M 38.558594 21.007812 " fill-opacity="1" fill-rule="nonzero"></path>
    </g>
  </g>
  <g clip-path="url(#f490e75d46)">
    <g clip-path="url(#81bc44396c)">
      <path fill="#ffca2e" d="M 44.273438 21.007812 L 49.765625 21.007812 L 49.765625 26.242188 L 44.273438 26.242188 Z M 44.273438 21.007812 " fill-opacity="1" fill-rule="nonzero"></path>
    </g>
  </g>
  <g clip-path="url(#79558f422e)">
    <g clip-path="url(#23cf2cb219)">
      <path fill="#ffca2e" d="M 49.988281 21.007812 L 55.480469 21.007812 L 55.480469 26.242188 L 49.988281 26.242188 Z M 49.988281 21.007812 " fill-opacity="1" fill-rule="nonzero"></path>
    </g>
  </g>
  <g clip-path="url(#6db568ec30)">
    <g clip-path="url(#a47ab0f9e7)">
      <path fill="#ffca2e" d="M 27.128906 21.007812 L 32.621094 21.007812 L 32.621094 26.242188 L 27.128906 26.242188 Z M 27.128906 21.007812 " fill-opacity="1" fill-rule="nonzero"></path>
    </g>
  </g>
</svg>
