<?xml version="1.0" encoding="UTF-8"?>
<svg xmlns="http://www.w3.org/2000/svg" xmlns:xlink="http://www.w3.org/1999/xlink" width="107" zoomAndPan="magnify" viewBox="0 0 80.25 35.25" height="47" preserveAspectRatio="xMidYMid meet" version="1.0">
  <defs>
    <g></g>
    <clipPath id="ad46157201">
      <path d="M 0.46875 3.453125 L 79.046875 3.453125 L 79.046875 31.0625 L 0.46875 31.0625 Z M 0.46875 3.453125 " clip-rule="nonzero"></path>
    </clipPath>
    <clipPath id="e4bd2218ac">
      <path d="M 46 1.671875 L 77 1.671875 L 77 34 L 46 34 Z M 46 1.671875 " clip-rule="nonzero"></path>
    </clipPath>
    <clipPath id="189e455ea8">
      <path d="M 46 1.671875 L 77 1.671875 L 77 34.515625 L 46 34.515625 Z M 46 1.671875 " clip-rule="nonzero"></path>
    </clipPath>
    <clipPath id="ee8f98a2fe">
      <path d="M 46 1.671875 L 49 1.671875 L 49 4 L 46 4 Z M 46 1.671875 " clip-rule="nonzero"></path>
    </clipPath>
    <clipPath id="4a50632b8b">
      <path d="M 71 10 L 74 10 L 74 13 L 71 13 Z M 71 10 " clip-rule="nonzero"></path>
    </clipPath>
    <clipPath id="7867844c8b">
      <path d="M 71.660156 4.308594 L 76.640625 14.136719 L 68.125 18.449219 L 63.144531 8.625 Z M 71.660156 4.308594 " clip-rule="nonzero"></path>
    </clipPath>
    <clipPath id="d78c19de57">
      <path d="M 71.660156 4.308594 L 76.640625 14.136719 L 68.125 18.449219 L 63.144531 8.625 Z M 71.660156 4.308594 " clip-rule="nonzero"></path>
    </clipPath>
    <clipPath id="934bbf9d69">
      <path d="M 69 11 L 74 11 L 74 16 L 69 16 Z M 69 11 " clip-rule="nonzero"></path>
    </clipPath>
    <clipPath id="f14219b725">
      <path d="M 71.660156 4.308594 L 76.640625 14.136719 L 68.125 18.449219 L 63.144531 8.625 Z M 71.660156 4.308594 " clip-rule="nonzero"></path>
    </clipPath>
    <clipPath id="d43f3a5de8">
      <path d="M 71.660156 4.308594 L 76.640625 14.136719 L 68.125 18.449219 L 63.144531 8.625 Z M 71.660156 4.308594 " clip-rule="nonzero"></path>
    </clipPath>
    <clipPath id="232d5f368c">
      <path d="M 73 11 L 76 11 L 76 13 L 73 13 Z M 73 11 " clip-rule="nonzero"></path>
    </clipPath>
    <clipPath id="4832cdf714">
      <path d="M 71.660156 4.308594 L 76.640625 14.136719 L 68.125 18.449219 L 63.144531 8.625 Z M 71.660156 4.308594 " clip-rule="nonzero"></path>
    </clipPath>
    <clipPath id="bcac52906f">
      <path d="M 71.660156 4.308594 L 76.640625 14.136719 L 68.125 18.449219 L 63.144531 8.625 Z M 71.660156 4.308594 " clip-rule="nonzero"></path>
    </clipPath>
    <clipPath id="68735ce77f">
      <path d="M 72 14 L 75 14 L 75 16 L 72 16 Z M 72 14 " clip-rule="nonzero"></path>
    </clipPath>
    <clipPath id="f6ac47b690">
      <path d="M 71.660156 4.308594 L 76.640625 14.136719 L 68.125 18.449219 L 63.144531 8.625 Z M 71.660156 4.308594 " clip-rule="nonzero"></path>
    </clipPath>
    <clipPath id="25f801c8f1">
      <path d="M 71.660156 4.308594 L 76.640625 14.136719 L 68.125 18.449219 L 63.144531 8.625 Z M 71.660156 4.308594 " clip-rule="nonzero"></path>
    </clipPath>
    <clipPath id="98a3d06e3f">
      <path d="M 73 13 L 76 13 L 76 15 L 73 15 Z M 73 13 " clip-rule="nonzero"></path>
    </clipPath>
    <clipPath id="ee0467aac8">
      <path d="M 71.660156 4.308594 L 76.640625 14.136719 L 68.125 18.449219 L 63.144531 8.625 Z M 71.660156 4.308594 " clip-rule="nonzero"></path>
    </clipPath>
    <clipPath id="1ec9d732d8">
      <path d="M 71.660156 4.308594 L 76.640625 14.136719 L 68.125 18.449219 L 63.144531 8.625 Z M 71.660156 4.308594 " clip-rule="nonzero"></path>
    </clipPath>
    <clipPath id="b5d2deac7a">
      <path d="M 64 7 L 67 7 L 67 10 L 64 10 Z M 64 7 " clip-rule="nonzero"></path>
    </clipPath>
    <clipPath id="b0c8cba579">
      <path d="M 71.660156 4.308594 L 76.640625 14.136719 L 68.125 18.449219 L 63.144531 8.625 Z M 71.660156 4.308594 " clip-rule="nonzero"></path>
    </clipPath>
    <clipPath id="49ce3cf232">
      <path d="M 71.660156 4.308594 L 76.640625 14.136719 L 68.125 18.449219 L 63.144531 8.625 Z M 71.660156 4.308594 " clip-rule="nonzero"></path>
    </clipPath>
    <clipPath id="41f2162262">
      <path d="M 64 9 L 68 9 L 68 13 L 64 13 Z M 64 9 " clip-rule="nonzero"></path>
    </clipPath>
    <clipPath id="86e67a74e1">
      <path d="M 71.660156 4.308594 L 76.640625 14.136719 L 68.125 18.449219 L 63.144531 8.625 Z M 71.660156 4.308594 " clip-rule="nonzero"></path>
    </clipPath>
    <clipPath id="6cdc44c733">
      <path d="M 71.660156 4.308594 L 76.640625 14.136719 L 68.125 18.449219 L 63.144531 8.625 Z M 71.660156 4.308594 " clip-rule="nonzero"></path>
    </clipPath>
    <clipPath id="7955d4e299">
      <path d="M 66 6 L 69 6 L 69 9 L 66 9 Z M 66 6 " clip-rule="nonzero"></path>
    </clipPath>
    <clipPath id="997f19dc72">
      <path d="M 71.660156 4.308594 L 76.640625 14.136719 L 68.125 18.449219 L 63.144531 8.625 Z M 71.660156 4.308594 " clip-rule="nonzero"></path>
    </clipPath>
    <clipPath id="b8aed19953">
      <path d="M 71.660156 4.308594 L 76.640625 14.136719 L 68.125 18.449219 L 63.144531 8.625 Z M 71.660156 4.308594 " clip-rule="nonzero"></path>
    </clipPath>
    <clipPath id="ab935089e3">
      <path d="M 67 10 L 70 10 L 70 12 L 67 12 Z M 67 10 " clip-rule="nonzero"></path>
    </clipPath>
    <clipPath id="87620732ef">
      <path d="M 71.660156 4.308594 L 76.640625 14.136719 L 68.125 18.449219 L 63.144531 8.625 Z M 71.660156 4.308594 " clip-rule="nonzero"></path>
    </clipPath>
    <clipPath id="159a1c09fb">
      <path d="M 71.660156 4.308594 L 76.640625 14.136719 L 68.125 18.449219 L 63.144531 8.625 Z M 71.660156 4.308594 " clip-rule="nonzero"></path>
    </clipPath>
    <clipPath id="809c8f081e">
      <path d="M 67 8 L 70 8 L 70 10 L 67 10 Z M 67 8 " clip-rule="nonzero"></path>
    </clipPath>
    <clipPath id="4253191504">
      <path d="M 71.660156 4.308594 L 76.640625 14.136719 L 68.125 18.449219 L 63.144531 8.625 Z M 71.660156 4.308594 " clip-rule="nonzero"></path>
    </clipPath>
    <clipPath id="e962ad2495">
      <path d="M 71.660156 4.308594 L 76.640625 14.136719 L 68.125 18.449219 L 63.144531 8.625 Z M 71.660156 4.308594 " clip-rule="nonzero"></path>
    </clipPath>
    <clipPath id="c4272920ba">
      <path d="M 43.003906 12.046875 L 45.441406 12.046875 L 45.441406 14.734375 L 43.003906 14.734375 Z M 43.003906 12.046875 " clip-rule="nonzero"></path>
    </clipPath>
    <clipPath id="b356492ba4">
      <path d="M 38.582031 13.425781 L 43.148438 13.425781 L 43.148438 17.109375 L 38.582031 17.109375 Z M 38.582031 13.425781 " clip-rule="nonzero"></path>
    </clipPath>
  </defs>
  <g clip-path="url(#ad46157201)">
    <path fill="#545454" d="M 0.46875 3.453125 L 79.046875 3.453125 L 79.046875 31.0625 L 0.46875 31.0625 Z M 0.46875 3.453125 " fill-opacity="1" fill-rule="nonzero"></path>
  </g>
  <g fill="#ffffff" fill-opacity="1">
    <g transform="translate(3.920312, 16.855283)">
      <g>
        <path d="M 2.609375 -9.65625 C 3.347656 -9.65625 3.890625 -9.4375 4.234375 -9 C 4.585938 -8.5625 4.765625 -7.976562 4.765625 -7.25 L 4.765625 -6.390625 L 3.75 -6.390625 L 3.75 -7.3125 C 3.75 -7.75 3.660156 -8.085938 3.484375 -8.328125 C 3.304688 -8.566406 3.023438 -8.6875 2.640625 -8.6875 C 2.253906 -8.6875 1.96875 -8.566406 1.78125 -8.328125 C 1.601562 -8.085938 1.515625 -7.75 1.515625 -7.3125 L 1.515625 -2.25 C 1.515625 -1.8125 1.601562 -1.472656 1.78125 -1.234375 C 1.96875 -0.992188 2.253906 -0.875 2.640625 -0.875 C 3.023438 -0.875 3.304688 -0.992188 3.484375 -1.234375 C 3.660156 -1.472656 3.75 -1.8125 3.75 -2.25 L 3.75 -3.5 L 4.765625 -3.5 L 4.765625 -2.3125 C 4.765625 -1.582031 4.585938 -1 4.234375 -0.5625 C 3.890625 -0.125 3.347656 0.09375 2.609375 0.09375 C 1.878906 0.09375 1.335938 -0.125 0.984375 -0.5625 C 0.640625 -1 0.46875 -1.582031 0.46875 -2.3125 L 0.46875 -7.25 C 0.46875 -7.613281 0.507812 -7.941406 0.59375 -8.234375 C 0.675781 -8.535156 0.804688 -8.789062 0.984375 -9 C 1.160156 -9.207031 1.382812 -9.367188 1.65625 -9.484375 C 1.925781 -9.597656 2.242188 -9.65625 2.609375 -9.65625 Z M 2.609375 -9.65625 "></path>
      </g>
    </g>
  </g>
  <g fill="#ffffff" fill-opacity="1">
    <g transform="translate(9.109144, 16.855283)">
      <g>
        <path d="M 1.625 -1.921875 L 1.25 0 L 0.265625 0 L 2.109375 -9.5625 L 3.640625 -9.5625 L 5.46875 0 L 4.40625 0 L 4.046875 -1.921875 Z M 1.765625 -2.84375 L 3.890625 -2.84375 L 2.8125 -8.359375 Z M 1.765625 -2.84375 "></path>
      </g>
    </g>
  </g>
  <g fill="#ffffff" fill-opacity="1">
    <g transform="translate(14.87147, 16.855283)">
      <g>
        <path d="M 1.484375 0 L 0.53125 0 L 0.53125 -9.5625 L 1.890625 -9.5625 L 4.09375 -2.65625 L 4.09375 -9.5625 L 5.046875 -9.5625 L 5.046875 0 L 3.9375 0 L 1.484375 -7.734375 Z M 1.484375 0 "></path>
      </g>
    </g>
  </g>
  <g fill="#ffffff" fill-opacity="1">
    <g transform="translate(20.456288, 16.855283)">
      <g>
        <path d="M 1.609375 -9.5625 L 1.609375 0 L 0.546875 0 L 0.546875 -9.5625 Z M 1.609375 -9.5625 "></path>
      </g>
    </g>
  </g>
  <g fill="#ffffff" fill-opacity="1">
    <g transform="translate(22.61375, 16.855283)">
      <g>
        <path d="M 1.484375 0 L 0.53125 0 L 0.53125 -9.5625 L 1.890625 -9.5625 L 4.09375 -2.65625 L 4.09375 -9.5625 L 5.046875 -9.5625 L 5.046875 0 L 3.9375 0 L 1.484375 -7.734375 Z M 1.484375 0 "></path>
      </g>
    </g>
  </g>
  <g fill="#ffffff" fill-opacity="1">
    <g transform="translate(28.198568, 16.855283)">
      <g>
        <path d="M 3.953125 -5.328125 L 3.953125 -4.375 L 1.609375 -4.375 L 1.609375 -0.96875 L 4.484375 -0.96875 L 4.484375 0 L 0.546875 0 L 0.546875 -9.5625 L 4.484375 -9.5625 L 4.484375 -8.59375 L 1.609375 -8.59375 L 1.609375 -5.328125 Z M 3.953125 -5.328125 "></path>
      </g>
    </g>
  </g>
  <g fill="#ffffff" fill-opacity="1">
    <g transform="translate(3.920312, 27.870907)">
      <g>
        <path d="M 4.90625 -3.5625 L 4.90625 -2.296875 C 4.90625 -1.523438 4.710938 -0.929688 4.328125 -0.515625 C 3.953125 -0.0976562 3.394531 0.109375 2.65625 0.109375 C 1.925781 0.109375 1.367188 -0.0976562 0.984375 -0.515625 C 0.609375 -0.929688 0.421875 -1.523438 0.421875 -2.296875 L 0.421875 -7.265625 C 0.421875 -8.035156 0.609375 -8.628906 0.984375 -9.046875 C 1.367188 -9.460938 1.925781 -9.671875 2.65625 -9.671875 C 3.394531 -9.671875 3.953125 -9.460938 4.328125 -9.046875 C 4.710938 -8.628906 4.90625 -8.035156 4.90625 -7.265625 L 4.90625 -6.34375 L 3.484375 -6.34375 L 3.484375 -7.359375 C 3.484375 -7.703125 3.410156 -7.941406 3.265625 -8.078125 C 3.128906 -8.222656 2.941406 -8.296875 2.703125 -8.296875 C 2.460938 -8.296875 2.269531 -8.222656 2.125 -8.078125 C 1.988281 -7.941406 1.921875 -7.703125 1.921875 -7.359375 L 1.921875 -2.203125 C 1.921875 -1.859375 1.988281 -1.613281 2.125 -1.46875 C 2.269531 -1.332031 2.460938 -1.265625 2.703125 -1.265625 C 2.941406 -1.265625 3.128906 -1.332031 3.265625 -1.46875 C 3.410156 -1.613281 3.484375 -1.859375 3.484375 -2.203125 L 3.484375 -3.5625 Z M 4.90625 -3.5625 "></path>
      </g>
    </g>
  </g>
  <g fill="#ffffff" fill-opacity="1">
    <g transform="translate(9.191068, 27.870907)">
      <g>
        <path d="M 0.546875 -9.5625 L 2.046875 -9.5625 L 2.046875 -1.359375 L 4.515625 -1.359375 L 4.515625 0 L 0.546875 0 Z M 0.546875 -9.5625 "></path>
      </g>
    </g>
  </g>
  <g fill="#ffffff" fill-opacity="1">
    <g transform="translate(13.820053, 27.870907)">
      <g>
        <path d="M 5.40625 0 L 3.890625 0 L 3.625 -1.734375 L 1.78125 -1.734375 L 1.53125 0 L 0.15625 0 L 1.6875 -9.5625 L 3.875 -9.5625 Z M 1.984375 -3.03125 L 3.421875 -3.03125 L 2.703125 -7.859375 Z M 1.984375 -3.03125 "></path>
      </g>
    </g>
  </g>
  <g fill="#ffffff" fill-opacity="1">
    <g transform="translate(19.377563, 27.870907)">
      <g>
        <path d="M 0.359375 -7.265625 C 0.359375 -8.035156 0.539062 -8.628906 0.90625 -9.046875 C 1.28125 -9.460938 1.832031 -9.671875 2.5625 -9.671875 C 3.300781 -9.671875 3.851562 -9.460938 4.21875 -9.046875 C 4.59375 -8.628906 4.78125 -8.035156 4.78125 -7.265625 L 4.78125 -6.96875 L 3.359375 -6.96875 L 3.359375 -7.359375 C 3.359375 -7.703125 3.289062 -7.941406 3.15625 -8.078125 C 3.03125 -8.222656 2.847656 -8.296875 2.609375 -8.296875 C 2.367188 -8.296875 2.179688 -8.222656 2.046875 -8.078125 C 1.921875 -7.941406 1.859375 -7.703125 1.859375 -7.359375 C 1.859375 -7.035156 1.929688 -6.75 2.078125 -6.5 C 2.222656 -6.25 2.40625 -6.007812 2.625 -5.78125 C 2.84375 -5.5625 3.078125 -5.335938 3.328125 -5.109375 C 3.578125 -4.890625 3.8125 -4.644531 4.03125 -4.375 C 4.25 -4.113281 4.429688 -3.816406 4.578125 -3.484375 C 4.722656 -3.148438 4.796875 -2.753906 4.796875 -2.296875 C 4.796875 -1.523438 4.601562 -0.929688 4.21875 -0.515625 C 3.84375 -0.0976562 3.285156 0.109375 2.546875 0.109375 C 1.816406 0.109375 1.257812 -0.0976562 0.875 -0.515625 C 0.5 -0.929688 0.3125 -1.523438 0.3125 -2.296875 L 0.3125 -2.875 L 1.734375 -2.875 L 1.734375 -2.203125 C 1.734375 -1.859375 1.800781 -1.613281 1.9375 -1.46875 C 2.082031 -1.332031 2.273438 -1.265625 2.515625 -1.265625 C 2.753906 -1.265625 2.941406 -1.332031 3.078125 -1.46875 C 3.222656 -1.613281 3.296875 -1.859375 3.296875 -2.203125 C 3.296875 -2.523438 3.222656 -2.8125 3.078125 -3.0625 C 2.929688 -3.3125 2.75 -3.546875 2.53125 -3.765625 C 2.3125 -3.992188 2.078125 -4.21875 1.828125 -4.4375 C 1.578125 -4.664062 1.34375 -4.910156 1.125 -5.171875 C 0.90625 -5.441406 0.722656 -5.742188 0.578125 -6.078125 C 0.429688 -6.410156 0.359375 -6.804688 0.359375 -7.265625 Z M 0.359375 -7.265625 "></path>
      </g>
    </g>
  </g>
  <g fill="#ffffff" fill-opacity="1">
    <g transform="translate(24.484458, 27.870907)">
      <g>
        <path d="M 0.359375 -7.265625 C 0.359375 -8.035156 0.539062 -8.628906 0.90625 -9.046875 C 1.28125 -9.460938 1.832031 -9.671875 2.5625 -9.671875 C 3.300781 -9.671875 3.851562 -9.460938 4.21875 -9.046875 C 4.59375 -8.628906 4.78125 -8.035156 4.78125 -7.265625 L 4.78125 -6.96875 L 3.359375 -6.96875 L 3.359375 -7.359375 C 3.359375 -7.703125 3.289062 -7.941406 3.15625 -8.078125 C 3.03125 -8.222656 2.847656 -8.296875 2.609375 -8.296875 C 2.367188 -8.296875 2.179688 -8.222656 2.046875 -8.078125 C 1.921875 -7.941406 1.859375 -7.703125 1.859375 -7.359375 C 1.859375 -7.035156 1.929688 -6.75 2.078125 -6.5 C 2.222656 -6.25 2.40625 -6.007812 2.625 -5.78125 C 2.84375 -5.5625 3.078125 -5.335938 3.328125 -5.109375 C 3.578125 -4.890625 3.8125 -4.644531 4.03125 -4.375 C 4.25 -4.113281 4.429688 -3.816406 4.578125 -3.484375 C 4.722656 -3.148438 4.796875 -2.753906 4.796875 -2.296875 C 4.796875 -1.523438 4.601562 -0.929688 4.21875 -0.515625 C 3.84375 -0.0976562 3.285156 0.109375 2.546875 0.109375 C 1.816406 0.109375 1.257812 -0.0976562 0.875 -0.515625 C 0.5 -0.929688 0.3125 -1.523438 0.3125 -2.296875 L 0.3125 -2.875 L 1.734375 -2.875 L 1.734375 -2.203125 C 1.734375 -1.859375 1.800781 -1.613281 1.9375 -1.46875 C 2.082031 -1.332031 2.273438 -1.265625 2.515625 -1.265625 C 2.753906 -1.265625 2.941406 -1.332031 3.078125 -1.46875 C 3.222656 -1.613281 3.296875 -1.859375 3.296875 -2.203125 C 3.296875 -2.523438 3.222656 -2.8125 3.078125 -3.0625 C 2.929688 -3.3125 2.75 -3.546875 2.53125 -3.765625 C 2.3125 -3.992188 2.078125 -4.21875 1.828125 -4.4375 C 1.578125 -4.664062 1.34375 -4.910156 1.125 -5.171875 C 0.90625 -5.441406 0.722656 -5.742188 0.578125 -6.078125 C 0.429688 -6.410156 0.359375 -6.804688 0.359375 -7.265625 Z M 0.359375 -7.265625 "></path>
      </g>
    </g>
  </g>
  <g fill="#ffffff" fill-opacity="1">
    <g transform="translate(29.591354, 27.870907)">
      <g>
        <path d="M 0.546875 -9.5625 L 2.046875 -9.5625 L 2.046875 0 L 0.546875 0 Z M 0.546875 -9.5625 "></path>
      </g>
    </g>
  </g>
  <g fill="#ffffff" fill-opacity="1">
    <g transform="translate(32.18577, 27.870907)">
      <g>
        <path d="M 4.90625 -3.5625 L 4.90625 -2.296875 C 4.90625 -1.523438 4.710938 -0.929688 4.328125 -0.515625 C 3.953125 -0.0976562 3.394531 0.109375 2.65625 0.109375 C 1.925781 0.109375 1.367188 -0.0976562 0.984375 -0.515625 C 0.609375 -0.929688 0.421875 -1.523438 0.421875 -2.296875 L 0.421875 -7.265625 C 0.421875 -8.035156 0.609375 -8.628906 0.984375 -9.046875 C 1.367188 -9.460938 1.925781 -9.671875 2.65625 -9.671875 C 3.394531 -9.671875 3.953125 -9.460938 4.328125 -9.046875 C 4.710938 -8.628906 4.90625 -8.035156 4.90625 -7.265625 L 4.90625 -6.34375 L 3.484375 -6.34375 L 3.484375 -7.359375 C 3.484375 -7.703125 3.410156 -7.941406 3.265625 -8.078125 C 3.128906 -8.222656 2.941406 -8.296875 2.703125 -8.296875 C 2.460938 -8.296875 2.269531 -8.222656 2.125 -8.078125 C 1.988281 -7.941406 1.921875 -7.703125 1.921875 -7.359375 L 1.921875 -2.203125 C 1.921875 -1.859375 1.988281 -1.613281 2.125 -1.46875 C 2.269531 -1.332031 2.460938 -1.265625 2.703125 -1.265625 C 2.941406 -1.265625 3.128906 -1.332031 3.265625 -1.46875 C 3.410156 -1.613281 3.484375 -1.859375 3.484375 -2.203125 L 3.484375 -3.5625 Z M 4.90625 -3.5625 "></path>
      </g>
    </g>
  </g>
  <g clip-path="url(#e4bd2218ac)">
    <path fill="#ffffff" d="M 71.828125 29.460938 C 71.828125 29.460938 71.894531 32.964844 69.105469 33.167969 C 66.316406 33.367188 61.78125 33.976562 63.496094 31.71875 C 63.496094 31.71875 60.777344 32.105469 59.902344 31.164062 C 59.847656 31.105469 59.804688 31.042969 59.765625 30.976562 C 59.765625 30.976562 59.496094 34.042969 57.011719 32.898438 C 57.011719 32.898438 56.035156 32.324219 56.101562 26.96875 C 56.101562 26.96875 55.152344 26.90625 54.65625 26.078125 L 54.59375 25.964844 C 54.667969 26.175781 56.59375 31.78125 54.085938 33.234375 C 51.535156 34.71875 49.214844 33.875 50.023438 32.191406 C 50.828125 30.503906 53.917969 31.617188 51.601562 26.902344 C 49.28125 22.183594 51.199219 14.636719 51.199219 13.421875 C 51.199219 12.210938 51.667969 9.75 48.679688 8.367188 C 45.6875 6.988281 46.089844 5.371094 46.292969 5.300781 C 46.496094 5.234375 47.839844 7.355469 49.25 6.953125 C 49.25 6.953125 47.359375 6.480469 46.644531 4.707031 C 46.644531 4.707031 46.101562 3.269531 46.574219 3.15625 C 46.574219 3.15625 46.484375 2.234375 47.355469 1.851562 C 47.355469 1.851562 48.140625 1.695312 48.722656 2.414062 C 48.722656 2.414062 48.78125 2.246094 49.449219 2.75 C 50.121094 3.257812 51.632812 3.851562 52.800781 3.078125 C 52.800781 3.078125 53.125 2.722656 53.882812 2.917969 C 54.179688 2.996094 54.539062 3.15625 54.972656 3.449219 C 56.515625 4.503906 57.613281 5.605469 58.117188 7.355469 C 58.117188 7.355469 58.824219 7.960938 59.867188 8.199219 C 60.90625 8.433594 61.152344 10.34375 61.019531 10.746094 C 60.886719 11.152344 60.28125 11.894531 60.371094 12.476562 C 60.460938 13.0625 59.832031 12.925781 59.609375 11.871094 C 59.382812 10.816406 58.621094 10.140625 58.355469 10.140625 C 58.355469 10.140625 58.472656 10.4375 58.421875 10.707031 C 58.425781 10.710938 58.433594 10.714844 58.4375 10.71875 C 58.492188 10.761719 58.683594 10.96875 58.640625 11.734375 C 58.59375 12.539062 59.1875 14.777344 61.257812 16.351562 C 61.492188 16.527344 61.746094 16.695312 62.015625 16.855469 C 63.371094 17.636719 65.480469 19.015625 67.347656 20.769531 C 67.761719 21.164062 68.164062 21.570312 68.542969 21.996094 C 69.847656 23.460938 70.878906 25.113281 71.1875 26.863281 C 71.1875 26.863281 71.988281 27.445312 72.890625 27.242188 C 73.394531 27.128906 73.933594 26.769531 74.378906 25.921875 C 74.378906 25.921875 74.78125 25.316406 74.109375 23.699219 C 74.109375 23.699219 74.078125 22.351562 75.253906 23.359375 C 76.429688 24.371094 77.203125 29.5625 71.828125 29.460938 Z M 71.828125 29.460938 " fill-opacity="1" fill-rule="nonzero"></path>
  </g>
  <g clip-path="url(#189e455ea8)">
    <path fill="#2f3233" d="M 51.5625 34.035156 C 50.949219 34.035156 50.457031 33.871094 50.15625 33.59375 C 49.78125 33.242188 49.71875 32.738281 49.992188 32.171875 C 50.25 31.632812 50.738281 31.375 51.210938 31.128906 C 52.203125 30.605469 53.140625 30.113281 51.570312 26.914062 C 49.707031 23.125 50.570312 17.511719 50.984375 14.816406 C 51.089844 14.144531 51.164062 13.660156 51.164062 13.421875 C 51.164062 13.289062 51.167969 13.136719 51.175781 12.976562 C 51.226562 11.640625 51.304688 9.617188 48.664062 8.398438 C 46.226562 7.273438 46.101562 6.023438 46.121094 5.667969 C 46.132812 5.464844 46.199219 5.296875 46.28125 5.269531 C 46.355469 5.242188 46.464844 5.355469 46.726562 5.628906 C 47.234375 6.15625 48.160156 7.121094 49.113281 6.949219 C 48.675781 6.804688 47.21875 6.222656 46.613281 4.71875 C 46.59375 4.675781 46.203125 3.628906 46.402344 3.253906 C 46.433594 3.191406 46.480469 3.152344 46.535156 3.132812 C 46.53125 2.96875 46.546875 2.171875 47.34375 1.820312 L 47.351562 1.820312 C 47.359375 1.816406 48.140625 1.671875 48.726562 2.367188 C 48.730469 2.363281 48.738281 2.359375 48.742188 2.359375 C 48.855469 2.324219 49.101562 2.445312 49.472656 2.722656 C 50.1875 3.261719 51.65625 3.792969 52.777344 3.050781 C 52.816406 3.011719 53.152344 2.699219 53.886719 2.886719 L 53.894531 2.886719 C 54.230469 2.972656 54.597656 3.152344 54.992188 3.421875 C 56.78125 4.644531 57.699219 5.777344 58.148438 7.335938 C 58.230469 7.402344 58.910156 7.945312 59.875 8.164062 C 60.195312 8.238281 60.46875 8.46875 60.683594 8.851562 C 61.070312 9.535156 61.140625 10.488281 61.050781 10.761719 C 61.007812 10.890625 60.917969 11.050781 60.816406 11.238281 C 60.605469 11.617188 60.34375 12.085938 60.40625 12.472656 C 60.441406 12.726562 60.351562 12.835938 60.253906 12.855469 C 60.03125 12.894531 59.714844 12.542969 59.574219 11.878906 C 59.367188 10.902344 58.699219 10.261719 58.40625 10.183594 C 58.4375 10.28125 58.492188 10.492188 58.460938 10.691406 C 58.539062 10.757812 58.714844 10.988281 58.675781 11.738281 C 58.628906 12.523438 59.222656 14.765625 61.28125 16.324219 C 61.515625 16.503906 61.769531 16.671875 62.035156 16.824219 C 63.164062 17.480469 65.363281 18.855469 67.371094 20.746094 C 67.808594 21.160156 68.210938 21.574219 68.566406 21.976562 C 70.042969 23.628906 70.9375 25.269531 71.21875 26.84375 C 71.320312 26.914062 72.0625 27.394531 72.878906 27.207031 C 73.46875 27.078125 73.960938 26.640625 74.347656 25.90625 C 74.355469 25.894531 74.730469 25.285156 74.078125 23.710938 L 74.074219 23.699219 C 74.074219 23.675781 74.066406 23.132812 74.371094 22.984375 C 74.585938 22.882812 74.886719 23 75.273438 23.335938 C 75.910156 23.882812 76.480469 25.738281 75.890625 27.292969 C 75.5 28.320312 74.484375 29.53125 71.859375 29.496094 C 71.855469 29.871094 71.742188 33.007812 69.105469 33.199219 C 68.828125 33.222656 68.53125 33.246094 68.226562 33.269531 C 66.054688 33.449219 63.59375 33.648438 63.152344 32.835938 C 63.003906 32.570312 63.09375 32.207031 63.414062 31.761719 C 62.945312 31.820312 60.675781 32.050781 59.875 31.1875 C 59.84375 31.152344 59.8125 31.117188 59.789062 31.078125 C 59.742188 31.421875 59.53125 32.542969 58.75 33 C 58.28125 33.273438 57.691406 33.25 56.996094 32.929688 C 56.949219 32.902344 56.003906 32.285156 56.066406 27 C 55.902344 26.980469 55.175781 26.859375 54.71875 26.234375 C 54.882812 26.753906 55.207031 27.898438 55.339844 29.128906 C 55.574219 31.257812 55.160156 32.652344 54.105469 33.265625 C 53.167969 33.808594 52.28125 34.035156 51.5625 34.035156 Z M 46.304688 5.335938 C 46.273438 5.347656 46.203125 5.457031 46.191406 5.671875 C 46.171875 6.015625 46.296875 7.230469 48.695312 8.335938 C 51.375 9.574219 51.292969 11.707031 51.246094 12.980469 C 51.238281 13.140625 51.234375 13.289062 51.234375 13.421875 C 51.234375 13.664062 51.160156 14.152344 51.054688 14.828125 C 50.640625 17.515625 49.78125 23.113281 51.632812 26.882812 C 53.234375 30.144531 52.269531 30.652344 51.242188 31.191406 C 50.78125 31.433594 50.304688 31.683594 50.054688 32.203125 C 49.800781 32.738281 49.851562 33.214844 50.207031 33.542969 C 50.832031 34.125 52.363281 34.195312 54.070312 33.203125 C 56.53125 31.773438 54.644531 26.210938 54.5625 25.972656 L 54.625 25.945312 L 54.6875 26.058594 C 55.167969 26.859375 56.097656 26.929688 56.105469 26.929688 L 56.140625 26.933594 L 56.136719 26.964844 C 56.070312 32.214844 57.019531 32.859375 57.027344 32.867188 C 57.699219 33.175781 58.265625 33.199219 58.714844 32.9375 C 59.59375 32.425781 59.726562 30.988281 59.730469 30.972656 L 59.738281 30.859375 L 59.796875 30.957031 C 59.832031 31.023438 59.875 31.082031 59.925781 31.136719 C 60.777344 32.058594 63.460938 31.6875 63.488281 31.683594 L 63.574219 31.671875 L 63.523438 31.738281 C 63.179688 32.191406 63.074219 32.550781 63.210938 32.804688 C 63.632812 33.574219 66.175781 33.367188 68.21875 33.199219 C 68.527344 33.175781 68.824219 33.152344 69.101562 33.128906 C 71.824219 32.933594 71.789062 29.496094 71.789062 29.460938 L 71.789062 29.421875 L 71.824219 29.425781 C 71.878906 29.425781 71.929688 29.425781 71.980469 29.425781 C 74.476562 29.425781 75.449219 28.257812 75.824219 27.269531 C 76.402344 25.742188 75.851562 23.921875 75.230469 23.386719 C 74.863281 23.074219 74.585938 22.960938 74.402344 23.046875 C 74.152344 23.167969 74.144531 23.632812 74.144531 23.691406 C 74.8125 25.300781 74.425781 25.914062 74.40625 25.941406 C 74.011719 26.691406 73.503906 27.140625 72.894531 27.277344 C 71.988281 27.480469 71.175781 26.898438 71.167969 26.894531 L 71.15625 26.886719 L 71.152344 26.871094 C 70.875 25.300781 69.988281 23.671875 68.515625 22.023438 C 68.160156 21.621094 67.757812 21.210938 67.320312 20.796875 C 65.320312 18.914062 63.125 17.539062 61.996094 16.886719 C 61.730469 16.730469 61.476562 16.5625 61.234375 16.378906 C 59.15625 14.804688 58.558594 12.53125 58.601562 11.734375 C 58.644531 10.972656 58.453125 10.777344 58.414062 10.746094 C 58.410156 10.746094 58.40625 10.742188 58.402344 10.738281 L 58.378906 10.726562 L 58.382812 10.703125 C 58.433594 10.449219 58.320312 10.160156 58.320312 10.15625 L 58.300781 10.105469 L 58.351562 10.105469 C 58.632812 10.105469 59.410156 10.769531 59.640625 11.863281 C 59.777344 12.511719 60.074219 12.816406 60.238281 12.785156 C 60.324219 12.769531 60.359375 12.652344 60.332031 12.484375 C 60.269531 12.074219 60.539062 11.589844 60.753906 11.203125 C 60.855469 11.019531 60.941406 10.863281 60.984375 10.738281 C 61.074219 10.472656 60.984375 9.527344 60.621094 8.886719 C 60.417969 8.523438 60.160156 8.300781 59.855469 8.234375 C 58.816406 8 58.101562 7.390625 58.09375 7.382812 L 58.085938 7.375 L 58.082031 7.367188 C 57.640625 5.820312 56.730469 4.695312 54.949219 3.480469 C 54.566406 3.21875 54.203125 3.039062 53.878906 2.957031 L 53.871094 2.953125 C 53.144531 2.765625 52.828125 3.097656 52.824219 3.101562 L 52.816406 3.105469 C 51.667969 3.871094 50.164062 3.332031 49.429688 2.78125 C 48.851562 2.34375 48.757812 2.429688 48.753906 2.429688 L 48.734375 2.492188 L 48.695312 2.4375 C 48.152344 1.765625 47.425781 1.878906 47.367188 1.886719 C 46.53125 2.257812 46.605469 3.144531 46.609375 3.152344 L 46.613281 3.183594 L 46.582031 3.191406 C 46.53125 3.203125 46.492188 3.234375 46.464844 3.285156 C 46.28125 3.632812 46.671875 4.683594 46.675781 4.695312 C 47.378906 6.429688 49.238281 6.914062 49.257812 6.917969 L 49.386719 6.949219 L 49.257812 6.984375 C 48.21875 7.285156 47.214844 6.238281 46.675781 5.675781 C 46.523438 5.515625 46.351562 5.335938 46.304688 5.335938 Z M 46.304688 5.335938 " fill-opacity="1" fill-rule="nonzero"></path>
  </g>
  <path fill="#f0ae64" d="M 67.347656 20.773438 C 67.34375 20.777344 67.34375 20.777344 67.339844 20.78125 C 67.238281 20.902344 67.101562 20.992188 66.96875 21.078125 C 66.59375 21.324219 66.21875 21.570312 65.847656 21.816406 C 65.628906 21.957031 65.40625 22.105469 65.152344 22.152344 C 64.394531 22.292969 63.769531 21.535156 63.503906 20.8125 C 63.234375 20.085938 63.097656 19.253906 62.511719 18.753906 C 62.167969 18.460938 61.691406 18.304688 61.464844 17.917969 C 61.324219 17.679688 61.304688 17.390625 61.296875 17.117188 C 61.292969 16.964844 61.269531 16.679688 61.257812 16.355469 C 61.492188 16.53125 61.742188 16.699219 62.015625 16.855469 C 63.371094 17.636719 65.480469 19.015625 67.347656 20.773438 Z M 67.347656 20.773438 " fill-opacity="1" fill-rule="nonzero"></path>
  <path fill="#f0ae64" d="M 72.890625 27.242188 C 72.886719 27.296875 72.878906 27.347656 72.871094 27.402344 C 72.761719 28.101562 72.179688 28.78125 71.472656 28.753906 C 71.0625 28.734375 70.695312 28.492188 70.34375 28.277344 C 69.824219 27.957031 69.230469 27.625 69.050781 27.039062 C 68.875 26.464844 69.097656 25.691406 68.601562 25.355469 C 68.179688 25.074219 67.460938 25.316406 67.21875 24.875 C 67.117188 24.699219 67.152344 24.476562 67.199219 24.277344 C 67.449219 23.261719 67.945312 22.449219 68.542969 22 C 69.847656 23.460938 70.878906 25.117188 71.1875 26.863281 C 71.1875 26.863281 71.988281 27.445312 72.890625 27.242188 Z M 72.890625 27.242188 " fill-opacity="1" fill-rule="nonzero"></path>
  <path fill="#f4cd9e" d="M 56.105469 26.964844 C 56.105469 26.964844 55.152344 26.90625 54.660156 26.078125 L 54.59375 25.960938 C 54.59375 25.960938 53.148438 22.824219 53.417969 21.574219 C 53.6875 20.328125 56.574219 20.328125 57.382812 21.84375 C 58.1875 23.359375 56.058594 24.613281 56.105469 26.964844 Z M 56.105469 26.964844 " fill-opacity="1" fill-rule="nonzero"></path>
  <path fill="#f4cd9e" d="M 67.523438 25.582031 C 67.480469 25.523438 66.570312 24.351562 64.773438 25.375 C 62.925781 26.429688 64.199219 30.503906 65.949219 30.707031 C 65.949219 30.707031 64.402344 30.605469 63.496094 31.71875 C 63.496094 31.71875 60.777344 32.105469 59.902344 31.164062 L 59.765625 30.976562 C 59.765625 30.976562 60.035156 29.425781 59.765625 28.585938 C 59.496094 27.742188 59.09375 27.640625 60.136719 26.496094 C 61.175781 25.351562 62.082031 24.542969 61.613281 23.230469 C 61.652344 23.320312 62.300781 24.75 63.898438 24.910156 C 65.542969 25.078125 66.550781 23.933594 67.523438 25.582031 Z M 67.523438 25.582031 " fill-opacity="1" fill-rule="nonzero"></path>
  <path fill="#f0ae64" d="M 61.019531 10.75 C 60.886719 11.152344 60.28125 11.894531 60.371094 12.480469 C 60.460938 13.0625 59.832031 12.929688 59.609375 11.871094 C 59.386719 10.816406 58.625 10.140625 58.355469 10.140625 C 58.355469 10.140625 58.472656 10.441406 58.421875 10.710938 C 57.398438 10.070312 56.71875 11.625 54.839844 10.90625 C 52.957031 10.1875 52.039062 9.421875 52.171875 8.210938 C 52.308594 6.996094 51.769531 6.636719 51.949219 6.007812 C 52.128906 5.378906 52.285156 5.019531 52.285156 5.019531 C 51.433594 3.851562 53.089844 3.671875 53.089844 3.671875 C 53.289062 3.125 53.855469 2.929688 53.882812 2.921875 C 54.179688 2.996094 54.539062 3.15625 54.972656 3.449219 C 56.515625 4.503906 57.613281 5.605469 58.117188 7.355469 C 58.117188 7.355469 58.824219 7.964844 59.867188 8.199219 C 60.90625 8.433594 61.152344 10.34375 61.019531 10.75 Z M 61.019531 10.75 " fill-opacity="1" fill-rule="nonzero"></path>
  <path fill="#2f3233" d="M 51.5 4.59375 C 51.5 4.59375 52.621094 3.941406 53.046875 4.324219 C 53.472656 4.707031 53.808594 5.558594 53.808594 5.558594 C 53.808594 5.558594 52.636719 5.671875 51.910156 4.683594 C 51.910156 4.683594 51.285156 4.707031 51.5 4.59375 Z M 51.5 4.59375 " fill-opacity="1" fill-rule="nonzero"></path>
  <path stroke-linecap="butt" transform="matrix(0.0702303, 0, 0, 0.0704324, 43.911821, 0.608007)" fill-opacity="1" fill="#ffffff" fill-rule="nonzero" stroke-linejoin="miter" d="M 131.129544 57.19971 C 131.129544 58.198008 130.795821 59.029923 130.128374 59.695455 C 129.460927 60.360987 128.626619 60.693753 127.68107 60.693753 C 126.6799 60.693753 125.901212 60.360987 125.178145 59.695455 C 124.510699 59.029923 124.176975 58.198008 124.176975 57.19971 C 124.176975 56.256873 124.510699 55.424958 125.178145 54.759426 C 125.901212 54.093894 126.6799 53.705667 127.68107 53.705667 C 128.626619 53.705667 129.460927 54.093894 130.128374 54.759426 C 130.795821 55.424958 131.129544 56.256873 131.129544 57.19971 Z M 131.129544 57.19971 " stroke="#2f3233" stroke-width="1" stroke-opacity="1" stroke-miterlimit="10"></path>
  <g clip-path="url(#ee8f98a2fe)">
    <path fill="#2f3233" d="M 47.972656 3.601562 C 46.730469 3.855469 46.574219 3.15625 46.574219 3.15625 C 46.574219 3.15625 46.484375 2.234375 47.355469 1.855469 C 47.355469 1.855469 48.140625 1.695312 48.722656 2.414062 C 48.722656 2.414062 49.214844 3.347656 47.972656 3.601562 Z M 47.972656 3.601562 " fill-opacity="1" fill-rule="nonzero"></path>
  </g>
  <path fill="#f4cd9e" d="M 56.832031 9.121094 C 56.738281 8.816406 56.652344 8.25 57.09375 7.789062 C 57.199219 7.679688 57.351562 7.644531 57.496094 7.6875 C 57.84375 7.789062 58.574219 8.039062 59.355469 8.484375 C 60.4375 9.109375 61.007812 9.851562 60.269531 11.300781 C 60.269531 11.300781 60.054688 11.65625 60.167969 11.859375 C 60.167969 11.859375 59.859375 12.097656 59.734375 11.128906 C 59.632812 10.359375 59.035156 9.738281 58.265625 9.65625 C 58.226562 9.652344 58.183594 9.648438 58.140625 9.648438 C 57.664062 9.621094 57.367188 9.554688 57.183594 9.492188 C 57.015625 9.433594 56.882812 9.292969 56.832031 9.121094 Z M 56.832031 9.121094 " fill-opacity="1" fill-rule="nonzero"></path>
  <g clip-path="url(#4a50632b8b)">
    <g clip-path="url(#7867844c8b)">
      <g clip-path="url(#d78c19de57)">
        <path fill="#ffffff" d="M 73.007812 10.585938 C 73.242188 10.597656 73.40625 10.6875 73.5 10.84375 C 73.589844 11.007812 73.578125 11.195312 73.464844 11.398438 C 73.347656 11.601562 73.164062 11.773438 72.929688 11.902344 C 72.6875 12.035156 72.457031 12.089844 72.242188 12.058594 C 72.117188 12.050781 72.015625 12.019531 71.929688 11.972656 C 71.847656 11.929688 71.785156 11.867188 71.742188 11.789062 L 71.742188 11.785156 C 71.65625 11.628906 71.671875 11.445312 71.78125 11.238281 C 71.886719 11.035156 72.066406 10.867188 72.3125 10.734375 C 72.539062 10.605469 72.773438 10.554688 73.007812 10.585938 " fill-opacity="1" fill-rule="nonzero"></path>
      </g>
    </g>
  </g>
  <g clip-path="url(#934bbf9d69)">
    <g clip-path="url(#f14219b725)">
      <g clip-path="url(#d43f3a5de8)">
        <path fill="#ffffff" d="M 71.902344 12.160156 C 72.511719 12.351562 72.882812 12.648438 73.003906 13.050781 L 73.003906 13.054688 C 73.011719 13.113281 73.015625 13.171875 73.011719 13.226562 C 73.003906 13.625 72.785156 14.039062 72.355469 14.464844 C 72.207031 14.609375 72.039062 14.753906 71.851562 14.898438 C 71.546875 15.113281 71.273438 15.242188 71.042969 15.289062 C 70.746094 15.328125 70.535156 15.242188 70.421875 15.03125 C 70.316406 14.835938 70.292969 14.527344 70.355469 14.117188 C 70.398438 13.914062 70.375 13.726562 70.285156 13.558594 C 70.273438 13.539062 70.261719 13.519531 70.246094 13.496094 C 70.21875 13.449219 70.191406 13.398438 70.164062 13.355469 C 70.019531 13.082031 69.9375 12.84375 69.917969 12.644531 C 69.894531 12.441406 69.9375 12.28125 70.042969 12.167969 C 70.1875 12.015625 70.433594 11.945312 70.804688 11.957031 C 71.234375 12 71.601562 12.066406 71.902344 12.160156 " fill-opacity="1" fill-rule="nonzero"></path>
      </g>
    </g>
  </g>
  <g clip-path="url(#232d5f368c)">
    <g clip-path="url(#4832cdf714)">
      <g clip-path="url(#bcac52906f)">
        <path fill="#ffffff" d="M 73.898438 12.914062 C 73.628906 12.894531 73.441406 12.792969 73.34375 12.609375 L 73.339844 12.609375 C 73.25 12.425781 73.269531 12.214844 73.394531 11.984375 C 73.511719 11.746094 73.710938 11.554688 73.980469 11.417969 C 74.257812 11.273438 74.523438 11.210938 74.773438 11.230469 C 75.039062 11.253906 75.222656 11.355469 75.320312 11.535156 L 75.324219 11.542969 C 75.417969 11.71875 75.402344 11.929688 75.289062 12.167969 L 75.285156 12.171875 C 75.148438 12.394531 74.949219 12.574219 74.683594 12.722656 C 74.554688 12.796875 74.417969 12.847656 74.28125 12.875 C 74.160156 12.90625 74.03125 12.917969 73.898438 12.914062 " fill-opacity="1" fill-rule="nonzero"></path>
      </g>
    </g>
  </g>
  <g clip-path="url(#68735ce77f)">
    <g clip-path="url(#f6ac47b690)">
      <g clip-path="url(#25f801c8f1)">
        <path fill="#ffffff" d="M 72.851562 14.390625 C 73.050781 14.359375 73.257812 14.394531 73.480469 14.492188 C 73.5 14.5 73.515625 14.507812 73.535156 14.515625 C 73.546875 14.523438 73.554688 14.527344 73.566406 14.53125 C 73.804688 14.640625 73.980469 14.800781 74.089844 15.007812 L 74.09375 15.011719 C 74.21875 15.210938 74.242188 15.394531 74.167969 15.5625 C 74.085938 15.726562 73.925781 15.824219 73.695312 15.851562 C 73.460938 15.875 73.21875 15.828125 72.972656 15.710938 C 72.835938 15.640625 72.71875 15.558594 72.628906 15.472656 C 72.554688 15.398438 72.492188 15.320312 72.449219 15.238281 C 72.441406 15.226562 72.433594 15.214844 72.429688 15.203125 C 72.378906 15.109375 72.347656 15.019531 72.335938 14.929688 C 72.328125 14.839844 72.339844 14.753906 72.378906 14.675781 C 72.457031 14.511719 72.617188 14.417969 72.851562 14.390625 " fill-opacity="1" fill-rule="nonzero"></path>
      </g>
    </g>
  </g>
  <g clip-path="url(#98a3d06e3f)">
    <g clip-path="url(#ee0467aac8)">
      <g clip-path="url(#1ec9d732d8)">
        <path fill="#ffffff" d="M 74.644531 14.511719 C 74.484375 14.496094 74.34375 14.464844 74.222656 14.414062 C 74.101562 14.371094 73.988281 14.308594 73.882812 14.230469 L 73.867188 14.21875 C 73.839844 14.195312 73.816406 14.175781 73.792969 14.152344 C 73.734375 14.097656 73.6875 14.035156 73.652344 13.972656 C 73.601562 13.878906 73.578125 13.773438 73.589844 13.667969 C 73.617188 13.464844 73.75 13.300781 73.980469 13.183594 C 74.210938 13.050781 74.480469 13 74.78125 13.035156 C 74.914062 13.050781 75.035156 13.074219 75.148438 13.113281 C 75.300781 13.164062 75.433594 13.230469 75.546875 13.320312 C 75.753906 13.488281 75.847656 13.675781 75.828125 13.886719 C 75.808594 14.082031 75.683594 14.25 75.453125 14.386719 L 75.449219 14.386719 C 75.214844 14.496094 74.941406 14.535156 74.644531 14.511719 " fill-opacity="1" fill-rule="nonzero"></path>
      </g>
    </g>
  </g>
  <g clip-path="url(#b5d2deac7a)">
    <g clip-path="url(#b0c8cba579)">
      <g clip-path="url(#49ce3cf232)">
        <path fill="#ffffff" d="M 66.085938 7.335938 C 66.257812 7.414062 66.359375 7.570312 66.390625 7.800781 C 66.417969 8.039062 66.375 8.28125 66.265625 8.527344 C 66.148438 8.777344 65.996094 8.960938 65.804688 9.066406 C 65.703125 9.128906 65.605469 9.167969 65.503906 9.183594 C 65.414062 9.195312 65.328125 9.183594 65.246094 9.148438 L 65.242188 9.144531 C 65.078125 9.070312 64.980469 8.914062 64.949219 8.683594 C 64.910156 8.457031 64.953125 8.214844 65.070312 7.960938 C 65.175781 7.722656 65.332031 7.539062 65.539062 7.421875 C 65.734375 7.296875 65.917969 7.265625 66.085938 7.335938 " fill-opacity="1" fill-rule="nonzero"></path>
      </g>
    </g>
  </g>
  <g clip-path="url(#41f2162262)">
    <g clip-path="url(#86e67a74e1)">
      <g clip-path="url(#6cdc44c733)">
        <path fill="#ffffff" d="M 67.007812 9.402344 L 67.011719 9.40625 C 67.054688 9.449219 67.089844 9.492188 67.125 9.539062 C 67.355469 9.863281 67.425781 10.328125 67.339844 10.921875 C 67.304688 11.125 67.257812 11.34375 67.195312 11.574219 C 67.078125 11.925781 66.9375 12.195312 66.78125 12.371094 C 66.566406 12.582031 66.347656 12.636719 66.128906 12.535156 C 65.925781 12.441406 65.726562 12.210938 65.527344 11.84375 C 65.441406 11.65625 65.308594 11.519531 65.136719 11.4375 C 65.117188 11.429688 65.09375 11.421875 65.070312 11.410156 C 65.015625 11.390625 64.96875 11.367188 64.917969 11.34375 C 64.640625 11.214844 64.429688 11.074219 64.296875 10.925781 C 64.160156 10.777344 64.097656 10.625 64.113281 10.46875 C 64.136719 10.261719 64.292969 10.054688 64.597656 9.84375 C 64.964844 9.621094 65.300781 9.453125 65.597656 9.347656 C 66.199219 9.136719 66.671875 9.152344 67.007812 9.402344 " fill-opacity="1" fill-rule="nonzero"></path>
      </g>
    </g>
  </g>
  <g clip-path="url(#7955d4e299)">
    <g clip-path="url(#997f19dc72)">
      <g clip-path="url(#b8aed19953)">
        <path fill="#ffffff" d="M 67.015625 8.84375 C 66.832031 8.753906 66.722656 8.574219 66.6875 8.3125 C 66.636719 8.050781 66.679688 7.78125 66.8125 7.507812 C 66.949219 7.226562 67.125 7.019531 67.339844 6.882812 C 67.5625 6.742188 67.773438 6.714844 67.957031 6.800781 L 67.964844 6.804688 C 68.144531 6.890625 68.261719 7.066406 68.308594 7.324219 L 68.3125 7.332031 C 68.335938 7.59375 68.285156 7.855469 68.160156 8.128906 C 68.097656 8.269531 68.019531 8.394531 67.929688 8.496094 C 67.847656 8.59375 67.753906 8.679688 67.644531 8.757812 C 67.417969 8.902344 67.207031 8.933594 67.015625 8.84375 " fill-opacity="1" fill-rule="nonzero"></path>
      </g>
    </g>
  </g>
  <g clip-path="url(#ab935089e3)">
    <g clip-path="url(#87620732ef)">
      <g clip-path="url(#159a1c09fb)">
        <path fill="#ffffff" d="M 67.875 11.488281 C 67.863281 11.480469 67.847656 11.476562 67.835938 11.46875 C 67.742188 11.425781 67.664062 11.371094 67.601562 11.308594 C 67.539062 11.242188 67.5 11.164062 67.480469 11.078125 C 67.449219 10.902344 67.519531 10.730469 67.691406 10.566406 C 67.832031 10.421875 68.015625 10.328125 68.253906 10.269531 C 68.273438 10.265625 68.292969 10.261719 68.3125 10.257812 C 68.324219 10.253906 68.335938 10.253906 68.347656 10.25 C 68.601562 10.195312 68.839844 10.21875 69.050781 10.320312 L 69.058594 10.320312 C 69.277344 10.40625 69.40625 10.535156 69.445312 10.714844 C 69.480469 10.898438 69.410156 11.070312 69.238281 11.234375 C 69.066406 11.390625 68.84375 11.5 68.578125 11.550781 C 68.425781 11.578125 68.285156 11.585938 68.160156 11.566406 C 68.054688 11.554688 67.957031 11.527344 67.875 11.488281 " fill-opacity="1" fill-rule="nonzero"></path>
      </g>
    </g>
  </g>
  <g clip-path="url(#809c8f081e)">
    <g clip-path="url(#4253191504)">
      <g clip-path="url(#e962ad2495)">
        <path fill="#ffffff" d="M 68.421875 9.820312 L 68.402344 9.820312 C 68.367188 9.820312 68.335938 9.816406 68.300781 9.8125 C 68.222656 9.804688 68.148438 9.78125 68.082031 9.753906 C 67.984375 9.707031 67.90625 9.636719 67.847656 9.542969 C 67.746094 9.367188 67.757812 9.15625 67.871094 8.921875 C 67.976562 8.679688 68.160156 8.476562 68.425781 8.324219 C 68.539062 8.257812 68.652344 8.207031 68.765625 8.167969 C 68.917969 8.117188 69.0625 8.09375 69.207031 8.09375 C 69.472656 8.105469 69.664062 8.199219 69.773438 8.378906 C 69.875 8.546875 69.871094 8.757812 69.773438 9.003906 L 69.769531 9.007812 C 69.644531 9.234375 69.453125 9.429688 69.195312 9.589844 C 69.0625 9.671875 68.929688 9.730469 68.800781 9.761719 C 68.679688 9.804688 68.550781 9.824219 68.421875 9.820312 " fill-opacity="1" fill-rule="nonzero"></path>
      </g>
    </g>
  </g>
  <path fill="#ffffff" d="M 39.277344 10.183594 C 41.011719 9.941406 41.152344 13.046875 39.546875 12.972656 C 38.257812 12.914062 37.769531 10.394531 39.277344 10.183594 " fill-opacity="1" fill-rule="evenodd"></path>
  <path fill="#ffffff" d="M 42.066406 10.183594 C 43.976562 9.765625 43.753906 13.164062 41.976562 12.972656 C 40.570312 12.824219 40.84375 10.449219 42.066406 10.183594 " fill-opacity="1" fill-rule="evenodd"></path>
  <path fill="#ffffff" d="M 38.648438 13.917969 C 37.96875 15.402344 35.898438 14.355469 36.128906 12.882812 C 36.371094 11.335938 39.140625 12.125 38.648438 13.917969 " fill-opacity="1" fill-rule="evenodd"></path>
  <g clip-path="url(#c4272920ba)">
    <path fill="#ffffff" d="M 44.269531 12.074219 C 44.71875 11.988281 45.277344 12.144531 45.484375 12.523438 C 46.0625 13.566406 45 14.839844 43.957031 14.726562 C 43.382812 14.667969 43.050781 14.179688 43.011719 13.738281 C 42.925781 12.792969 43.601562 12.203125 44.269531 12.074219 " fill-opacity="1" fill-rule="evenodd"></path>
  </g>
  <g clip-path="url(#b356492ba4)">
    <path fill="#ffffff" d="M 40.402344 13.46875 C 41.976562 13.195312 43.425781 14.332031 43.101562 16.257812 C 43.035156 16.65625 42.691406 17.21875 42.203125 17.246094 C 41.804688 17.269531 41.34375 16.886719 40.851562 16.886719 C 40.242188 16.890625 39.757812 17.433594 39.1875 17.15625 C 38.707031 16.925781 38.511719 15.992188 38.601562 15.3125 C 38.730469 14.332031 39.453125 13.632812 40.402344 13.46875 " fill-opacity="1" fill-rule="evenodd"></path>
  </g>
</svg>
