<?xml version="1.0" encoding="UTF-8"?>
<svg xmlns="http://www.w3.org/2000/svg" xmlns:xlink="http://www.w3.org/1999/xlink" width="107" zoomAndPan="magnify" viewBox="0 0 80.25 35.25" height="47" preserveAspectRatio="xMidYMid meet" version="1.0">
  <defs>
    <g></g>
    <clipPath id="4c031901d2">
      <path d="M 0.46875 3.453125 L 79.046875 3.453125 L 79.046875 31.0625 L 0.46875 31.0625 Z M 0.46875 3.453125 " clip-rule="nonzero"></path>
    </clipPath>
    <clipPath id="0213c385a2">
      <path d="M 45 0 L 74.15625 0 L 74.15625 33.78125 L 45 33.78125 Z M 45 0 " clip-rule="nonzero"></path>
    </clipPath>
    <clipPath id="add220e813">
      <path d="M 58.5625 5 L 64.4375 5 L 64.4375 9.992188 L 58.5625 9.992188 Z M 58.5625 5 " clip-rule="nonzero"></path>
    </clipPath>
  </defs>
  <g clip-path="url(#4c031901d2)">
    <path fill="#cc9d7d" d="M 0.46875 3.453125 L 79.046875 3.453125 L 79.046875 31.0625 L 0.46875 31.0625 Z M 0.46875 3.453125 " fill-opacity="1" fill-rule="nonzero"></path>
  </g>
  <g fill="#ffffff" fill-opacity="1">
    <g transform="translate(3.920312, 16.855283)">
      <g>
        <path d="M 3.8125 -5.109375 L 3.8125 -4.140625 L 1.609375 -4.140625 L 1.609375 0 L 0.546875 0 L 0.546875 -9.5625 L 4.34375 -9.5625 L 4.34375 -8.59375 L 1.609375 -8.59375 L 1.609375 -5.109375 Z M 3.8125 -5.109375 "></path>
      </g>
    </g>
  </g>
  <g fill="#ffffff" fill-opacity="1">
    <g transform="translate(8.562946, 16.855283)">
      <g>
        <path d="M 1.609375 -9.5625 L 1.609375 0 L 0.546875 0 L 0.546875 -9.5625 Z M 1.609375 -9.5625 "></path>
      </g>
    </g>
  </g>
  <g fill="#ffffff" fill-opacity="1">
    <g transform="translate(10.720407, 16.855283)">
      <g>
        <path d="M 2.78125 -9.5625 C 3.53125 -9.5625 4.078125 -9.347656 4.421875 -8.921875 C 4.773438 -8.503906 4.953125 -7.925781 4.953125 -7.1875 L 4.953125 -2.359375 C 4.953125 -1.617188 4.773438 -1.039062 4.421875 -0.625 C 4.078125 -0.207031 3.53125 0 2.78125 0 L 0.546875 0 L 0.546875 -9.5625 Z M 2.765625 -0.96875 C 3.148438 -0.96875 3.4375 -1.082031 3.625 -1.3125 C 3.8125 -1.550781 3.90625 -1.890625 3.90625 -2.328125 L 3.90625 -7.234375 C 3.90625 -7.671875 3.8125 -8.003906 3.625 -8.234375 C 3.4375 -8.472656 3.148438 -8.59375 2.765625 -8.59375 L 1.609375 -8.59375 L 1.609375 -0.96875 Z M 2.765625 -0.96875 "></path>
      </g>
    </g>
  </g>
  <g fill="#ffffff" fill-opacity="1">
    <g transform="translate(16.127716, 16.855283)">
      <g>
        <path d="M 0.46875 -7.25 C 0.46875 -7.988281 0.644531 -8.570312 1 -9 C 1.363281 -9.4375 1.914062 -9.65625 2.65625 -9.65625 C 3.382812 -9.65625 3.929688 -9.4375 4.296875 -9 C 4.660156 -8.570312 4.84375 -7.988281 4.84375 -7.25 L 4.84375 -2.3125 C 4.84375 -1.582031 4.660156 -1 4.296875 -0.5625 C 3.929688 -0.125 3.382812 0.09375 2.65625 0.09375 C 1.914062 0.09375 1.363281 -0.125 1 -0.5625 C 0.644531 -1 0.46875 -1.582031 0.46875 -2.3125 Z M 1.515625 -2.25 C 1.515625 -1.8125 1.609375 -1.472656 1.796875 -1.234375 C 1.984375 -0.992188 2.269531 -0.875 2.65625 -0.875 C 3.039062 -0.875 3.320312 -0.992188 3.5 -1.234375 C 3.6875 -1.472656 3.78125 -1.8125 3.78125 -2.25 L 3.78125 -7.3125 C 3.78125 -7.75 3.6875 -8.085938 3.5 -8.328125 C 3.320312 -8.566406 3.039062 -8.6875 2.65625 -8.6875 C 2.269531 -8.6875 1.984375 -8.566406 1.796875 -8.328125 C 1.609375 -8.085938 1.515625 -7.75 1.515625 -7.3125 Z M 1.515625 -2.25 "></path>
      </g>
    </g>
  </g>
  <g fill="#ffffff" fill-opacity="1">
    <g transform="translate(21.43944, 16.855283)">
      <g>
        <path d="M 1.109375 -7.03125 L 0.671875 -7.03125 L 1.015625 -8.234375 L 0.609375 -8.234375 L 0.609375 -9.5625 L 1.640625 -9.5625 L 1.640625 -8.34375 Z M 1.109375 -7.03125 "></path>
      </g>
    </g>
  </g>
  <g fill="#ffffff" fill-opacity="1">
    <g transform="translate(23.62421, 16.855283)">
      <g>
        <path d="M 2.546875 -9.65625 C 3.273438 -9.65625 3.8125 -9.4375 4.15625 -9 C 4.507812 -8.570312 4.6875 -7.992188 4.6875 -7.265625 L 4.6875 -7 L 3.671875 -7 L 3.671875 -7.3125 C 3.671875 -7.75 3.582031 -8.085938 3.40625 -8.328125 C 3.238281 -8.566406 2.960938 -8.6875 2.578125 -8.6875 C 2.191406 -8.6875 1.910156 -8.566406 1.734375 -8.328125 C 1.566406 -8.085938 1.484375 -7.753906 1.484375 -7.328125 C 1.484375 -6.972656 1.5625 -6.664062 1.71875 -6.40625 C 1.882812 -6.144531 2.082031 -5.898438 2.3125 -5.671875 C 2.550781 -5.453125 2.8125 -5.234375 3.09375 -5.015625 C 3.375 -4.804688 3.628906 -4.570312 3.859375 -4.3125 C 4.097656 -4.0625 4.296875 -3.773438 4.453125 -3.453125 C 4.617188 -3.128906 4.703125 -2.742188 4.703125 -2.296875 C 4.703125 -1.566406 4.523438 -0.984375 4.171875 -0.546875 C 3.816406 -0.117188 3.273438 0.09375 2.546875 0.09375 C 1.804688 0.09375 1.257812 -0.117188 0.90625 -0.546875 C 0.5625 -0.984375 0.390625 -1.566406 0.390625 -2.296875 L 0.390625 -2.84375 L 1.390625 -2.84375 L 1.390625 -2.234375 C 1.390625 -1.796875 1.476562 -1.457031 1.65625 -1.21875 C 1.84375 -0.988281 2.128906 -0.875 2.515625 -0.875 C 2.898438 -0.875 3.179688 -0.988281 3.359375 -1.21875 C 3.535156 -1.457031 3.625 -1.796875 3.625 -2.234375 C 3.625 -2.585938 3.546875 -2.894531 3.390625 -3.15625 C 3.234375 -3.414062 3.035156 -3.65625 2.796875 -3.875 C 2.554688 -4.101562 2.300781 -4.320312 2.03125 -4.53125 C 1.757812 -4.75 1.503906 -4.984375 1.265625 -5.234375 C 1.035156 -5.492188 0.835938 -5.785156 0.671875 -6.109375 C 0.515625 -6.429688 0.4375 -6.816406 0.4375 -7.265625 C 0.4375 -8.003906 0.609375 -8.585938 0.953125 -9.015625 C 1.296875 -9.441406 1.828125 -9.65625 2.546875 -9.65625 Z M 2.546875 -9.65625 "></path>
      </g>
    </g>
  </g>
  <g fill="#ffffff" fill-opacity="1">
    <g transform="translate(3.920312, 27.870908)">
      <g>
        <path d="M 2.046875 -5.3125 L 3.984375 -5.3125 L 3.984375 -3.953125 L 2.046875 -3.953125 L 2.046875 0 L 0.546875 0 L 0.546875 -9.5625 L 4.515625 -9.5625 L 4.515625 -8.1875 L 2.046875 -8.1875 Z M 2.046875 -5.3125 "></path>
      </g>
    </g>
  </g>
  <g fill="#ffffff" fill-opacity="1">
    <g transform="translate(8.617573, 27.870908)">
      <g>
        <path d="M 5.40625 0 L 3.890625 0 L 3.625 -1.734375 L 1.78125 -1.734375 L 1.53125 0 L 0.15625 0 L 1.6875 -9.5625 L 3.875 -9.5625 Z M 1.984375 -3.03125 L 3.421875 -3.03125 L 2.703125 -7.859375 Z M 1.984375 -3.03125 "></path>
      </g>
    </g>
  </g>
  <g fill="#ffffff" fill-opacity="1">
    <g transform="translate(14.175083, 27.870908)">
      <g>
        <path d="M 2.8125 -1.765625 L 3.953125 -9.5625 L 5.34375 -9.5625 L 3.859375 0 L 1.625 0 L 0.15625 -9.5625 L 1.671875 -9.5625 Z M 2.8125 -1.765625 "></path>
      </g>
    </g>
  </g>
  <g fill="#ffffff" fill-opacity="1">
    <g transform="translate(19.664316, 27.870908)">
      <g>
        <path d="M 1.921875 -2.203125 C 1.921875 -1.859375 1.988281 -1.613281 2.125 -1.46875 C 2.269531 -1.320312 2.460938 -1.25 2.703125 -1.25 C 2.941406 -1.25 3.128906 -1.320312 3.265625 -1.46875 C 3.410156 -1.613281 3.484375 -1.859375 3.484375 -2.203125 L 3.484375 -7.359375 C 3.484375 -7.703125 3.410156 -7.941406 3.265625 -8.078125 C 3.128906 -8.222656 2.941406 -8.296875 2.703125 -8.296875 C 2.460938 -8.296875 2.269531 -8.222656 2.125 -8.078125 C 1.988281 -7.941406 1.921875 -7.703125 1.921875 -7.359375 Z M 0.421875 -7.265625 C 0.421875 -8.035156 0.613281 -8.628906 1 -9.046875 C 1.394531 -9.460938 1.960938 -9.671875 2.703125 -9.671875 C 3.441406 -9.671875 4.003906 -9.460938 4.390625 -9.046875 C 4.785156 -8.628906 4.984375 -8.035156 4.984375 -7.265625 L 4.984375 -2.296875 C 4.984375 -1.523438 4.785156 -0.929688 4.390625 -0.515625 C 4.003906 -0.0976562 3.441406 0.109375 2.703125 0.109375 C 1.960938 0.109375 1.394531 -0.0976562 1 -0.515625 C 0.613281 -0.929688 0.421875 -1.523438 0.421875 -2.296875 Z M 0.421875 -7.265625 "></path>
      </g>
    </g>
  </g>
  <g fill="#ffffff" fill-opacity="1">
    <g transform="translate(25.071625, 27.870908)">
      <g>
        <path d="M 3.6875 0 C 3.664062 -0.0625 3.644531 -0.117188 3.625 -0.171875 C 3.613281 -0.234375 3.597656 -0.300781 3.578125 -0.375 C 3.566406 -0.457031 3.554688 -0.5625 3.546875 -0.6875 C 3.546875 -0.820312 3.546875 -0.984375 3.546875 -1.171875 L 3.546875 -2.671875 C 3.546875 -3.117188 3.46875 -3.429688 3.3125 -3.609375 C 3.164062 -3.796875 2.914062 -3.890625 2.5625 -3.890625 L 2.046875 -3.890625 L 2.046875 0 L 0.546875 0 L 0.546875 -9.5625 L 2.8125 -9.5625 C 3.59375 -9.5625 4.160156 -9.378906 4.515625 -9.015625 C 4.867188 -8.648438 5.046875 -8.097656 5.046875 -7.359375 L 5.046875 -6.609375 C 5.046875 -5.628906 4.71875 -4.984375 4.0625 -4.671875 C 4.4375 -4.515625 4.691406 -4.257812 4.828125 -3.90625 C 4.972656 -3.5625 5.046875 -3.140625 5.046875 -2.640625 L 5.046875 -1.15625 C 5.046875 -0.925781 5.054688 -0.71875 5.078125 -0.53125 C 5.097656 -0.351562 5.144531 -0.175781 5.21875 0 Z M 2.046875 -8.1875 L 2.046875 -5.25 L 2.640625 -5.25 C 2.921875 -5.25 3.140625 -5.320312 3.296875 -5.46875 C 3.453125 -5.613281 3.53125 -5.878906 3.53125 -6.265625 L 3.53125 -7.203125 C 3.53125 -7.554688 3.46875 -7.804688 3.34375 -7.953125 C 3.226562 -8.109375 3.035156 -8.1875 2.765625 -8.1875 Z M 2.046875 -8.1875 "></path>
      </g>
    </g>
  </g>
  <g fill="#ffffff" fill-opacity="1">
    <g transform="translate(30.560858, 27.870908)">
      <g>
        <path d="M 0.546875 -9.5625 L 2.046875 -9.5625 L 2.046875 0 L 0.546875 0 Z M 0.546875 -9.5625 "></path>
      </g>
    </g>
  </g>
  <g fill="#ffffff" fill-opacity="1">
    <g transform="translate(33.155274, 27.870908)">
      <g>
        <path d="M 0.109375 -9.5625 L 4.75 -9.5625 L 4.75 -8.1875 L 3.1875 -8.1875 L 3.1875 0 L 1.6875 0 L 1.6875 -8.1875 L 0.109375 -8.1875 Z M 0.109375 -9.5625 "></path>
      </g>
    </g>
  </g>
  <g fill="#ffffff" fill-opacity="1">
    <g transform="translate(38.016384, 27.870908)">
      <g>
        <path d="M 2.046875 -5.53125 L 4.109375 -5.53125 L 4.109375 -4.171875 L 2.046875 -4.171875 L 2.046875 -1.359375 L 4.640625 -1.359375 L 4.640625 0 L 0.546875 0 L 0.546875 -9.5625 L 4.640625 -9.5625 L 4.640625 -8.1875 L 2.046875 -8.1875 Z M 2.046875 -5.53125 "></path>
      </g>
    </g>
  </g>
  <path fill="#1d1d1b" d="M 73.558594 10.785156 C 73.585938 10.832031 73.613281 10.875 73.636719 10.90625 C 73.605469 10.867188 73.582031 10.828125 73.558594 10.785156 Z M 73.558594 10.785156 " fill-opacity="1" fill-rule="nonzero"></path>
  <g clip-path="url(#0213c385a2)">
    <path fill="#1d1d1b" d="M 73.917969 12.414062 C 73.902344 12.382812 73.886719 12.351562 73.875 12.320312 C 73.914062 12.347656 73.949219 12.371094 73.980469 12.386719 C 73.9375 12.359375 73.902344 12.324219 73.863281 12.292969 C 73.855469 12.273438 73.847656 12.257812 73.835938 12.238281 C 73.878906 12.273438 73.921875 12.300781 73.953125 12.320312 L 73.878906 12.261719 C 73.988281 12.347656 74.085938 12.394531 74.148438 12.417969 C 74.015625 12.355469 73.90625 12.265625 73.804688 12.171875 C 73.785156 12.125 73.761719 12.078125 73.738281 12.03125 C 73.78125 12.085938 73.816406 12.140625 73.863281 12.191406 C 73.824219 12.144531 73.777344 12.074219 73.71875 11.988281 C 73.707031 11.957031 73.691406 11.925781 73.675781 11.894531 C 73.734375 11.949219 73.792969 12.003906 73.839844 12.050781 C 73.910156 12.105469 73.972656 12.148438 74.019531 12.183594 C 73.917969 12.101562 73.824219 12.019531 73.742188 11.933594 C 73.710938 11.898438 73.679688 11.863281 73.648438 11.832031 C 73.632812 11.796875 73.617188 11.761719 73.601562 11.730469 C 73.75 11.890625 73.882812 12.003906 73.972656 12.066406 C 73.816406 11.933594 73.6875 11.796875 73.574219 11.667969 C 73.5625 11.644531 73.554688 11.625 73.546875 11.605469 C 73.589844 11.652344 73.628906 11.703125 73.667969 11.742188 C 73.785156 11.855469 73.878906 11.941406 73.945312 11.992188 C 73.917969 11.972656 73.894531 11.945312 73.871094 11.921875 C 73.976562 12.027344 74.082031 12.089844 74.144531 12.140625 C 73.957031 11.992188 73.804688 11.839844 73.671875 11.691406 C 73.640625 11.644531 73.613281 11.597656 73.585938 11.554688 C 73.566406 11.484375 73.539062 11.402344 73.507812 11.304688 C 73.570312 11.414062 73.636719 11.523438 73.695312 11.644531 C 73.644531 11.539062 73.570312 11.390625 73.476562 11.21875 C 73.476562 11.214844 73.476562 11.210938 73.472656 11.207031 C 73.480469 11.21875 73.488281 11.234375 73.496094 11.25 C 73.488281 11.230469 73.476562 11.207031 73.464844 11.1875 C 73.464844 11.183594 73.460938 11.175781 73.460938 11.167969 C 73.578125 11.390625 73.683594 11.558594 73.746094 11.660156 C 73.613281 11.414062 73.496094 11.1875 73.394531 10.984375 C 73.386719 10.960938 73.378906 10.933594 73.371094 10.910156 C 73.449219 11.042969 73.527344 11.183594 73.605469 11.328125 C 73.574219 11.253906 73.523438 11.15625 73.460938 11.042969 C 73.578125 11.257812 73.675781 11.425781 73.742188 11.523438 C 73.550781 11.179688 73.394531 10.882812 73.265625 10.621094 L 73.253906 10.585938 C 73.308594 10.6875 73.363281 10.789062 73.425781 10.890625 C 73.558594 11.132812 73.671875 11.328125 73.742188 11.4375 L 73.6875 11.339844 C 73.769531 11.484375 73.835938 11.597656 73.886719 11.671875 C 73.808594 11.53125 73.738281 11.398438 73.667969 11.269531 C 73.695312 11.308594 73.71875 11.347656 73.746094 11.386719 C 73.707031 11.316406 73.652344 11.222656 73.589844 11.117188 C 73.558594 11.0625 73.53125 11.011719 73.507812 10.957031 C 73.546875 11.023438 73.589844 11.082031 73.628906 11.148438 C 73.585938 11.070312 73.527344 10.972656 73.457031 10.855469 C 73.421875 10.789062 73.390625 10.726562 73.359375 10.664062 C 73.394531 10.707031 73.433594 10.753906 73.464844 10.792969 C 73.519531 10.886719 73.574219 10.980469 73.636719 11.074219 C 73.601562 11.007812 73.550781 10.925781 73.496094 10.828125 C 73.628906 10.992188 73.742188 11.132812 73.828125 11.234375 C 73.695312 11.0625 73.574219 10.902344 73.453125 10.75 C 73.433594 10.707031 73.410156 10.664062 73.386719 10.613281 C 73.382812 10.601562 73.371094 10.585938 73.367188 10.574219 C 73.523438 10.761719 73.660156 10.917969 73.742188 11.03125 C 73.597656 10.847656 73.464844 10.675781 73.335938 10.511719 C 73.320312 10.480469 73.304688 10.445312 73.285156 10.410156 C 73.355469 10.5 73.421875 10.578125 73.484375 10.648438 C 73.507812 10.691406 73.539062 10.734375 73.566406 10.777344 C 73.550781 10.746094 73.53125 10.714844 73.511719 10.679688 C 73.582031 10.765625 73.648438 10.839844 73.695312 10.902344 C 73.660156 10.851562 73.621094 10.804688 73.582031 10.753906 C 73.753906 10.964844 73.886719 11.132812 73.984375 11.253906 C 73.792969 10.996094 73.613281 10.765625 73.441406 10.554688 C 73.394531 10.46875 73.34375 10.375 73.285156 10.273438 C 73.398438 10.425781 73.5 10.566406 73.589844 10.6875 C 73.6875 10.800781 73.773438 10.886719 73.835938 10.957031 C 73.765625 10.875 73.695312 10.796875 73.628906 10.714844 C 73.570312 10.632812 73.507812 10.550781 73.453125 10.46875 C 73.335938 10.308594 73.234375 10.152344 73.148438 9.996094 C 73.109375 9.917969 73.070312 9.832031 73.027344 9.746094 C 73.316406 10.242188 73.589844 10.59375 73.753906 10.773438 C 73.375 10.308594 73.101562 9.855469 72.898438 9.449219 L 72.847656 9.328125 C 73.007812 9.65625 73.1875 9.929688 73.328125 10.160156 C 73.484375 10.378906 73.617188 10.546875 73.707031 10.660156 C 73.671875 10.613281 73.636719 10.570312 73.605469 10.523438 C 73.75 10.730469 73.902344 10.859375 73.992188 10.960938 C 73.511719 10.457031 73.21875 9.929688 72.984375 9.488281 C 72.757812 9.042969 72.605469 8.660156 72.488281 8.34375 C 72.480469 8.320312 72.46875 8.296875 72.460938 8.269531 C 72.332031 8.0625 72.222656 7.816406 72.121094 7.5625 C 72.085938 7.421875 72.046875 7.289062 71.996094 7.167969 C 71.992188 7.148438 71.988281 7.125 71.984375 7.105469 C 72.019531 7.203125 72.054688 7.285156 72.078125 7.355469 C 72.039062 7.25 72.003906 7.152344 71.96875 7.050781 C 71.960938 7.027344 71.957031 7.003906 71.949219 6.980469 C 72.109375 7.347656 72.1875 7.652344 72.25 7.8125 C 72.183594 7.609375 72.140625 7.414062 72.078125 7.242188 C 72.011719 7.070312 71.953125 6.90625 71.898438 6.761719 L 71.875 6.675781 C 71.964844 6.910156 72.046875 7.121094 72.121094 7.300781 C 72.179688 7.476562 72.226562 7.621094 72.261719 7.722656 C 72.25 7.683594 72.238281 7.644531 72.226562 7.605469 C 72.28125 7.777344 72.324219 7.917969 72.359375 8.011719 C 72.289062 7.765625 72.226562 7.542969 72.167969 7.339844 C 72.09375 7.136719 72.03125 6.957031 71.96875 6.792969 C 71.867188 6.453125 71.734375 6.195312 71.648438 5.972656 C 71.640625 5.957031 71.636719 5.941406 71.628906 5.921875 C 71.589844 5.875 71.558594 5.824219 71.523438 5.769531 C 71.429688 5.488281 71.347656 5.234375 71.269531 5.011719 C 71.277344 5.023438 71.289062 5.039062 71.292969 5.050781 C 71.28125 5.027344 71.269531 5.007812 71.261719 4.988281 C 71.246094 4.945312 71.234375 4.90625 71.21875 4.867188 C 71.21875 4.867188 71.21875 4.867188 71.21875 4.871094 C 71.246094 4.929688 71.269531 4.976562 71.289062 5.015625 L 71.246094 4.914062 C 71.3125 5.0625 71.363281 5.183594 71.40625 5.261719 C 71.359375 5.152344 71.316406 5.046875 71.277344 4.945312 C 71.285156 4.957031 71.292969 4.976562 71.304688 4.984375 C 71.292969 4.96875 71.285156 4.953125 71.273438 4.9375 C 71.257812 4.894531 71.238281 4.859375 71.222656 4.816406 C 71.25 4.863281 71.277344 4.90625 71.296875 4.9375 C 71.257812 4.867188 71.222656 4.804688 71.191406 4.738281 C 71.164062 4.667969 71.136719 4.605469 71.109375 4.539062 C 71.1875 4.679688 71.257812 4.792969 71.300781 4.863281 L 71.257812 4.78125 C 71.324219 4.902344 71.382812 4.996094 71.425781 5.058594 C 71.203125 4.660156 71.042969 4.339844 70.921875 4.070312 C 70.90625 4.03125 70.890625 3.992188 70.878906 3.957031 C 70.882812 3.882812 70.882812 3.796875 70.878906 3.691406 C 70.925781 3.898438 70.96875 4.0625 71 4.160156 C 70.953125 3.917969 70.90625 3.707031 70.871094 3.523438 C 70.867188 3.472656 70.863281 3.421875 70.859375 3.371094 C 70.9375 3.675781 71 3.917969 71.039062 4.046875 C 70.957031 3.707031 70.894531 3.429688 70.839844 3.195312 L 70.832031 3.125 C 70.933594 3.492188 71.015625 3.804688 71.0625 3.976562 L 71.042969 3.882812 C 71.074219 4.023438 71.101562 4.132812 71.125 4.207031 C 70.960938 3.433594 70.84375 2.910156 70.738281 2.546875 C 70.734375 2.535156 70.726562 2.523438 70.722656 2.507812 C 70.640625 2.394531 70.566406 2.265625 70.480469 2.140625 C 70.449219 2.09375 70.410156 2.046875 70.371094 2.003906 C 70.035156 1.390625 69.5 0.835938 68.804688 0.566406 C 67.589844 0.09375 64.800781 0.675781 64.210938 2.097656 C 63.839844 2.992188 63.78125 3.238281 64.089844 3.816406 C 64.117188 3.863281 64.226562 3.90625 64.246094 3.949219 C 64.484375 4.449219 64.472656 4.757812 64.472656 4.757812 C 64.472656 4.757812 64.738281 4.902344 64.792969 4.996094 C 64.800781 5.007812 64.804688 5.019531 64.8125 5.039062 C 64.789062 5.089844 64.757812 5.144531 64.726562 5.195312 C 64.652344 5.304688 64.597656 5.375 64.597656 5.375 C 64.597656 5.375 64.726562 5.3125 64.796875 5.207031 C 64.804688 5.1875 64.820312 5.171875 64.828125 5.160156 C 64.851562 5.339844 64.855469 5.628906 64.875 5.902344 C 64.902344 6.296875 64.683594 6.582031 64.699219 6.773438 C 64.710938 6.960938 65.355469 6.773438 65.355469 6.773438 C 65.355469 6.773438 65.558594 6.976562 65.574219 7.097656 C 65.585938 7.222656 65.792969 7.136719 65.792969 7.136719 L 66.039062 7.046875 L 65.832031 7.300781 C 65.832031 7.300781 65.765625 7.382812 65.765625 7.476562 C 65.765625 7.574219 65.933594 7.664062 65.933594 7.664062 C 65.933594 7.664062 65.953125 7.914062 66.011719 8.136719 C 66.050781 8.285156 66.699219 8.078125 66.699219 8.128906 C 66.699219 8.160156 66.015625 8.445312 65.941406 8.507812 C 65.75 8.667969 65.613281 8.695312 65.203125 9.238281 C 64.796875 9.78125 63.675781 12.902344 63.675781 12.902344 C 63.675781 12.902344 63.429688 13.148438 63.265625 13.257812 C 63.101562 13.367188 61.695312 12.597656 61.441406 12.351562 C 60.777344 11.714844 60.550781 11.234375 60.457031 11.058594 C 60.359375 10.882812 60.375 10.707031 60.375 10.625 C 60.375 10.546875 60.007812 10.191406 59.761719 10.125 C 59.515625 10.054688 58.777344 9.621094 58.65625 9.621094 C 58.535156 9.621094 58.207031 9.675781 58.207031 9.675781 C 58.207031 9.675781 58.042969 9.785156 57.984375 9.867188 C 57.953125 9.914062 57.875 10.070312 57.757812 10.253906 C 57.707031 10.261719 57.652344 10.269531 57.609375 10.277344 C 57.5 10.292969 57.457031 10.242188 57.441406 10.3125 C 57.425781 10.386719 57.386719 10.371094 57.476562 10.4375 C 57.507812 10.460938 57.550781 10.480469 57.589844 10.5 C 57.558594 10.539062 57.527344 10.578125 57.496094 10.613281 C 57.457031 10.601562 57.417969 10.59375 57.390625 10.613281 C 57.324219 10.667969 57.296875 10.714844 57.296875 10.75 C 57.296875 10.757812 57.296875 10.777344 57.300781 10.796875 C 57.273438 10.789062 57.25 10.785156 57.238281 10.804688 C 57.199219 10.851562 57.136719 10.90625 57.160156 10.964844 C 57.167969 10.976562 57.171875 10.988281 57.171875 11 C 57.171875 11 57.171875 11 57.171875 11.003906 C 57.140625 10.992188 57.113281 10.988281 57.097656 11.007812 C 57.0625 11.050781 57.011719 11.105469 57.023438 11.15625 C 57.007812 11.15625 56.992188 11.160156 56.984375 11.171875 C 56.949219 11.214844 56.894531 11.269531 56.910156 11.324219 C 56.820312 11.4375 56.757812 11.511719 56.757812 11.511719 C 56.757812 11.511719 56.402344 11.429688 56.132812 11.671875 C 55.859375 11.917969 55.640625 12.488281 55.558594 13.03125 C 55.476562 13.574219 55.203125 14.765625 55.121094 15.367188 C 55.042969 15.964844 55.042969 16.398438 55.082031 16.667969 C 55.121094 16.9375 55.246094 17.140625 55.246094 17.140625 C 55.246094 17.140625 55.21875 17.304688 55.082031 17.414062 C 54.945312 17.523438 54.78125 17.765625 54.507812 18.011719 C 53.050781 19.316406 49.425781 22.621094 47.671875 22.816406 C 47.425781 22.84375 47.34375 22.597656 47.042969 22.109375 C 46.742188 21.621094 46.605469 20.699219 46.632812 20.347656 C 46.664062 19.992188 46.796875 19.476562 47.125 18.71875 C 47.453125 17.957031 48.4375 16.273438 48.4375 16.273438 C 46.289062 18.160156 44.042969 21.441406 46.855469 24.035156 L 46.824219 24.46875 C 46.824219 24.46875 46.796875 24.605469 46.746094 24.851562 C 46.691406 25.09375 46.71875 25.773438 46.71875 26.316406 C 46.71875 26.859375 47.425781 27.671875 47.425781 27.671875 C 47.425781 27.671875 47.414062 27.847656 47.359375 27.917969 C 47.304688 27.984375 47.167969 28.160156 47.167969 28.296875 C 47.167969 28.609375 47.671875 29.304688 47.644531 29.410156 C 47.617188 29.519531 47.234375 30.019531 47.113281 30.210938 C 46.988281 30.402344 46.824219 30.589844 46.867188 30.835938 C 46.90625 31.078125 47.347656 31.84375 47.425781 31.945312 C 47.503906 32.050781 48.082031 32.515625 48.109375 32.640625 C 48.136719 32.761719 48.699219 32.875 48.699219 32.875 L 49.132812 32.882812 C 49.132812 32.882812 49.214844 32.871094 49.253906 32.800781 C 49.296875 32.734375 49.242188 32.625 49.199219 32.542969 C 49.160156 32.464844 48.914062 32.433594 48.820312 32.433594 C 48.726562 32.433594 48.4375 32.246094 48.285156 32.082031 C 48.136719 31.917969 47.929688 31.417969 48.015625 31.242188 C 47.957031 31.199219 48.558594 30.660156 48.695312 30.578125 C 48.832031 30.496094 48.839844 30.667969 49.054688 30.832031 C 49.171875 30.921875 49.410156 31.066406 49.566406 31.160156 C 49.695312 31.242188 49.769531 31.347656 49.816406 31.359375 C 50.285156 31.460938 50.679688 31.371094 50.195312 30.957031 C 50.195312 30.957031 49.8125 30.820312 49.59375 30.550781 C 49.375 30.28125 49.347656 29.792969 49.347656 29.792969 C 49.347656 29.792969 49.785156 29.03125 50.222656 28.191406 C 50.660156 27.351562 50.714844 27.265625 50.714844 27.265625 C 50.714844 27.265625 50.90625 27.238281 51.125 26.914062 C 51.34375 26.585938 51.207031 26.207031 51.207031 26.207031 C 53.632812 25.605469 57.273438 24.578125 58.851562 22.597656 L 60.675781 23.765625 C 60.675781 23.765625 60.078125 24.496094 59.667969 24.632812 C 59.257812 24.769531 59.238281 25.035156 59.238281 25.035156 L 59.339844 25.285156 C 59.339844 25.285156 58.796875 25.9375 58.304688 26.585938 C 57.8125 27.238281 56.308594 29.820312 56.28125 30.304688 C 56.253906 30.792969 56.367188 31.582031 56.800781 31.933594 C 57.238281 32.289062 57.511719 32.152344 57.511719 32.152344 C 57.511719 32.152344 57.539062 32.882812 58.085938 33.289062 C 58.628906 33.699219 59.777344 33.5625 60.105469 33.425781 C 60.433594 33.289062 62.835938 31.878906 63.65625 31.714844 C 64.019531 31.644531 69.464844 27.335938 70.714844 29.550781 C 71.039062 30.128906 70.863281 31.339844 70.972656 31.421875 C 71.078125 31.5 71.5625 31.667969 72.265625 31.28125 C 72.96875 30.890625 72.71875 28.890625 72.773438 28.484375 C 72.828125 28.078125 72.1875 25.414062 72.1875 25.414062 C 72.1875 25.414062 72.023438 25.054688 71.539062 25.410156 C 71.359375 25.542969 71.832031 24.585938 71.863281 23.292969 C 71.914062 21.089844 70.914062 19.792969 71.65625 17.871094 C 71.703125 17.742188 71.953125 17.464844 72.226562 17.058594 C 73.714844 14.84375 73.15625 13.589844 73.59375 12.957031 C 73.59375 12.953125 73.597656 12.949219 73.597656 12.945312 C 73.664062 13.003906 73.757812 13.058594 73.867188 13.089844 C 73.765625 13.066406 73.679688 13.003906 73.605469 12.929688 C 73.621094 12.902344 73.636719 12.867188 73.644531 12.828125 C 73.652344 12.855469 73.660156 12.878906 73.667969 12.902344 C 73.660156 12.878906 73.652344 12.851562 73.644531 12.820312 C 73.664062 12.75 73.667969 12.667969 73.667969 12.578125 C 73.703125 12.621094 73.738281 12.652344 73.769531 12.675781 C 73.730469 12.644531 73.695312 12.605469 73.664062 12.566406 C 73.664062 12.539062 73.664062 12.515625 73.664062 12.492188 C 73.757812 12.613281 73.871094 12.730469 74.023438 12.84375 C 73.949219 12.777344 73.839844 12.679688 73.738281 12.550781 C 73.757812 12.578125 73.789062 12.605469 73.8125 12.636719 C 73.769531 12.582031 73.714844 12.5 73.65625 12.410156 C 73.652344 12.398438 73.652344 12.386719 73.652344 12.375 C 73.664062 12.398438 73.679688 12.417969 73.691406 12.433594 C 73.675781 12.414062 73.664062 12.386719 73.652344 12.363281 C 73.738281 12.503906 73.824219 12.59375 73.878906 12.617188 C 73.886719 12.625 73.898438 12.640625 73.90625 12.648438 C 73.898438 12.640625 73.890625 12.628906 73.878906 12.617188 C 73.882812 12.621094 73.886719 12.625 73.894531 12.625 C 73.886719 12.621094 73.882812 12.617188 73.878906 12.613281 C 73.820312 12.546875 73.753906 12.457031 73.683594 12.34375 C 73.664062 12.289062 73.644531 12.226562 73.617188 12.15625 C 73.617188 12.152344 73.617188 12.152344 73.617188 12.148438 C 73.671875 12.234375 73.734375 12.3125 73.808594 12.394531 C 73.832031 12.433594 73.851562 12.476562 73.871094 12.507812 C 73.855469 12.472656 73.839844 12.441406 73.824219 12.410156 C 73.847656 12.433594 73.867188 12.457031 73.890625 12.480469 C 73.902344 12.496094 73.910156 12.507812 73.921875 12.523438 C 73.917969 12.515625 73.910156 12.5 73.902344 12.492188 C 73.90625 12.496094 73.910156 12.5 73.910156 12.5 C 73.910156 12.5 73.90625 12.492188 73.902344 12.492188 C 73.867188 12.4375 73.824219 12.367188 73.769531 12.292969 C 73.765625 12.289062 73.765625 12.285156 73.761719 12.277344 C 73.761719 12.277344 73.765625 12.28125 73.765625 12.28125 C 73.765625 12.285156 73.765625 12.285156 73.769531 12.289062 C 73.769531 12.285156 73.765625 12.285156 73.765625 12.285156 C 73.832031 12.335938 73.886719 12.375 73.941406 12.40625 C 73.96875 12.460938 73.996094 12.515625 74.019531 12.554688 C 73.992188 12.503906 73.972656 12.460938 73.945312 12.410156 C 73.984375 12.433594 74.023438 12.453125 74.054688 12.46875 C 73.996094 12.46875 73.957031 12.441406 73.917969 12.414062 Z M 61.5625 22.65625 C 61.449219 22.757812 60.652344 21.789062 60.539062 21.652344 C 61.457031 21.714844 62.535156 21.121094 63.199219 21.121094 C 62.546875 21.8125 62.230469 22.058594 61.5625 22.65625 Z M 63.472656 19.847656 C 63.472656 19.847656 63.335938 19.902344 63.089844 19.902344 C 62.84375 19.902344 61.480469 20.363281 61.152344 20.28125 C 60.476562 20.113281 60.355469 19.507812 60.25 18.925781 C 60.144531 18.300781 59.324219 17.421875 59.324219 17.421875 C 59.324219 17.421875 59.773438 17.203125 60.074219 17.09375 C 60.375 16.984375 60.238281 16.347656 60.074219 15.914062 C 59.910156 15.476562 59.09375 14.730469 59.078125 14.515625 C 59.0625 14.300781 59.488281 13.90625 59.488281 13.90625 L 62.710938 15.941406 C 62.699219 15.972656 62.710938 16.039062 62.699219 16.070312 C 62.683594 16.136719 62.648438 16.175781 62.640625 16.246094 C 62.632812 16.304688 62.648438 16.375 62.632812 16.429688 C 62.617188 16.492188 62.597656 16.546875 62.574219 16.589844 C 62.464844 16.78125 62.679688 17.023438 62.679688 17.023438 L 63.480469 17.398438 L 63.492188 17.570312 Z M 70.828125 3.347656 L 70.820312 3.3125 L 70.816406 3.277344 Z M 70.78125 3.507812 C 70.78125 3.425781 70.773438 3.347656 70.765625 3.261719 L 70.78125 3.3125 C 70.785156 3.394531 70.785156 3.484375 70.785156 3.574219 C 70.785156 3.550781 70.78125 3.527344 70.78125 3.507812 Z M 70.808594 3.78125 C 70.816406 3.691406 70.820312 3.59375 70.820312 3.484375 C 70.832031 3.527344 70.84375 3.570312 70.855469 3.613281 C 70.863281 3.71875 70.867188 3.832031 70.871094 3.949219 C 70.847656 3.890625 70.828125 3.835938 70.808594 3.78125 Z M 71.90625 6.945312 L 71.90625 6.949219 L 71.90625 6.941406 C 71.90625 6.941406 71.90625 6.945312 71.90625 6.945312 Z M 71.359375 5.789062 C 71.355469 5.765625 71.347656 5.742188 71.34375 5.71875 C 71.355469 5.757812 71.371094 5.792969 71.382812 5.828125 C 71.390625 5.863281 71.398438 5.898438 71.40625 5.9375 C 71.390625 5.886719 71.375 5.835938 71.359375 5.789062 Z M 71.394531 5.605469 C 71.394531 5.605469 71.394531 5.601562 71.394531 5.601562 L 71.363281 5.480469 C 71.382812 5.53125 71.398438 5.585938 71.417969 5.636719 C 71.410156 5.625 71.402344 5.613281 71.394531 5.605469 Z M 71.539062 6.328125 C 71.523438 6.292969 71.515625 6.257812 71.5 6.222656 C 71.492188 6.183594 71.488281 6.148438 71.476562 6.109375 C 71.488281 6.136719 71.5 6.167969 71.511719 6.195312 C 71.53125 6.269531 71.550781 6.335938 71.570312 6.398438 C 71.5625 6.375 71.550781 6.351562 71.539062 6.328125 Z M 71.695312 6.640625 C 71.667969 6.554688 71.640625 6.472656 71.613281 6.390625 C 71.644531 6.46875 71.671875 6.550781 71.699219 6.644531 C 71.695312 6.644531 71.695312 6.640625 71.695312 6.640625 Z M 71.824219 6.824219 L 71.855469 6.90625 C 71.855469 6.917969 71.859375 6.929688 71.859375 6.9375 C 71.851562 6.90625 71.839844 6.878906 71.828125 6.847656 C 71.828125 6.84375 71.824219 6.832031 71.824219 6.824219 Z M 71.894531 7.25 C 71.894531 7.234375 71.894531 7.222656 71.890625 7.207031 C 71.902344 7.238281 71.917969 7.273438 71.925781 7.300781 C 71.914062 7.257812 71.902344 7.226562 71.886719 7.1875 C 71.871094 7.09375 71.851562 6.996094 71.832031 6.890625 C 71.847656 6.921875 71.855469 6.941406 71.867188 6.96875 C 71.894531 7.105469 71.925781 7.25 71.949219 7.40625 C 71.949219 7.421875 71.949219 7.4375 71.953125 7.453125 C 71.933594 7.382812 71.914062 7.316406 71.894531 7.25 Z M 72.03125 7.675781 C 72.023438 7.660156 72.015625 7.644531 72.007812 7.628906 C 71.996094 7.605469 71.992188 7.578125 71.984375 7.550781 C 71.976562 7.421875 71.964844 7.28125 71.933594 7.125 C 71.960938 7.210938 71.988281 7.300781 72.011719 7.382812 C 72.035156 7.496094 72.050781 7.609375 72.066406 7.734375 C 72.058594 7.714844 72.042969 7.695312 72.03125 7.675781 Z M 72.074219 7.75 C 72.066406 7.679688 72.058594 7.601562 72.046875 7.511719 C 72.082031 7.632812 72.113281 7.753906 72.148438 7.878906 C 72.125 7.835938 72.101562 7.792969 72.074219 7.75 Z M 73.292969 10.503906 C 73.328125 10.566406 73.355469 10.625 73.390625 10.6875 C 73.363281 10.652344 73.335938 10.621094 73.308594 10.585938 C 73.285156 10.535156 73.261719 10.484375 73.238281 10.4375 C 73.257812 10.460938 73.277344 10.484375 73.292969 10.503906 Z M 73.183594 10.140625 C 73.238281 10.265625 73.320312 10.382812 73.390625 10.511719 C 73.328125 10.433594 73.265625 10.355469 73.210938 10.28125 C 73.15625 10.171875 73.105469 10.054688 73.058594 9.929688 C 73.101562 10.003906 73.144531 10.074219 73.183594 10.140625 Z M 72.964844 9.699219 L 72.933594 9.640625 L 72.914062 9.582031 C 72.929688 9.621094 72.945312 9.65625 72.964844 9.699219 Z M 72.410156 8.738281 L 72.398438 8.695312 C 72.460938 8.847656 72.515625 8.988281 72.570312 9.117188 C 72.597656 9.191406 72.621094 9.261719 72.644531 9.332031 C 72.578125 9.167969 72.5 8.96875 72.410156 8.738281 Z M 73.109375 10.148438 C 73.074219 10.066406 73.039062 9.984375 73.011719 9.914062 C 73.003906 9.898438 73 9.882812 72.988281 9.867188 C 72.976562 9.851562 72.964844 9.832031 72.953125 9.816406 C 72.914062 9.722656 72.878906 9.628906 72.839844 9.527344 L 72.898438 9.644531 C 72.96875 9.8125 73.050781 9.996094 73.140625 10.183594 C 73.128906 10.171875 73.117188 10.160156 73.109375 10.148438 Z M 73.203125 10.328125 C 73.21875 10.359375 73.242188 10.398438 73.257812 10.429688 C 73.242188 10.410156 73.226562 10.390625 73.210938 10.371094 C 73.199219 10.34375 73.1875 10.316406 73.175781 10.292969 C 73.183594 10.304688 73.195312 10.316406 73.203125 10.328125 Z M 73.214844 10.734375 C 73.210938 10.714844 73.207031 10.699219 73.199219 10.683594 L 73.238281 10.757812 C 73.242188 10.769531 73.246094 10.78125 73.246094 10.792969 C 73.238281 10.773438 73.226562 10.753906 73.214844 10.734375 Z M 73.855469 12.628906 C 73.785156 12.589844 73.707031 12.488281 73.648438 12.386719 C 73.644531 12.378906 73.640625 12.367188 73.636719 12.359375 C 73.695312 12.449219 73.765625 12.539062 73.855469 12.628906 Z M 73.65625 12.355469 C 73.644531 12.335938 73.628906 12.316406 73.621094 12.292969 C 73.617188 12.269531 73.613281 12.246094 73.609375 12.222656 C 73.625 12.269531 73.640625 12.3125 73.65625 12.355469 Z M 73.824219 12.230469 C 73.832031 12.25 73.839844 12.269531 73.851562 12.289062 C 73.824219 12.265625 73.792969 12.242188 73.769531 12.21875 C 73.757812 12.195312 73.746094 12.171875 73.734375 12.148438 C 73.761719 12.179688 73.792969 12.210938 73.824219 12.230469 Z M 73.753906 12.199219 C 73.738281 12.175781 73.722656 12.152344 73.710938 12.128906 C 73.714844 12.132812 73.71875 12.136719 73.722656 12.140625 C 73.734375 12.160156 73.742188 12.175781 73.753906 12.199219 Z M 73.785156 12.160156 C 73.78125 12.15625 73.78125 12.15625 73.777344 12.152344 C 73.757812 12.109375 73.738281 12.066406 73.714844 12.023438 C 73.742188 12.070312 73.761719 12.117188 73.785156 12.160156 Z M 73.625 11.855469 C 73.628906 11.859375 73.628906 11.867188 73.636719 11.875 C 73.625 11.863281 73.621094 11.855469 73.613281 11.84375 C 73.617188 11.84375 73.621094 11.847656 73.625 11.855469 Z M 73.679688 11.960938 C 73.714844 12.035156 73.75 12.097656 73.777344 12.152344 C 73.746094 12.121094 73.71875 12.089844 73.691406 12.058594 C 73.648438 11.972656 73.609375 11.886719 73.570312 11.804688 C 73.605469 11.855469 73.640625 11.90625 73.679688 11.960938 Z M 73.574219 11.757812 C 73.570312 11.75 73.5625 11.742188 73.554688 11.734375 C 73.539062 11.707031 73.523438 11.683594 73.507812 11.65625 C 73.503906 11.644531 73.503906 11.636719 73.5 11.628906 C 73.507812 11.636719 73.511719 11.640625 73.519531 11.652344 C 73.539062 11.6875 73.558594 11.722656 73.574219 11.757812 Z M 73.535156 11.710938 C 73.53125 11.703125 73.523438 11.695312 73.515625 11.683594 C 73.515625 11.683594 73.511719 11.683594 73.511719 11.679688 C 73.511719 11.679688 73.511719 11.675781 73.511719 11.671875 C 73.523438 11.6875 73.527344 11.699219 73.535156 11.710938 Z M 73.503906 11.667969 C 73.503906 11.664062 73.503906 11.664062 73.503906 11.664062 C 73.503906 11.660156 73.5 11.660156 73.5 11.65625 C 73.5 11.65625 73.503906 11.660156 73.503906 11.660156 C 73.503906 11.664062 73.503906 11.667969 73.503906 11.667969 Z M 73.640625 11.667969 C 73.625 11.652344 73.613281 11.632812 73.597656 11.613281 C 73.59375 11.609375 73.59375 11.601562 73.59375 11.59375 C 73.609375 11.621094 73.625 11.644531 73.640625 11.667969 Z M 73.589844 11.589844 C 73.589844 11.597656 73.59375 11.605469 73.597656 11.613281 C 73.550781 11.5625 73.507812 11.507812 73.472656 11.457031 C 73.464844 11.445312 73.464844 11.4375 73.460938 11.433594 C 73.457031 11.417969 73.453125 11.402344 73.449219 11.386719 C 73.476562 11.425781 73.5 11.460938 73.519531 11.488281 C 73.492188 11.453125 73.46875 11.410156 73.445312 11.375 C 73.496094 11.453125 73.546875 11.527344 73.589844 11.589844 Z M 73.421875 11.128906 C 73.421875 11.128906 73.421875 11.128906 73.425781 11.132812 C 73.417969 11.121094 73.414062 11.109375 73.40625 11.101562 C 73.410156 11.109375 73.417969 11.117188 73.421875 11.128906 Z M 73.460938 11.238281 C 73.496094 11.335938 73.535156 11.4375 73.574219 11.546875 C 73.527344 11.46875 73.476562 11.394531 73.433594 11.320312 C 73.414062 11.242188 73.390625 11.164062 73.367188 11.078125 C 73.402344 11.132812 73.429688 11.1875 73.460938 11.238281 Z M 73.386719 10.921875 C 73.371094 10.890625 73.355469 10.859375 73.335938 10.828125 C 73.335938 10.828125 73.335938 10.824219 73.335938 10.824219 C 73.355469 10.859375 73.371094 10.890625 73.386719 10.921875 Z M 73.34375 10.964844 C 73.339844 10.957031 73.335938 10.953125 73.332031 10.941406 C 73.335938 10.949219 73.339844 10.957031 73.34375 10.964844 Z M 73.355469 11.199219 C 73.34375 11.171875 73.332031 11.148438 73.320312 11.117188 C 73.304688 11.050781 73.285156 10.976562 73.265625 10.902344 C 73.28125 10.925781 73.292969 10.953125 73.308594 10.976562 C 73.335938 11.0625 73.363281 11.15625 73.390625 11.253906 C 73.378906 11.234375 73.367188 11.214844 73.355469 11.199219 Z M 73.40625 11.445312 C 73.417969 11.460938 73.433594 11.484375 73.449219 11.496094 C 73.457031 11.515625 73.464844 11.535156 73.472656 11.550781 C 73.472656 11.554688 73.476562 11.558594 73.476562 11.5625 C 73.457031 11.535156 73.4375 11.511719 73.417969 11.488281 C 73.417969 11.476562 73.414062 11.460938 73.40625 11.445312 Z M 73.464844 11.582031 C 73.472656 11.59375 73.480469 11.605469 73.488281 11.613281 C 73.492188 11.621094 73.496094 11.628906 73.496094 11.636719 C 73.484375 11.621094 73.476562 11.605469 73.464844 11.589844 C 73.464844 11.585938 73.464844 11.585938 73.464844 11.582031 Z M 73.484375 11.695312 C 73.5 11.710938 73.511719 11.730469 73.523438 11.746094 C 73.574219 11.847656 73.621094 11.945312 73.664062 12.03125 C 73.648438 12.007812 73.628906 11.988281 73.617188 11.96875 C 73.578125 11.902344 73.539062 11.832031 73.5 11.753906 C 73.496094 11.730469 73.488281 11.714844 73.484375 11.695312 Z M 73.582031 12.097656 C 73.582031 12.097656 73.585938 12.101562 73.585938 12.101562 C 73.585938 12.101562 73.582031 12.097656 73.582031 12.097656 Z M 73.566406 11.996094 C 73.5625 11.992188 73.558594 11.984375 73.554688 11.980469 C 73.554688 11.96875 73.550781 11.957031 73.546875 11.945312 C 73.550781 11.949219 73.554688 11.949219 73.554688 11.957031 C 73.570312 11.984375 73.582031 12.011719 73.597656 12.039062 C 73.589844 12.023438 73.578125 12.011719 73.566406 11.996094 Z M 73.652344 12.066406 C 73.675781 12.101562 73.699219 12.140625 73.726562 12.175781 C 73.699219 12.148438 73.671875 12.121094 73.644531 12.09375 C 73.632812 12.066406 73.621094 12.039062 73.609375 12.015625 C 73.621094 12.03125 73.636719 12.050781 73.652344 12.066406 Z M 73.628906 12.105469 C 73.640625 12.121094 73.648438 12.140625 73.65625 12.160156 C 73.644531 12.140625 73.632812 12.117188 73.621094 12.097656 C 73.625 12.097656 73.628906 12.101562 73.628906 12.105469 Z M 73.863281 12.496094 C 73.84375 12.472656 73.824219 12.449219 73.800781 12.417969 C 73.792969 12.402344 73.785156 12.390625 73.78125 12.375 C 73.808594 12.417969 73.835938 12.453125 73.863281 12.496094 Z M 73.75 12.339844 C 73.761719 12.359375 73.773438 12.382812 73.78125 12.402344 C 73.734375 12.34375 73.683594 12.273438 73.628906 12.195312 C 73.644531 12.210938 73.660156 12.226562 73.675781 12.242188 C 73.699219 12.273438 73.726562 12.308594 73.75 12.339844 Z M 73.714844 12.246094 C 73.699219 12.210938 73.683594 12.171875 73.667969 12.140625 C 73.703125 12.175781 73.738281 12.210938 73.769531 12.238281 C 73.773438 12.242188 73.777344 12.25 73.78125 12.257812 C 73.789062 12.273438 73.804688 12.296875 73.8125 12.316406 C 73.804688 12.296875 73.796875 12.285156 73.789062 12.265625 C 73.804688 12.289062 73.816406 12.3125 73.835938 12.335938 C 73.820312 12.3125 73.800781 12.277344 73.78125 12.25 C 73.808594 12.273438 73.835938 12.292969 73.859375 12.3125 C 73.878906 12.347656 73.894531 12.382812 73.910156 12.414062 C 73.839844 12.363281 73.777344 12.304688 73.714844 12.246094 Z M 73.714844 12.246094 " fill-opacity="1" fill-rule="nonzero"></path>
  </g>
  <g clip-path="url(#add220e813)">
    <path fill="#fe0719" d="M 64.230469 6.457031 C 63.925781 4.882812 62.007812 4.855469 61.535156 6.328125 C 61.0625 4.855469 59.144531 4.882812 58.839844 6.457031 C 58.5625 7.882812 61.535156 10.132812 61.535156 10.132812 C 61.535156 10.132812 64.507812 7.882812 64.230469 6.457031 Z M 64.230469 6.457031 " fill-opacity="1" fill-rule="nonzero"></path>
  </g>
</svg>
