<?xml version="1.0" encoding="UTF-8"?>
<svg xmlns="http://www.w3.org/2000/svg" xmlns:xlink="http://www.w3.org/1999/xlink" width="107" zoomAndPan="magnify" viewBox="0 0 80.25 35.25" height="47" preserveAspectRatio="xMidYMid meet" version="1.0">
  <defs>
    <g></g>
    <clipPath id="f1d2a1d94e">
      <path d="M 0.46875 3.453125 L 79.046875 3.453125 L 79.046875 31.0625 L 0.46875 31.0625 Z M 0.46875 3.453125 " clip-rule="nonzero"></path>
    </clipPath>
    <clipPath id="5771444989">
      <path d="M 51.664062 1.089844 L 73.675781 1.089844 L 73.675781 34.515625 L 51.664062 34.515625 Z M 51.664062 1.089844 " clip-rule="nonzero"></path>
    </clipPath>
    <clipPath id="3dbafc712b">
      <path d="M 66 33 L 71 33 L 71 34.515625 L 66 34.515625 Z M 66 33 " clip-rule="nonzero"></path>
    </clipPath>
    <clipPath id="0c1faa9df5">
      <path d="M 34 2 L 48.789062 2 L 48.789062 15 L 34 15 Z M 34 2 " clip-rule="nonzero"></path>
    </clipPath>
  </defs>
  <g clip-path="url(#f1d2a1d94e)">
    <path fill="#0171bc" d="M 0.46875 3.453125 L 79.046875 3.453125 L 79.046875 31.0625 L 0.46875 31.0625 Z M 0.46875 3.453125 " fill-opacity="1" fill-rule="nonzero"></path>
  </g>
  <g clip-path="url(#5771444989)">
    <path fill="#fcf7f0" d="M 73.535156 37.917969 C 73.65625 37.75 73.6875 37.550781 73.675781 37.351562 C 73.660156 37.101562 73.605469 36.859375 73.519531 36.628906 C 73.578125 36.597656 73.617188 36.539062 73.628906 36.457031 C 73.691406 35.859375 73.503906 35.25 73.132812 34.78125 C 73.308594 34.640625 73.335938 34.398438 73.308594 34.1875 C 73.265625 33.863281 73.148438 33.558594 72.980469 33.28125 C 73.269531 33.164062 73.390625 32.871094 73.363281 32.570312 C 73.328125 32.242188 73.179688 31.917969 73.035156 31.621094 C 72.960938 31.46875 72.882812 31.320312 72.792969 31.175781 C 72.800781 31.175781 72.808594 31.179688 72.8125 31.179688 C 72.976562 31.226562 73.082031 31.078125 73.0625 30.933594 C 72.945312 30.191406 72.699219 29.46875 72.339844 28.8125 C 72.378906 28.8125 72.421875 28.8125 72.464844 28.808594 C 72.566406 28.796875 72.671875 28.722656 72.664062 28.605469 C 72.625 28.027344 72.46875 27.472656 72.207031 26.960938 C 72.292969 26.921875 72.347656 26.8125 72.332031 26.71875 C 72.265625 26.332031 72.167969 25.953125 72.039062 25.582031 C 72.148438 25.585938 72.265625 25.492188 72.25 25.378906 C 72.167969 24.605469 71.929688 23.859375 71.535156 23.191406 C 71.558594 23.160156 71.570312 23.121094 71.574219 23.078125 C 71.664062 22.230469 71.4375 21.378906 70.960938 20.679688 C 71.070312 20.605469 71.152344 20.488281 71.175781 20.355469 C 71.210938 20.144531 71.125 19.945312 71.046875 19.753906 C 70.960938 19.554688 70.867188 19.359375 70.773438 19.160156 C 70.648438 18.890625 70.511719 18.59375 70.410156 18.289062 C 70.613281 18.03125 70.707031 17.707031 70.753906 17.378906 C 70.777344 17.199219 70.828125 16.96875 70.792969 16.785156 C 70.792969 16.785156 70.792969 16.785156 70.792969 16.78125 C 71.121094 16.507812 71.285156 16.0625 71.21875 15.636719 C 71.550781 15.28125 71.695312 14.78125 71.613281 14.304688 C 71.890625 14.128906 72.039062 13.8125 72.039062 13.484375 C 72.277344 13.25 72.480469 12.976562 72.632812 12.675781 C 72.691406 12.558594 72.730469 12.4375 72.695312 12.3125 C 72.96875 12.023438 73.097656 11.589844 72.964844 11.203125 C 72.960938 11.191406 72.957031 11.179688 72.957031 11.175781 C 72.964844 11.144531 72.984375 11.113281 72.992188 11.085938 C 73.023438 11.011719 73.050781 10.933594 73.078125 10.859375 C 73.132812 10.714844 73.203125 10.570312 73.242188 10.421875 C 73.277344 10.265625 73.246094 10.101562 73.152344 9.996094 C 73.285156 9.78125 73.378906 9.542969 73.328125 9.289062 C 73.292969 9.125 73.207031 8.988281 73.085938 8.894531 C 73.085938 8.886719 73.085938 8.875 73.085938 8.867188 C 73.234375 8.621094 73.347656 8.34375 73.269531 8.058594 C 73.222656 7.871094 73.105469 7.714844 72.953125 7.625 C 72.949219 7.621094 72.949219 7.617188 72.949219 7.613281 C 73.140625 7.207031 73 6.675781 72.636719 6.40625 C 72.71875 6.175781 72.671875 5.902344 72.507812 5.714844 C 72.378906 5.570312 72.203125 5.496094 72.019531 5.488281 C 72 5.304688 71.890625 5.125 71.714844 5.019531 C 71.429688 4.851562 71.101562 4.957031 70.851562 5.140625 C 70.765625 5.054688 70.644531 5 70.511719 4.988281 C 70.253906 4.964844 70.039062 5.128906 69.859375 5.296875 C 69.527344 5.34375 69.214844 5.484375 68.96875 5.707031 C 68.914062 5.710938 68.859375 5.71875 68.804688 5.726562 C 68.8125 5.707031 68.820312 5.691406 68.832031 5.675781 C 68.910156 5.507812 69 5.328125 69.03125 5.148438 C 69.0625 4.976562 69.019531 4.800781 68.867188 4.703125 C 68.863281 4.703125 68.863281 4.703125 68.863281 4.703125 C 68.925781 4.496094 68.957031 4.28125 68.871094 4.074219 C 68.808594 3.929688 68.699219 3.800781 68.5625 3.730469 C 68.628906 3.535156 68.660156 3.324219 68.570312 3.125 C 68.503906 2.972656 68.382812 2.859375 68.238281 2.808594 C 68.265625 2.546875 68.203125 2.273438 67.960938 2.140625 C 67.859375 2.085938 67.746094 2.0625 67.640625 2.074219 C 67.601562 1.761719 67.441406 1.464844 67.121094 1.359375 C 66.890625 1.28125 66.632812 1.339844 66.457031 1.492188 C 66.355469 1.382812 66.21875 1.304688 66.070312 1.285156 C 65.851562 1.25 65.632812 1.332031 65.480469 1.488281 C 65.214844 1.355469 64.878906 1.386719 64.640625 1.5625 C 64.570312 1.519531 64.476562 1.515625 64.398438 1.582031 C 64.335938 1.636719 64.28125 1.699219 64.238281 1.769531 C 64.050781 1.699219 63.835938 1.722656 63.660156 1.851562 C 63.449219 2.007812 63.363281 2.238281 63.316406 2.480469 C 63.226562 2.484375 63.132812 2.511719 63.0625 2.570312 C 62.945312 2.664062 62.859375 2.800781 62.796875 2.949219 C 62.753906 2.886719 62.703125 2.828125 62.636719 2.777344 C 62.585938 2.738281 62.535156 2.71875 62.480469 2.6875 C 62.429688 2.65625 62.472656 2.699219 62.414062 2.632812 C 62.34375 2.550781 62.257812 2.476562 62.179688 2.398438 C 62.003906 2.222656 61.824219 2.042969 61.648438 1.867188 C 61.371094 1.589844 61.070312 1.199219 60.65625 1.128906 C 60.445312 1.09375 60.222656 1.160156 60.074219 1.300781 C 59.929688 1.160156 59.75 1.0625 59.539062 1.09375 C 59.390625 1.113281 59.25 1.203125 59.164062 1.324219 C 58.96875 1.234375 58.738281 1.222656 58.535156 1.328125 C 58.320312 1.433594 58.183594 1.652344 58.15625 1.882812 C 58.019531 1.886719 57.882812 1.9375 57.773438 2.023438 C 57.597656 2.164062 57.53125 2.367188 57.5 2.578125 L 57.425781 2.539062 C 57.328125 2.492188 57.210938 2.515625 57.152344 2.613281 C 57 2.863281 56.90625 3.144531 56.886719 3.433594 C 56.785156 3.414062 56.691406 3.464844 56.652344 3.574219 C 56.527344 3.914062 56.515625 4.277344 56.601562 4.621094 C 56.585938 4.628906 56.570312 4.636719 56.554688 4.648438 C 56.382812 4.765625 56.367188 4.984375 56.382812 5.175781 C 56.386719 5.230469 56.394531 5.28125 56.402344 5.335938 C 56.257812 5.171875 56.070312 5.050781 55.855469 4.980469 C 55.792969 4.960938 55.726562 4.980469 55.679688 5.019531 C 55.53125 4.835938 55.339844 4.695312 55.09375 4.707031 C 54.910156 4.71875 54.746094 4.8125 54.648438 4.945312 C 54.347656 4.761719 53.949219 4.71875 53.648438 4.914062 C 53.433594 5.058594 53.289062 5.308594 53.265625 5.5625 C 53.078125 5.550781 52.878906 5.613281 52.734375 5.730469 C 52.425781 5.980469 52.421875 6.386719 52.535156 6.742188 C 52.40625 6.78125 52.285156 6.867188 52.203125 6.984375 C 52.027344 7.234375 52.101562 7.53125 52.226562 7.789062 C 52.074219 7.867188 51.957031 8.007812 51.898438 8.1875 C 51.816406 8.425781 51.882812 8.667969 51.992188 8.890625 C 51.871094 8.976562 51.820312 9.128906 51.828125 9.277344 C 51.84375 9.542969 51.960938 9.820312 52.097656 10.066406 C 51.996094 10.207031 52.070312 10.394531 52.128906 10.546875 C 52.25 10.863281 52.390625 11.171875 52.550781 11.46875 C 52.507812 11.507812 52.476562 11.554688 52.453125 11.609375 C 52.378906 11.804688 52.472656 12.007812 52.550781 12.1875 C 52.667969 12.453125 52.820312 12.695312 53.003906 12.917969 C 52.964844 12.96875 52.949219 13.046875 52.964844 13.101562 C 53.085938 13.488281 53.265625 13.84375 53.496094 14.171875 C 53.429688 14.21875 53.398438 14.3125 53.417969 14.394531 C 53.503906 14.785156 53.667969 15.148438 53.894531 15.472656 C 53.839844 15.535156 53.804688 15.617188 53.804688 15.707031 C 53.800781 15.855469 53.875 15.980469 53.945312 16.105469 C 54.03125 16.253906 54.117188 16.398438 54.203125 16.546875 C 54.285156 16.683594 54.375 16.820312 54.449219 16.960938 C 54.515625 17.089844 54.539062 17.246094 54.585938 17.386719 C 54.667969 17.644531 54.769531 17.894531 54.886719 18.136719 C 54.726562 18.695312 54.566406 19.253906 54.40625 19.8125 C 54.382812 19.902344 54.433594 20.015625 54.523438 20.050781 C 54.203125 20.660156 53.953125 21.300781 53.78125 21.96875 C 53.757812 22.0625 53.796875 22.140625 53.863281 22.179688 C 53.585938 22.582031 53.375 23.023438 53.234375 23.496094 C 53.195312 23.617188 53.289062 23.726562 53.402344 23.746094 C 53.175781 24.089844 52.984375 24.453125 52.832031 24.839844 C 52.785156 24.957031 52.902344 25.105469 53.023438 25.09375 C 53.058594 25.09375 53.089844 25.085938 53.121094 25.082031 C 52.800781 25.601562 52.578125 26.183594 52.484375 26.792969 C 52.464844 26.917969 52.574219 27.074219 52.703125 27.050781 C 52.402344 27.691406 52.195312 28.378906 52.09375 29.082031 C 52.078125 29.191406 52.117188 29.296875 52.234375 29.328125 C 52.332031 29.359375 52.4375 29.367188 52.539062 29.359375 C 52.382812 29.648438 52.230469 29.941406 52.101562 30.242188 C 51.9375 30.628906 51.835938 31.136719 52.195312 31.449219 C 52.207031 31.460938 52.222656 31.46875 52.234375 31.476562 C 52 31.945312 51.871094 32.464844 51.855469 32.992188 C 51.851562 33.066406 51.886719 33.121094 51.941406 33.15625 C 51.90625 33.25 51.875 33.34375 51.847656 33.441406 C 51.761719 33.730469 51.671875 34.042969 51.664062 34.347656 C 51.660156 34.574219 51.761719 34.808594 51.984375 34.882812 C 51.796875 35.445312 51.710938 36.03125 51.738281 36.628906 C 51.742188 36.738281 51.820312 36.8125 51.914062 36.824219 C 51.796875 37.195312 51.738281 37.582031 51.746094 37.980469 C 51.75 38.097656 51.84375 38.179688 51.953125 38.175781 C 51.886719 38.359375 51.863281 38.550781 51.910156 38.746094 C 51.941406 38.875 52.007812 39 52.097656 39.101562 C 52.105469 39.144531 52.117188 39.191406 52.128906 39.238281 C 52.183594 39.410156 52.273438 39.5625 52.398438 39.675781 C 52.417969 39.703125 52.4375 39.726562 52.46875 39.742188 C 52.824219 39.953125 53.230469 40.039062 53.632812 40.113281 C 54.070312 40.195312 54.503906 40.269531 54.941406 40.339844 C 55.824219 40.484375 56.707031 40.601562 57.59375 40.699219 C 58.160156 40.761719 66.542969 40.875 71.730469 40.125 C 72.132812 40.050781 72.539062 39.960938 72.894531 39.753906 C 72.929688 39.730469 72.957031 39.703125 72.976562 39.667969 C 72.980469 39.660156 72.988281 39.652344 72.992188 39.636719 C 73.019531 39.539062 73.039062 39.4375 73.058594 39.332031 C 73.109375 39.355469 73.171875 39.363281 73.234375 39.363281 C 73.328125 39.363281 73.398438 39.300781 73.429688 39.214844 C 73.566406 38.832031 73.554688 38.414062 73.414062 38.042969 C 73.460938 38.007812 73.5 37.964844 73.535156 37.917969 " fill-opacity="1" fill-rule="nonzero"></path>
  </g>
  <path fill="#ffffff" d="M 52.988281 7.273438 C 52.984375 7.277344 52.980469 7.285156 52.980469 7.289062 C 52.984375 7.289062 52.992188 7.269531 52.988281 7.273438 " fill-opacity="1" fill-rule="nonzero"></path>
  <path fill="#ffffff" d="M 72.382812 7.300781 C 72.382812 7.296875 72.378906 7.289062 72.375 7.28125 C 72.371094 7.277344 72.378906 7.296875 72.382812 7.300781 " fill-opacity="1" fill-rule="nonzero"></path>
  <path fill="#e78e95" d="M 66.203125 6.289062 C 65.988281 7.222656 65.371094 7.878906 64.824219 7.753906 C 64.277344 7.628906 64.007812 6.765625 64.222656 5.832031 C 64.4375 4.898438 65.054688 4.242188 65.601562 4.367188 C 66.152344 4.492188 66.421875 5.351562 66.203125 6.289062 " fill-opacity="1" fill-rule="nonzero"></path>
  <path fill="#e78e95" d="M 70.484375 9.972656 C 69.804688 10.652344 68.929688 10.878906 68.535156 10.484375 C 68.136719 10.085938 68.367188 9.214844 69.042969 8.535156 C 69.722656 7.855469 70.597656 7.628906 70.992188 8.023438 C 71.390625 8.421875 71.160156 9.292969 70.484375 9.972656 " fill-opacity="1" fill-rule="nonzero"></path>
  <path fill="#e78e95" d="M 59.171875 6.339844 C 59.386719 7.273438 60.007812 7.929688 60.554688 7.804688 C 61.101562 7.675781 61.371094 6.816406 61.15625 5.882812 C 60.941406 4.945312 60.320312 4.289062 59.773438 4.417969 C 59.226562 4.542969 58.957031 5.402344 59.171875 6.339844 " fill-opacity="1" fill-rule="nonzero"></path>
  <path fill="#e78e95" d="M 54.894531 10.023438 C 55.574219 10.703125 56.445312 10.929688 56.84375 10.53125 C 57.242188 10.136719 57.011719 9.265625 56.332031 8.585938 C 55.652344 7.90625 54.78125 7.679688 54.382812 8.074219 C 53.988281 8.472656 54.214844 9.34375 54.894531 10.023438 " fill-opacity="1" fill-rule="nonzero"></path>
  <path fill="#e78e95" d="M 65.878906 12.265625 C 65.75 12.203125 65.617188 12.152344 65.480469 12.113281 C 65.300781 12.058594 65.132812 11.976562 64.996094 11.859375 C 64.867188 11.75 64.757812 11.621094 64.6875 11.464844 C 64.578125 11.226562 64.558594 10.964844 64.472656 10.71875 C 64.378906 10.460938 64.246094 10.21875 64.070312 10.003906 C 64.066406 10 64.0625 9.996094 64.058594 9.992188 C 63.730469 9.570312 63.25 9.304688 62.714844 9.304688 C 62.128906 9.304688 61.613281 9.621094 61.289062 10.113281 C 60.925781 10.46875 60.957031 11 60.707031 11.414062 C 60.640625 11.527344 60.558594 11.625 60.472656 11.71875 C 60.285156 11.914062 60.039062 12.054688 59.769531 12.148438 C 59.671875 12.179688 59.578125 12.21875 59.480469 12.265625 C 58.410156 12.769531 57.902344 13.828125 58.355469 14.625 C 58.652344 15.152344 59.300781 15.433594 60.015625 15.414062 C 60.195312 15.417969 60.375 15.40625 60.550781 15.382812 C 61.117188 15.351562 61.679688 15.234375 62.207031 15.035156 C 62.34375 14.984375 62.476562 14.921875 62.621094 14.890625 C 62.757812 14.855469 62.902344 14.855469 63.042969 14.875 C 63.339844 14.914062 63.625 15.019531 63.910156 15.105469 C 64.113281 15.167969 64.320312 15.226562 64.53125 15.265625 C 65.53125 15.609375 66.597656 15.351562 67.007812 14.625 C 67.460938 13.828125 66.953125 12.769531 65.878906 12.265625 " fill-opacity="1" fill-rule="nonzero"></path>
  <path fill="#f0e6da" d="M 61.453125 23.140625 C 61.378906 23.488281 61.292969 23.914062 60.96875 24.117188 C 60.835938 24.199219 60.675781 24.246094 60.523438 24.199219 C 60.347656 24.148438 60.238281 23.972656 60.152344 23.824219 C 60.042969 23.621094 59.972656 23.394531 59.953125 23.164062 C 59.941406 23.023438 59.734375 23.019531 59.730469 23.164062 C 59.714844 23.613281 59.511719 24.046875 59.1875 24.351562 C 59.105469 24.429688 59.019531 24.496094 58.925781 24.554688 C 58.828125 24.613281 58.714844 24.667969 58.601562 24.648438 C 58.40625 24.617188 58.289062 24.410156 58.210938 24.246094 C 58.074219 23.96875 57.976562 23.667969 57.894531 23.371094 C 57.878906 23.3125 57.816406 23.277344 57.757812 23.292969 C 57.695312 23.308594 57.671875 23.371094 57.679688 23.429688 C 57.722656 23.6875 57.6875 23.960938 57.585938 24.199219 C 57.484375 24.433594 57.3125 24.664062 57.082031 24.78125 C 56.976562 24.839844 56.855469 24.859375 56.738281 24.828125 C 56.632812 24.796875 56.546875 24.730469 56.476562 24.648438 C 56.3125 24.460938 56.230469 24.203125 56.164062 23.960938 C 56.074219 23.613281 56.039062 23.253906 56.058594 22.898438 C 56.0625 22.789062 55.898438 22.742188 55.851562 22.839844 C 55.714844 23.125 55.550781 23.394531 55.363281 23.648438 C 55.195312 23.871094 55.003906 24.105469 54.75 24.234375 C 54.535156 24.339844 54.242188 24.339844 54.085938 24.136719 C 53.925781 23.933594 53.917969 23.632812 53.910156 23.390625 C 53.902344 23.019531 53.953125 22.652344 54.058594 22.296875 C 54.097656 22.15625 53.882812 22.097656 53.84375 22.238281 C 53.738281 22.582031 53.6875 22.945312 53.6875 23.304688 C 53.6875 23.605469 53.699219 23.960938 53.871094 24.21875 C 54.046875 24.484375 54.363281 24.574219 54.664062 24.5 C 54.980469 24.421875 55.222656 24.175781 55.417969 23.933594 C 55.574219 23.746094 55.714844 23.542969 55.839844 23.335938 C 55.851562 23.546875 55.882812 23.753906 55.933594 23.960938 C 56.007812 24.257812 56.109375 24.558594 56.308594 24.792969 C 56.5 25.019531 56.792969 25.128906 57.078125 25.027344 C 57.375 24.917969 57.601562 24.660156 57.742188 24.386719 C 57.800781 24.269531 57.84375 24.148438 57.875 24.023438 C 57.914062 24.121094 57.953125 24.21875 57.996094 24.316406 C 58.097656 24.535156 58.242188 24.761719 58.476562 24.84375 C 58.753906 24.945312 59.035156 24.769531 59.242188 24.597656 C 59.441406 24.4375 59.609375 24.230469 59.730469 24 C 59.78125 23.90625 59.820312 23.808594 59.855469 23.707031 C 59.875 23.761719 59.898438 23.8125 59.925781 23.867188 C 60.023438 24.066406 60.164062 24.28125 60.371094 24.378906 C 60.777344 24.570312 61.222656 24.292969 61.425781 23.9375 C 61.554688 23.710938 61.613281 23.453125 61.667969 23.199219 C 61.699219 23.058594 61.484375 23 61.453125 23.140625 " fill-opacity="1" fill-rule="nonzero"></path>
  <path fill="#f0e6da" d="M 65.992188 29.691406 C 66.28125 29.59375 66.507812 29.351562 66.628906 29.074219 C 66.703125 28.910156 66.738281 28.734375 66.757812 28.5625 C 66.910156 28.777344 67.128906 28.949219 67.382812 29.027344 C 67.867188 29.179688 68.375 28.921875 68.597656 28.476562 C 68.636719 28.402344 68.664062 28.320312 68.683594 28.238281 C 68.8125 28.390625 68.980469 28.511719 69.171875 28.578125 C 69.550781 28.710938 69.953125 28.5625 70.183594 28.242188 C 70.242188 28.167969 70.28125 28.082031 70.308594 27.992188 C 70.519531 28.207031 70.824219 28.335938 71.128906 28.34375 C 71.554688 28.351562 71.941406 28.089844 72.125 27.707031 C 72.230469 27.488281 72.265625 27.25 72.226562 27.011719 C 72.214844 26.953125 72.140625 26.917969 72.089844 26.933594 C 72.027344 26.949219 72 27.011719 72.011719 27.070312 C 72.066406 27.398438 71.910156 27.75 71.648438 27.949219 C 71.375 28.160156 71.003906 28.167969 70.703125 28.007812 C 70.53125 27.921875 70.394531 27.785156 70.308594 27.617188 C 70.285156 27.566406 70.21875 27.546875 70.171875 27.570312 C 70.117188 27.59375 70.09375 27.644531 70.105469 27.703125 C 70.160156 27.980469 69.949219 28.257812 69.695312 28.359375 C 69.414062 28.472656 69.105469 28.355469 68.902344 28.148438 C 68.808594 28.050781 68.734375 27.933594 68.6875 27.804688 C 68.679688 27.769531 68.667969 27.738281 68.65625 27.707031 C 68.632812 27.648438 68.582031 27.609375 68.519531 27.628906 C 68.457031 27.644531 68.425781 27.707031 68.441406 27.765625 C 68.449219 27.796875 68.457031 27.828125 68.46875 27.859375 C 68.546875 28.191406 68.367188 28.554688 68.070312 28.738281 C 67.902344 28.839844 67.710938 28.878906 67.515625 28.832031 C 67.308594 28.785156 67.128906 28.664062 66.992188 28.5 C 66.871094 28.355469 66.792969 28.179688 66.769531 27.992188 C 66.769531 27.945312 66.765625 27.898438 66.761719 27.851562 C 66.757812 27.707031 66.546875 27.707031 66.539062 27.851562 C 66.539062 27.90625 66.542969 27.960938 66.546875 28.015625 C 66.566406 28.546875 66.53125 29.175781 66.003906 29.445312 C 65.773438 29.566406 65.515625 29.511719 65.304688 29.367188 C 65.066406 29.203125 64.902344 28.945312 64.789062 28.683594 C 64.644531 28.359375 64.582031 28 64.601562 27.644531 C 64.609375 27.5 64.386719 27.5 64.378906 27.644531 C 64.359375 28 64.417969 28.359375 64.550781 28.691406 C 64.671875 29 64.851562 29.296875 65.113281 29.503906 C 65.363281 29.699219 65.683594 29.800781 65.992188 29.691406 " fill-opacity="1" fill-rule="nonzero"></path>
  <path fill="#f0e6da" d="M 61.109375 31.703125 C 60.980469 31.621094 60.886719 31.503906 60.835938 31.363281 C 60.851562 31.246094 60.835938 31.125 60.785156 31.007812 C 60.765625 30.964844 60.703125 30.945312 60.660156 30.957031 C 60.609375 30.972656 60.582031 31.015625 60.578125 31.066406 C 60.566406 31.175781 60.578125 31.285156 60.609375 31.390625 C 60.5625 31.558594 60.421875 31.707031 60.253906 31.753906 C 59.933594 31.839844 59.613281 31.632812 59.476562 31.347656 C 59.4375 31.265625 59.410156 31.175781 59.398438 31.085938 C 59.425781 30.96875 59.429688 30.847656 59.398438 30.726562 C 59.375 30.625 59.199219 30.613281 59.183594 30.726562 C 59.167969 30.835938 59.164062 30.949219 59.175781 31.0625 C 59.144531 31.175781 59.085938 31.28125 59.019531 31.375 C 58.894531 31.554688 58.722656 31.71875 58.539062 31.839844 C 58.363281 31.953125 58.15625 32.027344 57.953125 31.957031 C 57.78125 31.894531 57.65625 31.738281 57.589844 31.574219 C 57.484375 31.324219 57.5 31.039062 57.511719 30.773438 C 57.519531 30.644531 57.332031 30.628906 57.292969 30.746094 C 57.132812 31.234375 56.792969 31.65625 56.351562 31.917969 C 56.234375 31.988281 56.105469 32.0625 55.964844 32.066406 C 55.847656 32.066406 55.75 32.011719 55.671875 31.925781 C 55.59375 31.84375 55.539062 31.738281 55.492188 31.636719 C 55.433594 31.5 55.382812 31.355469 55.34375 31.207031 C 55.253906 30.867188 55.222656 30.515625 55.246094 30.164062 C 55.253906 30.035156 55.058594 30.011719 55.027344 30.132812 C 54.921875 30.539062 54.648438 30.886719 54.277344 31.082031 C 54.082031 31.1875 53.832031 31.265625 53.617188 31.175781 C 53.4375 31.097656 53.320312 30.917969 53.269531 30.734375 C 53.191406 30.449219 53.257812 30.144531 53.316406 29.859375 C 53.328125 29.800781 53.296875 29.738281 53.238281 29.722656 C 53.179688 29.707031 53.113281 29.742188 53.097656 29.800781 C 53.039062 30.101562 52.976562 30.414062 53.039062 30.722656 C 53.085938 30.960938 53.222656 31.199219 53.433594 31.328125 C 53.902344 31.621094 54.519531 31.277344 54.84375 30.921875 C 54.910156 30.847656 54.972656 30.765625 55.027344 30.679688 C 55.042969 30.851562 55.070312 31.023438 55.109375 31.1875 C 55.183594 31.488281 55.285156 31.808594 55.484375 32.050781 C 55.570312 32.152344 55.6875 32.242188 55.820312 32.273438 C 55.996094 32.3125 56.171875 32.261719 56.328125 32.1875 C 56.589844 32.058594 56.828125 31.871094 57.019531 31.65625 C 57.121094 31.539062 57.210938 31.414062 57.292969 31.28125 C 57.304688 31.398438 57.328125 31.511719 57.367188 31.621094 C 57.449219 31.835938 57.601562 32.039062 57.8125 32.136719 C 58.328125 32.378906 58.855469 31.949219 59.15625 31.5625 C 59.195312 31.515625 59.230469 31.460938 59.261719 31.410156 C 59.34375 31.601562 59.472656 31.765625 59.664062 31.875 C 59.847656 31.980469 60.066406 32.019531 60.273438 31.976562 C 60.464844 31.9375 60.632812 31.8125 60.734375 31.648438 C 60.804688 31.746094 60.894531 31.832031 60.996094 31.894531 C 61.117188 31.96875 61.230469 31.777344 61.109375 31.703125 " fill-opacity="1" fill-rule="nonzero"></path>
  <g clip-path="url(#3dbafc712b)">
    <path fill="#f0e6da" d="M 66.164062 33.625 C 66.15625 33.851562 66.191406 34.078125 66.265625 34.289062 C 66.335938 34.480469 66.4375 34.667969 66.609375 34.785156 C 66.996094 35.046875 67.386719 34.621094 67.523438 34.285156 C 67.53125 34.269531 67.539062 34.25 67.546875 34.230469 C 67.574219 34.277344 67.605469 34.324219 67.636719 34.371094 C 67.757812 34.550781 67.921875 34.699219 68.140625 34.734375 C 68.34375 34.765625 68.554688 34.710938 68.726562 34.597656 C 68.914062 34.476562 69.039062 34.292969 69.113281 34.082031 C 69.128906 34.035156 69.140625 33.984375 69.152344 33.933594 C 69.265625 34.078125 69.4375 34.191406 69.625 34.179688 C 69.8125 34.164062 69.96875 34.042969 70.0625 33.886719 C 70.171875 33.703125 70.183594 33.484375 70.195312 33.277344 C 70.203125 33.136719 69.980469 33.136719 69.972656 33.277344 C 69.964844 33.4375 69.957031 33.609375 69.882812 33.753906 C 69.828125 33.855469 69.730469 33.953125 69.609375 33.957031 C 69.476562 33.957031 69.363281 33.863281 69.300781 33.757812 C 69.214844 33.613281 69.191406 33.445312 69.167969 33.28125 C 69.144531 33.160156 68.933594 33.1875 68.945312 33.3125 C 68.992188 33.671875 68.96875 34.101562 68.679688 34.359375 C 68.5625 34.457031 68.410156 34.519531 68.257812 34.519531 C 68.09375 34.523438 67.957031 34.433594 67.859375 34.300781 C 67.757812 34.164062 67.648438 33.992188 67.613281 33.816406 C 67.609375 33.757812 67.605469 33.699219 67.59375 33.640625 C 67.574219 33.511719 67.382812 33.550781 67.375 33.671875 C 67.375 33.734375 67.378906 33.792969 67.390625 33.855469 C 67.390625 34.097656 67.285156 34.339844 67.113281 34.507812 C 67.011719 34.609375 66.886719 34.6875 66.75 34.609375 C 66.617188 34.53125 66.539062 34.386719 66.488281 34.25 C 66.414062 34.050781 66.378906 33.839844 66.386719 33.625 C 66.394531 33.480469 66.167969 33.480469 66.164062 33.625 " fill-opacity="1" fill-rule="nonzero"></path>
  </g>
  <path fill="#f0e6da" d="M 66.425781 21.253906 C 66.6875 21.410156 66.992188 21.402344 67.25 21.246094 C 67.496094 21.09375 67.691406 20.851562 67.820312 20.597656 C 67.847656 20.535156 67.875 20.472656 67.898438 20.40625 C 67.902344 20.410156 67.902344 20.417969 67.90625 20.421875 C 67.992188 20.644531 68.128906 20.890625 68.355469 20.996094 C 68.839844 21.222656 69.359375 20.765625 69.578125 20.367188 C 69.59375 20.339844 69.609375 20.3125 69.621094 20.285156 C 69.660156 20.402344 69.707031 20.515625 69.777344 20.621094 C 69.945312 20.878906 70.226562 21.058594 70.539062 21.066406 C 70.710938 21.070312 70.875 21.011719 71 20.894531 C 71.105469 20.796875 70.945312 20.640625 70.839844 20.738281 C 70.671875 20.890625 70.417969 20.859375 70.226562 20.753906 C 69.984375 20.617188 69.863281 20.351562 69.796875 20.09375 C 69.765625 19.980469 69.746094 19.863281 69.730469 19.746094 C 69.726562 19.691406 69.71875 19.636719 69.707031 19.582031 C 69.691406 19.523438 69.625 19.492188 69.570312 19.507812 C 69.503906 19.523438 69.484375 19.582031 69.492188 19.644531 C 69.496094 19.683594 69.503906 19.726562 69.507812 19.769531 C 69.527344 20.113281 69.308594 20.453125 69.042969 20.660156 C 68.890625 20.773438 68.6875 20.875 68.496094 20.8125 C 68.3125 20.757812 68.203125 20.554688 68.132812 20.390625 C 68.0625 20.234375 68.023438 20.066406 68.007812 19.898438 C 68.015625 19.808594 68.011719 19.722656 68.003906 19.632812 C 67.992188 19.492188 67.792969 19.488281 67.78125 19.632812 C 67.777344 19.71875 67.777344 19.804688 67.785156 19.890625 C 67.753906 20.3125 67.5625 20.71875 67.230469 20.988281 C 67.050781 21.136719 66.816406 21.203125 66.597656 21.09375 C 66.386719 20.992188 66.238281 20.792969 66.167969 20.574219 C 66.070312 20.257812 66.105469 19.914062 66.136719 19.589844 C 66.140625 19.53125 66.082031 19.476562 66.023438 19.476562 C 65.960938 19.476562 65.917969 19.53125 65.914062 19.589844 C 65.882812 19.921875 65.851562 20.261719 65.941406 20.585938 C 66.015625 20.859375 66.183594 21.109375 66.425781 21.253906 " fill-opacity="1" fill-rule="nonzero"></path>
  <g clip-path="url(#0c1faa9df5)">
    <path fill="#ffa2b6" d="M 48.152344 5.28125 C 47.355469 1.179688 42.355469 1.109375 41.125 4.945312 C 39.890625 1.109375 34.894531 1.179688 34.09375 5.28125 C 33.371094 9.003906 41.125 14.871094 41.125 14.871094 C 41.125 14.871094 48.875 9.003906 48.152344 5.28125 Z M 48.152344 5.28125 " fill-opacity="1" fill-rule="nonzero"></path>
  </g>
  <g fill="#ffffff" fill-opacity="1">
    <g transform="translate(3.920312, 16.855283)">
      <g>
        <path d="M 3.8125 -5.109375 L 3.8125 -4.140625 L 1.609375 -4.140625 L 1.609375 0 L 0.546875 0 L 0.546875 -9.5625 L 4.34375 -9.5625 L 4.34375 -8.59375 L 1.609375 -8.59375 L 1.609375 -5.109375 Z M 3.8125 -5.109375 "></path>
      </g>
    </g>
  </g>
  <g fill="#ffffff" fill-opacity="1">
    <g transform="translate(8.562946, 16.855283)">
      <g>
        <path d="M 1.5625 -2.25 C 1.5625 -1.8125 1.648438 -1.472656 1.828125 -1.234375 C 2.003906 -0.992188 2.285156 -0.875 2.671875 -0.875 C 3.054688 -0.875 3.335938 -0.992188 3.515625 -1.234375 C 3.691406 -1.472656 3.78125 -1.8125 3.78125 -2.25 L 3.78125 -9.5625 L 4.78125 -9.5625 L 4.78125 -2.3125 C 4.78125 -1.582031 4.601562 -0.992188 4.25 -0.546875 C 3.90625 -0.109375 3.367188 0.109375 2.640625 0.109375 C 1.910156 0.109375 1.367188 -0.109375 1.015625 -0.546875 C 0.671875 -0.992188 0.5 -1.582031 0.5 -2.3125 L 0.5 -9.5625 L 1.5625 -9.5625 Z M 1.5625 -2.25 "></path>
      </g>
    </g>
  </g>
  <g fill="#ffffff" fill-opacity="1">
    <g transform="translate(13.847362, 16.855283)">
      <g>
        <path d="M 2.671875 -9.5625 C 3.429688 -9.5625 3.976562 -9.375 4.3125 -9 C 4.644531 -8.625 4.8125 -8.082031 4.8125 -7.375 L 4.8125 -6.59375 C 4.8125 -6.0625 4.710938 -5.632812 4.515625 -5.3125 C 4.328125 -4.988281 4.03125 -4.757812 3.625 -4.625 C 4.0625 -4.5 4.367188 -4.265625 4.546875 -3.921875 C 4.734375 -3.578125 4.828125 -3.148438 4.828125 -2.640625 L 4.828125 -1.140625 C 4.828125 -0.929688 4.832031 -0.726562 4.84375 -0.53125 C 4.863281 -0.34375 4.921875 -0.164062 5.015625 0 L 3.9375 0 C 3.875 -0.132812 3.828125 -0.28125 3.796875 -0.4375 C 3.765625 -0.601562 3.75 -0.84375 3.75 -1.15625 L 3.75 -2.65625 C 3.75 -3.195312 3.628906 -3.566406 3.390625 -3.765625 C 3.148438 -3.972656 2.804688 -4.078125 2.359375 -4.078125 L 1.609375 -4.078125 L 1.609375 0 L 0.546875 0 L 0.546875 -9.5625 Z M 2.40625 -5.046875 C 2.832031 -5.046875 3.160156 -5.132812 3.390625 -5.3125 C 3.628906 -5.488281 3.75 -5.835938 3.75 -6.359375 L 3.75 -7.28125 C 3.75 -7.71875 3.664062 -8.046875 3.5 -8.265625 C 3.332031 -8.484375 3.050781 -8.59375 2.65625 -8.59375 L 1.609375 -8.59375 L 1.609375 -5.046875 Z M 2.40625 -5.046875 "></path>
      </g>
    </g>
  </g>
  <g fill="#ffffff" fill-opacity="1">
    <g transform="translate(19.227362, 16.855283)">
      <g>
        <path d="M 2.671875 -9.5625 C 3.429688 -9.5625 3.976562 -9.375 4.3125 -9 C 4.644531 -8.625 4.8125 -8.082031 4.8125 -7.375 L 4.8125 -6.59375 C 4.8125 -6.0625 4.710938 -5.632812 4.515625 -5.3125 C 4.328125 -4.988281 4.03125 -4.757812 3.625 -4.625 C 4.0625 -4.5 4.367188 -4.265625 4.546875 -3.921875 C 4.734375 -3.578125 4.828125 -3.148438 4.828125 -2.640625 L 4.828125 -1.140625 C 4.828125 -0.929688 4.832031 -0.726562 4.84375 -0.53125 C 4.863281 -0.34375 4.921875 -0.164062 5.015625 0 L 3.9375 0 C 3.875 -0.132812 3.828125 -0.28125 3.796875 -0.4375 C 3.765625 -0.601562 3.75 -0.84375 3.75 -1.15625 L 3.75 -2.65625 C 3.75 -3.195312 3.628906 -3.566406 3.390625 -3.765625 C 3.148438 -3.972656 2.804688 -4.078125 2.359375 -4.078125 L 1.609375 -4.078125 L 1.609375 0 L 0.546875 0 L 0.546875 -9.5625 Z M 2.40625 -5.046875 C 2.832031 -5.046875 3.160156 -5.132812 3.390625 -5.3125 C 3.628906 -5.488281 3.75 -5.835938 3.75 -6.359375 L 3.75 -7.28125 C 3.75 -7.71875 3.664062 -8.046875 3.5 -8.265625 C 3.332031 -8.484375 3.050781 -8.59375 2.65625 -8.59375 L 1.609375 -8.59375 L 1.609375 -5.046875 Z M 2.40625 -5.046875 "></path>
      </g>
    </g>
  </g>
  <g fill="#ffffff" fill-opacity="1">
    <g transform="translate(24.607362, 16.855283)">
      <g>
        <path d="M 2.234375 -3.421875 L 0.21875 -9.5625 L 1.328125 -9.5625 L 2.8125 -4.859375 L 4.3125 -9.5625 L 5.328125 -9.5625 L 3.296875 -3.421875 L 3.296875 0 L 2.234375 0 Z M 2.234375 -3.421875 "></path>
      </g>
    </g>
  </g>
  <g fill="#ffffff" fill-opacity="1">
    <g transform="translate(3.920312, 27.870908)">
      <g>
        <path d="M 2.046875 -5.3125 L 3.984375 -5.3125 L 3.984375 -3.953125 L 2.046875 -3.953125 L 2.046875 0 L 0.546875 0 L 0.546875 -9.5625 L 4.515625 -9.5625 L 4.515625 -8.1875 L 2.046875 -8.1875 Z M 2.046875 -5.3125 "></path>
      </g>
    </g>
  </g>
  <g fill="#ffffff" fill-opacity="1">
    <g transform="translate(8.617573, 27.870908)">
      <g>
        <path d="M 5.40625 0 L 3.890625 0 L 3.625 -1.734375 L 1.78125 -1.734375 L 1.53125 0 L 0.15625 0 L 1.6875 -9.5625 L 3.875 -9.5625 Z M 1.984375 -3.03125 L 3.421875 -3.03125 L 2.703125 -7.859375 Z M 1.984375 -3.03125 "></path>
      </g>
    </g>
  </g>
  <g fill="#ffffff" fill-opacity="1">
    <g transform="translate(14.175083, 27.870908)">
      <g>
        <path d="M 2.8125 -1.765625 L 3.953125 -9.5625 L 5.34375 -9.5625 L 3.859375 0 L 1.625 0 L 0.15625 -9.5625 L 1.671875 -9.5625 Z M 2.8125 -1.765625 "></path>
      </g>
    </g>
  </g>
  <g fill="#ffffff" fill-opacity="1">
    <g transform="translate(19.664316, 27.870908)">
      <g>
        <path d="M 1.921875 -2.203125 C 1.921875 -1.859375 1.988281 -1.613281 2.125 -1.46875 C 2.269531 -1.320312 2.460938 -1.25 2.703125 -1.25 C 2.941406 -1.25 3.128906 -1.320312 3.265625 -1.46875 C 3.410156 -1.613281 3.484375 -1.859375 3.484375 -2.203125 L 3.484375 -7.359375 C 3.484375 -7.703125 3.410156 -7.941406 3.265625 -8.078125 C 3.128906 -8.222656 2.941406 -8.296875 2.703125 -8.296875 C 2.460938 -8.296875 2.269531 -8.222656 2.125 -8.078125 C 1.988281 -7.941406 1.921875 -7.703125 1.921875 -7.359375 Z M 0.421875 -7.265625 C 0.421875 -8.035156 0.613281 -8.628906 1 -9.046875 C 1.394531 -9.460938 1.960938 -9.671875 2.703125 -9.671875 C 3.441406 -9.671875 4.003906 -9.460938 4.390625 -9.046875 C 4.785156 -8.628906 4.984375 -8.035156 4.984375 -7.265625 L 4.984375 -2.296875 C 4.984375 -1.523438 4.785156 -0.929688 4.390625 -0.515625 C 4.003906 -0.0976562 3.441406 0.109375 2.703125 0.109375 C 1.960938 0.109375 1.394531 -0.0976562 1 -0.515625 C 0.613281 -0.929688 0.421875 -1.523438 0.421875 -2.296875 Z M 0.421875 -7.265625 "></path>
      </g>
    </g>
  </g>
  <g fill="#ffffff" fill-opacity="1">
    <g transform="translate(25.071625, 27.870908)">
      <g>
        <path d="M 3.6875 0 C 3.664062 -0.0625 3.644531 -0.117188 3.625 -0.171875 C 3.613281 -0.234375 3.597656 -0.300781 3.578125 -0.375 C 3.566406 -0.457031 3.554688 -0.5625 3.546875 -0.6875 C 3.546875 -0.820312 3.546875 -0.984375 3.546875 -1.171875 L 3.546875 -2.671875 C 3.546875 -3.117188 3.46875 -3.429688 3.3125 -3.609375 C 3.164062 -3.796875 2.914062 -3.890625 2.5625 -3.890625 L 2.046875 -3.890625 L 2.046875 0 L 0.546875 0 L 0.546875 -9.5625 L 2.8125 -9.5625 C 3.59375 -9.5625 4.160156 -9.378906 4.515625 -9.015625 C 4.867188 -8.648438 5.046875 -8.097656 5.046875 -7.359375 L 5.046875 -6.609375 C 5.046875 -5.628906 4.71875 -4.984375 4.0625 -4.671875 C 4.4375 -4.515625 4.691406 -4.257812 4.828125 -3.90625 C 4.972656 -3.5625 5.046875 -3.140625 5.046875 -2.640625 L 5.046875 -1.15625 C 5.046875 -0.925781 5.054688 -0.71875 5.078125 -0.53125 C 5.097656 -0.351562 5.144531 -0.175781 5.21875 0 Z M 2.046875 -8.1875 L 2.046875 -5.25 L 2.640625 -5.25 C 2.921875 -5.25 3.140625 -5.320312 3.296875 -5.46875 C 3.453125 -5.613281 3.53125 -5.878906 3.53125 -6.265625 L 3.53125 -7.203125 C 3.53125 -7.554688 3.46875 -7.804688 3.34375 -7.953125 C 3.226562 -8.109375 3.035156 -8.1875 2.765625 -8.1875 Z M 2.046875 -8.1875 "></path>
      </g>
    </g>
  </g>
  <g fill="#ffffff" fill-opacity="1">
    <g transform="translate(30.560858, 27.870908)">
      <g>
        <path d="M 0.546875 -9.5625 L 2.046875 -9.5625 L 2.046875 0 L 0.546875 0 Z M 0.546875 -9.5625 "></path>
      </g>
    </g>
  </g>
  <g fill="#ffffff" fill-opacity="1">
    <g transform="translate(33.155274, 27.870908)">
      <g>
        <path d="M 0.109375 -9.5625 L 4.75 -9.5625 L 4.75 -8.1875 L 3.1875 -8.1875 L 3.1875 0 L 1.6875 0 L 1.6875 -8.1875 L 0.109375 -8.1875 Z M 0.109375 -9.5625 "></path>
      </g>
    </g>
  </g>
  <g fill="#ffffff" fill-opacity="1">
    <g transform="translate(38.016384, 27.870908)">
      <g>
        <path d="M 2.046875 -5.53125 L 4.109375 -5.53125 L 4.109375 -4.171875 L 2.046875 -4.171875 L 2.046875 -1.359375 L 4.640625 -1.359375 L 4.640625 0 L 0.546875 0 L 0.546875 -9.5625 L 4.640625 -9.5625 L 4.640625 -8.1875 L 2.046875 -8.1875 Z M 2.046875 -5.53125 "></path>
      </g>
    </g>
  </g>
</svg>
