<?xml version="1.0" encoding="UTF-8"?>
<svg xmlns="http://www.w3.org/2000/svg" xmlns:xlink="http://www.w3.org/1999/xlink" width="107" zoomAndPan="magnify" viewBox="0 0 80.25 35.25" height="47" preserveAspectRatio="xMidYMid meet" version="1.0">
  <defs>
    <g></g>
    <clipPath id="28d49ded70">
      <path d="M 0.46875 3.453125 L 79.046875 3.453125 L 79.046875 31.0625 L 0.46875 31.0625 Z M 0.46875 3.453125 " clip-rule="nonzero"></path>
    </clipPath>
    <clipPath id="5181a64a0c">
      <path d="M 52 10 L 79.046875 10 L 79.046875 34.515625 L 52 34.515625 Z M 52 10 " clip-rule="nonzero"></path>
    </clipPath>
    <clipPath id="94eb551098">
      <path d="M 42.589844 9.339844 L 65.011719 -3.230469 L 92.667969 46.09375 L 70.246094 58.664062 Z M 42.589844 9.339844 " clip-rule="nonzero"></path>
    </clipPath>
    <clipPath id="975fe20db4">
      <path d="M 42.589844 9.339844 L 65.011719 -3.230469 L 92.667969 46.09375 L 70.246094 58.664062 Z M 42.589844 9.339844 " clip-rule="nonzero"></path>
    </clipPath>
    <clipPath id="19d5a63a4e">
      <path d="M 55 0 L 66 0 L 66 9 L 55 9 Z M 55 0 " clip-rule="nonzero"></path>
    </clipPath>
    <clipPath id="0e24e3a0df">
      <path d="M 42.589844 9.339844 L 65.011719 -3.230469 L 92.667969 46.09375 L 70.246094 58.664062 Z M 42.589844 9.339844 " clip-rule="nonzero"></path>
    </clipPath>
    <clipPath id="030d7fd126">
      <path d="M 42.589844 9.339844 L 65.011719 -3.230469 L 92.667969 46.09375 L 70.246094 58.664062 Z M 42.589844 9.339844 " clip-rule="nonzero"></path>
    </clipPath>
    <clipPath id="e4a9b4d798">
      <path d="M 56 22 L 60 22 L 60 28 L 56 28 Z M 56 22 " clip-rule="nonzero"></path>
    </clipPath>
    <clipPath id="f09d5cfc37">
      <path d="M 42.589844 9.339844 L 65.011719 -3.230469 L 92.667969 46.09375 L 70.246094 58.664062 Z M 42.589844 9.339844 " clip-rule="nonzero"></path>
    </clipPath>
    <clipPath id="998fb4ac50">
      <path d="M 42.589844 9.339844 L 65.011719 -3.230469 L 92.667969 46.09375 L 70.246094 58.664062 Z M 42.589844 9.339844 " clip-rule="nonzero"></path>
    </clipPath>
    <clipPath id="8525601bff">
      <path d="M 55 14 L 62 14 L 62 23 L 55 23 Z M 55 14 " clip-rule="nonzero"></path>
    </clipPath>
    <clipPath id="056f3a3fff">
      <path d="M 42.589844 9.339844 L 65.011719 -3.230469 L 92.667969 46.09375 L 70.246094 58.664062 Z M 42.589844 9.339844 " clip-rule="nonzero"></path>
    </clipPath>
    <clipPath id="46559b8d3f">
      <path d="M 42.589844 9.339844 L 65.011719 -3.230469 L 92.667969 46.09375 L 70.246094 58.664062 Z M 42.589844 9.339844 " clip-rule="nonzero"></path>
    </clipPath>
    <clipPath id="2ecc936628">
      <path d="M 62 11 L 69 11 L 69 20 L 62 20 Z M 62 11 " clip-rule="nonzero"></path>
    </clipPath>
    <clipPath id="a6416cd6f3">
      <path d="M 42.589844 9.339844 L 65.011719 -3.230469 L 92.667969 46.09375 L 70.246094 58.664062 Z M 42.589844 9.339844 " clip-rule="nonzero"></path>
    </clipPath>
    <clipPath id="7580d83b11">
      <path d="M 42.589844 9.339844 L 65.011719 -3.230469 L 92.667969 46.09375 L 70.246094 58.664062 Z M 42.589844 9.339844 " clip-rule="nonzero"></path>
    </clipPath>
    <clipPath id="f023f03ef7">
      <path d="M 56 22 L 60 22 L 60 28 L 56 28 Z M 56 22 " clip-rule="nonzero"></path>
    </clipPath>
    <clipPath id="af905f5f75">
      <path d="M 42.589844 9.339844 L 65.011719 -3.230469 L 92.667969 46.09375 L 70.246094 58.664062 Z M 42.589844 9.339844 " clip-rule="nonzero"></path>
    </clipPath>
    <clipPath id="085ffe01b8">
      <path d="M 42.589844 9.339844 L 65.011719 -3.230469 L 92.667969 46.09375 L 70.246094 58.664062 Z M 42.589844 9.339844 " clip-rule="nonzero"></path>
    </clipPath>
    <clipPath id="2c7e5b701e">
      <path d="M 55 14 L 62 14 L 62 23 L 55 23 Z M 55 14 " clip-rule="nonzero"></path>
    </clipPath>
    <clipPath id="f0137448ea">
      <path d="M 42.589844 9.339844 L 65.011719 -3.230469 L 92.667969 46.09375 L 70.246094 58.664062 Z M 42.589844 9.339844 " clip-rule="nonzero"></path>
    </clipPath>
    <clipPath id="4d4720d1df">
      <path d="M 42.589844 9.339844 L 65.011719 -3.230469 L 92.667969 46.09375 L 70.246094 58.664062 Z M 42.589844 9.339844 " clip-rule="nonzero"></path>
    </clipPath>
    <clipPath id="0343a58040">
      <path d="M 61 10 L 69 10 L 69 20 L 61 20 Z M 61 10 " clip-rule="nonzero"></path>
    </clipPath>
    <clipPath id="6098df80d1">
      <path d="M 42.589844 9.339844 L 65.011719 -3.230469 L 92.667969 46.09375 L 70.246094 58.664062 Z M 42.589844 9.339844 " clip-rule="nonzero"></path>
    </clipPath>
    <clipPath id="a5623d084e">
      <path d="M 42.589844 9.339844 L 65.011719 -3.230469 L 92.667969 46.09375 L 70.246094 58.664062 Z M 42.589844 9.339844 " clip-rule="nonzero"></path>
    </clipPath>
    <clipPath id="7652c42ec0">
      <path d="M 60 22 L 66 22 L 66 27 L 60 27 Z M 60 22 " clip-rule="nonzero"></path>
    </clipPath>
    <clipPath id="cfffa82e4f">
      <path d="M 42.589844 9.339844 L 65.011719 -3.230469 L 92.667969 46.09375 L 70.246094 58.664062 Z M 42.589844 9.339844 " clip-rule="nonzero"></path>
    </clipPath>
    <clipPath id="be68711e61">
      <path d="M 42.589844 9.339844 L 65.011719 -3.230469 L 92.667969 46.09375 L 70.246094 58.664062 Z M 42.589844 9.339844 " clip-rule="nonzero"></path>
    </clipPath>
    <clipPath id="7fda88fcf0">
      <path d="M 56 28 L 79.046875 28 L 79.046875 34.515625 L 56 34.515625 Z M 56 28 " clip-rule="nonzero"></path>
    </clipPath>
    <clipPath id="c6f0bf6fd5">
      <path d="M 42.589844 9.339844 L 65.011719 -3.230469 L 92.667969 46.09375 L 70.246094 58.664062 Z M 42.589844 9.339844 " clip-rule="nonzero"></path>
    </clipPath>
    <clipPath id="ed95cd5d78">
      <path d="M 42.589844 9.339844 L 65.011719 -3.230469 L 92.667969 46.09375 L 70.246094 58.664062 Z M 42.589844 9.339844 " clip-rule="nonzero"></path>
    </clipPath>
    <clipPath id="2ef8a6ebb1">
      <path d="M 57 31 L 79.046875 31 L 79.046875 34.515625 L 57 34.515625 Z M 57 31 " clip-rule="nonzero"></path>
    </clipPath>
    <clipPath id="2cb998f35e">
      <path d="M 42.589844 9.339844 L 65.011719 -3.230469 L 92.667969 46.09375 L 70.246094 58.664062 Z M 42.589844 9.339844 " clip-rule="nonzero"></path>
    </clipPath>
    <clipPath id="345cae71a3">
      <path d="M 42.589844 9.339844 L 65.011719 -3.230469 L 92.667969 46.09375 L 70.246094 58.664062 Z M 42.589844 9.339844 " clip-rule="nonzero"></path>
    </clipPath>
    <clipPath id="041d4dd309">
      <path d="M 64 9 L 66 9 L 66 12 L 64 12 Z M 64 9 " clip-rule="nonzero"></path>
    </clipPath>
    <clipPath id="9501a19ae3">
      <path d="M 42.589844 9.339844 L 65.011719 -3.230469 L 92.667969 46.09375 L 70.246094 58.664062 Z M 42.589844 9.339844 " clip-rule="nonzero"></path>
    </clipPath>
    <clipPath id="7d82d6656b">
      <path d="M 42.589844 9.339844 L 65.011719 -3.230469 L 92.667969 46.09375 L 70.246094 58.664062 Z M 42.589844 9.339844 " clip-rule="nonzero"></path>
    </clipPath>
    <clipPath id="1f91a6c1a0">
      <path d="M 54 11 L 56 11 L 56 13 L 54 13 Z M 54 11 " clip-rule="nonzero"></path>
    </clipPath>
    <clipPath id="c0b54eccbe">
      <path d="M 42.589844 9.339844 L 65.011719 -3.230469 L 92.667969 46.09375 L 70.246094 58.664062 Z M 42.589844 9.339844 " clip-rule="nonzero"></path>
    </clipPath>
    <clipPath id="7b5626793a">
      <path d="M 42.589844 9.339844 L 65.011719 -3.230469 L 92.667969 46.09375 L 70.246094 58.664062 Z M 42.589844 9.339844 " clip-rule="nonzero"></path>
    </clipPath>
    <clipPath id="852511b872">
      <path d="M 61 21 L 63 21 L 63 23 L 61 23 Z M 61 21 " clip-rule="nonzero"></path>
    </clipPath>
    <clipPath id="aa0a0cf807">
      <path d="M 42.589844 9.339844 L 65.011719 -3.230469 L 92.667969 46.09375 L 70.246094 58.664062 Z M 42.589844 9.339844 " clip-rule="nonzero"></path>
    </clipPath>
    <clipPath id="860cae59c6">
      <path d="M 42.589844 9.339844 L 65.011719 -3.230469 L 92.667969 46.09375 L 70.246094 58.664062 Z M 42.589844 9.339844 " clip-rule="nonzero"></path>
    </clipPath>
    <clipPath id="58123b8aa5">
      <path d="M 58 25 L 61 25 L 61 28 L 58 28 Z M 58 25 " clip-rule="nonzero"></path>
    </clipPath>
    <clipPath id="cd01fdfd4c">
      <path d="M 42.589844 9.339844 L 65.011719 -3.230469 L 92.667969 46.09375 L 70.246094 58.664062 Z M 42.589844 9.339844 " clip-rule="nonzero"></path>
    </clipPath>
    <clipPath id="0e197d0227">
      <path d="M 42.589844 9.339844 L 65.011719 -3.230469 L 92.667969 46.09375 L 70.246094 58.664062 Z M 42.589844 9.339844 " clip-rule="nonzero"></path>
    </clipPath>
    <clipPath id="09c333c470">
      <path d="M 55 10 L 63 10 L 63 15 L 55 15 Z M 55 10 " clip-rule="nonzero"></path>
    </clipPath>
    <clipPath id="54fd7000bf">
      <path d="M 42.589844 9.339844 L 65.011719 -3.230469 L 92.667969 46.09375 L 70.246094 58.664062 Z M 42.589844 9.339844 " clip-rule="nonzero"></path>
    </clipPath>
    <clipPath id="ca630e356c">
      <path d="M 42.589844 9.339844 L 65.011719 -3.230469 L 92.667969 46.09375 L 70.246094 58.664062 Z M 42.589844 9.339844 " clip-rule="nonzero"></path>
    </clipPath>
    <clipPath id="ff9b16042e">
      <path d="M 24.902344 18 L 35.183594 18 L 35.183594 28.273438 L 24.902344 28.273438 Z M 24.902344 18 " clip-rule="nonzero"></path>
    </clipPath>
    <clipPath id="0948f758b4">
      <path d="M 32 25 L 34 25 L 34 28.273438 L 32 28.273438 Z M 32 25 " clip-rule="nonzero"></path>
    </clipPath>
    <clipPath id="c7626e2512">
      <path d="M 67 5 L 75 5 L 75 11.0625 L 67 11.0625 Z M 67 5 " clip-rule="nonzero"></path>
    </clipPath>
    <clipPath id="7e7af2c252">
      <path d="M 45 11 L 53 11 L 53 17.304688 L 45 17.304688 Z M 45 11 " clip-rule="nonzero"></path>
    </clipPath>
  </defs>
  <g clip-path="url(#28d49ded70)">
    <path fill="#db4538" d="M 0.46875 3.453125 L 79.046875 3.453125 L 79.046875 31.0625 L 0.46875 31.0625 Z M 0.46875 3.453125 " fill-opacity="1" fill-rule="nonzero"></path>
  </g>
  <g clip-path="url(#5181a64a0c)">
    <g clip-path="url(#94eb551098)">
      <g clip-path="url(#975fe20db4)">
        <path fill="#fff9f0" d="M 72.019531 57.417969 C 72.019531 57.417969 60.179688 40.710938 56.40625 27.75 C 56.40625 27.75 53.15625 27.269531 52.609375 23.402344 C 52.058594 19.539062 55.347656 19.480469 55.347656 19.480469 C 55.347656 19.480469 54.132812 16.246094 56.867188 15.050781 C 56.867188 15.050781 54.476562 12.304688 56.648438 11.167969 C 58.824219 10.035156 63.578125 12.738281 63.578125 12.738281 C 63.578125 12.738281 65.613281 12.875 68.703125 17.019531 C 71.796875 21.164062 75.105469 25.699219 77.78125 29.5625 C 80.183594 33.03125 88.804688 48.003906 88.804688 48.003906 Z M 72.019531 57.417969 " fill-opacity="1" fill-rule="nonzero"></path>
      </g>
    </g>
  </g>
  <g clip-path="url(#19d5a63a4e)">
    <g clip-path="url(#0e24e3a0df)">
      <g clip-path="url(#030d7fd126)">
        <path fill="#5ce1e6" d="M 60.664062 4.074219 C 60.664062 4.074219 58.984375 0.558594 56.460938 3.066406 C 54.082031 5.4375 59.886719 9.058594 61.59375 8.640625 C 63.300781 8.226562 67.714844 2.132812 64.824219 0.816406 C 60.953125 -0.945312 60.664062 4.074219 60.664062 4.074219 Z M 60.664062 4.074219 " fill-opacity="1" fill-rule="nonzero"></path>
      </g>
    </g>
  </g>
  <g clip-path="url(#e4a9b4d798)">
    <g clip-path="url(#f09d5cfc37)">
      <g clip-path="url(#998fb4ac50)">
        <path fill="#fff9f0" d="M 56.40625 27.75 C 56.40625 27.75 61.046875 27.363281 58.492188 22.660156 " fill-opacity="1" fill-rule="nonzero"></path>
      </g>
    </g>
  </g>
  <g clip-path="url(#8525601bff)">
    <g clip-path="url(#056f3a3fff)">
      <g clip-path="url(#46559b8d3f)">
        <path fill="#fff9f0" d="M 57.394531 14.925781 C 57.46875 15.054688 61.640625 17.484375 61.617188 20.480469 C 61.59375 23.476562 56.074219 23.503906 55.347656 19.480469 " fill-opacity="1" fill-rule="nonzero"></path>
      </g>
    </g>
  </g>
  <g clip-path="url(#2ecc936628)">
    <g clip-path="url(#a6416cd6f3)">
      <g clip-path="url(#7580d83b11)">
        <path fill="#fff9f0" d="M 62.796875 19.394531 C 62.796875 19.394531 60.644531 14.480469 63.953125 11.625 C 64.132812 11.472656 64.332031 11.363281 64.558594 11.296875 C 64.785156 11.230469 65.011719 11.214844 65.246094 11.246094 C 65.476562 11.277344 65.691406 11.355469 65.890625 11.484375 C 66.089844 11.609375 66.253906 11.769531 66.382812 11.964844 L 66.402344 12 C 67.160156 13.195312 67.757812 16.695312 68.734375 17.679688 " fill-opacity="1" fill-rule="nonzero"></path>
      </g>
    </g>
  </g>
  <g clip-path="url(#f023f03ef7)">
    <g clip-path="url(#af905f5f75)">
      <g clip-path="url(#085ffe01b8)">
        <path fill="#ede0d1" d="M 56.40625 27.75 C 57.988281 27.101562 59.109375 26.371094 58.878906 24.519531 C 58.820312 23.898438 58.644531 23.3125 58.492188 22.660156 C 58.59375 22.769531 58.691406 22.878906 58.78125 22.996094 C 59.132812 23.453125 59.378906 23.957031 59.523438 24.511719 C 59.710938 25.28125 59.617188 26.089844 59.125 26.730469 C 58.492188 27.535156 57.398438 27.886719 56.40625 27.75 Z M 56.40625 27.75 " fill-opacity="1" fill-rule="nonzero"></path>
      </g>
    </g>
  </g>
  <g clip-path="url(#2c7e5b701e)">
    <g clip-path="url(#f0137448ea)">
      <g clip-path="url(#4d4720d1df)">
        <path fill="#ede0d1" d="M 57.394531 14.925781 C 58.601562 15.59375 59.753906 16.359375 60.667969 17.417969 C 61.132812 17.960938 61.535156 18.566406 61.769531 19.253906 C 62.167969 20.390625 62.050781 21.675781 60.992188 22.414062 C 60.359375 22.859375 59.578125 23.007812 58.828125 22.945312 C 57.378906 22.84375 56.015625 21.871094 55.550781 20.492188 C 55.4375 20.164062 55.371094 19.828125 55.347656 19.480469 C 55.390625 19.601562 55.429688 19.722656 55.472656 19.84375 C 55.523438 19.953125 55.566406 20.078125 55.621094 20.1875 L 55.738281 20.410156 C 56.492188 21.816406 58.238281 22.59375 59.769531 22.1875 C 60.496094 22 61.089844 21.511719 61.214844 20.800781 C 61.382812 19.710938 60.84375 18.660156 60.210938 17.78125 C 59.527344 16.851562 58.652344 16.03125 57.773438 15.269531 C 57.667969 15.175781 57.488281 15.03125 57.394531 14.925781 Z M 57.394531 14.925781 " fill-opacity="1" fill-rule="nonzero"></path>
      </g>
    </g>
  </g>
  <g clip-path="url(#0343a58040)">
    <g clip-path="url(#6098df80d1)">
      <g clip-path="url(#a5623d084e)">
        <path fill="#ede0d1" d="M 62.796875 19.394531 C 61.472656 16.871094 61.347656 13.449219 63.628906 11.425781 C 64.398438 10.660156 65.714844 10.683594 66.445312 11.488281 C 66.722656 11.785156 66.894531 12.175781 67.03125 12.542969 C 67.414062 13.578125 67.640625 14.648438 67.9375 15.695312 C 68.140625 16.378906 68.308594 17.097656 68.734375 17.683594 C 68.453125 17.449219 68.25 17.128906 68.070312 16.808594 C 67.273438 15.390625 66.9375 13.769531 66.203125 12.335938 C 65.800781 11.542969 64.761719 11.347656 64.121094 11.976562 C 62.019531 13.804688 62.105469 16.90625 62.796875 19.394531 Z M 62.796875 19.394531 " fill-opacity="1" fill-rule="nonzero"></path>
      </g>
    </g>
  </g>
  <g clip-path="url(#7652c42ec0)">
    <g clip-path="url(#cfffa82e4f)">
      <g clip-path="url(#be68711e61)">
        <path fill="#f7ebdc" d="M 65.464844 23.542969 C 66.121094 24.71875 65.171875 25.558594 63.855469 26.296875 C 62.539062 27.035156 61.359375 27.390625 60.699219 26.214844 C 60.042969 25.042969 60.578125 23.492188 61.890625 22.757812 C 63.207031 22.019531 64.808594 22.371094 65.464844 23.542969 Z M 65.464844 23.542969 " fill-opacity="1" fill-rule="nonzero"></path>
      </g>
    </g>
  </g>
  <g clip-path="url(#7fda88fcf0)">
    <g clip-path="url(#c6f0bf6fd5)">
      <g clip-path="url(#ed95cd5d78)">
        <path fill="#f7ebdc" d="M 74.984375 49.789062 C 75.652344 49.929688 85.066406 46.707031 87.558594 45.847656 C 85.347656 42.03125 80.757812 34.164062 78.492188 30.636719 C 68.101562 35.574219 56.777344 28.957031 56.777344 28.957031 C 58.011719 32.773438 59.867188 36.847656 61.863281 40.6875 C 67.507812 44.722656 74.527344 49.695312 74.984375 49.789062 Z M 74.984375 49.789062 " fill-opacity="1" fill-rule="nonzero"></path>
      </g>
    </g>
  </g>
  <g clip-path="url(#2ef8a6ebb1)">
    <g clip-path="url(#2cb998f35e)">
      <g clip-path="url(#345cae71a3)">
        <path fill="#ede0d1" d="M 86.378906 43.816406 C 73.417969 47.808594 60.96875 35.121094 57.609375 31.332031 C 62.21875 43.585938 72.019531 57.417969 72.019531 57.417969 L 88.804688 48.003906 C 88.804688 48.003906 87.800781 46.257812 86.378906 43.816406 Z M 86.378906 43.816406 " fill-opacity="1" fill-rule="nonzero"></path>
      </g>
    </g>
  </g>
  <g clip-path="url(#041d4dd309)">
    <g clip-path="url(#9501a19ae3)">
      <g clip-path="url(#7d82d6656b)">
        <path fill="#ede0d1" d="M 64.5625 11.265625 L 64.800781 9.75 L 65.304688 11.203125 Z M 64.5625 11.265625 " fill-opacity="1" fill-rule="nonzero"></path>
      </g>
    </g>
  </g>
  <g clip-path="url(#1f91a6c1a0)">
    <g clip-path="url(#c0b54eccbe)">
      <g clip-path="url(#7b5626793a)">
        <path fill="#ede0d1" d="M 55.609375 12.113281 L 54.425781 11.132812 L 55.929688 11.441406 Z M 55.609375 12.113281 " fill-opacity="1" fill-rule="nonzero"></path>
      </g>
    </g>
  </g>
  <g clip-path="url(#852511b872)">
    <g clip-path="url(#aa0a0cf807)">
      <g clip-path="url(#860cae59c6)">
        <path fill="#ede0d1" d="M 61.617188 21.546875 L 62.40625 22.722656 L 61.128906 22.109375 Z M 61.617188 21.546875 " fill-opacity="1" fill-rule="nonzero"></path>
      </g>
    </g>
  </g>
  <g clip-path="url(#58123b8aa5)">
    <g clip-path="url(#cd01fdfd4c)">
      <g clip-path="url(#0e197d0227)">
        <path fill="#ede0d1" d="M 59.292969 25.917969 L 60.085938 27.09375 L 58.808594 26.480469 Z M 59.292969 25.917969 " fill-opacity="1" fill-rule="nonzero"></path>
      </g>
    </g>
  </g>
  <g clip-path="url(#09c333c470)">
    <g clip-path="url(#54fd7000bf)">
      <g clip-path="url(#ca630e356c)">
        <path fill="#ede0d1" d="M 56.425781 14.449219 C 55.367188 13.578125 54.855469 11.804688 56.269531 11 C 57.050781 10.585938 57.976562 10.644531 58.8125 10.777344 C 60.019531 10.992188 61.144531 11.421875 62.183594 12.070312 C 60.667969 11.730469 59.152344 11.34375 57.605469 11.414062 C 55.59375 11.527344 55.851562 12.996094 56.421875 14.445312 Z M 56.425781 14.449219 " fill-opacity="1" fill-rule="nonzero"></path>
      </g>
    </g>
  </g>
  <g fill="#ffffff" fill-opacity="1">
    <g transform="translate(3.920312, 16.855283)">
      <g>
        <path d="M 2.640625 -9.5625 C 3.390625 -9.5625 3.929688 -9.351562 4.265625 -8.9375 C 4.609375 -8.519531 4.78125 -7.945312 4.78125 -7.21875 L 4.78125 -6.078125 C 4.78125 -5.316406 4.597656 -4.738281 4.234375 -4.34375 C 3.878906 -3.957031 3.316406 -3.765625 2.546875 -3.765625 L 1.609375 -3.765625 L 1.609375 0 L 0.546875 0 L 0.546875 -9.5625 Z M 2.546875 -4.71875 C 2.953125 -4.71875 3.25 -4.816406 3.4375 -5.015625 C 3.632812 -5.210938 3.734375 -5.546875 3.734375 -6.015625 L 3.734375 -7.28125 C 3.734375 -7.71875 3.644531 -8.046875 3.46875 -8.265625 C 3.300781 -8.484375 3.023438 -8.59375 2.640625 -8.59375 L 1.609375 -8.59375 L 1.609375 -4.71875 Z M 2.546875 -4.71875 "></path>
      </g>
    </g>
  </g>
  <g fill="#ffffff" fill-opacity="1">
    <g transform="translate(9.027208, 16.855283)">
      <g>
        <path d="M 1.625 -1.921875 L 1.25 0 L 0.265625 0 L 2.109375 -9.5625 L 3.640625 -9.5625 L 5.46875 0 L 4.40625 0 L 4.046875 -1.921875 Z M 1.765625 -2.84375 L 3.890625 -2.84375 L 2.8125 -8.359375 Z M 1.765625 -2.84375 "></path>
      </g>
    </g>
  </g>
  <g fill="#ffffff" fill-opacity="1">
    <g transform="translate(14.789535, 16.855283)">
      <g>
        <path d="M 3.09375 0 L 1.625 0 L 0.3125 -9.5625 L 1.359375 -9.5625 L 2.46875 -1.421875 L 3.53125 -9.546875 L 4.59375 -9.546875 L 5.640625 -1.40625 L 6.71875 -9.5625 L 7.640625 -9.5625 L 6.34375 0 L 4.9375 0 L 4.03125 -6.484375 Z M 3.09375 0 "></path>
      </g>
    </g>
  </g>
  <g fill="#ffffff" fill-opacity="1">
    <g transform="translate(22.750291, 16.855283)">
      <g>
        <path d="M 3.8125 -5.109375 L 3.8125 -4.140625 L 1.609375 -4.140625 L 1.609375 0 L 0.546875 0 L 0.546875 -9.5625 L 4.34375 -9.5625 L 4.34375 -8.59375 L 1.609375 -8.59375 L 1.609375 -5.109375 Z M 3.8125 -5.109375 "></path>
      </g>
    </g>
  </g>
  <g fill="#ffffff" fill-opacity="1">
    <g transform="translate(27.392924, 16.855283)">
      <g>
        <path d="M 3.953125 -5.328125 L 3.953125 -4.375 L 1.609375 -4.375 L 1.609375 -0.96875 L 4.484375 -0.96875 L 4.484375 0 L 0.546875 0 L 0.546875 -9.5625 L 4.484375 -9.5625 L 4.484375 -8.59375 L 1.609375 -8.59375 L 1.609375 -5.328125 Z M 3.953125 -5.328125 "></path>
      </g>
    </g>
  </g>
  <g fill="#ffffff" fill-opacity="1">
    <g transform="translate(32.308663, 16.855283)">
      <g>
        <path d="M 2.609375 -9.65625 C 3.347656 -9.65625 3.890625 -9.4375 4.234375 -9 C 4.585938 -8.5625 4.765625 -7.976562 4.765625 -7.25 L 4.765625 -6.390625 L 3.75 -6.390625 L 3.75 -7.3125 C 3.75 -7.75 3.660156 -8.085938 3.484375 -8.328125 C 3.304688 -8.566406 3.023438 -8.6875 2.640625 -8.6875 C 2.253906 -8.6875 1.96875 -8.566406 1.78125 -8.328125 C 1.601562 -8.085938 1.515625 -7.75 1.515625 -7.3125 L 1.515625 -2.25 C 1.515625 -1.8125 1.601562 -1.472656 1.78125 -1.234375 C 1.96875 -0.992188 2.253906 -0.875 2.640625 -0.875 C 3.023438 -0.875 3.304688 -0.992188 3.484375 -1.234375 C 3.660156 -1.472656 3.75 -1.8125 3.75 -2.25 L 3.75 -3.5 L 4.765625 -3.5 L 4.765625 -2.3125 C 4.765625 -1.582031 4.585938 -1 4.234375 -0.5625 C 3.890625 -0.125 3.347656 0.09375 2.609375 0.09375 C 1.878906 0.09375 1.335938 -0.125 0.984375 -0.5625 C 0.640625 -1 0.46875 -1.582031 0.46875 -2.3125 L 0.46875 -7.25 C 0.46875 -7.613281 0.507812 -7.941406 0.59375 -8.234375 C 0.675781 -8.535156 0.804688 -8.789062 0.984375 -9 C 1.160156 -9.207031 1.382812 -9.367188 1.65625 -9.484375 C 1.925781 -9.597656 2.242188 -9.65625 2.609375 -9.65625 Z M 2.609375 -9.65625 "></path>
      </g>
    </g>
  </g>
  <g fill="#ffffff" fill-opacity="1">
    <g transform="translate(37.497494, 16.855283)">
      <g>
        <path d="M 1.9375 0 L 1.9375 -8.59375 L 0.171875 -8.59375 L 0.171875 -9.5625 L 4.765625 -9.5625 L 4.765625 -8.59375 L 3 -8.59375 L 3 0 Z M 1.9375 0 "></path>
      </g>
    </g>
  </g>
  <g fill="#ffffff" fill-opacity="1">
    <g transform="translate(3.920312, 27.870907)">
      <g>
        <path d="M 2.765625 -9.5625 C 3.515625 -9.5625 4.070312 -9.359375 4.4375 -8.953125 C 4.8125 -8.554688 5 -7.972656 5 -7.203125 L 5 -5.953125 C 5 -5.179688 4.8125 -4.59375 4.4375 -4.1875 C 4.070312 -3.789062 3.515625 -3.59375 2.765625 -3.59375 L 2.046875 -3.59375 L 2.046875 0 L 0.546875 0 L 0.546875 -9.5625 Z M 2.046875 -8.1875 L 2.046875 -4.953125 L 2.765625 -4.953125 C 2.992188 -4.953125 3.171875 -5.015625 3.296875 -5.140625 C 3.429688 -5.273438 3.5 -5.515625 3.5 -5.859375 L 3.5 -7.296875 C 3.5 -7.640625 3.429688 -7.875 3.296875 -8 C 3.171875 -8.125 2.992188 -8.1875 2.765625 -8.1875 Z M 2.046875 -8.1875 "></path>
      </g>
    </g>
  </g>
  <g fill="#ffffff" fill-opacity="1">
    <g transform="translate(9.136452, 27.870907)">
      <g>
        <path d="M 0.546875 -9.5625 L 2.046875 -9.5625 L 2.046875 0 L 0.546875 0 Z M 0.546875 -9.5625 "></path>
      </g>
    </g>
  </g>
  <g fill="#ffffff" fill-opacity="1">
    <g transform="translate(11.730868, 27.870907)">
      <g>
        <path d="M 4.90625 -3.5625 L 4.90625 -2.296875 C 4.90625 -1.523438 4.710938 -0.929688 4.328125 -0.515625 C 3.953125 -0.0976562 3.394531 0.109375 2.65625 0.109375 C 1.925781 0.109375 1.367188 -0.0976562 0.984375 -0.515625 C 0.609375 -0.929688 0.421875 -1.523438 0.421875 -2.296875 L 0.421875 -7.265625 C 0.421875 -8.035156 0.609375 -8.628906 0.984375 -9.046875 C 1.367188 -9.460938 1.925781 -9.671875 2.65625 -9.671875 C 3.394531 -9.671875 3.953125 -9.460938 4.328125 -9.046875 C 4.710938 -8.628906 4.90625 -8.035156 4.90625 -7.265625 L 4.90625 -6.34375 L 3.484375 -6.34375 L 3.484375 -7.359375 C 3.484375 -7.703125 3.410156 -7.941406 3.265625 -8.078125 C 3.128906 -8.222656 2.941406 -8.296875 2.703125 -8.296875 C 2.460938 -8.296875 2.269531 -8.222656 2.125 -8.078125 C 1.988281 -7.941406 1.921875 -7.703125 1.921875 -7.359375 L 1.921875 -2.203125 C 1.921875 -1.859375 1.988281 -1.613281 2.125 -1.46875 C 2.269531 -1.332031 2.460938 -1.265625 2.703125 -1.265625 C 2.941406 -1.265625 3.128906 -1.332031 3.265625 -1.46875 C 3.410156 -1.613281 3.484375 -1.859375 3.484375 -2.203125 L 3.484375 -3.5625 Z M 4.90625 -3.5625 "></path>
      </g>
    </g>
  </g>
  <g fill="#ffffff" fill-opacity="1">
    <g transform="translate(17.001624, 27.870907)">
      <g>
        <path d="M 2.515625 -3.8125 L 2.046875 -2.9375 L 2.046875 0 L 0.546875 0 L 0.546875 -9.5625 L 2.046875 -9.5625 L 2.046875 -5.390625 L 4.015625 -9.5625 L 5.515625 -9.5625 L 3.421875 -5.296875 L 5.515625 0 L 3.96875 0 Z M 2.515625 -3.8125 "></path>
      </g>
    </g>
  </g>
  <g clip-path="url(#ff9b16042e)">
    <path fill="#ede0d1" d="M 33.539062 23.617188 C 34.304688 23.328125 35.273438 23.964844 35.007812 25.050781 C 34.878906 25.566406 34.40625 25.851562 34.117188 25.789062 C 34.660156 25.90625 34.910156 26.144531 34.992188 26.695312 C 35.074219 27.246094 34.792969 27.835938 34.316406 28.125 C 33.863281 28.402344 33.507812 28.410156 32.976562 28.390625 C 31.398438 28.328125 29.828125 28.078125 28.25 28.15625 C 27.285156 28.207031 26.320312 28.378906 25.355469 28.304688 C 25.203125 28.292969 25.007812 28.234375 24.992188 28.082031 C 24.984375 28.007812 25.023438 27.941406 25.058594 27.878906 C 25.21875 27.597656 25.359375 27.292969 25.347656 26.972656 C 25.335938 26.574219 25.082031 26.222656 25.015625 25.828125 C 24.960938 25.511719 25.03125 25.1875 25.148438 24.890625 C 25.234375 24.679688 25.347656 24.46875 25.339844 24.238281 C 25.328125 23.820312 24.90625 23.472656 24.953125 23.054688 C 24.980469 22.777344 25.214844 22.550781 25.242188 22.273438 C 25.265625 22.042969 25.144531 21.828125 25.109375 21.601562 C 25.070312 21.375 25.203125 21.277344 25.429688 21.285156 L 25.28125 21.304688 C 26.585938 21.125 27.898438 21.046875 29.214844 21.066406 C 29.195312 20.230469 29.425781 19.355469 30.019531 18.773438 C 30.613281 18.1875 31.621094 17.992188 32.304688 18.46875 C 32.445312 18.570312 32.574219 18.699219 32.65625 18.855469 C 32.734375 19 32.773438 19.167969 32.800781 19.332031 C 32.867188 19.769531 32.859375 20.226562 32.71875 20.644531 C 32.578125 21.066406 32.300781 21.445312 31.914062 21.664062 C 32.367188 21.488281 33.234375 21.296875 33.664062 21.523438 C 33.964844 21.683594 34.203125 21.984375 34.230469 22.320312 C 34.277344 22.898438 34.140625 23.390625 33.539062 23.617188 Z M 33.539062 23.617188 " fill-opacity="1" fill-rule="nonzero"></path>
  </g>
  <path fill="#cca88f" d="M 32.003906 21.5625 C 31.753906 21.660156 31.574219 21.832031 31.460938 22.074219 C 31.347656 22.304688 31.308594 22.574219 31.375 22.824219 C 31.445312 23.09375 31.625 23.316406 31.847656 23.476562 C 32.085938 23.648438 32.371094 23.734375 32.660156 23.757812 C 32.851562 23.773438 33.042969 23.757812 33.230469 23.726562 C 33.328125 23.710938 33.425781 23.691406 33.519531 23.667969 C 33.566406 23.65625 33.609375 23.640625 33.65625 23.628906 C 33.710938 23.613281 33.742188 23.585938 33.78125 23.546875 C 33.816406 23.519531 33.785156 23.472656 33.75 23.46875 C 33.707031 23.464844 33.671875 23.457031 33.628906 23.46875 C 33.589844 23.480469 33.550781 23.492188 33.511719 23.5 C 33.433594 23.523438 33.355469 23.542969 33.277344 23.558594 C 33.125 23.589844 32.96875 23.605469 32.808594 23.605469 C 32.539062 23.601562 32.273438 23.542969 32.039062 23.40625 C 31.832031 23.289062 31.652344 23.109375 31.5625 22.882812 C 31.480469 22.671875 31.488281 22.441406 31.566406 22.230469 C 31.652344 21.996094 31.828125 21.789062 32.054688 21.683594 C 32.121094 21.648438 32.074219 21.535156 32.003906 21.5625 Z M 32.003906 21.5625 " fill-opacity="1" fill-rule="nonzero"></path>
  <path fill="#cca88f" d="M 33.03125 23.597656 C 32.882812 23.640625 32.726562 23.691406 32.589844 23.773438 C 32.453125 23.851562 32.324219 23.945312 32.210938 24.058594 C 31.996094 24.273438 31.855469 24.554688 31.835938 24.859375 C 31.816406 25.160156 31.921875 25.46875 32.15625 25.664062 C 32.421875 25.878906 32.78125 25.957031 33.113281 26.003906 C 33.324219 26.03125 33.539062 26.042969 33.753906 26.03125 C 33.863281 26.023438 33.972656 26.011719 34.078125 25.996094 C 34.183594 25.980469 34.285156 25.945312 34.382812 25.90625 C 34.40625 25.894531 34.425781 25.875 34.421875 25.847656 C 34.417969 25.824219 34.394531 25.796875 34.367188 25.800781 C 34.277344 25.808594 34.191406 25.8125 34.101562 25.824219 C 34.015625 25.835938 33.929688 25.847656 33.84375 25.855469 C 33.667969 25.871094 33.492188 25.871094 33.316406 25.859375 C 33.140625 25.84375 32.96875 25.816406 32.800781 25.777344 C 32.65625 25.742188 32.511719 25.695312 32.382812 25.621094 C 32.261719 25.554688 32.160156 25.460938 32.09375 25.339844 C 32.03125 25.226562 31.996094 25.105469 31.992188 24.976562 C 31.980469 24.703125 32.078125 24.441406 32.253906 24.238281 C 32.359375 24.117188 32.480469 24.015625 32.617188 23.929688 C 32.761719 23.84375 32.90625 23.765625 33.0625 23.703125 C 33.125 23.675781 33.101562 23.578125 33.03125 23.597656 Z M 33.03125 23.597656 " fill-opacity="1" fill-rule="nonzero"></path>
  <g clip-path="url(#0948f758b4)">
    <path fill="#cca88f" d="M 33.121094 25.941406 C 32.988281 25.925781 32.839844 25.9375 32.714844 25.988281 C 32.582031 26.039062 32.460938 26.121094 32.363281 26.226562 C 32.167969 26.4375 32.078125 26.734375 32.113281 27.019531 C 32.144531 27.28125 32.203125 27.546875 32.355469 27.765625 C 32.425781 27.875 32.515625 27.96875 32.625 28.039062 C 32.734375 28.109375 32.859375 28.160156 32.976562 28.210938 C 33.039062 28.234375 33.105469 28.261719 33.167969 28.285156 C 33.179688 28.292969 33.195312 28.296875 33.207031 28.300781 L 33.210938 28.304688 C 33.226562 28.308594 33.238281 28.316406 33.253906 28.320312 C 33.292969 28.335938 33.332031 28.351562 33.371094 28.363281 C 33.457031 28.382812 33.546875 28.394531 33.632812 28.394531 C 33.679688 28.394531 33.726562 28.390625 33.769531 28.375 C 33.8125 28.355469 33.851562 28.335938 33.890625 28.3125 C 33.925781 28.292969 33.933594 28.265625 33.917969 28.230469 C 33.902344 28.199219 33.875 28.1875 33.839844 28.195312 C 33.8125 28.195312 33.78125 28.199219 33.75 28.199219 C 33.714844 28.195312 33.679688 28.199219 33.640625 28.199219 C 33.578125 28.199219 33.515625 28.195312 33.453125 28.179688 C 33.335938 28.15625 33.230469 28.105469 33.121094 28.0625 C 33.015625 28.023438 32.914062 27.980469 32.8125 27.929688 C 32.707031 27.878906 32.640625 27.828125 32.5625 27.742188 C 32.410156 27.566406 32.34375 27.34375 32.304688 27.121094 C 32.28125 27 32.265625 26.878906 32.285156 26.761719 C 32.304688 26.636719 32.351562 26.519531 32.421875 26.417969 C 32.574219 26.195312 32.855469 26.058594 33.121094 26.054688 C 33.195312 26.050781 33.191406 25.949219 33.121094 25.941406 Z M 33.121094 25.941406 " fill-opacity="1" fill-rule="nonzero"></path>
  </g>
  <path fill="#fcbdb1" d="M 31.039062 24.136719 C 31.347656 24.335938 31.550781 24.699219 31.535156 25.070312 C 31.515625 25.53125 31.160156 25.957031 30.707031 26.050781 C 30.421875 26.113281 30.101562 26.054688 29.84375 26.199219 C 29.699219 26.277344 29.589844 26.410156 29.480469 26.535156 C 29.304688 26.734375 29.105469 26.925781 28.855469 27.027344 C 28.351562 27.230469 27.859375 26.964844 27.589844 26.539062 C 27.253906 26.007812 27.171875 25.25 27.59375 24.78125 C 27.648438 24.71875 27.714844 24.65625 27.726562 24.574219 C 27.730469 24.503906 27.695312 24.4375 27.664062 24.375 C 27.371094 23.816406 27.195312 23.078125 27.835938 22.703125 C 28.007812 22.601562 28.203125 22.53125 28.402344 22.507812 C 28.828125 22.464844 29.242188 22.652344 29.554688 22.933594 C 29.863281 23.210938 29.929688 23.773438 30.304688 23.90625 C 30.460938 23.964844 30.632812 23.972656 30.792969 24.023438 C 30.882812 24.050781 30.964844 24.085938 31.039062 24.136719 Z M 31.039062 24.136719 " fill-opacity="1" fill-rule="nonzero"></path>
  <path fill="#fcbdb1" d="M 30.410156 19.703125 C 30.207031 19.96875 30.066406 20.296875 30.089844 20.628906 C 30.113281 20.960938 30.328125 21.292969 30.652344 21.382812 C 30.875 21.445312 31.125 21.386719 31.324219 21.265625 C 31.621094 21.089844 31.828125 20.773438 31.882812 20.433594 C 31.933594 20.09375 31.945312 19.890625 31.714844 19.632812 C 31.308594 19.171875 30.722656 19.296875 30.410156 19.703125 Z M 30.410156 19.703125 " fill-opacity="1" fill-rule="nonzero"></path>
  <g clip-path="url(#c7626e2512)">
    <path fill="#f08faf" d="M 70.628906 6.621094 C 71.207031 5.210938 72.675781 4.453125 73.765625 5.511719 C 75.796875 7.480469 70.710938 11.0625 70.710938 11.0625 C 68.125 8.976562 66.253906 7.1875 67.773438 5.59375 C 68.625 4.695312 70.03125 5.273438 70.628906 6.621094 Z M 70.628906 6.621094 " fill-opacity="1" fill-rule="nonzero"></path>
  </g>
  <g clip-path="url(#7e7af2c252)">
    <path fill="#54e346" d="M 48.945312 12.847656 C 49.507812 11.445312 50.945312 10.695312 52.011719 11.746094 C 54 13.699219 49.023438 17.257812 49.023438 17.257812 C 46.496094 15.1875 44.664062 13.410156 46.148438 11.828125 C 46.984375 10.9375 48.359375 11.507812 48.945312 12.847656 Z M 48.945312 12.847656 " fill-opacity="1" fill-rule="nonzero"></path>
  </g>
</svg>
