<?xml version="1.0" encoding="UTF-8"?>
<svg xmlns="http://www.w3.org/2000/svg" xmlns:xlink="http://www.w3.org/1999/xlink" width="107" zoomAndPan="magnify" viewBox="0 0 80.25 35.25" height="47" preserveAspectRatio="xMidYMid meet" version="1.0">
  <defs>
    <g></g>
    <clipPath id="6cbed55c4a">
      <path d="M 0.46875 3.453125 L 79.046875 3.453125 L 79.046875 31.0625 L 0.46875 31.0625 Z M 0.46875 3.453125 " clip-rule="nonzero"></path>
    </clipPath>
    <clipPath id="3537471bf6">
      <path d="M 51 6 L 75 6 L 75 29.820312 L 51 29.820312 Z M 51 6 " clip-rule="nonzero"></path>
    </clipPath>
  </defs>
  <g clip-path="url(#6cbed55c4a)">
    <path fill="#5e17eb" d="M 0.46875 3.453125 L 79.046875 3.453125 L 79.046875 31.0625 L 0.46875 31.0625 Z M 0.46875 3.453125 " fill-opacity="1" fill-rule="nonzero"></path>
  </g>
  <g fill="#ffffff" fill-opacity="1">
    <g transform="translate(3.920312, 16.855283)">
      <g>
        <path d="M 2.640625 -9.5625 C 3.390625 -9.5625 3.929688 -9.351562 4.265625 -8.9375 C 4.609375 -8.519531 4.78125 -7.945312 4.78125 -7.21875 L 4.78125 -6.078125 C 4.78125 -5.316406 4.597656 -4.738281 4.234375 -4.34375 C 3.878906 -3.957031 3.316406 -3.765625 2.546875 -3.765625 L 1.609375 -3.765625 L 1.609375 0 L 0.546875 0 L 0.546875 -9.5625 Z M 2.546875 -4.71875 C 2.953125 -4.71875 3.25 -4.816406 3.4375 -5.015625 C 3.632812 -5.210938 3.734375 -5.546875 3.734375 -6.015625 L 3.734375 -7.28125 C 3.734375 -7.71875 3.644531 -8.046875 3.46875 -8.265625 C 3.300781 -8.484375 3.023438 -8.59375 2.640625 -8.59375 L 1.609375 -8.59375 L 1.609375 -4.71875 Z M 2.546875 -4.71875 "></path>
      </g>
    </g>
  </g>
  <g fill="#ffffff" fill-opacity="1">
    <g transform="translate(9.027208, 16.855283)">
      <g>
        <path d="M 1.625 -1.921875 L 1.25 0 L 0.265625 0 L 2.109375 -9.5625 L 3.640625 -9.5625 L 5.46875 0 L 4.40625 0 L 4.046875 -1.921875 Z M 1.765625 -2.84375 L 3.890625 -2.84375 L 2.8125 -8.359375 Z M 1.765625 -2.84375 "></path>
      </g>
    </g>
  </g>
  <g fill="#ffffff" fill-opacity="1">
    <g transform="translate(14.789535, 16.855283)">
      <g>
        <path d="M 3.09375 0 L 1.625 0 L 0.3125 -9.5625 L 1.359375 -9.5625 L 2.46875 -1.421875 L 3.53125 -9.546875 L 4.59375 -9.546875 L 5.640625 -1.40625 L 6.71875 -9.5625 L 7.640625 -9.5625 L 6.34375 0 L 4.9375 0 L 4.03125 -6.484375 Z M 3.09375 0 "></path>
      </g>
    </g>
  </g>
  <g fill="#ffffff" fill-opacity="1">
    <g transform="translate(22.750291, 16.855283)">
      <g>
        <path d="M 2.546875 -9.65625 C 3.273438 -9.65625 3.8125 -9.4375 4.15625 -9 C 4.507812 -8.570312 4.6875 -7.992188 4.6875 -7.265625 L 4.6875 -7 L 3.671875 -7 L 3.671875 -7.3125 C 3.671875 -7.75 3.582031 -8.085938 3.40625 -8.328125 C 3.238281 -8.566406 2.960938 -8.6875 2.578125 -8.6875 C 2.191406 -8.6875 1.910156 -8.566406 1.734375 -8.328125 C 1.566406 -8.085938 1.484375 -7.753906 1.484375 -7.328125 C 1.484375 -6.972656 1.5625 -6.664062 1.71875 -6.40625 C 1.882812 -6.144531 2.082031 -5.898438 2.3125 -5.671875 C 2.550781 -5.453125 2.8125 -5.234375 3.09375 -5.015625 C 3.375 -4.804688 3.628906 -4.570312 3.859375 -4.3125 C 4.097656 -4.0625 4.296875 -3.773438 4.453125 -3.453125 C 4.617188 -3.128906 4.703125 -2.742188 4.703125 -2.296875 C 4.703125 -1.566406 4.523438 -0.984375 4.171875 -0.546875 C 3.816406 -0.117188 3.273438 0.09375 2.546875 0.09375 C 1.804688 0.09375 1.257812 -0.117188 0.90625 -0.546875 C 0.5625 -0.984375 0.390625 -1.566406 0.390625 -2.296875 L 0.390625 -2.84375 L 1.390625 -2.84375 L 1.390625 -2.234375 C 1.390625 -1.796875 1.476562 -1.457031 1.65625 -1.21875 C 1.84375 -0.988281 2.128906 -0.875 2.515625 -0.875 C 2.898438 -0.875 3.179688 -0.988281 3.359375 -1.21875 C 3.535156 -1.457031 3.625 -1.796875 3.625 -2.234375 C 3.625 -2.585938 3.546875 -2.894531 3.390625 -3.15625 C 3.234375 -3.414062 3.035156 -3.65625 2.796875 -3.875 C 2.554688 -4.101562 2.300781 -4.320312 2.03125 -4.53125 C 1.757812 -4.75 1.503906 -4.984375 1.265625 -5.234375 C 1.035156 -5.492188 0.835938 -5.785156 0.671875 -6.109375 C 0.515625 -6.429688 0.4375 -6.816406 0.4375 -7.265625 C 0.4375 -8.003906 0.609375 -8.585938 0.953125 -9.015625 C 1.296875 -9.441406 1.828125 -9.65625 2.546875 -9.65625 Z M 2.546875 -9.65625 "></path>
      </g>
    </g>
  </g>
  <g fill="#ffffff" fill-opacity="1">
    <g transform="translate(27.829878, 16.855283)">
      <g>
        <path d="M 0.46875 -7.25 C 0.46875 -7.988281 0.644531 -8.570312 1 -9 C 1.363281 -9.4375 1.914062 -9.65625 2.65625 -9.65625 C 3.382812 -9.65625 3.929688 -9.4375 4.296875 -9 C 4.660156 -8.570312 4.84375 -7.988281 4.84375 -7.25 L 4.84375 -2.3125 C 4.84375 -1.582031 4.660156 -1 4.296875 -0.5625 C 3.929688 -0.125 3.382812 0.09375 2.65625 0.09375 C 1.914062 0.09375 1.363281 -0.125 1 -0.5625 C 0.644531 -1 0.46875 -1.582031 0.46875 -2.3125 Z M 1.515625 -2.25 C 1.515625 -1.8125 1.609375 -1.472656 1.796875 -1.234375 C 1.984375 -0.992188 2.269531 -0.875 2.65625 -0.875 C 3.039062 -0.875 3.320312 -0.992188 3.5 -1.234375 C 3.6875 -1.472656 3.78125 -1.8125 3.78125 -2.25 L 3.78125 -7.3125 C 3.78125 -7.75 3.6875 -8.085938 3.5 -8.328125 C 3.320312 -8.566406 3.039062 -8.6875 2.65625 -8.6875 C 2.269531 -8.6875 1.984375 -8.566406 1.796875 -8.328125 C 1.609375 -8.085938 1.515625 -7.75 1.515625 -7.3125 Z M 1.515625 -2.25 "></path>
      </g>
    </g>
  </g>
  <g fill="#ffffff" fill-opacity="1">
    <g transform="translate(33.141603, 16.855283)">
      <g>
        <path d="M 4.0625 -0.015625 L 3.046875 -0.015625 L 1.46875 -7.625 L 1.46875 0 L 0.53125 0 L 0.53125 -9.5625 L 2.015625 -9.5625 L 3.59375 -1.921875 L 5.109375 -9.5625 L 6.59375 -9.5625 L 6.59375 0 L 5.578125 0 L 5.578125 -7.6875 Z M 4.0625 -0.015625 "></path>
      </g>
    </g>
  </g>
  <g fill="#ffffff" fill-opacity="1">
    <g transform="translate(40.283068, 16.855283)">
      <g>
        <path d="M 3.953125 -5.328125 L 3.953125 -4.375 L 1.609375 -4.375 L 1.609375 -0.96875 L 4.484375 -0.96875 L 4.484375 0 L 0.546875 0 L 0.546875 -9.5625 L 4.484375 -9.5625 L 4.484375 -8.59375 L 1.609375 -8.59375 L 1.609375 -5.328125 Z M 3.953125 -5.328125 "></path>
      </g>
    </g>
  </g>
  <g fill="#ffffff" fill-opacity="1">
    <g transform="translate(3.920312, 27.870908)">
      <g>
        <path d="M 2.765625 -9.5625 C 3.515625 -9.5625 4.070312 -9.359375 4.4375 -8.953125 C 4.8125 -8.554688 5 -7.972656 5 -7.203125 L 5 -5.953125 C 5 -5.179688 4.8125 -4.59375 4.4375 -4.1875 C 4.070312 -3.789062 3.515625 -3.59375 2.765625 -3.59375 L 2.046875 -3.59375 L 2.046875 0 L 0.546875 0 L 0.546875 -9.5625 Z M 2.046875 -8.1875 L 2.046875 -4.953125 L 2.765625 -4.953125 C 2.992188 -4.953125 3.171875 -5.015625 3.296875 -5.140625 C 3.429688 -5.273438 3.5 -5.515625 3.5 -5.859375 L 3.5 -7.296875 C 3.5 -7.640625 3.429688 -7.875 3.296875 -8 C 3.171875 -8.125 2.992188 -8.1875 2.765625 -8.1875 Z M 2.046875 -8.1875 "></path>
      </g>
    </g>
  </g>
  <g fill="#ffffff" fill-opacity="1">
    <g transform="translate(9.136452, 27.870908)">
      <g>
        <path d="M 3.6875 0 C 3.664062 -0.0625 3.644531 -0.117188 3.625 -0.171875 C 3.613281 -0.234375 3.597656 -0.300781 3.578125 -0.375 C 3.566406 -0.457031 3.554688 -0.5625 3.546875 -0.6875 C 3.546875 -0.820312 3.546875 -0.984375 3.546875 -1.171875 L 3.546875 -2.671875 C 3.546875 -3.117188 3.46875 -3.429688 3.3125 -3.609375 C 3.164062 -3.796875 2.914062 -3.890625 2.5625 -3.890625 L 2.046875 -3.890625 L 2.046875 0 L 0.546875 0 L 0.546875 -9.5625 L 2.8125 -9.5625 C 3.59375 -9.5625 4.160156 -9.378906 4.515625 -9.015625 C 4.867188 -8.648438 5.046875 -8.097656 5.046875 -7.359375 L 5.046875 -6.609375 C 5.046875 -5.628906 4.71875 -4.984375 4.0625 -4.671875 C 4.4375 -4.515625 4.691406 -4.257812 4.828125 -3.90625 C 4.972656 -3.5625 5.046875 -3.140625 5.046875 -2.640625 L 5.046875 -1.15625 C 5.046875 -0.925781 5.054688 -0.71875 5.078125 -0.53125 C 5.097656 -0.351562 5.144531 -0.175781 5.21875 0 Z M 2.046875 -8.1875 L 2.046875 -5.25 L 2.640625 -5.25 C 2.921875 -5.25 3.140625 -5.320312 3.296875 -5.46875 C 3.453125 -5.613281 3.53125 -5.878906 3.53125 -6.265625 L 3.53125 -7.203125 C 3.53125 -7.554688 3.46875 -7.804688 3.34375 -7.953125 C 3.226562 -8.109375 3.035156 -8.1875 2.765625 -8.1875 Z M 2.046875 -8.1875 "></path>
      </g>
    </g>
  </g>
  <g fill="#ffffff" fill-opacity="1">
    <g transform="translate(14.625685, 27.870908)">
      <g>
        <path d="M 1.921875 -2.203125 C 1.921875 -1.859375 1.988281 -1.613281 2.125 -1.46875 C 2.269531 -1.320312 2.460938 -1.25 2.703125 -1.25 C 2.941406 -1.25 3.128906 -1.320312 3.265625 -1.46875 C 3.410156 -1.613281 3.484375 -1.859375 3.484375 -2.203125 L 3.484375 -7.359375 C 3.484375 -7.703125 3.410156 -7.941406 3.265625 -8.078125 C 3.128906 -8.222656 2.941406 -8.296875 2.703125 -8.296875 C 2.460938 -8.296875 2.269531 -8.222656 2.125 -8.078125 C 1.988281 -7.941406 1.921875 -7.703125 1.921875 -7.359375 Z M 0.421875 -7.265625 C 0.421875 -8.035156 0.613281 -8.628906 1 -9.046875 C 1.394531 -9.460938 1.960938 -9.671875 2.703125 -9.671875 C 3.441406 -9.671875 4.003906 -9.460938 4.390625 -9.046875 C 4.785156 -8.628906 4.984375 -8.035156 4.984375 -7.265625 L 4.984375 -2.296875 C 4.984375 -1.523438 4.785156 -0.929688 4.390625 -0.515625 C 4.003906 -0.0976562 3.441406 0.109375 2.703125 0.109375 C 1.960938 0.109375 1.394531 -0.0976562 1 -0.515625 C 0.613281 -0.929688 0.421875 -1.523438 0.421875 -2.296875 Z M 0.421875 -7.265625 "></path>
      </g>
    </g>
  </g>
  <g fill="#ffffff" fill-opacity="1">
    <g transform="translate(20.032994, 27.870908)">
      <g>
        <path d="M 0.546875 -9.5625 L 2.921875 -9.5625 C 3.679688 -9.5625 4.242188 -9.359375 4.609375 -8.953125 C 4.972656 -8.554688 5.15625 -7.972656 5.15625 -7.203125 L 5.15625 -2.359375 C 5.15625 -1.585938 4.972656 -1 4.609375 -0.59375 C 4.242188 -0.195312 3.679688 0 2.921875 0 L 0.546875 0 Z M 2.046875 -8.1875 L 2.046875 -1.359375 L 2.890625 -1.359375 C 3.128906 -1.359375 3.316406 -1.425781 3.453125 -1.5625 C 3.585938 -1.707031 3.65625 -1.953125 3.65625 -2.296875 L 3.65625 -7.265625 C 3.65625 -7.609375 3.585938 -7.847656 3.453125 -7.984375 C 3.316406 -8.117188 3.128906 -8.1875 2.890625 -8.1875 Z M 2.046875 -8.1875 "></path>
      </g>
    </g>
  </g>
  <g fill="#ffffff" fill-opacity="1">
    <g transform="translate(25.604163, 27.870908)">
      <g>
        <path d="M 1.984375 -9.5625 L 1.984375 -2.1875 C 1.984375 -1.84375 2.050781 -1.597656 2.1875 -1.453125 C 2.332031 -1.316406 2.523438 -1.25 2.765625 -1.25 C 2.992188 -1.25 3.175781 -1.316406 3.3125 -1.453125 C 3.457031 -1.597656 3.53125 -1.84375 3.53125 -2.1875 L 3.53125 -9.5625 L 4.953125 -9.5625 L 4.953125 -2.28125 C 4.953125 -1.507812 4.765625 -0.914062 4.390625 -0.5 C 4.015625 -0.0820312 3.457031 0.125 2.71875 0.125 C 1.976562 0.125 1.421875 -0.0820312 1.046875 -0.5 C 0.671875 -0.914062 0.484375 -1.507812 0.484375 -2.28125 L 0.484375 -9.5625 Z M 1.984375 -9.5625 "></path>
      </g>
    </g>
  </g>
  <g fill="#ffffff" fill-opacity="1">
    <g transform="translate(31.03878, 27.870908)">
      <g>
        <path d="M 4.90625 -3.5625 L 4.90625 -2.296875 C 4.90625 -1.523438 4.710938 -0.929688 4.328125 -0.515625 C 3.953125 -0.0976562 3.394531 0.109375 2.65625 0.109375 C 1.925781 0.109375 1.367188 -0.0976562 0.984375 -0.515625 C 0.609375 -0.929688 0.421875 -1.523438 0.421875 -2.296875 L 0.421875 -7.265625 C 0.421875 -8.035156 0.609375 -8.628906 0.984375 -9.046875 C 1.367188 -9.460938 1.925781 -9.671875 2.65625 -9.671875 C 3.394531 -9.671875 3.953125 -9.460938 4.328125 -9.046875 C 4.710938 -8.628906 4.90625 -8.035156 4.90625 -7.265625 L 4.90625 -6.34375 L 3.484375 -6.34375 L 3.484375 -7.359375 C 3.484375 -7.703125 3.410156 -7.941406 3.265625 -8.078125 C 3.128906 -8.222656 2.941406 -8.296875 2.703125 -8.296875 C 2.460938 -8.296875 2.269531 -8.222656 2.125 -8.078125 C 1.988281 -7.941406 1.921875 -7.703125 1.921875 -7.359375 L 1.921875 -2.203125 C 1.921875 -1.859375 1.988281 -1.613281 2.125 -1.46875 C 2.269531 -1.332031 2.460938 -1.265625 2.703125 -1.265625 C 2.941406 -1.265625 3.128906 -1.332031 3.265625 -1.46875 C 3.410156 -1.613281 3.484375 -1.859375 3.484375 -2.203125 L 3.484375 -3.5625 Z M 4.90625 -3.5625 "></path>
      </g>
    </g>
  </g>
  <g fill="#ffffff" fill-opacity="1">
    <g transform="translate(36.309536, 27.870908)">
      <g>
        <path d="M 0.109375 -9.5625 L 4.75 -9.5625 L 4.75 -8.1875 L 3.1875 -8.1875 L 3.1875 0 L 1.6875 0 L 1.6875 -8.1875 L 0.109375 -8.1875 Z M 0.109375 -9.5625 "></path>
      </g>
    </g>
  </g>
  <g clip-path="url(#3537471bf6)">
    <path fill="#54b646" d="M 74.90625 17.785156 C 74.90625 18.558594 74.828125 19.320312 74.679688 20.078125 C 74.53125 20.832031 74.308594 21.566406 74.011719 22.277344 C 73.71875 22.992188 73.359375 23.667969 72.933594 24.308594 C 72.503906 24.949219 72.019531 25.542969 71.476562 26.089844 C 70.933594 26.632812 70.339844 27.121094 69.703125 27.546875 C 69.0625 27.976562 68.390625 28.339844 67.679688 28.632812 C 66.96875 28.929688 66.238281 29.152344 65.484375 29.300781 C 64.730469 29.453125 63.96875 29.527344 63.199219 29.527344 C 62.429688 29.527344 61.671875 29.453125 60.917969 29.300781 C 60.164062 29.152344 59.429688 28.929688 58.71875 28.632812 C 58.011719 28.339844 57.335938 27.976562 56.695312 27.546875 C 56.058594 27.121094 55.464844 26.632812 54.921875 26.089844 C 54.378906 25.542969 53.894531 24.949219 53.46875 24.308594 C 53.039062 23.667969 52.679688 22.992188 52.386719 22.277344 C 52.09375 21.566406 51.871094 20.832031 51.71875 20.078125 C 51.570312 19.320312 51.496094 18.558594 51.496094 17.785156 C 51.496094 17.015625 51.570312 16.25 51.71875 15.496094 C 51.871094 14.738281 52.09375 14.003906 52.386719 13.292969 C 52.679688 12.582031 53.039062 11.902344 53.46875 11.261719 C 53.894531 10.621094 54.378906 10.027344 54.921875 9.484375 C 55.464844 8.9375 56.058594 8.453125 56.695312 8.023438 C 57.335938 7.59375 58.011719 7.234375 58.71875 6.9375 C 59.429688 6.644531 60.164062 6.421875 60.917969 6.269531 C 61.671875 6.121094 62.429688 6.042969 63.199219 6.042969 C 63.96875 6.042969 64.730469 6.121094 65.484375 6.269531 C 66.238281 6.421875 66.96875 6.644531 67.679688 6.9375 C 68.390625 7.234375 69.0625 7.59375 69.703125 8.023438 C 70.339844 8.453125 70.933594 8.9375 71.476562 9.484375 C 72.019531 10.027344 72.503906 10.621094 72.933594 11.261719 C 73.359375 11.902344 73.71875 12.582031 74.011719 13.292969 C 74.308594 14.003906 74.53125 14.738281 74.679688 15.496094 C 74.828125 16.25 74.90625 17.015625 74.90625 17.785156 Z M 74.90625 17.785156 " fill-opacity="1" fill-rule="nonzero"></path>
  </g>
  <path fill="#54e346" d="M 71.042969 25.21875 C 66.472656 29.804688 59.925781 29.804688 55.359375 25.21875 C 50.785156 20.636719 50.351562 14.066406 54.925781 9.484375 C 55.574219 8.832031 56.28125 8.269531 57.03125 7.808594 C 57.292969 7.644531 57.550781 7.492188 57.820312 7.359375 C 61.183594 5.605469 65.222656 5.605469 68.585938 7.359375 C 68.855469 7.496094 69.113281 7.648438 69.375 7.808594 C 70.121094 8.273438 70.828125 8.832031 71.476562 9.484375 C 76.050781 14.066406 75.617188 20.636719 71.042969 25.21875 Z M 71.042969 25.21875 " fill-opacity="1" fill-rule="nonzero"></path>
  <path fill="#f6f4e6" d="M 70.222656 24.949219 C 68.773438 27.125 66.148438 28.421875 63.199219 28.421875 C 60.253906 28.421875 57.625 27.125 56.179688 24.949219 C 53.84375 21.449219 54.863281 18.449219 55.945312 15.277344 C 56.738281 12.953125 57.550781 10.554688 57.03125 7.808594 C 57.292969 7.644531 57.554688 7.492188 57.820312 7.359375 C 57.839844 7.433594 57.855469 7.5 57.867188 7.574219 C 58.464844 10.574219 57.601562 13.105469 56.765625 15.554688 C 55.710938 18.652344 54.800781 21.324219 56.898438 24.464844 C 58.1875 26.398438 60.542969 27.554688 63.203125 27.554688 C 65.859375 27.554688 68.21875 26.398438 69.507812 24.464844 C 71.601562 21.328125 70.691406 18.652344 69.640625 15.554688 C 68.796875 13.074219 67.929688 10.519531 68.558594 7.484375 C 68.566406 7.441406 68.574219 7.402344 68.585938 7.359375 C 68.855469 7.496094 69.117188 7.648438 69.375 7.808594 C 68.855469 10.550781 69.667969 12.949219 70.460938 15.273438 C 71.535156 18.449219 72.554688 21.453125 70.222656 24.949219 Z M 70.222656 24.949219 " fill-opacity="1" fill-rule="nonzero"></path>
  <path fill="#f6f4e6" d="M 65.277344 12.644531 C 65.425781 12.671875 65.558594 12.738281 65.679688 12.847656 C 65.800781 12.957031 65.898438 13.097656 65.976562 13.273438 C 66.054688 13.449219 66.101562 13.640625 66.121094 13.855469 C 66.144531 14.070312 66.132812 14.289062 66.09375 14.507812 C 66.054688 14.730469 65.992188 14.9375 65.898438 15.132812 C 65.804688 15.324219 65.695312 15.492188 65.5625 15.628906 C 65.429688 15.765625 65.289062 15.867188 65.136719 15.925781 C 64.988281 15.988281 64.839844 16.003906 64.691406 15.976562 C 64.542969 15.953125 64.410156 15.882812 64.289062 15.777344 C 64.167969 15.667969 64.066406 15.523438 63.992188 15.351562 C 63.914062 15.175781 63.863281 14.980469 63.84375 14.765625 C 63.824219 14.554688 63.832031 14.335938 63.871094 14.113281 C 63.910156 13.894531 63.976562 13.6875 64.070312 13.492188 C 64.160156 13.296875 64.273438 13.132812 64.40625 12.996094 C 64.535156 12.855469 64.675781 12.757812 64.828125 12.699219 C 64.980469 12.636719 65.128906 12.621094 65.277344 12.644531 Z M 65.277344 12.644531 " fill-opacity="1" fill-rule="nonzero"></path>
  <path fill="#f6f4e6" d="M 67.636719 15.75 C 67.746094 15.789062 67.84375 15.859375 67.921875 15.960938 C 68 16.058594 68.054688 16.183594 68.089844 16.328125 C 68.128906 16.472656 68.136719 16.628906 68.125 16.796875 C 68.113281 16.964844 68.074219 17.128906 68.015625 17.292969 C 67.957031 17.457031 67.878906 17.609375 67.78125 17.746094 C 67.683594 17.882812 67.574219 17.996094 67.453125 18.082031 C 67.335938 18.171875 67.210938 18.226562 67.089844 18.253906 C 66.964844 18.28125 66.847656 18.273438 66.738281 18.230469 C 66.628906 18.191406 66.53125 18.121094 66.453125 18.023438 C 66.375 17.921875 66.320312 17.800781 66.28125 17.65625 C 66.246094 17.511719 66.238281 17.355469 66.25 17.1875 C 66.261719 17.019531 66.300781 16.851562 66.359375 16.6875 C 66.417969 16.523438 66.496094 16.375 66.59375 16.238281 C 66.691406 16.101562 66.800781 15.988281 66.921875 15.898438 C 67.039062 15.8125 67.160156 15.753906 67.285156 15.730469 C 67.410156 15.703125 67.527344 15.710938 67.636719 15.75 Z M 67.636719 15.75 " fill-opacity="1" fill-rule="nonzero"></path>
  <path fill="#f6f4e6" d="M 60.039062 16.6875 C 60.101562 16.851562 60.136719 17.019531 60.148438 17.1875 C 60.164062 17.355469 60.152344 17.511719 60.117188 17.65625 C 60.082031 17.800781 60.023438 17.921875 59.945312 18.023438 C 59.867188 18.121094 59.773438 18.191406 59.660156 18.230469 C 59.550781 18.273438 59.433594 18.28125 59.308594 18.253906 C 59.1875 18.226562 59.0625 18.171875 58.945312 18.082031 C 58.824219 17.996094 58.714844 17.882812 58.617188 17.746094 C 58.519531 17.609375 58.441406 17.457031 58.382812 17.292969 C 58.324219 17.128906 58.285156 16.964844 58.273438 16.796875 C 58.261719 16.628906 58.273438 16.472656 58.308594 16.328125 C 58.34375 16.183594 58.398438 16.058594 58.476562 15.960938 C 58.558594 15.859375 58.652344 15.789062 58.761719 15.75 C 58.871094 15.710938 58.988281 15.703125 59.113281 15.730469 C 59.238281 15.753906 59.359375 15.8125 59.480469 15.898438 C 59.597656 15.988281 59.707031 16.101562 59.804688 16.238281 C 59.902344 16.375 59.980469 16.523438 60.039062 16.6875 Z M 60.039062 16.6875 " fill-opacity="1" fill-rule="nonzero"></path>
  <path fill="#f6f4e6" d="M 62.613281 14.113281 C 62.652344 14.335938 62.664062 14.550781 62.640625 14.765625 C 62.621094 14.980469 62.574219 15.175781 62.496094 15.347656 C 62.417969 15.523438 62.320312 15.664062 62.199219 15.773438 C 62.078125 15.882812 61.945312 15.949219 61.796875 15.976562 C 61.648438 16.003906 61.5 15.984375 61.347656 15.925781 C 61.199219 15.863281 61.054688 15.765625 60.925781 15.628906 C 60.792969 15.488281 60.679688 15.324219 60.589844 15.128906 C 60.496094 14.933594 60.429688 14.726562 60.390625 14.507812 C 60.351562 14.285156 60.34375 14.070312 60.363281 13.855469 C 60.382812 13.640625 60.433594 13.445312 60.511719 13.273438 C 60.585938 13.097656 60.6875 12.957031 60.808594 12.847656 C 60.929688 12.738281 61.0625 12.671875 61.210938 12.644531 C 61.359375 12.617188 61.507812 12.636719 61.65625 12.695312 C 61.808594 12.757812 61.949219 12.855469 62.082031 12.992188 C 62.214844 13.132812 62.324219 13.296875 62.417969 13.492188 C 62.511719 13.683594 62.578125 13.894531 62.613281 14.113281 Z M 62.613281 14.113281 " fill-opacity="1" fill-rule="nonzero"></path>
  <path fill="#f6f4e6" d="M 63.222656 22.113281 C 63.828125 22.113281 64.410156 22.703125 65.078125 22.859375 C 65.839844 23.035156 66.8125 22.945312 67.320312 22.3125 C 67.75 21.769531 67.777344 20.847656 67.199219 20.320312 C 66.75 19.914062 66.21875 19.890625 65.746094 19.210938 C 65.394531 18.710938 65.371094 18.0625 65.050781 17.546875 C 64.667969 16.929688 63.898438 16.777344 63.222656 16.777344 C 62.554688 16.777344 61.828125 16.960938 61.433594 17.542969 C 61.097656 18.035156 61.035156 18.660156 60.714844 19.160156 C 60.359375 19.710938 59.710938 19.898438 59.242188 20.324219 C 58.667969 20.847656 58.691406 21.773438 59.121094 22.3125 C 59.628906 22.949219 60.601562 23.039062 61.363281 22.859375 C 62.03125 22.703125 62.613281 22.113281 63.222656 22.113281 Z M 63.222656 22.113281 " fill-opacity="1" fill-rule="nonzero"></path>
</svg>
