<?xml version="1.0" encoding="UTF-8"?>
<svg xmlns="http://www.w3.org/2000/svg" xmlns:xlink="http://www.w3.org/1999/xlink" width="107" zoomAndPan="magnify" viewBox="0 0 80.25 35.25" height="47" preserveAspectRatio="xMidYMid meet" version="1.0">
  <defs>
    <g></g>
    <clipPath id="473127da7b">
      <path d="M 0.46875 3.453125 L 79.046875 3.453125 L 79.046875 31.0625 L 0.46875 31.0625 Z M 0.46875 3.453125 " clip-rule="nonzero"></path>
    </clipPath>
    <clipPath id="4c034d20a9">
      <path d="M 41.640625 14.808594 L 73.21875 14.808594 L 73.21875 29.496094 L 41.640625 29.496094 Z M 41.640625 14.808594 " clip-rule="nonzero"></path>
    </clipPath>
    <clipPath id="cc605e8c5a">
      <path d="M 49.855469 0 L 64 0 L 64 15.421875 L 49.855469 15.421875 Z M 49.855469 0 " clip-rule="nonzero"></path>
    </clipPath>
    <clipPath id="afdcfc7a2c">
      <path d="M 57 8 L 65.277344 8 L 65.277344 15.421875 L 57 15.421875 Z M 57 8 " clip-rule="nonzero"></path>
    </clipPath>
    <clipPath id="cf0098c1ff">
      <path d="M 52.050781 17.734375 L 63 17.734375 L 63 26.546875 L 52.050781 26.546875 Z M 52.050781 17.734375 " clip-rule="nonzero"></path>
    </clipPath>
    <clipPath id="e78cfe3214">
      <path d="M 30 17.734375 L 38 17.734375 L 38 26 L 30 26 Z M 30 17.734375 " clip-rule="nonzero"></path>
    </clipPath>
    <clipPath id="2aa27d879e">
      <path d="M 25.542969 22 L 32 22 L 32 29 L 25.542969 29 Z M 25.542969 22 " clip-rule="nonzero"></path>
    </clipPath>
    <clipPath id="56f82a1f3d">
      <path d="M 31 26 L 36 26 L 36 30.21875 L 31 30.21875 Z M 31 26 " clip-rule="nonzero"></path>
    </clipPath>
  </defs>
  <g clip-path="url(#473127da7b)">
    <path fill="#00c4cc" d="M 0.46875 3.453125 L 79.046875 3.453125 L 79.046875 31.0625 L 0.46875 31.0625 Z M 0.46875 3.453125 " fill-opacity="1" fill-rule="nonzero"></path>
  </g>
  <g fill="#ffffff" fill-opacity="1">
    <g transform="translate(3.920312, 16.855283)">
      <g>
        <path d="M 2.640625 -9.5625 C 3.390625 -9.5625 3.929688 -9.351562 4.265625 -8.9375 C 4.609375 -8.519531 4.78125 -7.945312 4.78125 -7.21875 L 4.78125 -6.078125 C 4.78125 -5.316406 4.597656 -4.738281 4.234375 -4.34375 C 3.878906 -3.957031 3.316406 -3.765625 2.546875 -3.765625 L 1.609375 -3.765625 L 1.609375 0 L 0.546875 0 L 0.546875 -9.5625 Z M 2.546875 -4.71875 C 2.953125 -4.71875 3.25 -4.816406 3.4375 -5.015625 C 3.632812 -5.210938 3.734375 -5.546875 3.734375 -6.015625 L 3.734375 -7.28125 C 3.734375 -7.71875 3.644531 -8.046875 3.46875 -8.265625 C 3.300781 -8.484375 3.023438 -8.59375 2.640625 -8.59375 L 1.609375 -8.59375 L 1.609375 -4.71875 Z M 2.546875 -4.71875 "></path>
      </g>
    </g>
  </g>
  <g fill="#ffffff" fill-opacity="1">
    <g transform="translate(9.027208, 16.855283)">
      <g>
        <path d="M 0.46875 -7.25 C 0.46875 -7.988281 0.644531 -8.570312 1 -9 C 1.363281 -9.4375 1.914062 -9.65625 2.65625 -9.65625 C 3.382812 -9.65625 3.929688 -9.4375 4.296875 -9 C 4.660156 -8.570312 4.84375 -7.988281 4.84375 -7.25 L 4.84375 -2.3125 C 4.84375 -1.582031 4.660156 -1 4.296875 -0.5625 C 3.929688 -0.125 3.382812 0.09375 2.65625 0.09375 C 1.914062 0.09375 1.363281 -0.125 1 -0.5625 C 0.644531 -1 0.46875 -1.582031 0.46875 -2.3125 Z M 1.515625 -2.25 C 1.515625 -1.8125 1.609375 -1.472656 1.796875 -1.234375 C 1.984375 -0.992188 2.269531 -0.875 2.65625 -0.875 C 3.039062 -0.875 3.320312 -0.992188 3.5 -1.234375 C 3.6875 -1.472656 3.78125 -1.8125 3.78125 -2.25 L 3.78125 -7.3125 C 3.78125 -7.75 3.6875 -8.085938 3.5 -8.328125 C 3.320312 -8.566406 3.039062 -8.6875 2.65625 -8.6875 C 2.269531 -8.6875 1.984375 -8.566406 1.796875 -8.328125 C 1.609375 -8.085938 1.515625 -7.75 1.515625 -7.3125 Z M 1.515625 -2.25 "></path>
      </g>
    </g>
  </g>
  <g fill="#ffffff" fill-opacity="1">
    <g transform="translate(14.338932, 16.855283)">
      <g>
        <path d="M 0.46875 -7.25 C 0.46875 -7.988281 0.644531 -8.570312 1 -9 C 1.363281 -9.4375 1.914062 -9.65625 2.65625 -9.65625 C 3.382812 -9.65625 3.929688 -9.4375 4.296875 -9 C 4.660156 -8.570312 4.84375 -7.988281 4.84375 -7.25 L 4.84375 -2.3125 C 4.84375 -1.582031 4.660156 -1 4.296875 -0.5625 C 3.929688 -0.125 3.382812 0.09375 2.65625 0.09375 C 1.914062 0.09375 1.363281 -0.125 1 -0.5625 C 0.644531 -1 0.46875 -1.582031 0.46875 -2.3125 Z M 1.515625 -2.25 C 1.515625 -1.8125 1.609375 -1.472656 1.796875 -1.234375 C 1.984375 -0.992188 2.269531 -0.875 2.65625 -0.875 C 3.039062 -0.875 3.320312 -0.992188 3.5 -1.234375 C 3.6875 -1.472656 3.78125 -1.8125 3.78125 -2.25 L 3.78125 -7.3125 C 3.78125 -7.75 3.6875 -8.085938 3.5 -8.328125 C 3.320312 -8.566406 3.039062 -8.6875 2.65625 -8.6875 C 2.269531 -8.6875 1.984375 -8.566406 1.796875 -8.328125 C 1.609375 -8.085938 1.515625 -7.75 1.515625 -7.3125 Z M 1.515625 -2.25 "></path>
      </g>
    </g>
  </g>
  <g fill="#ffffff" fill-opacity="1">
    <g transform="translate(19.650656, 16.855283)">
      <g>
        <path d="M 2.609375 -9.65625 C 3.347656 -9.65625 3.890625 -9.4375 4.234375 -9 C 4.585938 -8.5625 4.765625 -7.976562 4.765625 -7.25 L 4.765625 -6.390625 L 3.75 -6.390625 L 3.75 -7.3125 C 3.75 -7.75 3.660156 -8.085938 3.484375 -8.328125 C 3.304688 -8.566406 3.023438 -8.6875 2.640625 -8.6875 C 2.253906 -8.6875 1.96875 -8.566406 1.78125 -8.328125 C 1.601562 -8.085938 1.515625 -7.75 1.515625 -7.3125 L 1.515625 -2.25 C 1.515625 -1.8125 1.601562 -1.472656 1.78125 -1.234375 C 1.96875 -0.992188 2.253906 -0.875 2.640625 -0.875 C 3.023438 -0.875 3.304688 -0.992188 3.484375 -1.234375 C 3.660156 -1.472656 3.75 -1.8125 3.75 -2.25 L 3.75 -3.5 L 4.765625 -3.5 L 4.765625 -2.3125 C 4.765625 -1.582031 4.585938 -1 4.234375 -0.5625 C 3.890625 -0.125 3.347656 0.09375 2.609375 0.09375 C 1.878906 0.09375 1.335938 -0.125 0.984375 -0.5625 C 0.640625 -1 0.46875 -1.582031 0.46875 -2.3125 L 0.46875 -7.25 C 0.46875 -7.613281 0.507812 -7.941406 0.59375 -8.234375 C 0.675781 -8.535156 0.804688 -8.789062 0.984375 -9 C 1.160156 -9.207031 1.382812 -9.367188 1.65625 -9.484375 C 1.925781 -9.597656 2.242188 -9.65625 2.609375 -9.65625 Z M 2.609375 -9.65625 "></path>
      </g>
    </g>
  </g>
  <g fill="#ffffff" fill-opacity="1">
    <g transform="translate(24.839488, 16.855283)">
      <g>
        <path d="M 1.609375 -4.296875 L 1.609375 0 L 0.546875 0 L 0.546875 -9.5625 L 1.609375 -9.5625 L 1.609375 -5.25 L 3.953125 -5.25 L 3.953125 -9.5625 L 5.03125 -9.5625 L 5.03125 0 L 3.953125 0 L 3.953125 -4.296875 Z M 1.609375 -4.296875 "></path>
      </g>
    </g>
  </g>
  <g fill="#ffffff" fill-opacity="1">
    <g transform="translate(30.410657, 16.855283)">
      <g>
        <path d="M 1.109375 -7.03125 L 0.671875 -7.03125 L 1.015625 -8.234375 L 0.609375 -8.234375 L 0.609375 -9.5625 L 1.640625 -9.5625 L 1.640625 -8.34375 Z M 1.109375 -7.03125 "></path>
      </g>
    </g>
  </g>
  <g fill="#ffffff" fill-opacity="1">
    <g transform="translate(32.595427, 16.855283)">
      <g>
        <path d="M 2.546875 -9.65625 C 3.273438 -9.65625 3.8125 -9.4375 4.15625 -9 C 4.507812 -8.570312 4.6875 -7.992188 4.6875 -7.265625 L 4.6875 -7 L 3.671875 -7 L 3.671875 -7.3125 C 3.671875 -7.75 3.582031 -8.085938 3.40625 -8.328125 C 3.238281 -8.566406 2.960938 -8.6875 2.578125 -8.6875 C 2.191406 -8.6875 1.910156 -8.566406 1.734375 -8.328125 C 1.566406 -8.085938 1.484375 -7.753906 1.484375 -7.328125 C 1.484375 -6.972656 1.5625 -6.664062 1.71875 -6.40625 C 1.882812 -6.144531 2.082031 -5.898438 2.3125 -5.671875 C 2.550781 -5.453125 2.8125 -5.234375 3.09375 -5.015625 C 3.375 -4.804688 3.628906 -4.570312 3.859375 -4.3125 C 4.097656 -4.0625 4.296875 -3.773438 4.453125 -3.453125 C 4.617188 -3.128906 4.703125 -2.742188 4.703125 -2.296875 C 4.703125 -1.566406 4.523438 -0.984375 4.171875 -0.546875 C 3.816406 -0.117188 3.273438 0.09375 2.546875 0.09375 C 1.804688 0.09375 1.257812 -0.117188 0.90625 -0.546875 C 0.5625 -0.984375 0.390625 -1.566406 0.390625 -2.296875 L 0.390625 -2.84375 L 1.390625 -2.84375 L 1.390625 -2.234375 C 1.390625 -1.796875 1.476562 -1.457031 1.65625 -1.21875 C 1.84375 -0.988281 2.128906 -0.875 2.515625 -0.875 C 2.898438 -0.875 3.179688 -0.988281 3.359375 -1.21875 C 3.535156 -1.457031 3.625 -1.796875 3.625 -2.234375 C 3.625 -2.585938 3.546875 -2.894531 3.390625 -3.15625 C 3.234375 -3.414062 3.035156 -3.65625 2.796875 -3.875 C 2.554688 -4.101562 2.300781 -4.320312 2.03125 -4.53125 C 1.757812 -4.75 1.503906 -4.984375 1.265625 -5.234375 C 1.035156 -5.492188 0.835938 -5.785156 0.671875 -6.109375 C 0.515625 -6.429688 0.4375 -6.816406 0.4375 -7.265625 C 0.4375 -8.003906 0.609375 -8.585938 0.953125 -9.015625 C 1.296875 -9.441406 1.828125 -9.65625 2.546875 -9.65625 Z M 2.546875 -9.65625 "></path>
      </g>
    </g>
  </g>
  <g fill="#ffffff" fill-opacity="1">
    <g transform="translate(37.678611, 16.855283)">
      <g></g>
    </g>
  </g>
  <g fill="#ffffff" fill-opacity="1">
    <g transform="translate(3.920312, 27.870907)">
      <g>
        <path d="M 2.765625 -9.5625 C 3.515625 -9.5625 4.070312 -9.359375 4.4375 -8.953125 C 4.8125 -8.554688 5 -7.972656 5 -7.203125 L 5 -5.953125 C 5 -5.179688 4.8125 -4.59375 4.4375 -4.1875 C 4.070312 -3.789062 3.515625 -3.59375 2.765625 -3.59375 L 2.046875 -3.59375 L 2.046875 0 L 0.546875 0 L 0.546875 -9.5625 Z M 2.046875 -8.1875 L 2.046875 -4.953125 L 2.765625 -4.953125 C 2.992188 -4.953125 3.171875 -5.015625 3.296875 -5.140625 C 3.429688 -5.273438 3.5 -5.515625 3.5 -5.859375 L 3.5 -7.296875 C 3.5 -7.640625 3.429688 -7.875 3.296875 -8 C 3.171875 -8.125 2.992188 -8.1875 2.765625 -8.1875 Z M 2.046875 -8.1875 "></path>
      </g>
    </g>
  </g>
  <g fill="#ffffff" fill-opacity="1">
    <g transform="translate(9.136452, 27.870907)">
      <g>
        <path d="M 0.546875 -9.5625 L 2.046875 -9.5625 L 2.046875 0 L 0.546875 0 Z M 0.546875 -9.5625 "></path>
      </g>
    </g>
  </g>
  <g fill="#ffffff" fill-opacity="1">
    <g transform="translate(11.730868, 27.870907)">
      <g>
        <path d="M 4.90625 -3.5625 L 4.90625 -2.296875 C 4.90625 -1.523438 4.710938 -0.929688 4.328125 -0.515625 C 3.953125 -0.0976562 3.394531 0.109375 2.65625 0.109375 C 1.925781 0.109375 1.367188 -0.0976562 0.984375 -0.515625 C 0.609375 -0.929688 0.421875 -1.523438 0.421875 -2.296875 L 0.421875 -7.265625 C 0.421875 -8.035156 0.609375 -8.628906 0.984375 -9.046875 C 1.367188 -9.460938 1.925781 -9.671875 2.65625 -9.671875 C 3.394531 -9.671875 3.953125 -9.460938 4.328125 -9.046875 C 4.710938 -8.628906 4.90625 -8.035156 4.90625 -7.265625 L 4.90625 -6.34375 L 3.484375 -6.34375 L 3.484375 -7.359375 C 3.484375 -7.703125 3.410156 -7.941406 3.265625 -8.078125 C 3.128906 -8.222656 2.941406 -8.296875 2.703125 -8.296875 C 2.460938 -8.296875 2.269531 -8.222656 2.125 -8.078125 C 1.988281 -7.941406 1.921875 -7.703125 1.921875 -7.359375 L 1.921875 -2.203125 C 1.921875 -1.859375 1.988281 -1.613281 2.125 -1.46875 C 2.269531 -1.332031 2.460938 -1.265625 2.703125 -1.265625 C 2.941406 -1.265625 3.128906 -1.332031 3.265625 -1.46875 C 3.410156 -1.613281 3.484375 -1.859375 3.484375 -2.203125 L 3.484375 -3.5625 Z M 4.90625 -3.5625 "></path>
      </g>
    </g>
  </g>
  <g fill="#ffffff" fill-opacity="1">
    <g transform="translate(17.001624, 27.870907)">
      <g>
        <path d="M 2.515625 -3.8125 L 2.046875 -2.9375 L 2.046875 0 L 0.546875 0 L 0.546875 -9.5625 L 2.046875 -9.5625 L 2.046875 -5.390625 L 4.015625 -9.5625 L 5.515625 -9.5625 L 3.421875 -5.296875 L 5.515625 0 L 3.96875 0 Z M 2.515625 -3.8125 "></path>
      </g>
    </g>
  </g>
  <g clip-path="url(#4c034d20a9)">
    <path fill="#f4f4f4" d="M 71.34375 22.15625 C 72.5 21.382812 73.183594 20.183594 73.183594 18.898438 C 73.183594 16.644531 71.105469 14.8125 68.550781 14.8125 C 67.601562 14.8125 66.691406 15.0625 65.914062 15.535156 C 65.183594 15.980469 64.617188 16.597656 64.273438 17.316406 L 50.578125 17.316406 C 50.234375 16.597656 49.671875 15.980469 48.9375 15.535156 C 48.160156 15.0625 47.25 14.8125 46.304688 14.8125 C 43.75 14.8125 41.667969 16.644531 41.667969 18.898438 C 41.667969 20.183594 42.351562 21.382812 43.507812 22.15625 C 42.351562 22.925781 41.667969 24.128906 41.667969 25.414062 C 41.667969 27.667969 43.75 29.5 46.304688 29.5 C 47.25 29.5 48.160156 29.25 48.9375 28.777344 C 49.671875 28.328125 50.234375 27.714844 50.578125 26.992188 L 64.273438 26.992188 C 64.617188 27.714844 65.183594 28.328125 65.914062 28.777344 C 66.691406 29.25 67.601562 29.5 68.550781 29.5 C 71.105469 29.5 73.183594 27.667969 73.183594 25.414062 C 73.183594 24.128906 72.5 22.925781 71.34375 22.15625 Z M 67.480469 17.054688 C 67.492188 17.007812 67.507812 16.964844 67.527344 16.921875 C 67.691406 16.535156 67.996094 16.15625 68.367188 15.957031 C 68.675781 15.789062 69.109375 15.695312 69.347656 16.011719 C 69.722656 16.511719 69.390625 17.492188 68.96875 17.875 C 68.726562 18.097656 68.328125 18.179688 68.019531 18.101562 C 67.820312 18.050781 67.636719 17.929688 67.53125 17.75 C 67.414062 17.546875 67.410156 17.289062 67.480469 17.054688 Z M 65.214844 17.78125 C 65.296875 17.546875 65.417969 17.324219 65.566406 17.125 C 65.695312 16.949219 65.855469 16.789062 66.054688 16.710938 C 66.234375 16.640625 66.464844 16.644531 66.621094 16.773438 C 66.714844 16.847656 66.773438 16.960938 66.804688 17.078125 C 66.945312 17.566406 66.917969 18.25 66.605469 18.664062 C 66.601562 18.664062 66.601562 18.664062 66.601562 18.664062 C 66.265625 19.101562 65.445312 19.003906 65.195312 18.503906 C 65.085938 18.285156 65.132812 18.015625 65.214844 17.78125 Z M 68.652344 23.234375 C 68.328125 23.464844 67.878906 23.492188 67.527344 23.320312 C 67.3125 23.21875 67.148438 23.058594 66.996094 22.878906 C 66.816406 22.667969 66.605469 22.484375 66.378906 22.332031 C 66.148438 22.179688 65.898438 22.058594 65.636719 21.976562 C 65.414062 21.90625 65.203125 21.816406 65.023438 21.65625 C 64.730469 21.398438 64.574219 20.96875 64.652344 20.578125 C 64.71875 20.214844 64.976562 19.898438 65.3125 19.761719 C 65.839844 19.546875 66.429688 19.714844 66.941406 19.421875 C 67.410156 19.152344 67.925781 18.695312 68.476562 19.058594 C 69.027344 19.425781 68.824219 20.089844 68.769531 20.636719 C 68.714844 21.230469 69.097656 21.710938 69.117188 22.289062 C 69.128906 22.65625 68.949219 23.027344 68.652344 23.234375 Z M 69.449219 18.203125 C 69.628906 17.660156 70.386719 16.960938 70.984375 17.117188 C 71.363281 17.214844 71.449219 17.660156 71.417969 18.015625 C 71.382812 18.4375 71.160156 18.875 70.878906 19.179688 C 70.84375 19.210938 70.8125 19.246094 70.773438 19.277344 C 70.589844 19.429688 70.359375 19.53125 70.125 19.5 C 69.925781 19.472656 69.742188 19.347656 69.617188 19.183594 C 69.425781 18.921875 69.34375 18.519531 69.449219 18.203125 Z M 70.84375 21.710938 C 70.65625 21.871094 70.425781 22.003906 70.183594 21.976562 C 69.636719 21.910156 69.265625 21.160156 69.554688 20.6875 C 69.554688 20.6875 69.554688 20.6875 69.554688 20.683594 C 69.828125 20.242188 70.449219 19.984375 70.949219 19.949219 C 71.066406 19.941406 71.191406 19.960938 71.296875 20.023438 C 71.46875 20.128906 71.546875 20.34375 71.542969 20.542969 C 71.539062 20.761719 71.449219 20.96875 71.332031 21.148438 C 71.199219 21.363281 71.035156 21.550781 70.84375 21.710938 Z M 70.84375 21.710938 " fill-opacity="1" fill-rule="nonzero"></path>
  </g>
  <g clip-path="url(#cc605e8c5a)">
    <path fill="#54b646" d="M 63.183594 2.230469 C 62.925781 2.070312 62.554688 2.179688 62.332031 2.214844 C 62.121094 2.246094 61.90625 2.285156 61.6875 2.300781 C 60.671875 2.378906 59.457031 2.328125 58.5 1.761719 C 58.136719 1.546875 57.847656 1.21875 57.578125 0.890625 C 57.398438 0.667969 57.230469 0.230469 56.960938 0.128906 C 56.667969 0.0234375 56.527344 0.429688 56.382812 0.628906 C 56.210938 0.871094 56.042969 1.128906 55.8125 1.320312 C 55.398438 1.667969 54.914062 1.9375 54.394531 2.09375 C 53.53125 2.351562 52.699219 2.351562 51.859375 2.285156 C 51.503906 2.253906 51.1875 2.144531 50.859375 2.082031 C 50.214844 1.964844 50.28125 3.105469 50.222656 3.429688 C 50.136719 3.882812 50.058594 4.335938 50 4.789062 C 49.898438 5.609375 49.855469 6.425781 49.941406 7.238281 C 50.078125 8.523438 50.566406 9.777344 51.421875 10.9375 C 52.109375 11.863281 52.96875 12.703125 53.851562 13.445312 C 54.496094 13.988281 55.160156 14.492188 55.847656 14.894531 C 56.152344 15.070312 56.460938 15.226562 56.789062 15.304688 C 56.804688 15.304688 56.839844 15.324219 56.855469 15.316406 C 57.144531 15.226562 57.414062 15.140625 57.695312 14.988281 C 58.34375 14.636719 58.96875 14.175781 59.574219 13.683594 C 60.445312 12.976562 61.300781 12.175781 62.011719 11.292969 C 62.894531 10.203125 63.476562 9.007812 63.695312 7.769531 C 63.855469 6.847656 63.839844 5.929688 63.738281 5 C 63.664062 4.339844 63.492188 3.683594 63.449219 3.023438 C 63.433594 2.808594 63.480469 2.523438 63.296875 2.320312 C 63.261719 2.28125 63.226562 2.253906 63.183594 2.230469 Z M 63.183594 2.230469 " fill-opacity="1" fill-rule="nonzero"></path>
  </g>
  <path fill="#414370" d="M 56.835938 14.207031 C 56.574219 14.207031 54.808594 13.527344 53.144531 12.015625 C 52.039062 10.976562 51.300781 9.871094 50.878906 8.632812 C 50.332031 7.011719 50.367188 5.183594 50.988281 3.203125 C 50.992188 3.195312 50.992188 3.191406 50.996094 3.1875 C 51.007812 3.160156 51.035156 3.140625 51.066406 3.140625 C 51.082031 3.140625 51.097656 3.144531 51.167969 3.160156 C 51.394531 3.21875 52.082031 3.394531 52.945312 3.394531 C 54.050781 3.394531 55.617188 3.097656 56.796875 1.6875 C 56.8125 1.671875 56.832031 1.660156 56.855469 1.660156 C 56.878906 1.660156 56.898438 1.671875 56.914062 1.6875 C 58.035156 3.046875 59.683594 3.332031 60.867188 3.332031 C 61.605469 3.332031 62.195312 3.222656 62.417969 3.179688 C 62.492188 3.167969 62.515625 3.164062 62.535156 3.164062 C 62.5625 3.164062 62.59375 3.179688 62.605469 3.207031 C 62.609375 3.214844 62.609375 3.21875 62.613281 3.226562 C 63.230469 5.210938 63.269531 7.042969 62.730469 8.664062 C 62.320312 9.902344 61.59375 11.003906 60.511719 12.035156 C 58.789062 13.617188 57.089844 14.207031 56.875 14.207031 C 56.867188 14.207031 56.863281 14.207031 56.855469 14.207031 C 56.851562 14.207031 56.84375 14.207031 56.835938 14.207031 Z M 56.835938 14.054688 L 56.835938 14.128906 Z M 51.117188 3.304688 C 50.054688 6.742188 50.753906 9.554688 53.246094 11.902344 C 54.9375 13.4375 56.601562 14.035156 56.824219 14.054688 C 56.835938 14.050781 56.847656 14.050781 56.855469 14.046875 C 56.867188 14.046875 56.875 14.050781 56.886719 14.054688 C 57.109375 14.035156 58.75 13.441406 60.40625 11.921875 C 62.824219 9.621094 63.523438 6.730469 62.484375 3.324219 C 62.472656 3.328125 62.457031 3.328125 62.445312 3.332031 C 62.21875 3.371094 61.621094 3.484375 60.867188 3.484375 C 59.671875 3.484375 58.011719 3.199219 56.855469 1.855469 C 55.644531 3.25 54.066406 3.546875 52.945312 3.546875 C 52.0625 3.546875 51.359375 3.367188 51.128906 3.308594 C 51.125 3.308594 51.121094 3.308594 51.117188 3.304688 Z M 51.117188 3.304688 " fill-opacity="1" fill-rule="nonzero"></path>
  <path fill="#ffffff" d="M 59.96875 6.191406 C 59.527344 6.140625 59.078125 6.101562 58.632812 6.074219 C 58.636719 5.605469 58.644531 5.136719 58.644531 4.671875 C 58.648438 4.390625 58.539062 4.117188 58.339844 3.90625 C 58.132812 3.683594 57.84375 3.550781 57.542969 3.542969 C 57.085938 3.53125 56.625 3.53125 56.167969 3.542969 C 55.871094 3.550781 55.582031 3.683594 55.371094 3.90625 C 55.171875 4.117188 55.0625 4.390625 55.066406 4.671875 C 55.070312 5.136719 55.074219 5.605469 55.082031 6.074219 C 54.632812 6.101562 54.1875 6.140625 53.742188 6.191406 C 53.152344 6.261719 52.703125 6.78125 52.753906 7.355469 C 52.78125 7.730469 52.816406 8.105469 52.851562 8.480469 C 52.910156 9.0625 53.4375 9.511719 54.039062 9.464844 C 54.410156 9.433594 54.785156 9.410156 55.15625 9.390625 C 55.171875 9.84375 55.1875 10.300781 55.203125 10.753906 C 55.230469 11.34375 55.707031 11.820312 56.285156 11.828125 C 56.292969 11.828125 56.296875 11.828125 56.304688 11.828125 C 56.671875 11.824219 57.039062 11.824219 57.410156 11.828125 C 57.414062 11.828125 57.421875 11.828125 57.425781 11.828125 C 58.007812 11.820312 58.484375 11.34375 58.507812 10.75 C 58.523438 10.296875 58.539062 9.84375 58.554688 9.390625 C 58.929688 9.410156 59.300781 9.433594 59.671875 9.464844 C 59.707031 9.464844 59.742188 9.46875 59.777344 9.46875 C 60.335938 9.457031 60.804688 9.027344 60.859375 8.476562 C 60.894531 8.101562 60.929688 7.730469 60.960938 7.355469 C 61.007812 6.78125 60.558594 6.261719 59.96875 6.191406 Z M 59.96875 6.191406 " fill-opacity="1" fill-rule="nonzero"></path>
  <g clip-path="url(#afdcfc7a2c)">
    <path fill="#fe0719" d="M 61.292969 10.226562 C 60.808594 9.082031 60.085938 9.015625 59.355469 9.445312 C 58.644531 9.875 57.933594 10.800781 57.882812 11.652344 C 57.835938 12.6875 58.128906 12.980469 59.058594 13.503906 C 59.796875 13.914062 60.890625 14.597656 61.03125 15.578125 C 61 14.695312 62.347656 14.253906 62.90625 14.003906 C 63.824219 13.609375 64.644531 13.515625 64.972656 12.472656 C 65.359375 11.296875 64.566406 10.039062 63.722656 9.398438 C 62.847656 8.769531 61.925781 8.753906 61.292969 10.226562 Z M 61.292969 10.226562 " fill-opacity="1" fill-rule="nonzero"></path>
  </g>
  <g clip-path="url(#cf0098c1ff)">
    <path fill="#00c4cc" d="M 52.34375 24.121094 C 52.941406 24.121094 53.542969 24.121094 54.144531 24.121094 C 54.246094 24.121094 54.332031 24.050781 54.363281 23.953125 C 54.738281 22.734375 55.113281 21.515625 55.488281 20.296875 C 55.34375 20.296875 55.199219 20.296875 55.054688 20.296875 C 55.503906 21.566406 55.953125 22.835938 56.40625 24.105469 C 56.476562 24.308594 56.78125 24.339844 56.839844 24.105469 C 57.339844 22.101562 57.839844 20.09375 58.339844 18.089844 C 58.195312 18.089844 58.050781 18.089844 57.90625 18.089844 C 58.382812 20.832031 58.855469 23.574219 59.332031 26.316406 C 59.363281 26.507812 59.660156 26.542969 59.742188 26.371094 C 60.105469 25.613281 60.464844 24.855469 60.828125 24.097656 C 60.917969 23.90625 60.546875 24.121094 60.792969 24.121094 C 61.027344 24.121094 61.265625 24.121094 61.503906 24.121094 C 61.925781 24.121094 62.351562 24.121094 62.777344 24.121094 C 63.066406 24.121094 63.066406 23.664062 62.777344 23.664062 C 62.078125 23.664062 61.375 23.664062 60.675781 23.664062 C 60.601562 23.664062 60.515625 23.707031 60.480469 23.777344 C 60.105469 24.566406 59.730469 25.351562 59.355469 26.140625 C 59.492188 26.160156 59.628906 26.175781 59.765625 26.195312 C 59.289062 23.453125 58.816406 20.710938 58.339844 17.96875 C 58.300781 17.738281 57.957031 17.757812 57.90625 17.96875 C 57.40625 19.972656 56.90625 21.980469 56.40625 23.984375 C 56.550781 23.984375 56.695312 23.984375 56.839844 23.984375 C 56.386719 22.714844 55.9375 21.445312 55.488281 20.175781 C 55.414062 19.964844 55.121094 19.953125 55.054688 20.175781 C 54.679688 21.394531 54.300781 22.613281 53.925781 23.832031 C 54 23.777344 54.070312 23.722656 54.144531 23.664062 C 53.542969 23.664062 52.941406 23.664062 52.34375 23.664062 C 52.050781 23.664062 52.050781 24.121094 52.34375 24.121094 Z M 52.34375 24.121094 " fill-opacity="1" fill-rule="nonzero"></path>
  </g>
  <g clip-path="url(#e78cfe3214)">
    <path fill="#ffffff" d="M 36.878906 19.71875 L 35.730469 19.71875 L 35.730469 18.570312 C 35.730469 18.117188 35.359375 17.742188 34.902344 17.742188 L 33.199219 17.742188 C 32.980469 17.742188 32.769531 17.832031 32.613281 17.988281 C 32.457031 18.144531 32.371094 18.351562 32.371094 18.570312 L 32.371094 19.71875 L 31.226562 19.71875 C 30.769531 19.71875 30.398438 20.089844 30.398438 20.546875 L 30.398438 22.246094 C 30.398438 22.703125 30.769531 23.074219 31.226562 23.074219 L 32.371094 23.074219 L 32.371094 24.222656 C 32.371094 24.679688 32.742188 25.050781 33.199219 25.050781 L 34.902344 25.050781 C 35.359375 25.050781 35.730469 24.679688 35.730469 24.222656 L 35.730469 23.074219 L 36.878906 23.074219 C 37.335938 23.074219 37.707031 22.703125 37.707031 22.246094 L 37.707031 20.546875 C 37.707031 20.089844 37.335938 19.71875 36.878906 19.71875 Z M 35.300781 22.429688 C 35.179688 22.429688 35.085938 22.523438 35.085938 22.644531 L 35.085938 24.222656 C 35.085938 24.320312 35.003906 24.402344 34.902344 24.402344 L 33.199219 24.402344 C 33.101562 24.402344 33.019531 24.320312 33.019531 24.222656 L 33.019531 22.644531 C 33.019531 22.523438 32.921875 22.429688 32.804688 22.429688 L 31.226562 22.429688 C 31.125 22.429688 31.042969 22.347656 31.042969 22.246094 L 31.042969 20.546875 C 31.042969 20.445312 31.125 20.363281 31.226562 20.363281 L 32.804688 20.363281 C 32.921875 20.363281 33.019531 20.269531 33.019531 20.148438 L 33.019531 18.570312 C 33.019531 18.472656 33.101562 18.390625 33.199219 18.390625 L 34.902344 18.390625 C 35.003906 18.390625 35.085938 18.472656 35.085938 18.570312 L 35.085938 20.148438 C 35.085938 20.269531 35.179688 20.363281 35.300781 20.363281 L 36.878906 20.363281 C 36.980469 20.363281 37.058594 20.445312 37.058594 20.546875 L 37.058594 22.246094 C 37.058594 22.347656 36.980469 22.429688 36.878906 22.429688 Z M 35.300781 22.429688 " fill-opacity="1" fill-rule="nonzero"></path>
  </g>
  <g clip-path="url(#2aa27d879e)">
    <path fill="#ffffff" d="M 30.480469 24.277344 L 29.699219 24.277344 L 29.699219 23.496094 C 29.699219 23.066406 29.347656 22.71875 28.917969 22.71875 L 27.882812 22.71875 C 27.453125 22.71875 27.105469 23.066406 27.105469 23.496094 L 27.105469 24.277344 L 26.320312 24.277344 C 25.890625 24.277344 25.542969 24.628906 25.542969 25.058594 L 25.542969 26.09375 C 25.542969 26.519531 25.890625 26.871094 26.320312 26.871094 L 27.105469 26.871094 L 27.105469 27.652344 C 27.105469 28.082031 27.453125 28.433594 27.882812 28.433594 L 28.917969 28.433594 C 29.125 28.433594 29.320312 28.351562 29.46875 28.203125 C 29.617188 28.058594 29.699219 27.859375 29.699219 27.652344 L 29.699219 26.871094 L 30.480469 26.871094 C 30.910156 26.871094 31.261719 26.519531 31.261719 26.09375 L 31.261719 25.058594 C 31.261719 24.628906 30.910156 24.277344 30.480469 24.277344 Z M 29.050781 26.4375 L 29.050781 27.652344 C 29.050781 27.726562 28.992188 27.785156 28.917969 27.785156 L 27.882812 27.785156 C 27.8125 27.785156 27.753906 27.726562 27.753906 27.652344 L 27.753906 26.4375 C 27.753906 26.320312 27.65625 26.222656 27.535156 26.222656 L 26.320312 26.222656 C 26.25 26.222656 26.191406 26.164062 26.191406 26.09375 L 26.191406 25.058594 C 26.191406 24.984375 26.25 24.925781 26.320312 24.925781 L 27.535156 24.925781 C 27.65625 24.925781 27.75 24.828125 27.75 24.710938 L 27.75 23.496094 C 27.75 23.421875 27.8125 23.363281 27.882812 23.363281 L 28.917969 23.363281 C 28.992188 23.363281 29.050781 23.421875 29.050781 23.496094 L 29.050781 24.710938 C 29.050781 24.828125 29.148438 24.925781 29.265625 24.925781 L 30.480469 24.925781 C 30.554688 24.925781 30.613281 24.984375 30.613281 25.058594 L 30.613281 26.09375 C 30.613281 26.164062 30.554688 26.222656 30.480469 26.222656 L 29.265625 26.222656 C 29.148438 26.222656 29.050781 26.320312 29.050781 26.4375 Z M 29.050781 26.4375 " fill-opacity="1" fill-rule="nonzero"></path>
  </g>
  <g clip-path="url(#56f82a1f3d)">
    <path fill="#ffffff" d="M 34.84375 27.078125 L 34.609375 27.078125 L 34.609375 26.839844 C 34.609375 26.46875 34.304688 26.164062 33.933594 26.164062 L 33.128906 26.164062 C 32.757812 26.164062 32.453125 26.46875 32.453125 26.839844 L 32.453125 27.078125 L 32.214844 27.078125 C 31.84375 27.078125 31.542969 27.378906 31.542969 27.753906 L 31.542969 28.554688 C 31.542969 28.929688 31.84375 29.230469 32.214844 29.230469 L 32.453125 29.230469 L 32.453125 29.46875 C 32.453125 29.839844 32.757812 30.140625 33.128906 30.140625 L 33.933594 30.140625 C 34.304688 30.140625 34.609375 29.839844 34.609375 29.46875 L 34.609375 29.230469 L 34.84375 29.230469 C 35.21875 29.230469 35.519531 28.929688 35.519531 28.554688 L 35.519531 27.753906 C 35.519531 27.378906 35.21875 27.078125 34.84375 27.078125 Z M 34.175781 28.582031 C 34.058594 28.582031 33.960938 28.679688 33.960938 28.800781 L 33.960938 29.46875 C 33.960938 29.484375 33.949219 29.496094 33.933594 29.496094 L 33.128906 29.496094 C 33.113281 29.496094 33.101562 29.484375 33.101562 29.46875 L 33.101562 28.800781 C 33.101562 28.679688 33.003906 28.582031 32.886719 28.582031 L 32.214844 28.582031 C 32.203125 28.582031 32.1875 28.570312 32.1875 28.554688 L 32.1875 27.753906 C 32.1875 27.738281 32.203125 27.726562 32.214844 27.726562 L 32.886719 27.726562 C 33.003906 27.726562 33.101562 27.628906 33.101562 27.507812 L 33.101562 26.839844 C 33.101562 26.824219 33.113281 26.8125 33.128906 26.8125 L 33.933594 26.8125 C 33.949219 26.8125 33.960938 26.824219 33.960938 26.839844 L 33.960938 27.507812 C 33.960938 27.628906 34.058594 27.726562 34.175781 27.726562 L 34.84375 27.726562 C 34.859375 27.726562 34.875 27.738281 34.875 27.753906 L 34.875 28.554688 C 34.875 28.570312 34.859375 28.582031 34.84375 28.582031 Z M 34.175781 28.582031 " fill-opacity="1" fill-rule="nonzero"></path>
  </g>
</svg>
