<?xml version="1.0" encoding="UTF-8"?>
<svg xmlns="http://www.w3.org/2000/svg" xmlns:xlink="http://www.w3.org/1999/xlink" width="107" zoomAndPan="magnify" viewBox="0 0 80.25 35.25" height="47" preserveAspectRatio="xMidYMid meet" version="1.0">
  <defs>
    <g></g>
    <clipPath id="b22755bcef">
      <path d="M 0.46875 3.453125 L 79.046875 3.453125 L 79.046875 31.0625 L 0.46875 31.0625 Z M 0.46875 3.453125 " clip-rule="nonzero"></path>
    </clipPath>
    <clipPath id="c1e9d2a39b">
      <path d="M 48.089844 6 L 75.996094 6 L 75.996094 29.226562 L 48.089844 29.226562 Z M 48.089844 6 " clip-rule="nonzero"></path>
    </clipPath>
    <clipPath id="b62e050efe">
      <path d="M 34 18 L 38 18 L 38 23 L 34 23 Z M 34 18 " clip-rule="nonzero"></path>
    </clipPath>
    <clipPath id="7b141188f3">
      <path d="M 35.898438 16.101562 L 39.757812 21.46875 L 28.425781 29.609375 L 24.570312 24.242188 Z M 35.898438 16.101562 " clip-rule="nonzero"></path>
    </clipPath>
    <clipPath id="12a9c74353">
      <path d="M 35.898438 16.101562 L 39.757812 21.46875 L 28.425781 29.609375 L 24.570312 24.242188 Z M 35.898438 16.101562 " clip-rule="nonzero"></path>
    </clipPath>
    <clipPath id="100477c19b">
      <path d="M 35.898438 16.101562 L 39.757812 21.46875 L 28.425781 29.609375 L 24.570312 24.242188 Z M 35.898438 16.101562 " clip-rule="nonzero"></path>
    </clipPath>
    <clipPath id="b3c79443c9">
      <path d="M 34 18 L 38 18 L 38 20 L 34 20 Z M 34 18 " clip-rule="nonzero"></path>
    </clipPath>
    <clipPath id="0a2595006d">
      <path d="M 35.898438 16.101562 L 39.757812 21.46875 L 28.425781 29.609375 L 24.570312 24.242188 Z M 35.898438 16.101562 " clip-rule="nonzero"></path>
    </clipPath>
    <clipPath id="6b8aa81e43">
      <path d="M 35.898438 16.101562 L 39.757812 21.46875 L 28.425781 29.609375 L 24.570312 24.242188 Z M 35.898438 16.101562 " clip-rule="nonzero"></path>
    </clipPath>
    <clipPath id="abc85548e3">
      <path d="M 35.898438 16.101562 L 39.757812 21.46875 L 28.425781 29.609375 L 24.570312 24.242188 Z M 35.898438 16.101562 " clip-rule="nonzero"></path>
    </clipPath>
    <clipPath id="a5cfc21f67">
      <path d="M 32 18 L 37 18 L 37 24 L 32 24 Z M 32 18 " clip-rule="nonzero"></path>
    </clipPath>
    <clipPath id="1bd6fca1ba">
      <path d="M 35.898438 16.101562 L 39.757812 21.46875 L 28.425781 29.609375 L 24.570312 24.242188 Z M 35.898438 16.101562 " clip-rule="nonzero"></path>
    </clipPath>
    <clipPath id="89240e9d4f">
      <path d="M 35.898438 16.101562 L 39.757812 21.46875 L 28.425781 29.609375 L 24.570312 24.242188 Z M 35.898438 16.101562 " clip-rule="nonzero"></path>
    </clipPath>
    <clipPath id="6508d945fc">
      <path d="M 35.898438 16.101562 L 39.757812 21.46875 L 28.425781 29.609375 L 24.570312 24.242188 Z M 35.898438 16.101562 " clip-rule="nonzero"></path>
    </clipPath>
    <clipPath id="dcda7c836c">
      <path d="M 32 18 L 36 18 L 36 22 L 32 22 Z M 32 18 " clip-rule="nonzero"></path>
    </clipPath>
    <clipPath id="0da4f4f837">
      <path d="M 35.898438 16.101562 L 39.757812 21.46875 L 28.425781 29.609375 L 24.570312 24.242188 Z M 35.898438 16.101562 " clip-rule="nonzero"></path>
    </clipPath>
    <clipPath id="5795cb648e">
      <path d="M 35.898438 16.101562 L 39.757812 21.46875 L 28.425781 29.609375 L 24.570312 24.242188 Z M 35.898438 16.101562 " clip-rule="nonzero"></path>
    </clipPath>
    <clipPath id="7b86222105">
      <path d="M 35.898438 16.101562 L 39.757812 21.46875 L 28.425781 29.609375 L 24.570312 24.242188 Z M 35.898438 16.101562 " clip-rule="nonzero"></path>
    </clipPath>
    <clipPath id="78bd7d20c6">
      <path d="M 24 19 L 36 19 L 36 30 L 24 30 Z M 24 19 " clip-rule="nonzero"></path>
    </clipPath>
    <clipPath id="3214fda9a9">
      <path d="M 35.898438 16.101562 L 39.757812 21.46875 L 28.425781 29.609375 L 24.570312 24.242188 Z M 35.898438 16.101562 " clip-rule="nonzero"></path>
    </clipPath>
    <clipPath id="329a9f5222">
      <path d="M 35.898438 16.101562 L 39.757812 21.46875 L 28.425781 29.609375 L 24.570312 24.242188 Z M 35.898438 16.101562 " clip-rule="nonzero"></path>
    </clipPath>
    <clipPath id="6a2dea4ba8">
      <path d="M 35.898438 16.101562 L 39.757812 21.46875 L 28.425781 29.609375 L 24.570312 24.242188 Z M 35.898438 16.101562 " clip-rule="nonzero"></path>
    </clipPath>
    <clipPath id="a86f7edd3e">
      <path d="M 33 24 L 35 24 L 35 26 L 33 26 Z M 33 24 " clip-rule="nonzero"></path>
    </clipPath>
    <clipPath id="7d8fac1981">
      <path d="M 35.898438 16.101562 L 39.757812 21.46875 L 28.425781 29.609375 L 24.570312 24.242188 Z M 35.898438 16.101562 " clip-rule="nonzero"></path>
    </clipPath>
    <clipPath id="1343546dfa">
      <path d="M 35.898438 16.101562 L 39.757812 21.46875 L 28.425781 29.609375 L 24.570312 24.242188 Z M 35.898438 16.101562 " clip-rule="nonzero"></path>
    </clipPath>
    <clipPath id="861419485c">
      <path d="M 35.898438 16.101562 L 39.757812 21.46875 L 28.425781 29.609375 L 24.570312 24.242188 Z M 35.898438 16.101562 " clip-rule="nonzero"></path>
    </clipPath>
    <clipPath id="b134d9a60a">
      <path d="M 34 22 L 35 22 L 35 24 L 34 24 Z M 34 22 " clip-rule="nonzero"></path>
    </clipPath>
    <clipPath id="7fa05096b5">
      <path d="M 35.898438 16.101562 L 39.757812 21.46875 L 28.425781 29.609375 L 24.570312 24.242188 Z M 35.898438 16.101562 " clip-rule="nonzero"></path>
    </clipPath>
    <clipPath id="68921307ae">
      <path d="M 35.898438 16.101562 L 39.757812 21.46875 L 28.425781 29.609375 L 24.570312 24.242188 Z M 35.898438 16.101562 " clip-rule="nonzero"></path>
    </clipPath>
    <clipPath id="72571adeab">
      <path d="M 35.898438 16.101562 L 39.757812 21.46875 L 28.425781 29.609375 L 24.570312 24.242188 Z M 35.898438 16.101562 " clip-rule="nonzero"></path>
    </clipPath>
    <clipPath id="d42f161bc8">
      <path d="M 24 19 L 34 19 L 34 27 L 24 27 Z M 24 19 " clip-rule="nonzero"></path>
    </clipPath>
    <clipPath id="63e4dcd030">
      <path d="M 35.898438 16.101562 L 39.757812 21.46875 L 28.425781 29.609375 L 24.570312 24.242188 Z M 35.898438 16.101562 " clip-rule="nonzero"></path>
    </clipPath>
    <clipPath id="a0e9167a7a">
      <path d="M 35.898438 16.101562 L 39.757812 21.46875 L 28.425781 29.609375 L 24.570312 24.242188 Z M 35.898438 16.101562 " clip-rule="nonzero"></path>
    </clipPath>
    <clipPath id="3246282a8d">
      <path d="M 35.898438 16.101562 L 39.757812 21.46875 L 28.425781 29.609375 L 24.570312 24.242188 Z M 35.898438 16.101562 " clip-rule="nonzero"></path>
    </clipPath>
    <clipPath id="43c1368cce">
      <path d="M 32 24 L 34 24 L 34 26 L 32 26 Z M 32 24 " clip-rule="nonzero"></path>
    </clipPath>
    <clipPath id="5796146a8d">
      <path d="M 35.898438 16.101562 L 39.757812 21.46875 L 28.425781 29.609375 L 24.570312 24.242188 Z M 35.898438 16.101562 " clip-rule="nonzero"></path>
    </clipPath>
    <clipPath id="6177383816">
      <path d="M 35.898438 16.101562 L 39.757812 21.46875 L 28.425781 29.609375 L 24.570312 24.242188 Z M 35.898438 16.101562 " clip-rule="nonzero"></path>
    </clipPath>
    <clipPath id="30f7b3ff43">
      <path d="M 35.898438 16.101562 L 39.757812 21.46875 L 28.425781 29.609375 L 24.570312 24.242188 Z M 35.898438 16.101562 " clip-rule="nonzero"></path>
    </clipPath>
    <clipPath id="10709a76ae">
      <path d="M 25 21 L 33 21 L 33 29 L 25 29 Z M 25 21 " clip-rule="nonzero"></path>
    </clipPath>
    <clipPath id="a671ec640c">
      <path d="M 35.898438 16.101562 L 39.757812 21.46875 L 28.425781 29.609375 L 24.570312 24.242188 Z M 35.898438 16.101562 " clip-rule="nonzero"></path>
    </clipPath>
    <clipPath id="f727c07abd">
      <path d="M 35.898438 16.101562 L 39.757812 21.46875 L 28.425781 29.609375 L 24.570312 24.242188 Z M 35.898438 16.101562 " clip-rule="nonzero"></path>
    </clipPath>
    <clipPath id="cc4da2a4a9">
      <path d="M 35.898438 16.101562 L 39.757812 21.46875 L 28.425781 29.609375 L 24.570312 24.242188 Z M 35.898438 16.101562 " clip-rule="nonzero"></path>
    </clipPath>
    <clipPath id="ac96d0246f">
      <path d="M 25 21 L 31 21 L 31 26 L 25 26 Z M 25 21 " clip-rule="nonzero"></path>
    </clipPath>
    <clipPath id="2732d6141e">
      <path d="M 35.898438 16.101562 L 39.757812 21.46875 L 28.425781 29.609375 L 24.570312 24.242188 Z M 35.898438 16.101562 " clip-rule="nonzero"></path>
    </clipPath>
    <clipPath id="973a4179b2">
      <path d="M 35.898438 16.101562 L 39.757812 21.46875 L 28.425781 29.609375 L 24.570312 24.242188 Z M 35.898438 16.101562 " clip-rule="nonzero"></path>
    </clipPath>
    <clipPath id="4335735482">
      <path d="M 35.898438 16.101562 L 39.757812 21.46875 L 28.425781 29.609375 L 24.570312 24.242188 Z M 35.898438 16.101562 " clip-rule="nonzero"></path>
    </clipPath>
    <clipPath id="d8e977f0e0">
      <path d="M 29 26 L 31 26 L 31 29 L 29 29 Z M 29 26 " clip-rule="nonzero"></path>
    </clipPath>
    <clipPath id="9ced0fc65b">
      <path d="M 35.898438 16.101562 L 39.757812 21.46875 L 28.425781 29.609375 L 24.570312 24.242188 Z M 35.898438 16.101562 " clip-rule="nonzero"></path>
    </clipPath>
    <clipPath id="460b40a46a">
      <path d="M 35.898438 16.101562 L 39.757812 21.46875 L 28.425781 29.609375 L 24.570312 24.242188 Z M 35.898438 16.101562 " clip-rule="nonzero"></path>
    </clipPath>
    <clipPath id="4feddc44c8">
      <path d="M 35.898438 16.101562 L 39.757812 21.46875 L 28.425781 29.609375 L 24.570312 24.242188 Z M 35.898438 16.101562 " clip-rule="nonzero"></path>
    </clipPath>
    <clipPath id="f19ba9c0e0">
      <path d="M 30 26 L 32 26 L 32 28 L 30 28 Z M 30 26 " clip-rule="nonzero"></path>
    </clipPath>
    <clipPath id="9842984964">
      <path d="M 35.898438 16.101562 L 39.757812 21.46875 L 28.425781 29.609375 L 24.570312 24.242188 Z M 35.898438 16.101562 " clip-rule="nonzero"></path>
    </clipPath>
    <clipPath id="d08f2cf994">
      <path d="M 35.898438 16.101562 L 39.757812 21.46875 L 28.425781 29.609375 L 24.570312 24.242188 Z M 35.898438 16.101562 " clip-rule="nonzero"></path>
    </clipPath>
    <clipPath id="4ec9eab467">
      <path d="M 35.898438 16.101562 L 39.757812 21.46875 L 28.425781 29.609375 L 24.570312 24.242188 Z M 35.898438 16.101562 " clip-rule="nonzero"></path>
    </clipPath>
    <clipPath id="9b9b6439d3">
      <path d="M 31 25 L 33 25 L 33 28 L 31 28 Z M 31 25 " clip-rule="nonzero"></path>
    </clipPath>
    <clipPath id="9b81e9341f">
      <path d="M 35.898438 16.101562 L 39.757812 21.46875 L 28.425781 29.609375 L 24.570312 24.242188 Z M 35.898438 16.101562 " clip-rule="nonzero"></path>
    </clipPath>
    <clipPath id="b467ee3fd6">
      <path d="M 35.898438 16.101562 L 39.757812 21.46875 L 28.425781 29.609375 L 24.570312 24.242188 Z M 35.898438 16.101562 " clip-rule="nonzero"></path>
    </clipPath>
    <clipPath id="009bc3cca8">
      <path d="M 35.898438 16.101562 L 39.757812 21.46875 L 28.425781 29.609375 L 24.570312 24.242188 Z M 35.898438 16.101562 " clip-rule="nonzero"></path>
    </clipPath>
    <clipPath id="aef190df80">
      <path d="M 32 25 L 34 25 L 34 27 L 32 27 Z M 32 25 " clip-rule="nonzero"></path>
    </clipPath>
    <clipPath id="60f2e9ac07">
      <path d="M 35.898438 16.101562 L 39.757812 21.46875 L 28.425781 29.609375 L 24.570312 24.242188 Z M 35.898438 16.101562 " clip-rule="nonzero"></path>
    </clipPath>
    <clipPath id="b1f48eb1fa">
      <path d="M 35.898438 16.101562 L 39.757812 21.46875 L 28.425781 29.609375 L 24.570312 24.242188 Z M 35.898438 16.101562 " clip-rule="nonzero"></path>
    </clipPath>
    <clipPath id="fbea78e3bd">
      <path d="M 35.898438 16.101562 L 39.757812 21.46875 L 28.425781 29.609375 L 24.570312 24.242188 Z M 35.898438 16.101562 " clip-rule="nonzero"></path>
    </clipPath>
  </defs>
  <g clip-path="url(#b22755bcef)">
    <path fill="#ff66c4" d="M 0.46875 3.453125 L 79.046875 3.453125 L 79.046875 31.0625 L 0.46875 31.0625 Z M 0.46875 3.453125 " fill-opacity="1" fill-rule="nonzero"></path>
  </g>
  <path fill="#d2d5d8" d="M 50.300781 14.613281 C 50.300781 14.613281 49 12.625 49.1875 11.777344 C 49.371094 10.929688 51.378906 13.414062 51.378906 13.414062 L 50.300781 14.613281 " fill-opacity="1" fill-rule="nonzero"></path>
  <path fill="#d2d5d8" d="M 56.492188 8.78125 C 56.492188 8.78125 55.90625 6.480469 56.355469 5.734375 C 56.800781 4.992188 57.902344 7.992188 57.902344 7.992188 L 56.492188 8.78125 " fill-opacity="1" fill-rule="nonzero"></path>
  <path fill="#d2d5d8" d="M 72.71875 14.613281 C 72.71875 14.613281 74.019531 12.625 73.835938 11.777344 C 73.652344 10.929688 71.640625 13.414062 71.640625 13.414062 L 72.71875 14.613281 " fill-opacity="1" fill-rule="nonzero"></path>
  <path fill="#d2d5d8" d="M 66.527344 8.78125 C 66.527344 8.78125 67.113281 6.480469 66.667969 5.734375 C 66.21875 4.992188 65.117188 7.992188 65.117188 7.992188 L 66.527344 8.78125 " fill-opacity="1" fill-rule="nonzero"></path>
  <g clip-path="url(#c1e9d2a39b)">
    <path fill="#f5d9bd" d="M 74.117188 13.441406 C 73.539062 12.808594 72.816406 12.433594 72 12.265625 C 71.488281 12.160156 70.9375 12 70.574219 11.605469 C 70.097656 11.085938 70.246094 10.441406 70.011719 9.824219 C 69.472656 8.402344 68.371094 7.300781 66.984375 6.808594 C 66.453125 6.621094 65.898438 6.523438 65.332031 6.523438 C 64.300781 6.523438 63.3125 6.839844 62.464844 7.398438 C 61.859375 7.800781 61.085938 7.824219 60.421875 7.515625 C 59.777344 7.21875 59.070312 7.050781 58.335938 7.050781 C 58.125 7.050781 57.914062 7.066406 57.703125 7.09375 C 55.675781 7.355469 54.078125 8.839844 53.464844 10.777344 C 53.265625 11.410156 52.773438 11.898438 52.136719 12.085938 C 51.304688 12.332031 50.558594 12.792969 49.964844 13.441406 C 48.09375 15.492188 48.378906 18.808594 50.601562 20.835938 C 51.164062 21.347656 51.984375 21.503906 52.023438 22.269531 C 52.066406 23.097656 52.121094 23.550781 52.566406 24.324219 C 54.351562 27.4375 57.886719 29.011719 61.410156 29.121094 C 64.898438 29.230469 68.746094 27.742188 71 25.019531 C 71.535156 24.375 72.039062 23.722656 72.058594 22.875 C 72.066406 22.597656 71.917969 22.023438 72.074219 21.789062 C 72.300781 21.449219 73.144531 21.140625 73.484375 20.835938 C 75.703125 18.808594 75.988281 15.492188 74.117188 13.441406 " fill-opacity="1" fill-rule="nonzero"></path>
  </g>
  <path fill="#fb9898" d="M 65.160156 17.941406 C 64.621094 16.824219 63.386719 15.878906 62.121094 15.839844 C 60.8125 15.796875 59.457031 16.792969 58.902344 17.941406 C 58.257812 19.28125 56.816406 19.925781 55.792969 20.921875 C 55.371094 21.335938 55.011719 21.84375 55.054688 22.460938 C 55.15625 23.9375 56.910156 24.875 58.242188 24.585938 C 59.382812 24.339844 60.191406 23.441406 61.300781 23.148438 C 62.214844 22.90625 63.09375 23.445312 63.863281 23.855469 C 64.710938 24.304688 65.390625 24.796875 66.410156 24.714844 C 67.4375 24.632812 68.597656 24.046875 68.890625 22.988281 C 69.210938 21.839844 68.421875 20.996094 67.585938 20.339844 C 66.699219 19.648438 65.664062 18.988281 65.160156 17.941406 " fill-opacity="1" fill-rule="nonzero"></path>
  <path fill="#fb9898" d="M 67.125 12.804688 C 66.65625 14.121094 65.371094 14.863281 64.257812 14.464844 C 63.140625 14.066406 62.617188 12.679688 63.085938 11.363281 C 63.554688 10.050781 64.835938 9.308594 65.953125 9.707031 C 67.070312 10.101562 67.59375 11.492188 67.125 12.804688 " fill-opacity="1" fill-rule="nonzero"></path>
  <path fill="#fb9898" d="M 71.410156 18.5625 C 70.441406 19.445312 69.0625 19.515625 68.335938 18.714844 C 67.605469 17.914062 67.800781 16.550781 68.769531 15.667969 C 69.738281 14.78125 71.113281 14.714844 71.84375 15.515625 C 72.574219 16.3125 72.378906 17.679688 71.410156 18.5625 " fill-opacity="1" fill-rule="nonzero"></path>
  <path fill="#fb9898" d="M 56.292969 12.921875 C 56.472656 14.304688 57.570312 15.304688 58.746094 15.152344 C 59.921875 15 60.726562 13.753906 60.550781 12.371094 C 60.371094 10.988281 59.273438 9.988281 58.097656 10.140625 C 56.921875 10.292969 56.113281 11.535156 56.292969 12.921875 " fill-opacity="1" fill-rule="nonzero"></path>
  <path fill="#fb9898" d="M 52.671875 18.5625 C 53.640625 19.445312 55.019531 19.515625 55.75 18.714844 C 56.480469 17.914062 56.285156 16.550781 55.316406 15.667969 C 54.34375 14.78125 52.96875 14.714844 52.238281 15.515625 C 51.507812 16.3125 51.703125 17.679688 52.671875 18.5625 " fill-opacity="1" fill-rule="nonzero"></path>
  <path fill="#fdb9b9" d="M 62.113281 16.660156 C 62.351562 17.011719 62.015625 17.664062 61.359375 18.117188 C 60.703125 18.570312 59.972656 18.652344 59.730469 18.300781 C 59.488281 17.949219 59.824219 17.296875 60.484375 16.847656 C 61.140625 16.394531 61.871094 16.3125 62.113281 16.660156 " fill-opacity="1" fill-rule="nonzero"></path>
  <path fill="#fdb9b9" d="M 57.804688 20.765625 C 58.035156 21.105469 57.851562 21.632812 57.394531 21.949219 C 56.9375 22.261719 56.375 22.246094 56.144531 21.910156 C 55.910156 21.570312 56.09375 21.042969 56.554688 20.726562 C 57.011719 20.410156 57.570312 20.429688 57.804688 20.765625 " fill-opacity="1" fill-rule="nonzero"></path>
  <path fill="#fdb9b9" d="M 53.894531 15.707031 C 54.125 16.042969 53.941406 16.574219 53.484375 16.890625 C 53.027344 17.203125 52.464844 17.1875 52.234375 16.851562 C 52.003906 16.511719 52.183594 15.984375 52.644531 15.667969 C 53.101562 15.351562 53.660156 15.371094 53.894531 15.707031 " fill-opacity="1" fill-rule="nonzero"></path>
  <path fill="#fdb9b9" d="M 58.183594 10.730469 C 58.539062 10.933594 58.597656 11.488281 58.320312 11.972656 C 58.042969 12.453125 57.53125 12.675781 57.175781 12.472656 C 56.820312 12.269531 56.761719 11.710938 57.039062 11.230469 C 57.316406 10.75 57.828125 10.523438 58.183594 10.730469 " fill-opacity="1" fill-rule="nonzero"></path>
  <path fill="#fdb9b9" d="M 65.613281 10.230469 C 65.890625 10.535156 65.78125 11.082031 65.371094 11.457031 C 64.957031 11.832031 64.402344 11.890625 64.125 11.585938 C 63.851562 11.285156 63.960938 10.738281 64.371094 10.363281 C 64.78125 9.988281 65.339844 9.929688 65.613281 10.230469 " fill-opacity="1" fill-rule="nonzero"></path>
  <path fill="#fdb9b9" d="M 71.296875 15.726562 C 71.421875 16.117188 71.09375 16.570312 70.566406 16.742188 C 70.035156 16.910156 69.503906 16.730469 69.378906 16.34375 C 69.253906 15.953125 69.582031 15.5 70.113281 15.328125 C 70.644531 15.160156 71.171875 15.339844 71.296875 15.726562 " fill-opacity="1" fill-rule="nonzero"></path>
  <g fill="#ffffff" fill-opacity="1">
    <g transform="translate(3.920312, 16.855283)">
      <g>
        <path d="M 2.640625 -9.5625 C 3.390625 -9.5625 3.929688 -9.351562 4.265625 -8.9375 C 4.609375 -8.519531 4.78125 -7.945312 4.78125 -7.21875 L 4.78125 -6.078125 C 4.78125 -5.316406 4.597656 -4.738281 4.234375 -4.34375 C 3.878906 -3.957031 3.316406 -3.765625 2.546875 -3.765625 L 1.609375 -3.765625 L 1.609375 0 L 0.546875 0 L 0.546875 -9.5625 Z M 2.546875 -4.71875 C 2.953125 -4.71875 3.25 -4.816406 3.4375 -5.015625 C 3.632812 -5.210938 3.734375 -5.546875 3.734375 -6.015625 L 3.734375 -7.28125 C 3.734375 -7.71875 3.644531 -8.046875 3.46875 -8.265625 C 3.300781 -8.484375 3.023438 -8.59375 2.640625 -8.59375 L 1.609375 -8.59375 L 1.609375 -4.71875 Z M 2.546875 -4.71875 "></path>
      </g>
    </g>
  </g>
  <g fill="#ffffff" fill-opacity="1">
    <g transform="translate(9.027208, 16.855283)">
      <g>
        <path d="M 1.5625 -2.25 C 1.5625 -1.8125 1.648438 -1.472656 1.828125 -1.234375 C 2.003906 -0.992188 2.285156 -0.875 2.671875 -0.875 C 3.054688 -0.875 3.335938 -0.992188 3.515625 -1.234375 C 3.691406 -1.472656 3.78125 -1.8125 3.78125 -2.25 L 3.78125 -9.5625 L 4.78125 -9.5625 L 4.78125 -2.3125 C 4.78125 -1.582031 4.601562 -0.992188 4.25 -0.546875 C 3.90625 -0.109375 3.367188 0.109375 2.640625 0.109375 C 1.910156 0.109375 1.367188 -0.109375 1.015625 -0.546875 C 0.671875 -0.992188 0.5 -1.582031 0.5 -2.3125 L 0.5 -9.5625 L 1.5625 -9.5625 Z M 1.5625 -2.25 "></path>
      </g>
    </g>
  </g>
  <g fill="#ffffff" fill-opacity="1">
    <g transform="translate(14.311624, 16.855283)">
      <g>
        <path d="M 2.640625 -9.5625 C 3.390625 -9.5625 3.929688 -9.351562 4.265625 -8.9375 C 4.609375 -8.519531 4.78125 -7.945312 4.78125 -7.21875 L 4.78125 -6.078125 C 4.78125 -5.316406 4.597656 -4.738281 4.234375 -4.34375 C 3.878906 -3.957031 3.316406 -3.765625 2.546875 -3.765625 L 1.609375 -3.765625 L 1.609375 0 L 0.546875 0 L 0.546875 -9.5625 Z M 2.546875 -4.71875 C 2.953125 -4.71875 3.25 -4.816406 3.4375 -5.015625 C 3.632812 -5.210938 3.734375 -5.546875 3.734375 -6.015625 L 3.734375 -7.28125 C 3.734375 -7.71875 3.644531 -8.046875 3.46875 -8.265625 C 3.300781 -8.484375 3.023438 -8.59375 2.640625 -8.59375 L 1.609375 -8.59375 L 1.609375 -4.71875 Z M 2.546875 -4.71875 "></path>
      </g>
    </g>
  </g>
  <g fill="#ffffff" fill-opacity="1">
    <g transform="translate(19.418519, 16.855283)">
      <g>
        <path d="M 2.640625 -9.5625 C 3.390625 -9.5625 3.929688 -9.351562 4.265625 -8.9375 C 4.609375 -8.519531 4.78125 -7.945312 4.78125 -7.21875 L 4.78125 -6.078125 C 4.78125 -5.316406 4.597656 -4.738281 4.234375 -4.34375 C 3.878906 -3.957031 3.316406 -3.765625 2.546875 -3.765625 L 1.609375 -3.765625 L 1.609375 0 L 0.546875 0 L 0.546875 -9.5625 Z M 2.546875 -4.71875 C 2.953125 -4.71875 3.25 -4.816406 3.4375 -5.015625 C 3.632812 -5.210938 3.734375 -5.546875 3.734375 -6.015625 L 3.734375 -7.28125 C 3.734375 -7.71875 3.644531 -8.046875 3.46875 -8.265625 C 3.300781 -8.484375 3.023438 -8.59375 2.640625 -8.59375 L 1.609375 -8.59375 L 1.609375 -4.71875 Z M 2.546875 -4.71875 "></path>
      </g>
    </g>
  </g>
  <g fill="#ffffff" fill-opacity="1">
    <g transform="translate(24.525415, 16.855283)">
      <g>
        <path d="M 2.234375 -3.421875 L 0.21875 -9.5625 L 1.328125 -9.5625 L 2.8125 -4.859375 L 4.3125 -9.5625 L 5.328125 -9.5625 L 3.296875 -3.421875 L 3.296875 0 L 2.234375 0 Z M 2.234375 -3.421875 "></path>
      </g>
    </g>
  </g>
  <g fill="#ffffff" fill-opacity="1">
    <g transform="translate(30.069265, 16.855283)">
      <g>
        <path d="M 1.109375 -7.03125 L 0.671875 -7.03125 L 1.015625 -8.234375 L 0.609375 -8.234375 L 0.609375 -9.5625 L 1.640625 -9.5625 L 1.640625 -8.34375 Z M 1.109375 -7.03125 "></path>
      </g>
    </g>
  </g>
  <g fill="#ffffff" fill-opacity="1">
    <g transform="translate(32.254035, 16.855283)">
      <g>
        <path d="M 2.546875 -9.65625 C 3.273438 -9.65625 3.8125 -9.4375 4.15625 -9 C 4.507812 -8.570312 4.6875 -7.992188 4.6875 -7.265625 L 4.6875 -7 L 3.671875 -7 L 3.671875 -7.3125 C 3.671875 -7.75 3.582031 -8.085938 3.40625 -8.328125 C 3.238281 -8.566406 2.960938 -8.6875 2.578125 -8.6875 C 2.191406 -8.6875 1.910156 -8.566406 1.734375 -8.328125 C 1.566406 -8.085938 1.484375 -7.753906 1.484375 -7.328125 C 1.484375 -6.972656 1.5625 -6.664062 1.71875 -6.40625 C 1.882812 -6.144531 2.082031 -5.898438 2.3125 -5.671875 C 2.550781 -5.453125 2.8125 -5.234375 3.09375 -5.015625 C 3.375 -4.804688 3.628906 -4.570312 3.859375 -4.3125 C 4.097656 -4.0625 4.296875 -3.773438 4.453125 -3.453125 C 4.617188 -3.128906 4.703125 -2.742188 4.703125 -2.296875 C 4.703125 -1.566406 4.523438 -0.984375 4.171875 -0.546875 C 3.816406 -0.117188 3.273438 0.09375 2.546875 0.09375 C 1.804688 0.09375 1.257812 -0.117188 0.90625 -0.546875 C 0.5625 -0.984375 0.390625 -1.566406 0.390625 -2.296875 L 0.390625 -2.84375 L 1.390625 -2.84375 L 1.390625 -2.234375 C 1.390625 -1.796875 1.476562 -1.457031 1.65625 -1.21875 C 1.84375 -0.988281 2.128906 -0.875 2.515625 -0.875 C 2.898438 -0.875 3.179688 -0.988281 3.359375 -1.21875 C 3.535156 -1.457031 3.625 -1.796875 3.625 -2.234375 C 3.625 -2.585938 3.546875 -2.894531 3.390625 -3.15625 C 3.234375 -3.414062 3.035156 -3.65625 2.796875 -3.875 C 2.554688 -4.101562 2.300781 -4.320312 2.03125 -4.53125 C 1.757812 -4.75 1.503906 -4.984375 1.265625 -5.234375 C 1.035156 -5.492188 0.835938 -5.785156 0.671875 -6.109375 C 0.515625 -6.429688 0.4375 -6.816406 0.4375 -7.265625 C 0.4375 -8.003906 0.609375 -8.585938 0.953125 -9.015625 C 1.296875 -9.441406 1.828125 -9.65625 2.546875 -9.65625 Z M 2.546875 -9.65625 "></path>
      </g>
    </g>
  </g>
  <g fill="#ffffff" fill-opacity="1">
    <g transform="translate(3.920312, 27.870907)">
      <g>
        <path d="M 2.765625 -9.5625 C 3.515625 -9.5625 4.070312 -9.359375 4.4375 -8.953125 C 4.8125 -8.554688 5 -7.972656 5 -7.203125 L 5 -5.953125 C 5 -5.179688 4.8125 -4.59375 4.4375 -4.1875 C 4.070312 -3.789062 3.515625 -3.59375 2.765625 -3.59375 L 2.046875 -3.59375 L 2.046875 0 L 0.546875 0 L 0.546875 -9.5625 Z M 2.046875 -8.1875 L 2.046875 -4.953125 L 2.765625 -4.953125 C 2.992188 -4.953125 3.171875 -5.015625 3.296875 -5.140625 C 3.429688 -5.273438 3.5 -5.515625 3.5 -5.859375 L 3.5 -7.296875 C 3.5 -7.640625 3.429688 -7.875 3.296875 -8 C 3.171875 -8.125 2.992188 -8.1875 2.765625 -8.1875 Z M 2.046875 -8.1875 "></path>
      </g>
    </g>
  </g>
  <g fill="#ffffff" fill-opacity="1">
    <g transform="translate(9.136452, 27.870907)">
      <g>
        <path d="M 0.546875 -9.5625 L 2.046875 -9.5625 L 2.046875 0 L 0.546875 0 Z M 0.546875 -9.5625 "></path>
      </g>
    </g>
  </g>
  <g fill="#ffffff" fill-opacity="1">
    <g transform="translate(11.730868, 27.870907)">
      <g>
        <path d="M 4.90625 -3.5625 L 4.90625 -2.296875 C 4.90625 -1.523438 4.710938 -0.929688 4.328125 -0.515625 C 3.953125 -0.0976562 3.394531 0.109375 2.65625 0.109375 C 1.925781 0.109375 1.367188 -0.0976562 0.984375 -0.515625 C 0.609375 -0.929688 0.421875 -1.523438 0.421875 -2.296875 L 0.421875 -7.265625 C 0.421875 -8.035156 0.609375 -8.628906 0.984375 -9.046875 C 1.367188 -9.460938 1.925781 -9.671875 2.65625 -9.671875 C 3.394531 -9.671875 3.953125 -9.460938 4.328125 -9.046875 C 4.710938 -8.628906 4.90625 -8.035156 4.90625 -7.265625 L 4.90625 -6.34375 L 3.484375 -6.34375 L 3.484375 -7.359375 C 3.484375 -7.703125 3.410156 -7.941406 3.265625 -8.078125 C 3.128906 -8.222656 2.941406 -8.296875 2.703125 -8.296875 C 2.460938 -8.296875 2.269531 -8.222656 2.125 -8.078125 C 1.988281 -7.941406 1.921875 -7.703125 1.921875 -7.359375 L 1.921875 -2.203125 C 1.921875 -1.859375 1.988281 -1.613281 2.125 -1.46875 C 2.269531 -1.332031 2.460938 -1.265625 2.703125 -1.265625 C 2.941406 -1.265625 3.128906 -1.332031 3.265625 -1.46875 C 3.410156 -1.613281 3.484375 -1.859375 3.484375 -2.203125 L 3.484375 -3.5625 Z M 4.90625 -3.5625 "></path>
      </g>
    </g>
  </g>
  <g fill="#ffffff" fill-opacity="1">
    <g transform="translate(17.001624, 27.870907)">
      <g>
        <path d="M 2.515625 -3.8125 L 2.046875 -2.9375 L 2.046875 0 L 0.546875 0 L 0.546875 -9.5625 L 2.046875 -9.5625 L 2.046875 -5.390625 L 4.015625 -9.5625 L 5.515625 -9.5625 L 3.421875 -5.296875 L 5.515625 0 L 3.96875 0 Z M 2.515625 -3.8125 "></path>
      </g>
    </g>
  </g>
  <g clip-path="url(#b62e050efe)">
    <g clip-path="url(#7b141188f3)">
      <g clip-path="url(#12a9c74353)">
        <g clip-path="url(#100477c19b)">
          <path fill="#ffc855" d="M 35.613281 18.910156 C 35.117188 18.691406 34.554688 18.648438 34.023438 18.796875 L 36.605469 22.386719 C 36.914062 21.929688 37.050781 21.378906 37.003906 20.839844 C 36.980469 20.605469 37.097656 20.371094 37.316406 20.28125 C 37.449219 20.226562 37.578125 20.140625 37.6875 20.015625 C 37.914062 19.746094 37.980469 19.359375 37.839844 19.035156 C 37.59375 18.460938 36.894531 18.292969 36.410156 18.640625 C 36.347656 18.683594 36.292969 18.734375 36.246094 18.789062 C 36.09375 18.96875 35.828125 19.003906 35.613281 18.910156 Z M 35.613281 18.910156 " fill-opacity="1" fill-rule="nonzero"></path>
        </g>
      </g>
    </g>
  </g>
  <g clip-path="url(#b3c79443c9)">
    <g clip-path="url(#0a2595006d)">
      <g clip-path="url(#6b8aa81e43)">
        <g clip-path="url(#abc85548e3)">
          <path fill="#ffb44b" d="M 36.410156 18.640625 C 36.347656 18.683594 36.292969 18.734375 36.246094 18.789062 C 36.09375 18.96875 35.828125 19.003906 35.613281 18.910156 C 35.117188 18.691406 34.554688 18.648438 34.023438 18.796875 L 34.496094 19.453125 C 34.953125 19.382812 35.414062 19.441406 35.832031 19.625 C 36.050781 19.71875 36.3125 19.683594 36.46875 19.503906 C 36.515625 19.449219 36.566406 19.398438 36.628906 19.355469 C 37.035156 19.0625 37.589844 19.132812 37.90625 19.503906 C 37.921875 19.34375 37.90625 19.183594 37.839844 19.035156 C 37.59375 18.460938 36.894531 18.292969 36.410156 18.640625 Z M 36.410156 18.640625 " fill-opacity="1" fill-rule="nonzero"></path>
        </g>
      </g>
    </g>
  </g>
  <g clip-path="url(#a5cfc21f67)">
    <g clip-path="url(#1bd6fca1ba)">
      <g clip-path="url(#89240e9d4f)">
        <g clip-path="url(#6508d945fc)">
          <path fill="#00bea5" d="M 35.488281 23.082031 L 33.007812 19.632812 C 32.855469 19.417969 32.90625 19.125 33.121094 18.96875 L 33.507812 18.691406 C 33.722656 18.539062 34.019531 18.585938 34.171875 18.796875 L 36.652344 22.246094 C 36.804688 22.457031 36.753906 22.753906 36.539062 22.910156 L 36.152344 23.1875 C 35.9375 23.339844 35.640625 23.292969 35.488281 23.082031 Z M 35.488281 23.082031 " fill-opacity="1" fill-rule="nonzero"></path>
        </g>
      </g>
    </g>
  </g>
  <g clip-path="url(#dcda7c836c)">
    <g clip-path="url(#0da4f4f837)">
      <g clip-path="url(#5795cb648e)">
        <g clip-path="url(#7b86222105)">
          <path fill="#00aa9a" d="M 34.222656 20.503906 L 34.609375 20.226562 C 34.824219 20.070312 35.121094 20.117188 35.273438 20.328125 L 34.171875 18.796875 C 34.019531 18.585938 33.722656 18.539062 33.507812 18.691406 L 33.121094 18.96875 C 32.90625 19.125 32.855469 19.417969 33.007812 19.632812 L 34.109375 21.164062 C 33.957031 20.953125 34.007812 20.65625 34.222656 20.503906 Z M 34.222656 20.503906 " fill-opacity="1" fill-rule="nonzero"></path>
        </g>
      </g>
    </g>
  </g>
  <g clip-path="url(#78bd7d20c6)">
    <g clip-path="url(#3214fda9a9)">
      <g clip-path="url(#329a9f5222)">
        <g clip-path="url(#6a2dea4ba8)">
          <path fill="#cde6f5" d="M 27.875 28.84375 L 25.121094 25.007812 C 24.816406 24.585938 24.917969 23.992188 25.34375 23.683594 L 30.527344 19.960938 C 30.933594 19.667969 31.429688 19.527344 31.929688 19.558594 L 33.007812 19.632812 L 35.488281 23.082031 L 35.210938 24.128906 C 35.085938 24.609375 34.789062 25.035156 34.382812 25.328125 L 29.203125 29.054688 C 28.773438 29.359375 28.179688 29.265625 27.875 28.84375 Z M 27.875 28.84375 " fill-opacity="1" fill-rule="nonzero"></path>
        </g>
      </g>
    </g>
  </g>
  <g clip-path="url(#a86f7edd3e)">
    <g clip-path="url(#7d8fac1981)">
      <g clip-path="url(#1343546dfa)">
        <g clip-path="url(#861419485c)">
          <path fill="#e6f3fa" d="M 33.050781 25.414062 C 32.976562 25.308594 33 25.160156 33.105469 25.082031 L 33.832031 24.5625 C 33.898438 24.515625 33.960938 24.457031 34.019531 24.394531 C 34.109375 24.296875 34.257812 24.289062 34.355469 24.378906 C 34.453125 24.464844 34.460938 24.613281 34.371094 24.710938 C 34.289062 24.800781 34.203125 24.878906 34.109375 24.945312 L 33.382812 25.46875 C 33.277344 25.542969 33.128906 25.519531 33.050781 25.414062 Z M 33.050781 25.414062 " fill-opacity="1" fill-rule="nonzero"></path>
        </g>
      </g>
    </g>
  </g>
  <g clip-path="url(#b134d9a60a)">
    <g clip-path="url(#7fa05096b5)">
      <g clip-path="url(#68921307ae)">
        <g clip-path="url(#72571adeab)">
          <path fill="#ffffff" d="M 34.386719 23.875 C 34.347656 23.820312 34.332031 23.746094 34.351562 23.675781 L 34.484375 23.171875 C 34.515625 23.046875 34.648438 22.96875 34.773438 23 C 34.902344 23.03125 34.976562 23.160156 34.945312 23.289062 L 34.808594 23.792969 C 34.777344 23.917969 34.648438 23.996094 34.519531 23.964844 C 34.464844 23.949219 34.417969 23.917969 34.386719 23.875 Z M 34.386719 23.875 " fill-opacity="1" fill-rule="nonzero"></path>
        </g>
      </g>
    </g>
  </g>
  <g clip-path="url(#d42f161bc8)">
    <g clip-path="url(#63e4dcd030)">
      <g clip-path="url(#a0e9167a7a)">
        <g clip-path="url(#3246282a8d)">
          <path fill="#b7d3e2" d="M 26.308594 25.027344 L 31.492188 21.304688 C 31.898438 21.011719 32.394531 20.867188 32.894531 20.902344 L 33.972656 20.972656 L 33.007812 19.632812 L 31.929688 19.558594 C 31.429688 19.527344 30.933594 19.667969 30.527344 19.960938 L 25.34375 23.683594 C 24.917969 23.992188 24.816406 24.585938 25.121094 25.007812 L 26.085938 26.351562 C 25.78125 25.925781 25.882812 25.335938 26.308594 25.027344 Z M 26.308594 25.027344 " fill-opacity="1" fill-rule="nonzero"></path>
        </g>
      </g>
    </g>
  </g>
  <g clip-path="url(#43c1368cce)">
    <g clip-path="url(#5796146a8d)">
      <g clip-path="url(#6177383816)">
        <g clip-path="url(#30f7b3ff43)">
          <path fill="#b7d3e2" d="M 32.777344 25.03125 L 33.464844 25.988281 L 33.851562 25.710938 L 33.164062 24.753906 C 33.085938 24.648438 32.9375 24.625 32.832031 24.699219 C 32.726562 24.777344 32.699219 24.925781 32.777344 25.03125 Z M 32.777344 25.03125 " fill-opacity="1" fill-rule="nonzero"></path>
        </g>
      </g>
    </g>
  </g>
  <g clip-path="url(#10709a76ae)">
    <g clip-path="url(#a671ec640c)">
      <g clip-path="url(#f727c07abd)">
        <g clip-path="url(#cc4da2a4a9)">
          <path fill="#ffffff" d="M 28.457031 28.425781 L 25.703125 24.589844 C 25.625 24.484375 25.652344 24.335938 25.757812 24.261719 L 29.828125 21.335938 L 32.855469 25.554688 L 28.789062 28.476562 C 28.679688 28.554688 28.53125 28.53125 28.457031 28.425781 Z M 28.457031 28.425781 " fill-opacity="1" fill-rule="nonzero"></path>
        </g>
      </g>
    </g>
  </g>
  <g clip-path="url(#ac96d0246f)">
    <g clip-path="url(#2732d6141e)">
      <g clip-path="url(#973a4179b2)">
        <g clip-path="url(#4335735482)">
          <path fill="#e6f3fa" d="M 30.378906 22.101562 L 29.828125 21.335938 L 25.757812 24.261719 C 25.652344 24.335938 25.625 24.484375 25.703125 24.589844 L 26.132812 25.195312 C 26.183594 25.132812 26.242188 25.074219 26.308594 25.027344 Z M 30.378906 22.101562 " fill-opacity="1" fill-rule="nonzero"></path>
        </g>
      </g>
    </g>
  </g>
  <g clip-path="url(#d8e977f0e0)">
    <g clip-path="url(#9ced0fc65b)">
      <g clip-path="url(#460b40a46a)">
        <g clip-path="url(#4feddc44c8)">
          <path fill="#b7d3e2" d="M 29.675781 27.257812 L 30.363281 28.21875 L 30.75 27.9375 L 30.0625 26.980469 C 29.988281 26.875 29.839844 26.851562 29.730469 26.929688 C 29.625 27.003906 29.597656 27.152344 29.675781 27.257812 Z M 29.675781 27.257812 " fill-opacity="1" fill-rule="nonzero"></path>
        </g>
      </g>
    </g>
  </g>
  <g clip-path="url(#f19ba9c0e0)">
    <g clip-path="url(#9842984964)">
      <g clip-path="url(#d08f2cf994)">
        <g clip-path="url(#4ec9eab467)">
          <path fill="#b7d3e2" d="M 30.726562 27.085938 L 31.140625 27.660156 L 31.527344 27.382812 L 31.113281 26.808594 C 31.039062 26.699219 30.890625 26.675781 30.78125 26.753906 C 30.675781 26.832031 30.648438 26.980469 30.726562 27.085938 Z M 30.726562 27.085938 " fill-opacity="1" fill-rule="nonzero"></path>
        </g>
      </g>
    </g>
  </g>
  <g clip-path="url(#9b9b6439d3)">
    <g clip-path="url(#9b81e9341f)">
      <g clip-path="url(#b467ee3fd6)">
        <g clip-path="url(#009bc3cca8)">
          <path fill="#b7d3e2" d="M 31.226562 26.144531 L 31.914062 27.101562 L 32.300781 26.824219 L 31.613281 25.867188 C 31.535156 25.761719 31.386719 25.738281 31.28125 25.8125 C 31.175781 25.890625 31.148438 26.039062 31.226562 26.144531 Z M 31.226562 26.144531 " fill-opacity="1" fill-rule="nonzero"></path>
        </g>
      </g>
    </g>
  </g>
  <g clip-path="url(#aef190df80)">
    <g clip-path="url(#60f2e9ac07)">
      <g clip-path="url(#b1f48eb1fa)">
        <g clip-path="url(#fbea78e3bd)">
          <path fill="#b7d3e2" d="M 32.277344 25.972656 L 32.6875 26.546875 L 33.078125 26.269531 L 32.664062 25.691406 C 32.585938 25.585938 32.4375 25.5625 32.332031 25.640625 C 32.226562 25.71875 32.199219 25.867188 32.277344 25.972656 Z M 32.277344 25.972656 " fill-opacity="1" fill-rule="nonzero"></path>
        </g>
      </g>
    </g>
  </g>
</svg>
