<?xml version="1.0" encoding="UTF-8"?>
<svg xmlns="http://www.w3.org/2000/svg" xmlns:xlink="http://www.w3.org/1999/xlink" width="107" zoomAndPan="magnify" viewBox="0 0 80.25 35.25" height="47" preserveAspectRatio="xMidYMid meet" version="1.0">
  <defs>
    <g></g>
    <clipPath id="7f6ad61619">
      <path d="M 0.46875 3.453125 L 79.046875 3.453125 L 79.046875 31.0625 L 0.46875 31.0625 Z M 0.46875 3.453125 " clip-rule="nonzero"></path>
    </clipPath>
    <clipPath id="100856622d">
      <path d="M 50 21 L 72 21 L 72 34.515625 L 50 34.515625 Z M 50 21 " clip-rule="nonzero"></path>
    </clipPath>
    <clipPath id="632600d2db">
      <path d="M 68 32 L 69 32 L 69 34.515625 L 68 34.515625 Z M 68 32 " clip-rule="nonzero"></path>
    </clipPath>
    <clipPath id="f1758025a1">
      <path d="M 53 34 L 55 34 L 55 34.515625 L 53 34.515625 Z M 53 34 " clip-rule="nonzero"></path>
    </clipPath>
    <clipPath id="e89f420486">
      <path d="M 52 32 L 54 32 L 54 34.515625 L 52 34.515625 Z M 52 32 " clip-rule="nonzero"></path>
    </clipPath>
    <clipPath id="f7b10cbb6d">
      <path d="M 62 32 L 64 32 L 64 34.515625 L 62 34.515625 Z M 62 32 " clip-rule="nonzero"></path>
    </clipPath>
    <clipPath id="e4df957074">
      <path d="M 36.402344 1.628906 L 54 1.628906 L 54 15.582031 L 36.402344 15.582031 Z M 36.402344 1.628906 " clip-rule="nonzero"></path>
    </clipPath>
  </defs>
  <g clip-path="url(#7f6ad61619)">
    <path fill="#73b221" d="M 0.46875 3.453125 L 79.046875 3.453125 L 79.046875 31.0625 L 0.46875 31.0625 Z M 0.46875 3.453125 " fill-opacity="1" fill-rule="nonzero"></path>
  </g>
  <path fill="#edb29e" d="M 61.96875 6.324219 C 61.96875 6.324219 59.617188 7.140625 58.75 9.039062 C 58.992188 4.90625 61.183594 3.03125 65.59375 2.9375 C 64.554688 2.503906 63.808594 2.503906 63.808594 2.503906 C 63.808594 2.503906 67.015625 0.894531 70.84375 3.175781 C 74.675781 5.457031 72.554688 11.535156 72.554688 11.535156 C 72.554688 11.535156 73.640625 10.09375 73.542969 8.125 C 75.039062 11.175781 72.921875 14.976562 70.414062 16.609375 C 67.910156 18.242188 64.148438 18.476562 62.796875 21.644531 C 61.015625 23.925781 61.117188 22.125 61.117188 22.125 C 61.117188 22.125 60.941406 19.867188 63.882812 17.15625 C 66.820312 14.441406 68.574219 11.894531 67.59375 9.011719 C 66.609375 6.132812 63.484375 5.527344 61.96875 6.324219 " fill-opacity="1" fill-rule="nonzero"></path>
  <path fill="#d7643c" d="M 60.285156 21.371094 C 60.285156 21.371094 60.195312 18.90625 62.773438 16.722656 C 65.351562 14.539062 67.207031 12.953125 67.015625 9.757812 C 66.820312 6.5625 63.722656 5.820312 61.96875 6.324219 C 63.953125 4.570312 67.976562 5.820312 68.773438 8.773438 C 68.867188 6.875 68.386719 5.914062 68.386719 5.914062 C 68.386719 5.914062 70 7.597656 70 10.117188 C 70 12.640625 68.289062 14.152344 68.289062 14.152344 C 68.289062 14.152344 69.398438 13.527344 69.808594 12.375 C 69.929688 13.890625 68.425781 15.53125 66.210938 16.84375 C 63.992188 18.15625 62.660156 19.085938 62.082031 20.363281 C 63.140625 18.941406 64.15625 18.378906 64.15625 18.378906 C 64.15625 18.378906 62.402344 19.820312 61.679688 21.949219 C 61.136719 22.238281 60.105469 23.175781 60.285156 21.371094 " fill-opacity="1" fill-rule="nonzero"></path>
  <g clip-path="url(#100856622d)">
    <path fill="#d7643c" d="M 50.300781 44.027344 C 50.300781 44.027344 50.683594 36.308594 51.042969 30.632812 C 51.402344 24.960938 54.496094 21.597656 60.539062 21.359375 C 66.578125 21.117188 69.519531 24.289062 70.53125 30.339844 C 71.542969 36.390625 71.929688 42.296875 71.929688 42.296875 C 71.929688 42.296875 59.757812 46.8125 50.300781 44.027344 " fill-opacity="1" fill-rule="nonzero"></path>
  </g>
  <path fill="#c75e39" d="M 68.773438 28.8125 C 68.742188 28.8125 68.707031 28.804688 68.679688 28.789062 C 68.632812 28.769531 68.585938 28.722656 68.574219 28.671875 C 68.515625 28.445312 68.449219 28.226562 68.371094 28.007812 C 68.335938 27.910156 68.296875 27.8125 68.261719 27.714844 C 68.21875 27.597656 68.179688 27.476562 68.140625 27.359375 C 68.113281 27.269531 68.15625 27.175781 68.242188 27.144531 C 68.261719 27.136719 68.277344 27.136719 68.296875 27.136719 C 68.367188 27.136719 68.433594 27.175781 68.457031 27.246094 C 68.496094 27.363281 68.53125 27.488281 68.578125 27.605469 C 68.621094 27.703125 68.664062 27.800781 68.710938 27.902344 C 68.804688 28.109375 68.898438 28.3125 68.972656 28.527344 C 69.007812 28.636719 68.953125 28.757812 68.84375 28.796875 C 68.820312 28.808594 68.796875 28.8125 68.773438 28.8125 " fill-opacity="1" fill-rule="nonzero"></path>
  <path fill="#c75e39" d="M 68.460938 31.378906 C 68.402344 31.378906 68.34375 31.355469 68.300781 31.316406 C 68.265625 31.289062 68.242188 31.253906 68.226562 31.214844 C 68.199219 31.09375 68.1875 30.972656 68.167969 30.851562 C 68.152344 30.761719 68.136719 30.667969 68.121094 30.578125 C 68.046875 30.257812 67.925781 29.953125 67.796875 29.652344 C 67.753906 29.550781 67.820312 29.433594 67.917969 29.398438 C 67.941406 29.390625 67.960938 29.386719 67.984375 29.386719 C 68.066406 29.386719 68.136719 29.4375 68.171875 29.515625 C 68.285156 29.777344 68.390625 30.039062 68.484375 30.308594 C 68.527344 30.425781 68.558594 30.550781 68.59375 30.671875 C 68.636719 30.820312 68.679688 30.964844 68.703125 31.113281 C 68.722656 31.246094 68.605469 31.367188 68.476562 31.375 C 68.472656 31.378906 68.464844 31.378906 68.460938 31.378906 " fill-opacity="1" fill-rule="nonzero"></path>
  <path fill="#c75e39" d="M 67.527344 28.191406 C 67.511719 28.191406 67.496094 28.191406 67.480469 28.1875 C 67.429688 28.179688 67.363281 28.144531 67.335938 28.09375 C 67.273438 27.976562 67.21875 27.859375 67.160156 27.742188 C 67.054688 27.542969 66.945312 27.351562 66.832031 27.164062 C 66.804688 27.113281 66.789062 27.058594 66.800781 27 C 66.808594 26.945312 66.84375 26.894531 66.886719 26.863281 C 66.925781 26.839844 66.96875 26.828125 67.011719 26.828125 C 67.082031 26.828125 67.152344 26.855469 67.1875 26.917969 C 67.367188 27.21875 67.539062 27.527344 67.71875 27.832031 C 67.75 27.886719 67.765625 27.941406 67.753906 28.007812 C 67.742188 28.066406 67.707031 28.117188 67.660156 28.152344 C 67.621094 28.179688 67.574219 28.191406 67.527344 28.191406 " fill-opacity="1" fill-rule="nonzero"></path>
  <path fill="#c75e39" d="M 68.144531 26.300781 C 68.03125 26.300781 67.917969 26.230469 67.878906 26.117188 C 67.820312 25.949219 67.753906 25.785156 67.6875 25.617188 C 67.621094 25.449219 67.554688 25.277344 67.488281 25.109375 C 67.433594 24.96875 67.515625 24.808594 67.652344 24.757812 C 67.683594 24.75 67.710938 24.742188 67.742188 24.742188 C 67.855469 24.742188 67.957031 24.816406 68.003906 24.925781 C 68.070312 25.09375 68.136719 25.265625 68.207031 25.433594 C 68.277344 25.597656 68.347656 25.761719 68.402344 25.929688 C 68.449219 26.074219 68.378906 26.230469 68.234375 26.285156 C 68.207031 26.292969 68.175781 26.300781 68.144531 26.300781 " fill-opacity="1" fill-rule="nonzero"></path>
  <path fill="#c75e39" d="M 67.015625 33.484375 C 66.9375 33.484375 66.871094 33.421875 66.863281 33.339844 C 66.851562 33.222656 66.839844 33.101562 66.828125 32.980469 C 66.820312 32.882812 66.808594 32.785156 66.792969 32.691406 C 66.78125 32.597656 66.773438 32.507812 66.761719 32.414062 C 66.746094 32.304688 66.734375 32.199219 66.726562 32.089844 C 66.71875 32.023438 66.773438 31.960938 66.839844 31.957031 C 66.839844 31.957031 66.84375 31.957031 66.847656 31.957031 C 66.910156 31.957031 66.964844 32.007812 66.972656 32.070312 C 66.984375 32.273438 67.019531 32.480469 67.058594 32.683594 C 67.074219 32.777344 67.09375 32.875 67.113281 32.96875 C 67.128906 33.085938 67.148438 33.203125 67.167969 33.316406 C 67.175781 33.355469 67.15625 33.402344 67.132812 33.429688 C 67.105469 33.460938 67.070312 33.480469 67.027344 33.480469 C 67.023438 33.484375 67.019531 33.484375 67.015625 33.484375 " fill-opacity="1" fill-rule="nonzero"></path>
  <path fill="#c75e39" d="M 70.1875 33.222656 C 70.082031 33.222656 69.992188 33.140625 69.980469 33.03125 C 69.957031 32.800781 69.914062 32.570312 69.878906 32.339844 C 69.847656 32.117188 69.804688 31.898438 69.761719 31.679688 C 69.75 31.632812 69.777344 31.570312 69.808594 31.53125 C 69.84375 31.492188 69.894531 31.464844 69.949219 31.460938 C 69.953125 31.460938 69.960938 31.460938 69.964844 31.460938 C 70.011719 31.460938 70.0625 31.480469 70.097656 31.511719 C 70.144531 31.550781 70.160156 31.59375 70.167969 31.652344 C 70.214844 31.875 70.261719 32.097656 70.296875 32.324219 C 70.335938 32.546875 70.378906 32.773438 70.398438 33 C 70.40625 33.113281 70.316406 33.214844 70.203125 33.222656 C 70.199219 33.222656 70.195312 33.222656 70.1875 33.222656 " fill-opacity="1" fill-rule="nonzero"></path>
  <g clip-path="url(#632600d2db)">
    <path fill="#c75e39" d="M 68.738281 34.828125 C 68.6875 34.828125 68.636719 34.8125 68.597656 34.777344 C 68.570312 34.753906 68.546875 34.722656 68.535156 34.6875 C 68.515625 34.59375 68.496094 34.503906 68.488281 34.410156 C 68.480469 34.34375 68.476562 34.273438 68.46875 34.207031 C 68.453125 34.070312 68.4375 33.929688 68.414062 33.792969 C 68.367188 33.476562 68.304688 33.160156 68.238281 32.847656 C 68.230469 32.804688 68.253906 32.75 68.28125 32.71875 C 68.3125 32.683594 68.355469 32.664062 68.402344 32.660156 C 68.40625 32.660156 68.410156 32.660156 68.414062 32.660156 C 68.457031 32.660156 68.5 32.675781 68.53125 32.703125 C 68.570312 32.734375 68.582031 32.773438 68.59375 32.820312 C 68.640625 33.054688 68.6875 33.289062 68.730469 33.523438 C 68.769531 33.726562 68.804688 33.929688 68.847656 34.132812 C 68.882812 34.289062 68.925781 34.441406 68.953125 34.597656 C 68.964844 34.652344 68.9375 34.714844 68.902344 34.753906 C 68.863281 34.796875 68.8125 34.824219 68.753906 34.828125 C 68.75 34.828125 68.742188 34.828125 68.738281 34.828125 " fill-opacity="1" fill-rule="nonzero"></path>
  </g>
  <g clip-path="url(#f1758025a1)">
    <path fill="#c75e39" d="M 53.953125 35.714844 C 53.941406 35.714844 53.929688 35.714844 53.917969 35.710938 C 53.871094 35.703125 53.828125 35.675781 53.800781 35.632812 C 53.769531 35.589844 53.761719 35.542969 53.769531 35.492188 C 53.800781 35.25 53.8125 35.011719 53.832031 34.773438 C 53.832031 34.765625 53.832031 34.761719 53.832031 34.757812 C 53.832031 34.761719 53.832031 34.761719 53.832031 34.765625 C 53.832031 34.761719 53.832031 34.761719 53.832031 34.757812 L 53.832031 34.753906 C 53.832031 34.75 53.832031 34.746094 53.832031 34.742188 C 53.832031 34.746094 53.832031 34.753906 53.832031 34.757812 C 53.832031 34.746094 53.832031 34.738281 53.832031 34.726562 C 53.832031 34.730469 53.832031 34.734375 53.832031 34.738281 C 53.835938 34.726562 53.835938 34.714844 53.835938 34.703125 C 53.835938 34.683594 53.835938 34.664062 53.839844 34.640625 L 53.839844 34.648438 C 53.847656 34.5 53.859375 34.351562 53.875 34.203125 C 53.882812 34.132812 53.957031 34.085938 54.023438 34.085938 C 54.03125 34.085938 54.042969 34.085938 54.050781 34.085938 C 54.085938 34.09375 54.121094 34.117188 54.144531 34.148438 C 54.167969 34.183594 54.171875 34.21875 54.167969 34.261719 C 54.160156 34.34375 54.152344 34.429688 54.144531 34.511719 C 54.136719 34.671875 54.136719 34.828125 54.136719 34.988281 C 54.136719 35.070312 54.140625 35.152344 54.140625 35.230469 C 54.144531 35.324219 54.144531 35.417969 54.140625 35.511719 C 54.140625 35.582031 54.121094 35.640625 54.0625 35.683594 C 54.03125 35.703125 53.992188 35.714844 53.953125 35.714844 " fill-opacity="1" fill-rule="nonzero"></path>
  </g>
  <g clip-path="url(#e89f420486)">
    <path fill="#c75e39" d="M 52.976562 34.835938 C 52.925781 34.835938 52.875 34.816406 52.839844 34.785156 C 52.800781 34.753906 52.765625 34.695312 52.765625 34.644531 C 52.773438 34.507812 52.78125 34.375 52.789062 34.242188 C 52.789062 34.257812 52.789062 34.277344 52.785156 34.292969 C 52.808594 33.878906 52.859375 33.46875 52.910156 33.058594 C 52.917969 32.976562 53.003906 32.917969 53.082031 32.917969 C 53.09375 32.917969 53.105469 32.917969 53.113281 32.921875 C 53.15625 32.929688 53.199219 32.957031 53.222656 32.992188 C 53.25 33.035156 53.257812 33.078125 53.25 33.125 C 53.21875 33.382812 53.191406 33.644531 53.171875 33.90625 C 53.167969 34.019531 53.167969 34.136719 53.167969 34.25 C 53.167969 34.371094 53.175781 34.492188 53.183594 34.613281 C 53.1875 34.726562 53.105469 34.824219 52.992188 34.835938 C 52.984375 34.835938 52.980469 34.835938 52.976562 34.835938 " fill-opacity="1" fill-rule="nonzero"></path>
  </g>
  <path fill="#c75e39" d="M 52.246094 31.53125 C 52.191406 31.53125 52.140625 31.511719 52.101562 31.480469 C 52.058594 31.445312 52.019531 31.382812 52.023438 31.328125 C 52.035156 31.023438 52.09375 30.722656 52.15625 30.425781 C 52.175781 30.339844 52.25 30.28125 52.335938 30.28125 C 52.347656 30.28125 52.359375 30.28125 52.371094 30.28125 C 52.46875 30.300781 52.535156 30.398438 52.515625 30.496094 C 52.484375 30.632812 52.457031 30.769531 52.445312 30.910156 C 52.441406 31.039062 52.449219 31.164062 52.46875 31.292969 C 52.476562 31.347656 52.453125 31.414062 52.414062 31.453125 C 52.375 31.5 52.320312 31.527344 52.261719 31.53125 C 52.257812 31.53125 52.25 31.53125 52.246094 31.53125 " fill-opacity="1" fill-rule="nonzero"></path>
  <path fill="#c75e39" d="M 54.058594 30.300781 C 54.042969 30.300781 54.023438 30.300781 54.003906 30.296875 C 53.851562 30.265625 53.75 30.113281 53.777344 29.960938 C 53.828125 29.675781 53.902344 29.394531 53.980469 29.117188 C 54.003906 29.042969 54.035156 28.980469 54.101562 28.9375 C 54.148438 28.902344 54.207031 28.886719 54.265625 28.886719 C 54.28125 28.886719 54.300781 28.886719 54.316406 28.890625 C 54.390625 28.90625 54.457031 28.949219 54.5 29.007812 C 54.539062 29.066406 54.566406 29.15625 54.546875 29.226562 C 54.464844 29.503906 54.398438 29.785156 54.34375 30.070312 C 54.3125 30.203125 54.195312 30.300781 54.058594 30.300781 " fill-opacity="1" fill-rule="nonzero"></path>
  <path fill="#c75e39" d="M 53.292969 28.433594 C 53.273438 28.433594 53.25 28.429688 53.226562 28.425781 C 53.132812 28.40625 53.046875 28.351562 52.992188 28.273438 C 52.929688 28.1875 52.917969 28.089844 52.933594 27.988281 C 52.953125 27.828125 52.972656 27.664062 52.992188 27.5 C 53.003906 27.40625 53.011719 27.3125 53.027344 27.21875 C 53.054688 27.03125 53.105469 26.847656 53.15625 26.667969 C 53.1875 26.570312 53.226562 26.488281 53.3125 26.429688 C 53.375 26.386719 53.453125 26.363281 53.527344 26.363281 C 53.554688 26.363281 53.578125 26.363281 53.601562 26.367188 C 53.695312 26.386719 53.78125 26.445312 53.839844 26.523438 C 53.890625 26.601562 53.925781 26.71875 53.898438 26.8125 C 53.839844 27.011719 53.785156 27.21875 53.757812 27.425781 C 53.75 27.503906 53.738281 27.578125 53.730469 27.65625 C 53.710938 27.8125 53.6875 27.972656 53.664062 28.132812 C 53.640625 28.308594 53.46875 28.433594 53.292969 28.433594 " fill-opacity="1" fill-rule="nonzero"></path>
  <path fill="#c75e39" d="M 55.660156 26.164062 C 55.648438 26.164062 55.632812 26.160156 55.621094 26.160156 C 55.519531 26.140625 55.445312 26.035156 55.46875 25.933594 C 55.496094 25.8125 55.53125 25.695312 55.570312 25.578125 C 55.570312 25.578125 55.574219 25.574219 55.574219 25.574219 L 55.570312 25.578125 C 55.574219 25.574219 55.574219 25.574219 55.574219 25.570312 L 55.574219 25.566406 L 55.574219 25.570312 C 55.578125 25.558594 55.582031 25.546875 55.585938 25.539062 C 55.589844 25.523438 55.597656 25.507812 55.601562 25.492188 C 55.597656 25.5 55.597656 25.507812 55.59375 25.511719 C 55.601562 25.488281 55.609375 25.460938 55.621094 25.4375 C 55.613281 25.453125 55.609375 25.46875 55.605469 25.484375 C 55.636719 25.390625 55.667969 25.296875 55.699219 25.207031 C 55.714844 25.160156 55.765625 25.125 55.808594 25.109375 C 55.828125 25.101562 55.851562 25.097656 55.871094 25.097656 C 55.902344 25.097656 55.929688 25.105469 55.957031 25.117188 C 56 25.140625 56.035156 25.179688 56.054688 25.226562 C 56.070312 25.277344 56.0625 25.324219 56.046875 25.375 C 56.023438 25.441406 56 25.507812 55.976562 25.574219 C 55.929688 25.71875 55.878906 25.859375 55.851562 26.007812 C 55.832031 26.097656 55.75 26.164062 55.660156 26.164062 M 55.96875 25.589844 C 55.96875 25.59375 55.96875 25.597656 55.964844 25.601562 C 55.96875 25.597656 55.96875 25.59375 55.96875 25.589844 " fill-opacity="1" fill-rule="nonzero"></path>
  <path fill="#c75e39" d="M 55.589844 32.867188 C 55.46875 32.867188 55.367188 32.769531 55.355469 32.648438 C 55.339844 32.519531 55.328125 32.390625 55.320312 32.257812 C 55.316406 32.128906 55.316406 32.003906 55.324219 31.875 C 55.339844 31.640625 55.367188 31.410156 55.390625 31.179688 C 55.394531 31.125 55.4375 31.070312 55.480469 31.039062 C 55.519531 31.011719 55.5625 31 55.609375 31 C 55.621094 31 55.636719 31 55.648438 31.003906 C 55.707031 31.015625 55.757812 31.046875 55.789062 31.09375 C 55.828125 31.148438 55.832031 31.203125 55.824219 31.261719 C 55.808594 31.410156 55.792969 31.554688 55.78125 31.703125 C 55.777344 31.839844 55.773438 31.976562 55.78125 32.117188 C 55.792969 32.28125 55.808594 32.445312 55.828125 32.613281 C 55.839844 32.742188 55.734375 32.855469 55.609375 32.867188 C 55.601562 32.867188 55.597656 32.867188 55.589844 32.867188 " fill-opacity="1" fill-rule="nonzero"></path>
  <path fill="#c75e39" d="M 65.53125 24.972656 C 65.492188 24.972656 65.449219 24.957031 65.414062 24.929688 C 65.320312 24.855469 65.246094 24.769531 65.199219 24.664062 C 65.167969 24.605469 65.152344 24.546875 65.136719 24.484375 C 65.105469 24.375 65.085938 24.265625 65.0625 24.15625 C 65.058594 24.121094 65.074219 24.078125 65.097656 24.050781 C 65.125 24.019531 65.160156 24.003906 65.199219 24 C 65.203125 24 65.207031 24 65.210938 24 C 65.246094 24 65.28125 24.011719 65.308594 24.035156 C 65.339844 24.0625 65.351562 24.09375 65.359375 24.136719 C 65.367188 24.175781 65.375 24.214844 65.382812 24.253906 C 65.402344 24.332031 65.421875 24.40625 65.457031 24.480469 C 65.46875 24.5 65.484375 24.523438 65.5 24.542969 C 65.527344 24.570312 65.554688 24.59375 65.585938 24.613281 C 65.59375 24.621094 65.601562 24.625 65.609375 24.632812 C 65.636719 24.644531 65.660156 24.664062 65.679688 24.691406 C 65.695312 24.71875 65.707031 24.746094 65.710938 24.777344 C 65.714844 24.824219 65.699219 24.875 65.667969 24.910156 C 65.632812 24.949219 65.582031 24.972656 65.53125 24.972656 " fill-opacity="1" fill-rule="nonzero"></path>
  <g clip-path="url(#f7b10cbb6d)">
    <path fill="#c75e39" d="M 63.070312 34.226562 C 62.929688 34.226562 62.8125 34.117188 62.800781 33.976562 C 62.777344 33.746094 62.773438 33.519531 62.773438 33.289062 C 62.773438 33.214844 62.789062 33.148438 62.839844 33.09375 C 62.886719 33.039062 62.953125 33.003906 63.023438 32.996094 C 63.03125 32.996094 63.035156 32.996094 63.042969 32.996094 C 63.179688 32.996094 63.316406 33.105469 63.316406 33.25 C 63.316406 33.476562 63.320312 33.707031 63.339844 33.9375 C 63.351562 34.082031 63.238281 34.214844 63.089844 34.226562 C 63.082031 34.226562 63.078125 34.226562 63.070312 34.226562 " fill-opacity="1" fill-rule="nonzero"></path>
  </g>
  <path fill="#c75e39" d="M 58.21875 29.515625 C 58.121094 29.515625 58.015625 29.433594 58.015625 29.332031 C 58.019531 29.027344 58.019531 28.722656 58.027344 28.417969 C 58.027344 28.285156 58.035156 28.152344 58.039062 28.019531 C 58.039062 27.871094 58.039062 27.71875 58.042969 27.570312 C 58.042969 27.515625 58.054688 27.472656 58.089844 27.429688 C 58.121094 27.390625 58.171875 27.367188 58.222656 27.363281 C 58.226562 27.363281 58.230469 27.363281 58.238281 27.363281 C 58.28125 27.363281 58.328125 27.378906 58.363281 27.410156 C 58.398438 27.441406 58.433594 27.492188 58.429688 27.542969 C 58.425781 27.828125 58.429688 28.113281 58.425781 28.402344 C 58.417969 28.703125 58.417969 29 58.414062 29.300781 C 58.414062 29.355469 58.402344 29.402344 58.367188 29.445312 C 58.332031 29.484375 58.285156 29.511719 58.230469 29.515625 C 58.226562 29.515625 58.222656 29.515625 58.21875 29.515625 " fill-opacity="1" fill-rule="nonzero"></path>
  <path fill="#d0acb6" d="M 72.941406 18.457031 C 72.910156 18.457031 72.878906 18.4375 72.867188 18.40625 C 72.851562 18.367188 72.871094 18.320312 72.914062 18.304688 C 72.921875 18.300781 73.941406 17.921875 75.035156 16.894531 C 76.046875 15.945312 77.335938 14.230469 77.730469 11.453125 C 78.125 8.667969 77.597656 6.441406 77.085938 5.066406 C 76.53125 3.574219 75.871094 2.730469 75.867188 2.722656 C 75.839844 2.6875 75.84375 2.636719 75.878906 2.609375 C 75.914062 2.585938 75.964844 2.589844 75.992188 2.625 C 75.996094 2.632812 76.667969 3.492188 77.230469 5.003906 C 77.75 6.398438 78.285156 8.652344 77.886719 11.472656 C 77.484375 14.300781 76.171875 16.046875 75.140625 17.015625 C 74.019531 18.0625 73.011719 18.4375 72.96875 18.453125 C 72.960938 18.457031 72.949219 18.457031 72.941406 18.457031 " fill-opacity="1" fill-rule="nonzero"></path>
  <path fill="#d0acb6" d="M 70.53125 20.667969 C 70.492188 20.667969 70.457031 20.636719 70.453125 20.597656 C 70.449219 20.554688 70.480469 20.515625 70.523438 20.511719 C 73.441406 20.238281 75.535156 19.152344 76.78125 18.289062 C 78.128906 17.351562 78.796875 16.46875 78.804688 16.460938 C 78.832031 16.425781 78.878906 16.417969 78.914062 16.441406 C 78.949219 16.46875 78.957031 16.519531 78.933594 16.554688 C 78.925781 16.5625 78.246094 17.464844 76.878906 18.414062 C 75.617188 19.289062 73.492188 20.394531 70.539062 20.667969 L 70.53125 20.667969 " fill-opacity="1" fill-rule="nonzero"></path>
  <path fill="#d0acb6" d="M 56.21875 5.441406 L 56.210938 5.441406 C 56.167969 5.4375 56.136719 5.398438 56.140625 5.355469 C 56.144531 5.300781 56.273438 3.972656 57.304688 2.585938 C 57.910156 1.769531 58.703125 1.105469 59.660156 0.613281 C 60.851562 -0.00390625 62.304688 -0.355469 63.972656 -0.429688 C 64.015625 -0.433594 64.054688 -0.398438 64.058594 -0.355469 C 64.058594 -0.3125 64.023438 -0.277344 63.980469 -0.273438 C 60.253906 -0.101562 58.363281 1.425781 57.433594 2.679688 C 56.429688 4.03125 56.300781 5.355469 56.296875 5.371094 C 56.292969 5.410156 56.261719 5.441406 56.21875 5.441406 " fill-opacity="1" fill-rule="nonzero"></path>
  <path fill="#d0acb6" d="M 59.417969 12.742188 C 59.414062 12.742188 59.40625 12.742188 59.402344 12.742188 C 59.359375 12.734375 59.332031 12.695312 59.335938 12.652344 C 59.574219 11.21875 60.167969 10.203125 61.101562 9.644531 C 62.621094 8.730469 64.472656 9.328125 64.550781 9.355469 C 64.589844 9.367188 64.613281 9.414062 64.597656 9.453125 C 64.585938 9.496094 64.539062 9.519531 64.5 9.503906 C 64.480469 9.5 62.636719 8.902344 61.183594 9.777344 C 60.289062 10.316406 59.722656 11.289062 59.496094 12.675781 C 59.488281 12.714844 59.453125 12.742188 59.417969 12.742188 " fill-opacity="1" fill-rule="nonzero"></path>
  <path fill="#d0acb6" d="M 60.667969 14.921875 C 60.640625 14.921875 60.613281 14.90625 60.601562 14.878906 C 59.71875 13.351562 60.59375 11.902344 60.601562 11.886719 C 60.625 11.847656 60.671875 11.835938 60.710938 11.859375 C 60.746094 11.882812 60.757812 11.929688 60.738281 11.96875 C 60.726562 11.980469 59.90625 13.355469 60.738281 14.800781 C 60.757812 14.839844 60.746094 14.886719 60.707031 14.910156 C 60.695312 14.917969 60.683594 14.921875 60.667969 14.921875 " fill-opacity="1" fill-rule="nonzero"></path>
  <path fill="#d0acb6" d="M 75.445312 5.152344 C 75.410156 5.152344 75.382812 5.132812 75.371094 5.101562 C 74.582031 2.878906 73.132812 1.785156 73.117188 1.777344 C 73.082031 1.75 73.074219 1.699219 73.101562 1.664062 C 73.128906 1.628906 73.179688 1.621094 73.214844 1.648438 C 73.226562 1.660156 74.714844 2.777344 75.519531 5.046875 C 75.535156 5.089844 75.511719 5.132812 75.472656 5.148438 C 75.460938 5.152344 75.453125 5.152344 75.445312 5.152344 " fill-opacity="1" fill-rule="nonzero"></path>
  <g fill="#ffffff" fill-opacity="1">
    <g transform="translate(3.920312, 15.039914)">
      <g>
        <path d="M 1.515625 0 L 1.515625 -6.734375 L 0.140625 -6.734375 L 0.140625 -7.5 L 3.734375 -7.5 L 3.734375 -6.734375 L 2.359375 -6.734375 L 2.359375 0 Z M 1.515625 0 "></path>
      </g>
    </g>
  </g>
  <g fill="#ffffff" fill-opacity="1">
    <g transform="translate(7.810709, 15.039914)">
      <g>
        <path d="M 1.28125 -1.515625 L 0.984375 0 L 0.21875 0 L 1.65625 -7.5 L 2.859375 -7.5 L 4.296875 0 L 3.46875 0 L 3.171875 -1.515625 Z M 1.375 -2.234375 L 3.0625 -2.234375 L 2.203125 -6.5625 Z M 1.375 -2.234375 "></path>
      </g>
    </g>
  </g>
  <g fill="#ffffff" fill-opacity="1">
    <g transform="translate(12.33343, 15.039914)">
      <g>
        <path d="M 1.265625 -7.5 L 1.265625 0 L 0.421875 0 L 0.421875 -7.5 Z M 1.265625 -7.5 "></path>
      </g>
    </g>
  </g>
  <g fill="#ffffff" fill-opacity="1">
    <g transform="translate(14.026776, 15.039914)">
      <g>
        <path d="M 0.421875 0 L 0.421875 -7.5 L 1.265625 -7.5 L 1.265625 -0.765625 L 3.40625 -0.765625 L 3.40625 0 Z M 0.421875 0 "></path>
      </g>
    </g>
  </g>
  <g fill="#ffffff" fill-opacity="1">
    <g transform="translate(17.643944, 15.039914)">
      <g></g>
    </g>
  </g>
  <g fill="#ffffff" fill-opacity="1">
    <g transform="translate(3.920312, 26.555054)">
      <g>
        <path d="M 2.796875 -5.328125 L 4.90625 -5.328125 L 4.90625 -2.296875 C 4.90625 -1.523438 4.710938 -0.929688 4.328125 -0.515625 C 3.953125 -0.0976562 3.394531 0.109375 2.65625 0.109375 C 1.925781 0.109375 1.367188 -0.0976562 0.984375 -0.515625 C 0.609375 -0.929688 0.421875 -1.523438 0.421875 -2.296875 L 0.421875 -7.265625 C 0.421875 -8.035156 0.609375 -8.628906 0.984375 -9.046875 C 1.367188 -9.460938 1.925781 -9.671875 2.65625 -9.671875 C 3.394531 -9.671875 3.953125 -9.460938 4.328125 -9.046875 C 4.710938 -8.628906 4.90625 -8.035156 4.90625 -7.265625 L 4.90625 -6.34375 L 3.484375 -6.34375 L 3.484375 -7.359375 C 3.484375 -7.703125 3.410156 -7.941406 3.265625 -8.078125 C 3.128906 -8.222656 2.941406 -8.296875 2.703125 -8.296875 C 2.460938 -8.296875 2.269531 -8.222656 2.125 -8.078125 C 1.988281 -7.941406 1.921875 -7.703125 1.921875 -7.359375 L 1.921875 -2.203125 C 1.921875 -1.859375 1.988281 -1.613281 2.125 -1.46875 C 2.269531 -1.332031 2.460938 -1.265625 2.703125 -1.265625 C 2.941406 -1.265625 3.128906 -1.332031 3.265625 -1.46875 C 3.410156 -1.613281 3.484375 -1.859375 3.484375 -2.203125 L 3.484375 -3.953125 L 2.796875 -3.953125 Z M 2.796875 -5.328125 "></path>
      </g>
    </g>
  </g>
  <g fill="#ffffff" fill-opacity="1">
    <g transform="translate(9.245685, 26.555054)">
      <g>
        <path d="M 1.921875 -2.203125 C 1.921875 -1.859375 1.988281 -1.613281 2.125 -1.46875 C 2.269531 -1.320312 2.460938 -1.25 2.703125 -1.25 C 2.941406 -1.25 3.128906 -1.320312 3.265625 -1.46875 C 3.410156 -1.613281 3.484375 -1.859375 3.484375 -2.203125 L 3.484375 -7.359375 C 3.484375 -7.703125 3.410156 -7.941406 3.265625 -8.078125 C 3.128906 -8.222656 2.941406 -8.296875 2.703125 -8.296875 C 2.460938 -8.296875 2.269531 -8.222656 2.125 -8.078125 C 1.988281 -7.941406 1.921875 -7.703125 1.921875 -7.359375 Z M 0.421875 -7.265625 C 0.421875 -8.035156 0.613281 -8.628906 1 -9.046875 C 1.394531 -9.460938 1.960938 -9.671875 2.703125 -9.671875 C 3.441406 -9.671875 4.003906 -9.460938 4.390625 -9.046875 C 4.785156 -8.628906 4.984375 -8.035156 4.984375 -7.265625 L 4.984375 -2.296875 C 4.984375 -1.523438 4.785156 -0.929688 4.390625 -0.515625 C 4.003906 -0.0976562 3.441406 0.109375 2.703125 0.109375 C 1.960938 0.109375 1.394531 -0.0976562 1 -0.515625 C 0.613281 -0.929688 0.421875 -1.523438 0.421875 -2.296875 Z M 0.421875 -7.265625 "></path>
      </g>
    </g>
  </g>
  <g fill="#ffffff" fill-opacity="1">
    <g transform="translate(14.652993, 26.555054)">
      <g>
        <path d="M 1.921875 -2.203125 C 1.921875 -1.859375 1.988281 -1.613281 2.125 -1.46875 C 2.269531 -1.320312 2.460938 -1.25 2.703125 -1.25 C 2.941406 -1.25 3.128906 -1.320312 3.265625 -1.46875 C 3.410156 -1.613281 3.484375 -1.859375 3.484375 -2.203125 L 3.484375 -7.359375 C 3.484375 -7.703125 3.410156 -7.941406 3.265625 -8.078125 C 3.128906 -8.222656 2.941406 -8.296875 2.703125 -8.296875 C 2.460938 -8.296875 2.269531 -8.222656 2.125 -8.078125 C 1.988281 -7.941406 1.921875 -7.703125 1.921875 -7.359375 Z M 0.421875 -7.265625 C 0.421875 -8.035156 0.613281 -8.628906 1 -9.046875 C 1.394531 -9.460938 1.960938 -9.671875 2.703125 -9.671875 C 3.441406 -9.671875 4.003906 -9.460938 4.390625 -9.046875 C 4.785156 -8.628906 4.984375 -8.035156 4.984375 -7.265625 L 4.984375 -2.296875 C 4.984375 -1.523438 4.785156 -0.929688 4.390625 -0.515625 C 4.003906 -0.0976562 3.441406 0.109375 2.703125 0.109375 C 1.960938 0.109375 1.394531 -0.0976562 1 -0.515625 C 0.613281 -0.929688 0.421875 -1.523438 0.421875 -2.296875 Z M 0.421875 -7.265625 "></path>
      </g>
    </g>
  </g>
  <g fill="#ffffff" fill-opacity="1">
    <g transform="translate(20.060302, 26.555054)">
      <g>
        <path d="M 0.546875 -9.5625 L 2.921875 -9.5625 C 3.679688 -9.5625 4.242188 -9.359375 4.609375 -8.953125 C 4.972656 -8.554688 5.15625 -7.972656 5.15625 -7.203125 L 5.15625 -2.359375 C 5.15625 -1.585938 4.972656 -1 4.609375 -0.59375 C 4.242188 -0.195312 3.679688 0 2.921875 0 L 0.546875 0 Z M 2.046875 -8.1875 L 2.046875 -1.359375 L 2.890625 -1.359375 C 3.128906 -1.359375 3.316406 -1.425781 3.453125 -1.5625 C 3.585938 -1.707031 3.65625 -1.953125 3.65625 -2.296875 L 3.65625 -7.265625 C 3.65625 -7.609375 3.585938 -7.847656 3.453125 -7.984375 C 3.316406 -8.117188 3.128906 -8.1875 2.890625 -8.1875 Z M 2.046875 -8.1875 "></path>
      </g>
    </g>
  </g>
  <g fill="#ffffff" fill-opacity="1">
    <g transform="translate(16.581751, 11.174522)">
      <g>
        <path d="M 2.140625 1.140625 L 1.125 0.609375 L 3.75 -6.484375 L 4.46875 -6.109375 L 2.21875 -0.078125 L 5.984375 -5.296875 L 6.703125 -4.921875 L 4.421875 1.09375 L 8.1875 -4.125 L 8.828125 -3.78125 L 4.390625 2.34375 L 3.421875 1.828125 L 5.171875 -3.015625 Z M 2.140625 1.140625 "></path>
      </g>
    </g>
  </g>
  <g fill="#ffffff" fill-opacity="1">
    <g transform="translate(22.094217, 14.116107)">
      <g>
        <path d="M 1.84375 -0.734375 L 0.875 0.46875 L 0.1875 0.109375 L 5 -5.828125 L 6.046875 -5.265625 L 3.796875 2.015625 L 3.0625 1.640625 L 3.515625 0.15625 Z M 2.265625 -1.328125 L 3.75 -0.53125 L 5.03125 -4.765625 Z M 2.265625 -1.328125 "></path>
      </g>
    </g>
  </g>
  <g fill="#ffffff" fill-opacity="1">
    <g transform="translate(26.084372, 16.245351)">
      <g>
        <path d="M 5.375 -5.71875 C 5.882812 -5.445312 6.175781 -5.09375 6.25 -4.65625 C 6.332031 -4.226562 6.238281 -3.757812 5.96875 -3.25 L 5.671875 -2.6875 L 4.984375 -3.0625 L 5.3125 -3.671875 C 5.46875 -3.972656 5.523438 -4.238281 5.484375 -4.46875 C 5.453125 -4.707031 5.296875 -4.898438 5.015625 -5.046875 C 4.765625 -5.179688 4.53125 -5.195312 4.3125 -5.09375 C 4.09375 -5 3.90625 -4.800781 3.75 -4.5 L 1.875 -1 C 1.71875 -0.695312 1.660156 -0.425781 1.703125 -0.1875 C 1.742188 0.0390625 1.890625 0.222656 2.140625 0.359375 C 2.421875 0.503906 2.664062 0.523438 2.875 0.421875 C 3.09375 0.328125 3.28125 0.128906 3.4375 -0.171875 L 4.140625 -1.484375 L 3.453125 -1.859375 L 3.8125 -2.53125 L 5.1875 -1.78125 L 4.15625 0.171875 C 3.882812 0.671875 3.546875 1.003906 3.140625 1.171875 C 2.742188 1.347656 2.289062 1.300781 1.78125 1.03125 C 1.269531 0.757812 0.972656 0.410156 0.890625 -0.015625 C 0.804688 -0.453125 0.898438 -0.921875 1.171875 -1.421875 L 2.984375 -4.84375 C 3.128906 -5.101562 3.285156 -5.316406 3.453125 -5.484375 C 3.617188 -5.660156 3.800781 -5.785156 4 -5.859375 C 4.207031 -5.941406 4.425781 -5.972656 4.65625 -5.953125 C 4.882812 -5.929688 5.125 -5.851562 5.375 -5.71875 Z M 5.375 -5.71875 "></path>
      </g>
    </g>
  </g>
  <g fill="#ffffff" fill-opacity="1">
    <g transform="translate(29.705772, 18.177818)">
      <g>
        <path d="M 5.375 -5.71875 C 5.882812 -5.445312 6.175781 -5.09375 6.25 -4.65625 C 6.332031 -4.226562 6.238281 -3.757812 5.96875 -3.25 L 5.671875 -2.6875 L 4.984375 -3.0625 L 5.3125 -3.671875 C 5.46875 -3.972656 5.523438 -4.238281 5.484375 -4.46875 C 5.453125 -4.707031 5.296875 -4.898438 5.015625 -5.046875 C 4.765625 -5.179688 4.53125 -5.195312 4.3125 -5.09375 C 4.09375 -5 3.90625 -4.800781 3.75 -4.5 L 1.875 -1 C 1.71875 -0.695312 1.660156 -0.425781 1.703125 -0.1875 C 1.742188 0.0390625 1.890625 0.222656 2.140625 0.359375 C 2.421875 0.503906 2.664062 0.523438 2.875 0.421875 C 3.09375 0.328125 3.28125 0.128906 3.4375 -0.171875 L 4.140625 -1.484375 L 3.453125 -1.859375 L 3.8125 -2.53125 L 5.1875 -1.78125 L 4.15625 0.171875 C 3.882812 0.671875 3.546875 1.003906 3.140625 1.171875 C 2.742188 1.347656 2.289062 1.300781 1.78125 1.03125 C 1.269531 0.757812 0.972656 0.410156 0.890625 -0.015625 C 0.804688 -0.453125 0.898438 -0.921875 1.171875 -1.421875 L 2.984375 -4.84375 C 3.128906 -5.101562 3.285156 -5.316406 3.453125 -5.484375 C 3.617188 -5.660156 3.800781 -5.785156 4 -5.859375 C 4.207031 -5.941406 4.425781 -5.972656 4.65625 -5.953125 C 4.882812 -5.929688 5.125 -5.851562 5.375 -5.71875 Z M 5.375 -5.71875 "></path>
      </g>
    </g>
  </g>
  <g fill="#ffffff" fill-opacity="1">
    <g transform="translate(33.327173, 20.110285)">
      <g>
        <path d="M 4.640625 -6.015625 L 1.109375 0.59375 L 0.375 0.203125 L 3.90625 -6.40625 Z M 4.640625 -6.015625 "></path>
      </g>
    </g>
  </g>
  <g fill="#ffffff" fill-opacity="1">
    <g transform="translate(34.821121, 20.907492)">
      <g>
        <path d="M 1.03125 0.546875 L 0.375 0.203125 L 3.90625 -6.40625 L 4.84375 -5.90625 L 3.828125 -0.3125 L 6.375 -5.09375 L 7.015625 -4.75 L 3.484375 1.859375 L 2.734375 1.453125 L 3.890625 -4.796875 Z M 1.03125 0.546875 "></path>
      </g>
    </g>
  </g>
  <g fill="#ffffff" fill-opacity="1">
    <g transform="translate(38.688361, 22.971145)">
      <g>
        <path d="M 5.375 -5.71875 C 5.882812 -5.445312 6.175781 -5.09375 6.25 -4.65625 C 6.332031 -4.226562 6.238281 -3.757812 5.96875 -3.25 L 5.671875 -2.6875 L 4.984375 -3.0625 L 5.3125 -3.671875 C 5.46875 -3.972656 5.523438 -4.238281 5.484375 -4.46875 C 5.453125 -4.707031 5.296875 -4.898438 5.015625 -5.046875 C 4.765625 -5.179688 4.53125 -5.195312 4.3125 -5.09375 C 4.09375 -5 3.90625 -4.800781 3.75 -4.5 L 1.875 -1 C 1.71875 -0.695312 1.660156 -0.425781 1.703125 -0.1875 C 1.742188 0.0390625 1.890625 0.222656 2.140625 0.359375 C 2.421875 0.503906 2.664062 0.523438 2.875 0.421875 C 3.09375 0.328125 3.28125 0.128906 3.4375 -0.171875 L 4.140625 -1.484375 L 3.453125 -1.859375 L 3.8125 -2.53125 L 5.1875 -1.78125 L 4.15625 0.171875 C 3.882812 0.671875 3.546875 1.003906 3.140625 1.171875 C 2.742188 1.347656 2.289062 1.300781 1.78125 1.03125 C 1.269531 0.757812 0.972656 0.410156 0.890625 -0.015625 C 0.804688 -0.453125 0.898438 -0.921875 1.171875 -1.421875 L 2.984375 -4.84375 C 3.128906 -5.101562 3.285156 -5.316406 3.453125 -5.484375 C 3.617188 -5.660156 3.800781 -5.785156 4 -5.859375 C 4.207031 -5.941406 4.425781 -5.972656 4.65625 -5.953125 C 4.882812 -5.929688 5.125 -5.851562 5.375 -5.71875 Z M 5.375 -5.71875 "></path>
      </g>
    </g>
  </g>
  <g fill="#ffffff" fill-opacity="1">
    <g transform="translate(42.309762, 24.903612)">
      <g>
        <path d="M 0.375 0.203125 L 3.90625 -6.40625 L 4.640625 -6.015625 L 1.46875 -0.078125 L 3.359375 0.9375 L 3 1.609375 Z M 0.375 0.203125 "></path>
      </g>
    </g>
  </g>
  <g fill="#ffffff" fill-opacity="1">
    <g transform="translate(45.496211, 26.603978)">
      <g>
        <path d="M 2.828125 -1.546875 L 3.6875 -6.53125 L 4.453125 -6.109375 L 3.734375 -2.328125 L 6.515625 -5.015625 L 7.21875 -4.640625 L 3.546875 -1.15625 L 2.28125 1.21875 L 1.5625 0.828125 Z M 2.828125 -1.546875 "></path>
      </g>
    </g>
  </g>
  <g clip-path="url(#e4df957074)">
    <path fill="#ffa2b6" d="M 48.019531 3.027344 C 47.9375 3.699219 47.65625 4.4375 47.511719 4.800781 C 47.128906 5.765625 46.667969 6.695312 46.136719 7.585938 C 45.984375 7.84375 45.757812 8.132812 45.464844 8.097656 C 45.3125 8.085938 45.175781 7.988281 45.054688 7.890625 C 43.832031 6.929688 42.613281 5.890625 41.863281 4.523438 C 41.640625 4.121094 41.457031 3.652344 41.597656 3.214844 C 41.804688 2.558594 42.667969 2.320312 43.308594 2.554688 C 43.949219 2.789062 44.40625 3.355469 44.8125 3.902344 C 45.054688 3.113281 45.585938 2.417969 46.273438 1.972656 C 46.574219 1.777344 46.925781 1.628906 47.277344 1.671875 C 47.96875 1.746094 48.097656 2.351562 48.019531 3.027344 Z M 39.804688 7.421875 C 40.175781 7.804688 40.492188 8.351562 40.644531 8.621094 C 41.046875 9.339844 41.390625 10.089844 41.667969 10.859375 C 41.75 11.085938 41.816406 11.367188 41.652344 11.535156 C 41.566406 11.628906 41.441406 11.660156 41.320312 11.6875 C 40.117188 11.96875 38.871094 12.210938 37.660156 12 C 37.304688 11.9375 36.925781 11.820312 36.722656 11.515625 C 36.421875 11.058594 36.703125 10.40625 37.164062 10.121094 C 37.628906 9.835938 38.207031 9.832031 38.742188 9.855469 C 38.378906 9.308594 38.214844 8.636719 38.28125 7.980469 C 38.3125 7.699219 38.394531 7.40625 38.589844 7.207031 C 38.988281 6.816406 39.429688 7.039062 39.804688 7.421875 Z M 48.398438 11.726562 C 48.28125 12.25 48 12.8125 47.859375 13.089844 C 47.484375 13.820312 47.050781 14.519531 46.5625 15.183594 C 46.417969 15.371094 46.222656 15.582031 45.988281 15.539062 C 45.867188 15.515625 45.773438 15.425781 45.683594 15.339844 C 44.789062 14.484375 43.910156 13.566406 43.421875 12.425781 C 43.277344 12.09375 43.167969 11.703125 43.3125 11.371094 C 43.527344 10.871094 44.226562 10.746094 44.714844 10.980469 C 45.203125 11.214844 45.523438 11.699219 45.800781 12.167969 C 46.054688 11.5625 46.519531 11.054688 47.105469 10.757812 C 47.355469 10.625 47.640625 10.535156 47.917969 10.59375 C 48.457031 10.710938 48.511719 11.199219 48.398438 11.726562 Z M 53.890625 7.085938 C 53.773438 7.609375 53.492188 8.171875 53.355469 8.445312 C 52.976562 9.175781 52.542969 9.875 52.054688 10.539062 C 51.910156 10.730469 51.714844 10.941406 51.480469 10.894531 C 51.359375 10.875 51.265625 10.785156 51.175781 10.699219 C 50.28125 9.839844 49.402344 8.925781 48.914062 7.785156 C 48.769531 7.449219 48.664062 7.0625 48.804688 6.726562 C 49.019531 6.226562 49.71875 6.105469 50.207031 6.339844 C 50.695312 6.574219 51.015625 7.058594 51.292969 7.527344 C 51.546875 6.921875 52.015625 6.414062 52.597656 6.113281 C 52.847656 5.984375 53.132812 5.894531 53.414062 5.953125 C 53.953125 6.066406 54.007812 6.554688 53.890625 7.085938 Z M 53.890625 7.085938 " fill-opacity="1" fill-rule="nonzero"></path>
  </g>
</svg>
